<?xml version="1.0" encoding="utf-8"?>
<!-- Generator: Adobe Illustrator 24.1.1, SVG Export Plug-In . SVG Version: 6.00 Build 0)  -->
<svg version="1.1" id="Layer_1" xmlns="http://www.w3.org/2000/svg" xmlns:xlink="http://www.w3.org/1999/xlink" x="0px" y="0px"
	 viewBox="0 0 512 512" style="enable-background:new 0 0 512 512;" xml:space="preserve">
<style type="text/css">
	.st0{fill-rule:evenodd;clip-rule:evenodd;fill:#AAAAAA;}
</style>
<g id="Layer_2">
</g>
<path class="st0" d="M412,0H100C44.8,0,0,44.8,0,100v312c0,55.2,44.8,100,100,100h312c55.2,0,100-44.8,100-100V100
	C512,44.8,467.2,0,412,0z M255.8,365l-19.1-73.2h-74.7L142.5,365h-40.9L172,120.1V108h53.3L302.1,365H255.8z M381.5,365h-42V174h42
	V365z M359.9,148.6c-13.6,0-24.7-10.9-24.7-24.4c0-13.5,11-24.4,24.7-24.4s24.7,10.9,24.7,24.4C384.6,137.7,373.5,148.6,359.9,148.6
	z"/>
<polygon class="st0" points="226.2,254 172.4,254 199.7,145.4 "/>
</svg>
