<?xml version="1.0" encoding="utf-8"?>
<!-- Generator: Adobe Illustrator 24.1.1, SVG Export Plug-In . SVG Version: 6.00 Build 0)  -->
<svg version="1.1" id="Layer_1" xmlns="http://www.w3.org/2000/svg" xmlns:xlink="http://www.w3.org/1999/xlink" x="0px" y="0px"
	 viewBox="0 0 512 512" style="enable-background:new 0 0 512 512;" xml:space="preserve">
<style type="text/css">
	.st0{fill-rule:evenodd;clip-rule:evenodd;fill:#AAAAAA;}
</style>
<path class="st0" d="M412,0.5H100C44.8,0.5,0,45.3,0,100.5v312C0,464.3,39.5,507,90,512h332c50.5-5,90-47.7,90-99.5v-312
	C512,45.3,467.2,0.5,412,0.5z M156.3,271.1v93.4h-41V106.5c0,0,40-2,73.6-0.9c33.6,1.2,82.9,16.6,82.9,82.6
	C271.7,254.2,211.3,275.8,156.3,271.1z M396,351.8c-14.4,12.8-43.1,17.4-66,15c-17.9-1.9-32.4-10-32.4-10v-42c0,0,14.7,10,31.7,14
	c18.2,4.3,38.8,2,43.2-10.6c8.5-24.4-43.6-33.7-64.5-58.6c-16.2-19.2-17.7-68.2,24.9-84.5c29.6-11.3,67-0.6,73.6,2.3V217
	c-40.4-18.3-68.4-10.1-68.8,3.3c-0.3,10-1,15.5,39.4,35C425.5,278.7,421.6,329.1,396,351.8z"/>
<path class="st0" d="M228.6,188.3c0,21.6-11.5,35.4-29.2,41.9c-10.8,3.9-43.2,3.5-43.2,3.5v-90c0,0,23.4-2.8,42.8,1.9
	C216.9,150,228.6,165.5,228.6,188.3z"/>
<path class="st0" d="M422,512c-3.3,0.3-6.6,0.5-10,0.5H100c-3.4,0-6.7-0.2-10-0.5H422z"/>
</svg>
