<svg xmlns="http://www.w3.org/2000/svg" viewBox="0 0 2043 1595"><defs><style>.cls-1{fill:#f5fcff;stroke:#19191a;stroke-miterlimit:10;stroke-width:4px;}.cls-2{fill:#3a10e5;}.cls-3{fill:#10162f;}</style></defs><g id="boxes"><rect class="cls-1" x="302.38" y="76.35" width="1438.23" height="1442.29" rx="17.92"/></g><g id="text"><path class="cls-2" d="M754.6,390.51c-56.81,0-105-39.77-105-110,0-67,45.75-108.83,105.25-108.83,21.23,0,45.15,3.89,64,20.63l-11.36,30.8c-12.26-10.17-25.11-17-50.23-17-37.07,0-63.39,28.71-63.39,74.75,0,50.24,26.32,76,63.09,76,18.54,0,36.78-4.79,51.43-15.85L819.18,372C797.06,387.81,775.53,390.51,754.6,390.51Z"/><path class="cls-3" d="M912.55,285l1.37,20.47H906.7c-19.11,0-22.62,9.95-22.62,25v55.78H857.17V285h25l2,13.84c6.44-9,13.07-13.84,25.74-13.84Z"/><path class="cls-3" d="M946.48,341c.59,18.53,10.92,27.69,28.47,27.69,12.48,0,23-4.48,29.06-9l7.41,16.58c-8.78,6.83-20.28,11.9-37.44,11.9-35.1,0-54-20.87-54-53.44,0-29.83,18.14-53.62,49.53-53.62,30.81,0,45,24.37,45,51.48V333c0,2.53-.2,5.07-.2,7.6V341ZM990,326.54v-1c0-16.38-7.22-24.57-20.09-24.57-8.77,0-21.84,5.26-23.2,25.54Z"/><path class="cls-3" d="M1060.75,388.17c-18.92,0-32-11.12-32-29.06,0-25.74,17.94-29.84,51.48-34.71l7.21-1.17v-4.68c0-11.9-1-17-14.82-17.55h-1.36c-10,0-26.91,5.46-31.4,7l-5.26-19.31c9.36-4.29,22.23-7.21,39-7.6H1076c23.4,0,38.61,10.92,38.61,32.95v72.16H1093.9l-2.73-10.92C1082.39,382.71,1073.81,388.17,1060.75,388.17Zm26.71-25.75v-24l-7.21,1.17c-15,2.14-27.3,4.48-27.3,18.52,0,7.41,4.09,12.68,12.48,12.68C1074.79,370.81,1080.25,367.3,1087.46,362.42Z"/><path class="cls-3" d="M1168.78,344.29c0,17.16,1,22.62,15.79,22.62.59,0,8.58-.59,8.58-.59l1.56,19.9s-9.94,1.17-15.21,1.17c-31.39,0-37.63-15-37.63-44.66V301.19h-17.55l1.56-16.18h16l6.63-36.86h20.28V285h25v16.18h-25Z"/><path class="cls-3" d="M1236.05,341c.59,18.53,10.92,27.69,28.47,27.69,12.48,0,23-4.48,29.06-9l7.41,16.58c-8.78,6.83-20.28,11.9-37.44,11.9-35.1,0-54-20.87-54-53.44,0-29.83,18.14-53.62,49.53-53.62,30.81,0,45,24.37,45,51.48V333c0,2.53-.2,5.07-.2,7.6V341Zm43.49-14.43v-1c0-16.38-7.22-24.57-20.09-24.57-8.77,0-21.84,5.26-23.2,25.54Z"/><path class="cls-3" d="M883.89,669.64c.58,18.53,10.92,27.69,28.47,27.69,12.48,0,23-4.48,29.06-9l7.41,16.58c-8.78,6.82-20.28,11.89-37.45,11.89-35.1,0-54-20.86-54-53.43,0-29.83,18.13-53.62,49.53-53.62,30.81,0,45.05,24.37,45.05,51.48v.39c0,2.53-.2,5.07-.2,7.6v.39Zm43.49-14.43v-1c0-16.38-7.22-24.57-20.09-24.57-8.78,0-21.84,5.26-23.21,25.54Z"/><path class="cls-3" d="M998.16,716.83c-18.92,0-32-11.11-32-29.05,0-25.74,18-29.84,51.49-34.71l7.21-1.17v-4.68c0-11.9-1-17-14.82-17.55h-1.36c-10,0-26.91,5.46-31.4,7L972,617.38c9.36-4.29,22.23-7.21,39-7.6h2.34c23.4,0,38.61,10.92,38.61,33v72.15h-20.67L1028.58,704C1019.8,711.37,1011.22,716.83,998.16,716.83Zm26.71-25.74v-24l-7.21,1.17c-15,2.14-27.3,4.48-27.3,18.52,0,7.41,4.09,12.68,12.48,12.68C1012.2,699.48,1017.66,696,1024.87,691.09Z"/><path class="cls-3" d="M1146,700.65c-4.88,9.16-14,16.18-28.87,16.18h-1.36c-29.25-.58-45-23.59-45-54,0-28.47,16.19-53,45.83-53,17.16,0,25.74,8,29.45,15.4V572.33h26.91V714.88h-26.33Zm.39-37c0-25.74-12.48-33.93-24.58-33.93-11.89,0-25.15,6.82-25.15,33.93,0,25.74,13.06,33.34,25.15,33.34C1134.26,696.94,1146.36,689.73,1146.36,663.6Z"/><path class="cls-3" d="M891.49,951.08c6-12.87,16.58-17.35,30-17.35,31,0,46,26.71,46,53,0,28.86-15.6,53.82-45,54h-.58c-14,0-23.6-4.49-29.84-14.43v48.75l-26.91,2.73V937.63h24.37Zm50.12,36.47c0-27.11-13.06-33.93-25-33.93-12.09,0-24.77,8.19-24.77,33.93,0,26.13,12.68,33.35,25.55,33.35C929.52,1020.9,941.61,1012.71,941.61,987.55Z"/><path class="cls-3" d="M1058,1024.6c-4.88,9.17-14,16.19-28.87,16.19h-1.36c-29.25-.59-45-23.6-45-54,0-28.47,16.19-53,45.83-53,17.16,0,25.74,8,29.45,15.4V896.29h26.91v142.55h-26.33Zm.39-37c0-25.74-12.49-33.93-24.58-33.93-11.89,0-25.15,6.82-25.15,33.93,0,25.74,13.06,33.35,25.15,33.35C1046.32,1020.9,1058.42,1013.68,1058.42,987.55Z"/><path class="cls-3" d="M1135.83,1040.79c-18.92,0-32-11.12-32-29.06,0-25.74,17.94-29.84,51.48-34.71l7.21-1.17v-4.68c0-11.9-1-17-14.82-17.55h-1.36c-9.95,0-26.91,5.46-31.4,7l-5.26-19.31c9.36-4.29,22.23-7.21,39-7.6H1151c23.4,0,38.61,10.92,38.61,32.95v72.16H1169l-2.73-10.92C1157.47,1035.33,1148.89,1040.79,1135.83,1040.79Zm26.71-25.74v-24l-7.21,1.17c-15,2.15-27.3,4.49-27.3,18.53,0,7.41,4.09,12.67,12.48,12.67C1149.87,1023.43,1155.33,1019.92,1162.54,1015.05Z"/><path class="cls-3" d="M1243.86,996.91c0,17.16,1,22.62,15.79,22.62.59,0,8.58-.58,8.58-.58l1.56,19.89s-9.94,1.17-15.21,1.17c-31.4,0-37.64-15-37.64-44.66V953.81h-17.55l1.56-16.18h16l6.63-36.86h20.29v36.86h25v16.18h-25Z"/><path class="cls-3" d="M1311.13,993.59c.59,18.53,10.92,27.7,28.47,27.7,12.48,0,23-4.49,29.06-9l7.41,16.57c-8.78,6.83-20.28,11.9-37.44,11.9-35.11,0-54-20.87-54-53.44,0-29.83,18.13-53.62,49.53-53.62,30.81,0,45,24.37,45,51.48v.39c0,2.53-.2,5.07-.2,7.6v.39Zm43.49-14.43v-1c0-16.38-7.22-24.57-20.09-24.57-8.77,0-21.84,5.26-23.21,25.54Z"/><path class="cls-3" d="M891.69,1319.16c.58,18.52,10.92,27.69,28.47,27.69,12.48,0,23-4.49,29.06-9l7.41,16.57c-8.78,6.83-20.28,11.9-37.45,11.9-35.1,0-54-20.87-54-53.43,0-29.84,18.13-53.63,49.53-53.63,30.81,0,45,24.38,45,51.48v.39c0,2.54-.2,5.07-.2,7.61v.39Zm43.49-14.43v-1c0-16.38-7.22-24.57-20.09-24.57-8.78,0-21.84,5.27-23.21,25.55Z"/><path class="cls-3" d="M1005.76,1324.81c0,15.41,1.37,20.67,15.8,20.67,4.87,0,5.65-.39,5.65-.39l1.17,19.31a71.27,71.27,0,0,1-14,1.17c-30.61,0-35.49-18.53-35.49-44.46V1223.6l26.91-1.75Z"/><path class="cls-3" d="M1065.43,1319.16c.58,18.52,10.92,27.69,28.47,27.69,12.48,0,23-4.49,29.06-9l7.41,16.57c-8.78,6.83-20.28,11.9-37.44,11.9-35.11,0-54-20.87-54-53.43,0-29.84,18.13-53.63,49.53-53.63,30.81,0,45,24.38,45,51.48v.39c0,2.54-.2,5.07-.2,7.61v.39Zm43.49-14.43v-1c0-16.38-7.22-24.57-20.09-24.57-8.77,0-21.84,5.27-23.21,25.55Z"/><path class="cls-3" d="M1183,1322.47c0,17.16,1,22.62,15.8,22.62.58,0,8.58-.58,8.58-.58l1.56,19.89s-10,1.17-15.21,1.17c-31.4,0-37.64-15-37.64-44.66v-41.53h-17.55l1.56-16.19h16l6.63-36.86H1183v36.86h25v16.19h-25Z"/><path class="cls-3" d="M1250.29,1319.16c.58,18.52,10.92,27.69,28.47,27.69,12.48,0,23-4.49,29-9l7.41,16.57c-8.77,6.83-20.28,11.9-37.44,11.9-35.1,0-54-20.87-54-53.43,0-29.84,18.13-53.63,49.53-53.63,30.81,0,45,24.38,45,51.48v.39c0,2.54-.19,5.07-.19,7.61v.39Zm43.48-14.43v-1c0-16.38-7.21-24.57-20.08-24.57-8.78,0-21.84,5.27-23.21,25.55Z"/><path class="cls-2" d="M780.91,619.22c9,10.46,13.76,20.63,20.33,34.08l29.9,61H785.4l-23-50.24c-5.38-11.36-18.53-36.47-18.53-36.47-6.28-.6-43.36-.6-43.36-.6V714.3H656.83V503.2h81.33c49.33,0,80.43,11.07,80.43,60.1C818.59,592.9,805.13,610.25,780.91,619.22ZM740.25,534.9H700.48v61.29h38.87c27.21,0,38.87-9.27,38.87-32.29C778.22,543.57,765.07,534.9,740.25,534.9Z"/><path class="cls-2" d="M783,960.35V830h43.36V962.44c0,52.62-27.81,81.63-85.81,81.63s-85.81-29-85.81-81.63V830h43.65V960.35c0,35,10.16,50.23,42.16,50.23S783,995.33,783,960.35Z"/><path class="cls-2" d="M727.09,1367.86H656.83V1156.77h57.11c79.23,0,133,28.7,133,106.14C847,1331.68,798,1367.86,727.09,1367.86Zm-9.86-178.21H700.48v145.62h29.3c47.54,0,73.86-25.42,73.86-71.76C803.64,1207.89,774.93,1189.65,717.23,1189.65Z"/></g></svg>