<svg xmlns="http://www.w3.org/2000/svg" viewBox="0 0 2043 1595"><defs><style>.cls-1{fill:#141c3a;stroke:#141c3a;}.cls-1,.cls-10,.cls-11,.cls-12,.cls-13,.cls-14,.cls-15,.cls-2,.cls-4,.cls-5,.cls-6,.cls-7,.cls-8{stroke-miterlimit:10;}.cls-13,.cls-2,.cls-9{fill:#fff;}.cls-12,.cls-13,.cls-2,.cls-4,.cls-5,.cls-7,.cls-8{stroke:#000;}.cls-12,.cls-2,.cls-5,.cls-6,.cls-7,.cls-8{stroke-width:3px;}.cls-3{fill:#ffd300;}.cls-4{stroke-width:3.13px;}.cls-5{fill:#dddce0;}.cls-12,.cls-14,.cls-15,.cls-6{fill:none;}.cls-14,.cls-6{stroke:#fff;}.cls-12,.cls-6{stroke-linecap:round;}.cls-7{fill:#f966ff;}.cls-8{fill:#e772f8;}.cls-10{fill:#ff8c00;stroke:#ff8c00;}.cls-11{fill:#66c4ff;stroke:#66c4ff;stroke-width:4px;}.cls-13{stroke-width:2.25px;}.cls-14{stroke-width:2px;}.cls-15{stroke:#aee938;stroke-width:6px;}</style></defs><g id="Layer_1" data-name="Layer 1"><rect class="cls-1" x="-42.5" y="-69.5" width="2158" height="1726"/><rect class="cls-2" x="863.74" y="729.58" width="229.5" height="79.16" rx="39.58"/><path class="cls-3" d="M1389.19,893.74c-1.19-.12-2.4-.18-3.57-.37-3.11-.52-6.19-1.14-9.3-1.64a40.08,40.08,0,0,1-9.74-2.73,30.18,30.18,0,0,1-14.64-12.74,22.61,22.61,0,0,1-3-10.79c-.08-3.7,0-7.41,0-11.11q0-19.14,0-38.27a26,26,0,0,1,7.58-19,25.34,25.34,0,0,1,15.44-7.65,36.1,36.1,0,0,1,3.89-.24c15.18,0,30.36,0,45.55,0a30.52,30.52,0,0,0,19.11-6.84,34,34,0,0,0,12-17.71,31.2,31.2,0,0,0,1.17-8.76V727.7h.81c6.64,0,13.28,0,19.92,0a24.93,24.93,0,0,1,16.29,5.61,31.22,31.22,0,0,1,8,10.32,55.61,55.61,0,0,1,4.31,12.86,132.06,132.06,0,0,1,2.58,14.76c.17,1.55.24,3.12.36,4.67,0,.29.08.57.12.85v6.79c0,.23-.1.46-.12.7-.2,2.2-.34,4.41-.61,6.6a106.39,106.39,0,0,1-3.64,17.76A32.44,32.44,0,0,1,1488.21,827a33.73,33.73,0,0,1-19,5.42h-76.08c-.33,0-.65,0-1,0v9.28h52.46v.71c0,7.75.06,15.5,0,23.25a51.08,51.08,0,0,1-.72,7.81,17.12,17.12,0,0,1-6.44,11.07,30.56,30.56,0,0,1-10.19,4.92,77.29,77.29,0,0,1-13.47,2.71c-4.27.51-8.56.84-12.84,1.22-1.36.12-2.73.17-4.1.26Zm43.69-30.62a9.85,9.85,0,1,0-9.42,10.08A9.88,9.88,0,0,0,1432.88,863.12Z"/><path class="cls-3" d="M1339.91,841.46h-.83c-6.88,0-13.76,0-20.64,0a24.31,24.31,0,0,1-14.77-4.94,30.53,30.53,0,0,1-8.78-11,56.8,56.8,0,0,1-4.32-13A128,128,0,0,1,1288,797.8a82.13,82.13,0,0,1-.25-14.71,110.53,110.53,0,0,1,3.84-21.45c3.19-11.32,10.13-19.31,21.42-23.18a35.4,35.4,0,0,1,11.56-1.73q37.9,0,75.81,0h1v-9.33h-52.48v-.78c0-7.68,0-15.36,0-23a37,37,0,0,1,1.2-10c1.6-5.68,5.39-9.4,10.6-11.84a52.85,52.85,0,0,1,14.71-4.17c4.68-.69,9.39-1.28,14.1-1.69a94.19,94.19,0,0,1,17.45-.15c3.31.33,6.58,1.11,9.87,1.64a41.81,41.81,0,0,1,9,2.35c6.34,2.57,11.61,6.47,15.25,12.36a22.71,22.71,0,0,1,3.49,12c0,16.63.07,33.27,0,49.9a26.16,26.16,0,0,1-21.71,25.48,30.19,30.19,0,0,1-5,.42q-22.46,0-44.91,0a31.18,31.18,0,0,0-19.27,6.4,32.73,32.73,0,0,0-13.77,26.88c-.07,9.1,0,18.2,0,27.29Zm20.78-135.67a9.85,9.85,0,1,0,9.91-9.8A9.9,9.9,0,0,0,1360.69,705.79Z"/><path class="cls-4" d="M1432.88,863.12a9.85,9.85,0,1,1-10.12-9.59A9.89,9.89,0,0,1,1432.88,863.12Z"/><path class="cls-4" d="M1360.69,705.79a9.85,9.85,0,1,1,19.69.14,9.85,9.85,0,0,1-19.69-.14Z"/><rect class="cls-5" x="433.42" y="690.91" width="224.42" height="140.52"/><rect class="cls-5" x="409.09" y="824.45" width="273.09" height="16.29"/><rect class="cls-4" x="447.39" y="708.8" width="197.38" height="105.61"/><line class="cls-6" x1="607.9" y1="773.01" x2="584.29" y2="731.49"/><line class="cls-6" x1="595.47" y1="773.61" x2="575.61" y2="738.83"/><rect class="cls-2" x="524" y="824.89" width="45.06" height="7.42"/><path class="cls-7" d="M1695.79,551.24v66h0c.38,18.54,48.08,33.53,106.87,33.53s106.48-15,106.86-33.53h0v-66Z"/><ellipse class="cls-8" cx="1802.67" cy="552.02" rx="106.87" ry="33.75"/><path class="cls-7" d="M1695.79,486.24v66h0c.38,18.54,48.08,33.53,106.87,33.53s106.48-15,106.86-33.53h0v-66Z"/><ellipse class="cls-8" cx="1802.67" cy="487.02" rx="106.87" ry="33.75"/><path class="cls-7" d="M1695.79,421.24v66h0c.38,18.54,48.08,33.53,106.87,33.53s106.48-15,106.86-33.53h0v-66Z"/><ellipse class="cls-7" cx="1802.67" cy="422.02" rx="106.87" ry="33.75"/><path class="cls-9" d="M414.94,1004h-9.4V975.75h7.64c10.6,0,17.8,3.84,17.8,14.2C431,999.15,424.42,1004,414.94,1004Zm-1.32-23.84h-2.24v19.48h3.92c6.36,0,9.88-3.4,9.88-9.6C425.18,982.59,421.34,980.15,413.62,980.15Z"/><path class="cls-9" d="M441.18,1002.39c0,6.28-1.08,9.44-8.32,9.44h-1.19l-.57-4.08h1.16c3,0,3.4-.88,3.4-4.12v-20.4h5.52Zm0-22.72h-5.52v-4.56h5.52Z"/><path class="cls-9" d="M451.06,1004.39c-3.88,0-6.56-2.28-6.56-6,0-5.28,3.68-6.12,10.56-7.12l1.48-.24v-1c0-2.44-.2-3.48-3-3.6h-.28a25.83,25.83,0,0,0-6.44,1.44l-1.08-4a20.47,20.47,0,0,1,8-1.56h.48c4.8,0,7.92,2.24,7.92,6.76V1004h-4.24l-.56-2.24A9.1,9.1,0,0,1,451.06,1004.39Zm5.48-5.28v-4.92l-1.48.24c-3.08.44-5.6.92-5.6,3.8a2.37,2.37,0,0,0,2.56,2.6A7.35,7.35,0,0,0,456.54,999.11Z"/><path class="cls-9" d="M476.66,986.51a6.4,6.4,0,0,0-5.08,3.32V1004H466V983.23h4.64l.44,2.76a9.69,9.69,0,0,1,7.36-3.56c5,.08,7.2,3.8,7.2,8.92V1004H480.1V991.87C480.1,989,479.94,986.51,476.66,986.51Z"/><path class="cls-9" d="M494.38,1013.51l-.4-4.28h2.2c5.92,0,8.16,0,8.16-6.36v-1.68c-1,1.48-2.56,2.8-5.92,2.8-5.32,0-9.68-3.92-9.68-10.72,0-7.2,4.8-10.84,9.36-10.84h0c3.2,0,5.08,1.24,6.2,2.84v-2h5.52v19.48c0,7.52-2.88,10.8-12.8,10.8Zm5.08-13.56c3,0,5.12-2.52,5.12-6.64s-2.2-6.76-5.12-6.8h-.12c-3.48,0-5.28,2.64-5.28,6.8,0,3.92,2.2,6.64,5.24,6.64Z"/><path class="cls-9" d="M533.54,993.47c0,6.32-3.48,10.92-10.24,10.92s-10.24-4.6-10.24-10.92,3.48-11,10.24-11S533.54,987,533.54,993.47Zm-5.28,0c0-4.64-2-7-5-7s-4.92,2.32-4.92,7,2,6.88,4.92,6.88S528.26,998,528.26,993.47Z"/><path class="cls-9" d="M550.9,986c1.24-2.64,3.4-3.56,6.16-3.56,6.36,0,9.44,5.48,9.44,10.88,0,5.92-3.2,11-9.24,11.08h-.12c-2.88,0-4.84-.92-6.12-3v10l-5.52.56V983.23h5Zm10.28,7.48c0-5.56-2.68-7-5.12-7s-5.08,1.68-5.08,7,2.6,6.84,5.24,6.84C558.7,1000.31,561.18,998.63,561.18,993.47Z"/><path class="cls-9" d="M581.1,983.23l.28,4.2H579.9c-3.92,0-4.64,2-4.64,5.12V1004h-5.52V983.23h5.12l.4,2.84a5.79,5.79,0,0,1,5.28-2.84Z"/><path class="cls-9" d="M602.5,993.47c0,6.32-3.48,10.92-10.24,10.92S582,999.79,582,993.47s3.48-11,10.24-11S602.5,987,602.5,993.47Zm-5.28,0c0-4.64-2-7-5-7s-4.92,2.32-4.92,7,2,6.88,4.92,6.88S597.22,998,597.22,993.47Z"/><path class="cls-9" d="M612.54,1002.39c0,6.28-1.08,9.44-8.32,9.44H603l-.56-4.08h1.16c3,0,3.4-.88,3.4-4.12v-20.4h5.52Zm0-22.72H607v-4.56h5.52Z"/><path class="cls-9" d="M621.22,994.71c.12,3.8,2.24,5.68,5.84,5.68a10.32,10.32,0,0,0,6-1.84l1.52,3.4a11.88,11.88,0,0,1-7.68,2.44c-7.2,0-11.08-4.28-11.08-11,0-6.12,3.72-11,10.16-11s9.24,5,9.24,10.56v.08c0,.52,0,1,0,1.56v.08Zm8.92-3v-.2c0-3.36-1.48-5-4.12-5-1.8,0-4.48,1.08-4.76,5.24Z"/><path class="cls-9" d="M653.1,998.83l1,3.72a9.86,9.86,0,0,1-6,1.84H648c-6.08,0-10.6-3.64-10.6-11.24,0-7.24,5-10.72,10.2-10.72h.16a9.55,9.55,0,0,1,6.12,1.88L653,988a9.4,9.4,0,0,0-4.72-1.48c-3.08,0-5.56,2-5.56,6.84,0,5,2.28,7,5.68,7A8.16,8.16,0,0,0,653.1,998.83Z"/><path class="cls-9" d="M663.18,995.39c0,3.52.2,4.64,3.24,4.64l1.76-.12.32,4.08s-2,.24-3.12.24c-6.44,0-7.72-3.08-7.72-9.16v-8.52h-3.6l.32-3.32h3.28l1.36-7.56h4.16v7.56h5.12v3.32h-5.12Z"/><path class="cls-10" d="M1691.44,1057.65v6.92l-39.92-19.5v-4.61l40.07-20.07v7L1661,1042.73Z"/><path class="cls-10" d="M1717.56,1072h-7.3v-58.24h7.3v24.84H1740v-24.84h7.31V1072H1740v-27.42h-22.46Z"/><path class="cls-10" d="M1798.5,1013.75v5.7h-16.57V1072h-7.3v-52.54h-16.56v-5.7Z"/><path class="cls-10" d="M1817.09,1023.94v48h-7.27v-58.24h10l8.32,26.91,8.32-26.91h9.73V1072h-7.07v-48l-6.91,22.81H1824Z"/><path class="cls-10" d="M1872.75,1066.28h22.5l-.39,5.71h-29.41v-58.24h7.3Z"/><path class="cls-10" d="M1909.39,1026.87v-6.48l39.84,20.58v3.71l-40.08,19v-6.53l30.51-14.57Z"/><path class="cls-9" d="M961.65,993.19V975.75h5.8v17.72c0,7-3.72,10.92-11.48,10.92s-11.48-3.88-11.48-10.92V975.75h5.84v17.44c0,4.68,1.36,6.72,5.64,6.72S961.65,997.87,961.65,993.19Z"/><path class="cls-9" d="M988.49,991.27a19.67,19.67,0,0,1,2.72,4.56l4,8.16h-6.12L986,997.27c-.72-1.52-2.48-4.88-2.48-4.88-.84-.08-5.8-.08-5.8-.08V1004h-5.84V975.75h10.88c6.6,0,10.76,1.48,10.76,8C993.53,987.75,991.73,990.07,988.49,991.27ZM983.05,980h-5.32v8.2h5.2c3.64,0,5.2-1.24,5.2-4.32C988.13,981.15,986.37,980,983.05,980Z"/><path class="cls-9" d="M1014.65,999.75l-.32,4.24h-17V975.75h5.84v24Z"/><path class="cls-9" d="M1362,1004l-10.72-28.24h5.8l7.56,21.24,7.2-21.24h5.64L1367.14,1004Z"/><path class="cls-9" d="M1385.26,979.67h-5.56v-4.56h5.56Zm0,24.32h-5.52V983.23h5.52Z"/><path class="cls-9" d="M1394.18,994.71c.12,3.8,2.24,5.68,5.84,5.68a10.26,10.26,0,0,0,6-1.84l1.53,3.4a11.9,11.9,0,0,1-7.68,2.44c-7.2,0-11.08-4.28-11.08-11,0-6.12,3.72-11,10.16-11s9.23,5,9.23,10.56v.08c0,.52,0,1,0,1.56v.08Zm8.92-3v-.2c0-3.36-1.48-5-4.12-5-1.8,0-4.48,1.08-4.76,5.24Z"/><path class="cls-9" d="M1436.65,983.23h5.48l-7.56,20.76H1430l-4.35-15-5.28,15h-4.56l-6.6-20.76h5.52l3.72,13.32,4.91-13.32h4.8l4.16,13.24Z"/><path class="cls-9" d="M1726,1185.49h-5.8v-24H1712v-4.28h22.32v4.28H1726Z"/><path class="cls-9" d="M1740.44,1176.21c.12,3.8,2.24,5.68,5.84,5.68a10.32,10.32,0,0,0,6-1.84l1.52,3.4a11.88,11.88,0,0,1-7.68,2.44c-7.2,0-11.08-4.28-11.08-11,0-6.12,3.72-11,10.16-11s9.24,5,9.24,10.56v.08c0,.52,0,1,0,1.56v.08Zm8.92-3v-.2c0-3.36-1.48-5-4.12-5-1.8,0-4.48,1.08-4.76,5.24Z"/><path class="cls-9" d="M1762.92,1185.49h-5.52v-20.76h4.68l.44,2.76a9.39,9.39,0,0,1,7-3.56h.24a5.33,5.33,0,0,1,5.36,3.52,9.16,9.16,0,0,1,7.24-3.52h.24c5.12,0,6.84,3.84,6.84,8.84v12.72H1784v-11.56c0-4-.32-5.92-2.76-5.92h-.12c-2.6.08-3.92,1.72-4.8,3.32v14.16h-5.52v-11.92c0-3.16-.36-5.56-3.12-5.56-2.4,0-3.88,1.84-4.72,3.28Z"/><path class="cls-9" d="M1798.68,1167.49c1.24-2.64,3.4-3.56,6.16-3.56,6.36,0,9.44,5.48,9.44,10.88,0,5.92-3.2,11-9.24,11.08h-.12c-2.88,0-4.84-.92-6.12-3v10l-5.52.56v-28.76h5ZM1809,1175c0-5.56-2.68-7-5.12-7s-5.08,1.68-5.08,7,2.6,6.84,5.24,6.84C1806.48,1181.81,1809,1180.13,1809,1175Z"/><path class="cls-9" d="M1823.36,1177.37c0,3.16.28,4.24,3.24,4.24a3.87,3.87,0,0,0,1.16-.08l.24,4a14.63,14.63,0,0,1-2.88.24c-6.28,0-7.28-3.8-7.28-9.12v-20l5.52-.36Z"/><path class="cls-9" d="M1836.2,1185.89c-3.88,0-6.56-2.28-6.56-6,0-5.28,3.68-6.12,10.56-7.12l1.48-.24v-1c0-2.44-.2-3.48-3-3.6h-.28a25.83,25.83,0,0,0-6.44,1.44l-1.08-4a20.47,20.47,0,0,1,8-1.56h.48c4.8,0,7.92,2.24,7.92,6.76v14.8H1843l-.56-2.24A9.1,9.1,0,0,1,1836.2,1185.89Zm5.48-5.28v-4.92l-1.48.24c-3.08.44-5.6.92-5.6,3.8a2.37,2.37,0,0,0,2.56,2.6A7.35,7.35,0,0,0,1841.68,1180.61Z"/><path class="cls-9" d="M1857.76,1176.89c0,3.52.2,4.64,3.24,4.64l1.76-.12.32,4.08s-2,.24-3.12.24c-6.44,0-7.72-3.08-7.72-9.16v-8.52h-3.6l.32-3.32h3.28l1.36-7.56h4.16v7.56h5.12v3.32h-5.12Z"/><path class="cls-9" d="M1871,1176.21c.12,3.8,2.24,5.68,5.84,5.68a10.32,10.32,0,0,0,6-1.84l1.52,3.4a11.88,11.88,0,0,1-7.68,2.44c-7.2,0-11.08-4.28-11.08-11,0-6.12,3.72-11,10.16-11s9.24,5,9.24,10.56v.08c0,.52,0,1,0,1.56v.08Zm8.92-3v-.2c0-3.36-1.48-5-4.12-5-1.8,0-4.48,1.08-4.76,5.24Z"/><line class="cls-11" x1="1625.79" y1="991.12" x2="1546.11" y2="911.43"/><polygon class="cls-11" points="1529.99 895.81 1538.68 928.21 1562.4 904.49 1529.99 895.81"/><line class="cls-11" x1="1567.12" y1="858.68" x2="1646.59" y2="938.58"/><polygon class="cls-11" points="1662.67 954.25 1654.07 921.82 1630.29 945.48 1662.67 954.25"/><line class="cls-11" x1="1662.55" y1="604.56" x2="1582.86" y2="684.25"/><polygon class="cls-11" points="1567.24 700.36 1599.64 691.68 1575.92 667.96 1567.24 700.36"/><line class="cls-11" x1="1530.24" y1="663.36" x2="1609.93" y2="583.68"/><polygon class="cls-11" points="1625.55 567.56 1593.15 576.25 1616.87 599.97 1625.55 567.56"/><line class="cls-11" x1="729.17" y1="747.26" x2="788.73" y2="747.26"/><polygon class="cls-11" points="811.17 747.61 782.12 764.38 782.12 730.84 811.17 747.61"/><line class="cls-11" x1="811.17" y1="802.26" x2="751.62" y2="802.26"/><polygon class="cls-11" points="729.17 802.61 758.23 819.38 758.23 785.84 729.17 802.61"/><line class="cls-11" x1="1144.17" y1="747.26" x2="1203.73" y2="747.26"/><polygon class="cls-11" points="1226.17 747.61 1197.12 764.38 1197.12 730.84 1226.17 747.61"/><line class="cls-11" x1="1226.17" y1="802.26" x2="1166.62" y2="802.26"/><polygon class="cls-11" points="1144.17 802.61 1173.23 819.38 1173.23 785.84 1144.17 802.61"/><line class="cls-11" x1="280.17" y1="747.26" x2="339.73" y2="747.26"/><polygon class="cls-11" points="362.18 747.61 333.12 764.38 333.12 730.84 362.18 747.61"/><line class="cls-11" x1="362.17" y1="802.26" x2="302.62" y2="802.26"/><polygon class="cls-11" points="280.18 802.61 309.23 819.38 309.23 785.84 280.18 802.61"/><line class="cls-12" x1="1055.67" y1="790.24" x2="1042.67" y2="777.24"/><circle class="cls-13" cx="1034.17" cy="765.74" r="15"/><rect class="cls-14" x="1669.78" y="1137.74" width="258.84" height="69"/><path class="cls-9" d="M1771.25,739.93,1764,754.45h-4.2l-7.4-14.68v18.72h-5.16V730.25h5.48l9.2,17.8,9.11-17.8h5.4v28.24h-5.2Z"/><path class="cls-9" d="M1800.5,748c0,6.32-3.48,10.92-10.24,10.92S1780,754.29,1780,748s3.48-11,10.24-11S1800.5,741.53,1800.5,748Zm-5.28,0c0-4.64-2-7-5-7s-4.92,2.32-4.92,7,2,6.88,4.92,6.88S1795.22,752.49,1795.22,748Z"/><path class="cls-9" d="M1818.45,755.57a6.25,6.25,0,0,1-5.91,3.32h-.28c-6-.12-9.24-4.84-9.24-11.08,0-5.84,3.32-10.88,9.4-10.88,3.51,0,5.27,1.64,6,3.16V729.25H1824v29.24h-5.4Zm.08-7.6c0-5.28-2.56-7-5-7s-5.16,1.4-5.16,7c0,5.28,2.68,6.84,5.16,6.84S1818.53,753.33,1818.53,748Z"/><path class="cls-9" d="M1832.62,749.21c.12,3.8,2.24,5.68,5.84,5.68a10.31,10.31,0,0,0,6-1.84l1.52,3.4a11.87,11.87,0,0,1-7.67,2.44c-7.2,0-11.08-4.28-11.08-11,0-6.12,3.72-11,10.16-11s9.23,5,9.23,10.56v.08c0,.52,0,1,0,1.56v.08Zm8.92-3v-.2c0-3.36-1.49-5-4.12-5-1.8,0-4.48,1.08-4.76,5.24Z"/><path class="cls-9" d="M1855.42,750.37c0,3.16.28,4.24,3.24,4.24a3.87,3.87,0,0,0,1.16-.08l.23,4a14.45,14.45,0,0,1-2.87.24c-6.28,0-7.28-3.8-7.28-9.12v-20l5.52-.36Z"/><rect class="cls-14" x="1683.67" y="710.74" width="238" height="69"/><rect class="cls-14" x="1321.17" y="956.74" width="152" height="69"/><path class="cls-9" d="M145.34,993.19V975.75h5.8v17.72c0,7-3.72,10.92-11.48,10.92s-11.48-3.88-11.48-10.92V975.75H134v17.44c0,4.68,1.36,6.72,5.64,6.72S145.34,997.87,145.34,993.19Z"/><path class="cls-9" d="M168.26,987.71a14.31,14.31,0,0,0-5.6-1.28c-2.24,0-3.16.56-3.24,1.72-.08,1.44.56,1.8,2.36,2.44l3.2,1.12c2.56.88,5.16,2.76,5.16,6,0,3.52-2.28,6.68-7.16,6.68-3.88,0-6.68-.64-8.72-2.08l1.08-3.6a14.94,14.94,0,0,0,7,1.72c1.56,0,2.8-.6,2.8-2.12,0-1.2-.44-1.64-2-2.24l-3.12-1.16c-3-1.12-5.4-2.64-5.4-6.08,0-4.32,3.2-6.36,7.68-6.36,3,0,5.32.52,7,1.68Z"/><path class="cls-9" d="M177.66,994.71c.12,3.8,2.24,5.68,5.84,5.68a10.32,10.32,0,0,0,6-1.84L191,1002a11.88,11.88,0,0,1-7.68,2.44c-7.2,0-11.08-4.28-11.08-11,0-6.12,3.72-11,10.16-11s9.24,5,9.24,10.56v.08c0,.52,0,1,0,1.56v.08Zm8.92-3v-.2c0-3.36-1.48-5-4.12-5-1.8,0-4.48,1.08-4.76,5.24Z"/><path class="cls-9" d="M206,983.23l.28,4.2h-1.48c-3.92,0-4.64,2-4.64,5.12V1004h-5.52V983.23h5.12l.4,2.84a5.79,5.79,0,0,1,5.28-2.84Z"/><rect class="cls-14" x="89.88" y="956.74" width="152" height="69"/><rect class="cls-14" x="902.49" y="956.74" width="152" height="69"/><rect class="cls-14" x="367.17" y="956.74" width="335" height="69"/><line class="cls-15" x1="160.88" y1="741.27" x2="188.8" y2="738.88"/><line class="cls-15" x1="134.41" y1="723.5" x2="121.83" y2="694.74"/><line class="cls-15" x1="152.42" y1="726.21" x2="167.24" y2="696.9"/><line class="cls-15" x1="122.96" y1="736.85" x2="92.1" y2="724.83"/><line class="cls-15" x1="127.38" y1="753.47" x2="97.37" y2="766.6"/><path d="M146.89,789.5c-.19-.52-.38-1-.56-1.55-5.51-15.06-8.29-22.69-13.82-37.75a11,11,0,0,1,18.77-11,13.26,13.26,0,0,1,1.84,3.39c2.52,6.75,2.25,6.09,4.72,12.85l.3.8a11.15,11.15,0,0,1,17.29,0,11,11,0,0,1,8.64-4.59c3.58-.13,7.24,3.33,9.67,6,.18-.19.35-.35.5-.53a11,11,0,0,1,17.46.46,9.39,9.39,0,0,1,1.24,2.29c3.05,8.36,5.42,14.67,8.33,23.08a81.81,81.81,0,0,1,3.32,14,97.94,97.94,0,0,1,1.32,14.6c0,4.21.16,8.44-.08,12.64a9,9,0,0,1-6.27,8.32q-17.94,6.64-35.91,13.14a9.47,9.47,0,0,1-12.15-5.21,20.24,20.24,0,0,0-7.29-9c-10.86-7.92-21.64-15.95-32.45-23.94a11.91,11.91,0,0,1-1.1-18.28,11.66,11.66,0,0,1,15-.51c.35.29.72.56,1.08.84Zm-2-21q5.15,14.06,10.27,28.11a3.66,3.66,0,0,1,.23,1.69,2.59,2.59,0,0,1-4.26,1.61c-2.91-2.32-5.8-4.68-8.71-7a6.3,6.3,0,0,0-7.87,0,6.62,6.62,0,0,0,.37,10.36c11,8.11,21.95,16.28,33,24.34A22.36,22.36,0,0,1,176.08,838a4.63,4.63,0,0,0,6.09,2.74c4.88-1.88,9.81-3.61,14.73-5.41,6.93-2.54,13.86-5.06,20.79-7.61a4.44,4.44,0,0,0,3-4.41c0-2.14,0-4.28,0-6.42a105.69,105.69,0,0,0-1.42-19.94,78.26,78.26,0,0,0-2.92-12.11c-2.89-8.32-5.2-14.56-8.25-22.83a5.26,5.26,0,0,0-5-3.55,5.44,5.44,0,0,0-5.31,3,5.69,5.69,0,0,0-.25,5c1.25,3.38,1.74,4.73,3,8.12a2.6,2.6,0,0,1-1.47,3.38,2.57,2.57,0,0,1-3.41-1.47c-.16-.37-.3-.75-.44-1.13-1.76-4.81-3.49-9.63-5.29-14.42a6.59,6.59,0,0,0-1.41-2.25,5.68,5.68,0,0,0-7.09-.8,5.76,5.76,0,0,0-2.29,6.88c1.22,3.34,2.4,6.69,3.68,10a2.73,2.73,0,0,1-1.49,3.71,2.67,2.67,0,0,1-3.47-1.86c-.52-1.59-1.14-3.15-1.72-4.73-1.31-3.59-2.6-7.19-3.95-10.77a5.75,5.75,0,0,0-10.69,4.23q2.76,7.59,5.55,15.19a6.75,6.75,0,0,1,.25.76,2.6,2.6,0,0,1-2.22,3,2.67,2.67,0,0,1-3-2l-9.59-26.22c-2.37-6.49-2-5.55-4.41-12a5.7,5.7,0,0,0-9.8-1.55,5.7,5.7,0,0,0-.79,5.88C140.85,757.58,141.48,759.35,144.84,768.55Z"/><path class="cls-9" d="M144.84,768.55c-3.36-9.2-4-11-7.38-20.16a5.7,5.7,0,0,1,.79-5.88,5.7,5.7,0,0,1,9.8,1.55c2.39,6.48,2,5.54,4.41,12l9.59,26.22a2.67,2.67,0,0,0,3,2,2.6,2.6,0,0,0,2.22-3,6.75,6.75,0,0,0-.25-.76q-2.78-7.61-5.55-15.19a5.75,5.75,0,0,1,10.69-4.23c1.35,3.58,2.64,7.18,3.95,10.77.58,1.58,1.2,3.14,1.72,4.73a2.67,2.67,0,0,0,3.47,1.86,2.73,2.73,0,0,0,1.49-3.71c-1.28-3.32-2.46-6.67-3.68-10a5.76,5.76,0,0,1,2.29-6.88,5.68,5.68,0,0,1,7.09.8,6.59,6.59,0,0,1,1.41,2.25c1.8,4.79,3.53,9.61,5.29,14.42.14.38.28.76.44,1.13a2.57,2.57,0,0,0,3.41,1.47,2.6,2.6,0,0,0,1.47-3.38c-1.22-3.39-1.71-4.74-3-8.12a5.69,5.69,0,0,1,.25-5,5.44,5.44,0,0,1,5.31-3,5.26,5.26,0,0,1,5,3.55c3.05,8.27,5.36,14.51,8.25,22.83a78.26,78.26,0,0,1,2.92,12.11c1.16,6.6,2.19,13,2.1,19.69,0,2.14,0,4.29,0,6.43s-1.71,3.94-3.64,4.65c-6.93,2.55-13.86,5.07-20.79,7.61-4.92,1.8-9.85,3.53-14.73,5.41-2.55,1-5.64.61-6.52-1.82a24.55,24.55,0,0,0-8.48-11c-11-8.07-21.31-16.48-32.3-24.59A6.62,6.62,0,0,1,134.5,793c2.17-1.82,5.11-.94,7.44.92,2.92,2.33,6.47,4.45,9.39,6.77,1.64,1.31,3.73-.24,4-2.29a3.66,3.66,0,0,0-.23-1.69Q150,782.59,144.84,768.55Z"/></g></svg>