<svg height="1595" viewBox="0 0 2043 1595" width="2043" xmlns="http://www.w3.org/2000/svg"><g fill="#fff"><path d="m1026.69 734.51h-14.33v39.49h-7.92v-39.5h-14.19v-6.44h36.44z"/><path d="m1039.53 743.6a12 12 0 0 1 9.5-4.36q10.9 0 11.07 12.47v22.29h-7.67v-22c0-2.36-.51-4-1.53-5a6.24 6.24 0 0 0 -4.49-1.47 7.39 7.39 0 0 0 -6.88 4.1v24.37h-7.67v-48.45h7.67z"/><path d="m1082.88 774.64a15.83 15.83 0 0 1 -11.81-4.59q-4.53-4.59-4.53-12.22v-1a20.52 20.52 0 0 1 2-9.13 15 15 0 0 1 5.54-6.27 14.63 14.63 0 0 1 8-2.24q7 0 10.77 4.45t3.81 12.59v3.09h-22.31a10.25 10.25 0 0 0 2.82 6.69 8.48 8.48 0 0 0 6.23 2.46 10.39 10.39 0 0 0 8.59-4.26l4.13 4a13.83 13.83 0 0 1 -5.48 4.75 17.19 17.19 0 0 1 -7.76 1.68zm-.91-29.25a6.46 6.46 0 0 0 -5.1 2.21 11.55 11.55 0 0 0 -2.48 6.16h14.61v-.57a9.3 9.3 0 0 0 -2-5.82 6.39 6.39 0 0 0 -5-1.98z"/><path d="m1148.61 763.44 5.42-23.57h7.48l-9.31 34.13h-6.31l-7.32-23.44-7.19 23.44h-6.31l-9.34-34.14h7.48l5.52 23.32 7-23.32h5.78z"/><path d="m1181.67 774.64a15.83 15.83 0 0 1 -11.81-4.59q-4.53-4.59-4.53-12.22v-1a20.52 20.52 0 0 1 2-9.13 15 15 0 0 1 5.54-6.27 14.63 14.63 0 0 1 8-2.24q7 0 10.77 4.45t3.81 12.59v3.09h-22.31a10.25 10.25 0 0 0 2.82 6.69 8.48 8.48 0 0 0 6.23 2.46 10.39 10.39 0 0 0 8.59-4.26l4.13 4a13.83 13.83 0 0 1 -5.48 4.75 17.19 17.19 0 0 1 -7.76 1.68zm-.91-29.25a6.46 6.46 0 0 0 -5.1 2.21 11.55 11.55 0 0 0 -2.48 6.16h14.61v-.57a9.3 9.3 0 0 0 -2-5.82 6.39 6.39 0 0 0 -5.03-1.98z"/><path d="m1231.27 757.29q0 8-3.55 12.65a11.53 11.53 0 0 1 -9.76 4.7 11.14 11.14 0 0 1 -9.34-4.32l-.38 3.69h-6.94v-48.46h7.7v17.6a11.13 11.13 0 0 1 8.93-3.91 11.71 11.71 0 0 1 9.82 4.64q3.55 4.64 3.56 13zm-7.67-.66q0-5.55-1.95-8.33a6.53 6.53 0 0 0 -5.68-2.78 7.13 7.13 0 0 0 -7 4.36v14.12a7.21 7.21 0 0 0 7.07 4.45 6.45 6.45 0 0 0 5.55-2.69c1.31-1.78 2-4.49 2-8.1z"/><path d="m1256.48 774v-28.45h-5.2v-5.68h5.2v-3.12q0-5.68 3.16-8.77c2.1-2.06 5-3.09 8.83-3.09a18.07 18.07 0 0 1 4.29.56l-.19 6a15 15 0 0 0 -2.93-.25q-5.49 0-5.49 5.64v3h6.94v5.68h-6.94v28.48z"/><path d="m1294.57 746.88a18.89 18.89 0 0 0 -3.13-.26q-5.26 0-7.1 4v23.38h-7.67v-34.13h7.33l.18 3.82a8.66 8.66 0 0 1 7.7-4.45 7.3 7.3 0 0 1 2.72.44z"/><path d="m1318.86 774a11.58 11.58 0 0 1 -.88-3.18 12.92 12.92 0 0 1 -17.36.88 9.42 9.42 0 0 1 -3.25-7.26 9.68 9.68 0 0 1 4.06-8.37q4-2.93 11.59-2.92h4.7v-2.24a6 6 0 0 0 -1.48-4.25 5.88 5.88 0 0 0 -4.51-1.59 6.75 6.75 0 0 0 -4.29 1.31 4 4 0 0 0 -1.67 3.33h-7.67a8.54 8.54 0 0 1 1.86-5.26 12.42 12.42 0 0 1 5.07-3.83 17.83 17.83 0 0 1 7.14-1.39q6 0 9.56 3a10.71 10.71 0 0 1 3.66 8.47v15.39a17.34 17.34 0 0 0 1.3 7.36v.55zm-8.42-5.52a8.76 8.76 0 0 0 4.27-1.1 7.36 7.36 0 0 0 3-3v-6.38h-4.13q-4.26 0-6.4 1.49a4.8 4.8 0 0 0 -2.15 4.19 4.47 4.47 0 0 0 1.47 3.52 5.7 5.7 0 0 0 3.94 1.29z"/><path d="m1340.63 739.87.22 3.57a12.29 12.29 0 0 1 9.85-4.2q6.84 0 9.37 5.24a12.1 12.1 0 0 1 10.47-5.24q5.65 0 8.41 3.13t2.83 9.21v22.42h-7.67v-22.2a6.79 6.79 0 0 0 -1.42-4.76q-1.43-1.51-4.7-1.52a6.43 6.43 0 0 0 -4.28 1.4 7.47 7.47 0 0 0 -2.32 3.68v23.41h-7.66v-22.46q-.16-6-6.16-6a6.75 6.75 0 0 0 -6.53 3.76v24.69h-7.66v-34.13z"/><path d="m1404.68 774.64a15.83 15.83 0 0 1 -11.81-4.59q-4.53-4.59-4.53-12.22v-1a20.52 20.52 0 0 1 2-9.13 15 15 0 0 1 5.54-6.27 14.63 14.63 0 0 1 8-2.24q7 0 10.77 4.45t3.81 12.59v3.09h-22.31a10.25 10.25 0 0 0 2.82 6.69 8.48 8.48 0 0 0 6.23 2.46 10.39 10.39 0 0 0 8.59-4.26l4.13 4a13.87 13.87 0 0 1 -5.47 4.75 17.26 17.26 0 0 1 -7.77 1.68zm-.91-29.25a6.47 6.47 0 0 0 -5.1 2.21 11.46 11.46 0 0 0 -2.47 6.16h14.6v-.57a9.3 9.3 0 0 0 -2-5.82 6.39 6.39 0 0 0 -5.03-1.98z"/><path d="m1454.31 763.44 5.43-23.57h7.48l-9.31 34.13h-6.31l-7.32-23.44-7.19 23.44h-6.31l-9.34-34.14h7.47l5.53 23.32 7-23.32h5.77z"/><path d="m1470.91 756.63a20 20 0 0 1 2-9 14.48 14.48 0 0 1 5.58-6.19 15.77 15.77 0 0 1 8.27-2.16 14.94 14.94 0 0 1 11.22 4.45q4.3 4.45 4.65 11.8v1.8a20.33 20.33 0 0 1 -1.94 9 14.32 14.32 0 0 1 -5.55 6.16 15.87 15.87 0 0 1 -8.35 2.17 14.8 14.8 0 0 1 -11.56-4.81q-4.34-4.82-4.34-12.82zm7.67.66q0 5.26 2.17 8.25a7.09 7.09 0 0 0 6.06 3 7 7 0 0 0 6-3q2.16-3 2.16-8.86 0-5.18-2.23-8.21a7.49 7.49 0 0 0 -12 0c-1.43 1.89-2.16 4.87-2.16 8.82z"/><path d="m1527 746.88a18.77 18.77 0 0 0 -3.12-.26c-3.52 0-5.88 1.35-7.1 4v23.38h-7.67v-34.13h7.32l.19 3.82a8.65 8.65 0 0 1 7.7-4.45 7.25 7.25 0 0 1 2.71.44z"/><path d="m1542.94 759.37-3.4 3.51v11.12h-7.67v-48.45h7.67v28l2.39-3 9.44-10.64h9.21l-12.68 14.19 14 19.91h-8.87z"/><path d="m1584.37 774v-28.45h-5.2v-5.68h5.2v-3.12q0-5.68 3.16-8.77c2.1-2.06 5-3.09 8.83-3.09a18.07 18.07 0 0 1 4.29.56l-.19 6a15 15 0 0 0 -2.93-.25q-5.49 0-5.49 5.64v3h6.96v5.68h-7v28.48z"/><path d="m1603.14 756.63a20.18 20.18 0 0 1 2-9 14.57 14.57 0 0 1 5.59-6.19 15.73 15.73 0 0 1 8.26-2.16 14.94 14.94 0 0 1 11.22 4.45q4.3 4.45 4.65 11.8v1.8a20.33 20.33 0 0 1 -1.94 9 14.4 14.4 0 0 1 -5.56 6.16 15.86 15.86 0 0 1 -8.34 2.17 14.81 14.81 0 0 1 -11.57-4.81q-4.34-4.82-4.34-12.82zm7.67.66q0 5.26 2.18 8.25a7.59 7.59 0 0 0 12.1 0q2.16-3 2.16-8.86a13.62 13.62 0 0 0 -2.22-8.21 7.12 7.12 0 0 0 -6-3 7 7 0 0 0 -6 3c-1.48 1.89-2.22 4.87-2.22 8.82z"/><path d="m1659.25 746.88a18.89 18.89 0 0 0 -3.13-.26q-5.26 0-7.1 4v23.38h-7.67v-34.13h7.32l.19 3.82a8.65 8.65 0 0 1 7.7-4.45 7.3 7.3 0 0 1 2.72.44z"/><path d="m1022.65 834.83q0 7.92-3.6 12.64a12.49 12.49 0 0 1 -18.64 1v16.18h-7.67v-47.23h7.07l.31 3.47a11.24 11.24 0 0 1 9.18-4.1 11.64 11.64 0 0 1 9.8 4.65q3.55 4.65 3.55 12.92zm-7.64-.66a14.3 14.3 0 0 0 -2-8.11 6.62 6.62 0 0 0 -5.82-3 7 7 0 0 0 -6.75 3.89v15.14a7.1 7.1 0 0 0 6.81 4 6.63 6.63 0 0 0 5.73-3q2.02-2.92 2.02-8.92z"/><path d="m1044.17 852.19a15.87 15.87 0 0 1 -11.82-4.59q-4.53-4.59-4.53-12.23v-1a20.41 20.41 0 0 1 2-9.13 15 15 0 0 1 5.53-6.26 14.6 14.6 0 0 1 8-2.24q7 0 10.78 4.44t3.8 12.59v3.1h-22.31a10.3 10.3 0 0 0 2.83 6.68 8.45 8.45 0 0 0 6.23 2.47 10.38 10.38 0 0 0 8.58-4.26l4.14 3.94a13.9 13.9 0 0 1 -5.48 4.75 17.19 17.19 0 0 1 -7.75 1.74zm-.92-29.25a6.42 6.42 0 0 0 -5.09 2.21 11.4 11.4 0 0 0 -2.48 6.15h14.61v-.57a9.32 9.32 0 0 0 -2-5.82 6.43 6.43 0 0 0 -5.04-1.97z"/><path d="m1081.68 824.42a18.77 18.77 0 0 0 -3.12-.25c-3.51 0-5.88 1.34-7.1 4v23.35h-7.67v-34.1h7.32l.19 3.81a8.64 8.64 0 0 1 7.7-4.44 7 7 0 0 1 2.71.44z"/><path d="m1089.86 851.56v-28.46h-5.21v-5.68h5.21v-3.13c0-3.78 1.05-6.71 3.15-8.77s5-3.09 8.84-3.09a17.73 17.73 0 0 1 4.29.57l-.19 6a15 15 0 0 0 -2.94-.25q-5.49 0-5.49 5.65v3h6.94v5.68h-6.94v28.46z"/><path d="m1124.34 852.19a15.83 15.83 0 0 1 -11.81-4.59q-4.53-4.6-4.53-12.23v-1a20.55 20.55 0 0 1 2-9.13 14.94 14.94 0 0 1 5.54-6.26 14.55 14.55 0 0 1 8-2.24q7 0 10.77 4.44t3.81 12.59v3.1h-22.31a10.24 10.24 0 0 0 2.82 6.68 8.45 8.45 0 0 0 6.23 2.47 10.39 10.39 0 0 0 8.59-4.26l4.13 3.94a13.83 13.83 0 0 1 -5.48 4.75 17.19 17.19 0 0 1 -7.76 1.74zm-.91-29.25a6.43 6.43 0 0 0 -5.1 2.21 11.48 11.48 0 0 0 -2.48 6.15h14.61v-.57a9.32 9.32 0 0 0 -2-5.82 6.42 6.42 0 0 0 -5.03-1.97z"/><path d="m1158 846.07a6.91 6.91 0 0 0 4.76-1.68 5.69 5.69 0 0 0 2-4.13h7.24a11.34 11.34 0 0 1 -2 6 13.06 13.06 0 0 1 -5 4.37 15.08 15.08 0 0 1 -6.88 1.61q-7.15 0-11.36-4.64t-4.19-12.81v-.79q0-7.8 4.16-12.48t11.36-4.68a14 14 0 0 1 9.92 3.54 12.74 12.74 0 0 1 4 9.33h-7.23a7 7 0 0 0 -2-4.83 6.46 6.46 0 0 0 -4.78-1.89 6.74 6.74 0 0 0 -5.74 2.7c-1.35 1.79-2 4.52-2.06 8.18v1.23q0 5.57 2 8.29a6.73 6.73 0 0 0 5.8 2.68z"/><path d="m1187.41 809.12v8.3h6v5.68h-6v19a4.18 4.18 0 0 0 .78 2.83 3.56 3.56 0 0 0 2.76.86 11.8 11.8 0 0 0 2.68-.31v5.93a19.08 19.08 0 0 1 -5.05.73q-8.83 0-8.83-9.75v-19.29h-5.62v-5.68h5.62v-8.3z"/><path d="m1199.31 808.55a4 4 0 0 1 1.12-2.93 4.22 4.22 0 0 1 3.2-1.17 4.28 4.28 0 0 1 3.22 1.17 4 4 0 0 1 1.14 2.93 3.94 3.94 0 0 1 -1.14 2.89 4.31 4.31 0 0 1 -3.22 1.15 4.25 4.25 0 0 1 -3.2-1.15 4 4 0 0 1 -1.12-2.89zm8.14 43h-7.67v-34.13h7.67z"/><path d="m1214.36 834.17a20.08 20.08 0 0 1 2-9 14.46 14.46 0 0 1 5.58-6.18 15.77 15.77 0 0 1 8.27-2.16 14.94 14.94 0 0 1 11.22 4.44q4.3 4.46 4.65 11.8v1.8a20.37 20.37 0 0 1 -1.94 9 14.29 14.29 0 0 1 -5.55 6.15 15.87 15.87 0 0 1 -8.35 2.18 14.83 14.83 0 0 1 -11.56-4.81q-4.34-4.82-4.34-12.83zm7.67.66q0 5.28 2.17 8.25a7.09 7.09 0 0 0 6.06 3 7 7 0 0 0 6-3q2.17-3 2.17-8.87a13.59 13.59 0 0 0 -2.23-8.2 7.1 7.1 0 0 0 -6-3 7 7 0 0 0 -6 3c-1.44 1.9-2.2 4.87-2.2 8.82z"/><path d="m1259.7 817.42.22 3.94a12.28 12.28 0 0 1 9.94-4.57q10.67 0 10.85 12.21v22.56h-7.66v-22.12a7 7 0 0 0 -1.41-4.81q-1.4-1.57-4.59-1.57a7.39 7.39 0 0 0 -6.91 4.2v24.3h-7.67v-34.14z"/><path d="m1288.54 808.55a4 4 0 0 1 1.12-2.93 4.22 4.22 0 0 1 3.2-1.17 4.28 4.28 0 0 1 3.22 1.17 4 4 0 0 1 1.14 2.93 3.94 3.94 0 0 1 -1.14 2.89 4.31 4.31 0 0 1 -3.22 1.15 4.25 4.25 0 0 1 -3.2-1.15 4 4 0 0 1 -1.12-2.89zm8.14 43h-7.68v-34.13h7.67z"/><path d="m1324.16 842.28a3.45 3.45 0 0 0 -1.69-3.12 17.81 17.81 0 0 0 -5.6-1.9 28.55 28.55 0 0 1 -6.53-2.08q-5.74-2.77-5.74-8a9.09 9.09 0 0 1 3.72-7.38 14.71 14.71 0 0 1 9.47-3q6.12 0 9.89 3a9.63 9.63 0 0 1 3.77 7.86h-7.67a4.68 4.68 0 0 0 -1.64-3.67 6.26 6.26 0 0 0 -4.35-1.47 6.77 6.77 0 0 0 -4.12 1.17 3.66 3.66 0 0 0 -1.59 3.12 3.09 3.09 0 0 0 1.48 2.74 20.38 20.38 0 0 0 6 2 28.62 28.62 0 0 1 7.09 2.36 10.22 10.22 0 0 1 3.82 3.3 8.41 8.41 0 0 1 1.24 4.67 8.88 8.88 0 0 1 -3.82 7.46q-3.81 2.86-10 2.86a17.66 17.66 0 0 1 -7.48-1.52 12.4 12.4 0 0 1 -5.11-4.16 9.86 9.86 0 0 1 -1.83-5.71h7.45a5.39 5.39 0 0 0 2 4.18 8 8 0 0 0 5 1.46 7.71 7.71 0 0 0 4.6-1.15 3.53 3.53 0 0 0 1.64-3.02z"/><path d="m1348 809.12v8.3h6v5.68h-6v19a4.18 4.18 0 0 0 .78 2.83 3.56 3.56 0 0 0 2.76.86 11.86 11.86 0 0 0 2.68-.31v5.93a19.08 19.08 0 0 1 -5 .73q-8.84 0-8.83-9.75v-19.29h-5.62v-5.68h5.62v-8.3z"/><path d="m1379 842.28a3.45 3.45 0 0 0 -1.69-3.12 17.81 17.81 0 0 0 -5.6-1.9 28.39 28.39 0 0 1 -6.53-2.08q-5.75-2.77-5.74-8a9.09 9.09 0 0 1 3.72-7.38 14.71 14.71 0 0 1 9.47-3q6.12 0 9.89 3a9.63 9.63 0 0 1 3.77 7.86h-7.67a4.72 4.72 0 0 0 -1.62-3.66 6.28 6.28 0 0 0 -4.35-1.47 6.77 6.77 0 0 0 -4.12 1.17 3.67 3.67 0 0 0 -1.6 3.12 3.1 3.1 0 0 0 1.49 2.74 20.27 20.27 0 0 0 6 2 28.62 28.62 0 0 1 7.09 2.36 10.1 10.1 0 0 1 3.81 3.3 8.41 8.41 0 0 1 1.25 4.67 8.88 8.88 0 0 1 -3.82 7.46q-3.81 2.86-10 2.86a17.66 17.66 0 0 1 -7.48-1.52 12.33 12.33 0 0 1 -5.11-4.16 9.86 9.86 0 0 1 -1.83-5.71h7.45a5.39 5.39 0 0 0 2 4.18 8 8 0 0 0 5 1.46 7.73 7.73 0 0 0 4.6-1.15 3.56 3.56 0 0 0 1.62-3.03z"/><path d="m1439.3 841 5.42-23.57h7.48l-9.31 34.14h-6.31l-7.32-23.45-7.19 23.45h-6.31l-9.34-34.14h7.48l5.52 23.31 7-23.31h5.78z"/><path d="m1457.34 808.55a4.07 4.07 0 0 1 1.12-2.93 5 5 0 0 1 6.42 0 4 4 0 0 1 1.14 2.93 3.94 3.94 0 0 1 -1.14 2.89 5.06 5.06 0 0 1 -6.42 0 4 4 0 0 1 -1.12-2.89zm8.14 43h-7.66v-34.13h7.66z"/><path d="m1483.44 809.12v8.3h6v5.68h-6v19a4.18 4.18 0 0 0 .77 2.83 3.56 3.56 0 0 0 2.76.86 11.8 11.8 0 0 0 2.68-.31v5.93a19 19 0 0 1 -5.05.73q-8.83 0-8.83-9.75v-19.29h-5.62v-5.68h5.62v-8.3z"/><path d="m1502.87 821.14a12 12 0 0 1 9.5-4.35q10.92 0 11.07 12.46v22.31h-7.66v-22q0-3.53-1.53-5a6.25 6.25 0 0 0 -4.5-1.47 7.39 7.39 0 0 0 -6.88 4.11v24.39h-7.67v-48.5h7.67z"/><path d="m1545.85 834.23c0-5.25 1.22-9.48 3.66-12.66a11.72 11.72 0 0 1 9.81-4.78 11.15 11.15 0 0 1 8.77 3.78v-17.48h7.67v48.47h-6.94l-.38-3.54a11.31 11.31 0 0 1 -9.18 4.17 11.68 11.68 0 0 1 -9.71-4.83q-3.71-4.83-3.7-13.13zm7.66.67q0 5.21 2 8.12a6.48 6.48 0 0 0 5.69 2.92 7.24 7.24 0 0 0 6.88-4.2v-14.57a7.13 7.13 0 0 0 -6.81-4.11 6.57 6.57 0 0 0 -5.75 3c-1.33 1.94-2.01 4.88-2.01 8.84z"/><path d="m1598.79 852.19a15.87 15.87 0 0 1 -11.79-4.59q-4.52-4.59-4.52-12.23v-1a20.41 20.41 0 0 1 2-9.13 14.94 14.94 0 0 1 5.52-6.24 14.55 14.55 0 0 1 8-2.24q7 0 10.77 4.44t3.8 12.59v3.1h-22.3a10.24 10.24 0 0 0 2.82 6.68 8.45 8.45 0 0 0 6.23 2.47 10.36 10.36 0 0 0 8.58-4.26l4.14 3.94a13.83 13.83 0 0 1 -5.48 4.75 17.19 17.19 0 0 1 -7.77 1.72zm-.91-29.25a6.43 6.43 0 0 0 -5.1 2.21 11.48 11.48 0 0 0 -2.48 6.15h14.61v-.57a9.32 9.32 0 0 0 -2.05-5.82 6.42 6.42 0 0 0 -4.98-1.97z"/><path d="m1638.83 851.56a11.78 11.78 0 0 1 -.88-3.19 12.89 12.89 0 0 1 -17.36.88 9.39 9.39 0 0 1 -3.25-7.25 9.7 9.7 0 0 1 4.06-8.38q4-2.93 11.59-2.92h4.7v-2.24a6 6 0 0 0 -1.48-4.24 5.85 5.85 0 0 0 -4.51-1.6 6.75 6.75 0 0 0 -4.29 1.31 4 4 0 0 0 -1.67 3.33h-7.67a8.51 8.51 0 0 1 1.86-5.25 12.43 12.43 0 0 1 5.07-3.84 17.83 17.83 0 0 1 7.14-1.38q6 0 9.56 3a10.72 10.72 0 0 1 3.66 8.47v15.4a17.32 17.32 0 0 0 1.3 7.35v.54zm-8.42-5.53a8.65 8.65 0 0 0 4.27-1.1 7.3 7.3 0 0 0 3-3v-6.43h-4.13q-4.26 0-6.4 1.48a4.81 4.81 0 0 0 -2.15 4.2 4.46 4.46 0 0 0 1.47 3.51 5.66 5.66 0 0 0 3.94 1.31z"/><path d="m1652 834.23c0-5.25 1.22-9.48 3.66-12.66a11.72 11.72 0 0 1 9.81-4.78 11.15 11.15 0 0 1 8.77 3.78v-17.48h7.67v48.47h-6.94l-.38-3.54a11.31 11.31 0 0 1 -9.18 4.17 11.68 11.68 0 0 1 -9.71-4.83q-3.7-4.83-3.7-13.13zm7.66.67q0 5.21 2 8.12a6.48 6.48 0 0 0 5.69 2.92 7.24 7.24 0 0 0 6.88-4.2v-14.57a7.13 7.13 0 0 0 -6.81-4.11 6.57 6.57 0 0 0 -5.75 3c-1.37 1.94-2.05 4.88-2.05 8.84z"/><path d="m1698 851.56h-7.66v-48.47h7.66z"/><path d="m1706.38 808.55a4.07 4.07 0 0 1 1.12-2.93 5 5 0 0 1 6.42 0 4 4 0 0 1 1.14 2.93 3.94 3.94 0 0 1 -1.14 2.89 5.06 5.06 0 0 1 -6.42 0 4 4 0 0 1 -1.12-2.89zm8.14 43h-7.66v-34.13h7.66z"/><path d="m1730 817.42.22 3.94a12.28 12.28 0 0 1 9.94-4.57q10.66 0 10.86 12.21v22.56h-7.67v-22.12a7 7 0 0 0 -1.4-4.81q-1.41-1.57-4.59-1.57a7.38 7.38 0 0 0 -6.91 4.2v24.3h-7.67v-34.14z"/><path d="m1773.84 852.19a15.83 15.83 0 0 1 -11.84-4.59q-4.53-4.59-4.53-12.23v-1a20.55 20.55 0 0 1 2-9.13 15 15 0 0 1 5.53-6.24 14.57 14.57 0 0 1 8-2.24q7 0 10.77 4.44t3.81 12.59v3.1h-22.31a10.24 10.24 0 0 0 2.82 6.68 8.45 8.45 0 0 0 6.23 2.47 10.39 10.39 0 0 0 8.59-4.26l4.13 3.94a13.87 13.87 0 0 1 -5.47 4.75 17.26 17.26 0 0 1 -7.73 1.72zm-.91-29.25a6.44 6.44 0 0 0 -5.1 2.21 11.39 11.39 0 0 0 -2.47 6.15h14.64v-.57a9.32 9.32 0 0 0 -2-5.82 6.42 6.42 0 0 0 -5.07-1.97z"/><path d="m1812.62 842.28a3.45 3.45 0 0 0 -1.69-3.12 17.81 17.81 0 0 0 -5.6-1.9 28.55 28.55 0 0 1 -6.53-2.08q-5.74-2.77-5.74-8a9.09 9.09 0 0 1 3.72-7.38 14.71 14.71 0 0 1 9.47-3q6.12 0 9.89 3a9.63 9.63 0 0 1 3.77 7.86h-7.67a4.72 4.72 0 0 0 -1.64-3.67 6.26 6.26 0 0 0 -4.35-1.47 6.77 6.77 0 0 0 -4.12 1.17 3.66 3.66 0 0 0 -1.59 3.12 3.09 3.09 0 0 0 1.48 2.74 20.27 20.27 0 0 0 6 2 28.62 28.62 0 0 1 7.09 2.36 10.1 10.1 0 0 1 3.81 3.3 8.33 8.33 0 0 1 1.25 4.67 8.88 8.88 0 0 1 -3.82 7.46q-3.81 2.86-10 2.86a17.66 17.66 0 0 1 -7.48-1.52 12.4 12.4 0 0 1 -5.11-4.16 9.86 9.86 0 0 1 -1.83-5.71h7.45a5.39 5.39 0 0 0 2.05 4.18 8 8 0 0 0 5 1.46 7.73 7.73 0 0 0 4.6-1.15 3.56 3.56 0 0 0 1.59-3.02z"/><path d="m1831.61 843.48a4.4 4.4 0 0 1 3.32 1.21 4.22 4.22 0 0 1 1.16 3 4.06 4.06 0 0 1 -1.16 3 5.18 5.18 0 0 1 -6.56 0 4 4 0 0 1 -1.2-3 4.22 4.22 0 0 1 1.16-3 4.33 4.33 0 0 1 3.28-1.21z"/></g><path d="m615.66 879.34c9.22 3.86 18 7.2 27.42 8.2 9.25 1 18.54 1.44 27.47-2 10.46-4 17.35-15.85 15.92-26.88-.45-3.5-2.36-1.44-3.62-1a58.56 58.56 0 0 1 -32.46 1.64c-21.24-4.67-35.07-20.82-36.95-42.62-3.19-37 17.08-62.07 54.83-67.92 22.68-3.52 45.19-1.95 67.64 2.08 2.65.47 3.52 1.25 2.15 4-3.18 6.26-6.2 12.61-9.13 19-1 2.19-2.14 3.34-4.65 2.48-4.11-1.4-4.79.54-4.69 4.28.51 20.09.81 40.18 1.17 60.28a166.8 166.8 0 0 1 -2.43 31.81c-4.23 24.1-22 40.33-48 44.09a111.64 111.64 0 0 1 -49.91-3.8c-3.37-1.06-5-2.35-4.88-6.32.37-8.89.12-17.78.12-27.32zm70.81-76.59h-.7c0-6.19.05-12.37 0-18.56-.09-9.92-.12-9.92-10.27-8.82-23.28 2.52-35.17 28.72-21.85 48.15 5.7 8.32 16.77 11.2 29.33 8 2.72-.7 3.6-1.81 3.55-4.53-.16-8.09-.06-16.17-.06-24.24z" fill="#fcfdfc"/><path d="m318.16 775.6c0 25.45-.07 50.89.09 76.33 0 3.64-.9 5-4.65 5.53-22.51 3.48-45 6.28-67.56.74-24.5-6-38.42-23.83-39.1-49.08-.46-17.09 3.17-32.76 15.44-45.5 10.73-11.13 24.32-15.7 39.31-16.79 5.64-.41 11.35-.74 16.93.7 3.51.9 4.36-.4 4.33-3.82-.16-14.78 0-29.57-.14-44.35 0-3.3.77-4.41 4.24-4.31 8.76.27 17.55.38 26.3 0 4.47-.22 4.9 1.6 4.88 5.29-.13 25.06-.07 50.16-.07 75.26zm-35.27 28.77v-24.22c0-1.86.25-3.58-2.26-4.5a27.82 27.82 0 0 0 -37.47 23.43 54.89 54.89 0 0 0 0 10.8c1.31 13.21 9.15 21.14 22.3 23 4.66.67 9.24-.08 13.87-.27 3-.12 3.67-1.27 3.62-4-.16-8.09-.06-16.16-.06-24.24z" fill="#fcfdfc"/><path d="m735.61 805.3a72.48 72.48 0 0 1 4.39-24.73c7.68-20.35 23.09-30.9 44.08-33.8a69.5 69.5 0 0 1 26.6 1.14c19 4.76 32.13 16.05 37.2 35.25 6.06 22.94 4 44.66-12.37 63.26-7.55 8.56-17.57 13-28.61 15-12.86 2.39-25.69 2.11-38-2.61-20-7.66-29.85-23.15-32.56-43.78-.47-3.19-.51-6.47-.73-9.73zm79.19-.91c.06-7.3-.86-14.4-4.62-20.85-7.29-12.49-26.44-12.94-33.4-.26-7.59 13.85-7.52 28.55 0 42.38 6.86 12.53 25.61 12.2 33.09 0 4.05-6.54 4.96-13.79 4.93-21.27z" fill="#fcfdfc"/><path d="m498.16 806.93q0-24.24 0-48.48c0-2.3-.14-4.1 3-4.85 22.35-5.33 44.83-9.19 67.86-5.77 10.38 1.54 19.86 5.24 26.46 14.26 5 6.75 6.28 14.57 6.39 22.43.36 24.07.14 48.14.23 72.21 0 2.33-.51 3.39-3.12 3.35-9.63-.13-19.26-.19-28.89 0-3.6.08-3.24-2-3.24-4.27 0-20.28 0-40.57 0-60.86.07-16.9-4.88-21.28-22.49-20.06-11 .77-11 1-11 12 0 22.7-.1 45.39.09 68.08 0 4.05-1 5.26-5.11 5.1-8.42-.32-16.86-.36-25.27 0-4.31.2-5.08-1.36-5-5.24.21-15.92.09-31.91.09-47.9z" fill="#fcfdfc"/><path d="m481.21 814.38c0 14.78-.14 27 .09 39.16.06 3.53-1 4.59-4.46 5-20.49 2.24-41 4.89-61.58 1.85-16.27-2.4-25-10.88-26.75-24.74-2.28-18.1 4.29-30.64 19.59-37.38 10.81-4.76 22.26-7 33.91-7.84 5.46-.38 7.51-1.81 7-7.49-.57-6-2.38-8.89-8-9.34a69.45 69.45 0 0 0 -20.46 1.4 101.54 101.54 0 0 0 -21.9 7.3c-2.6 1.22-3.27.59-3.24-2.1.08-6.87 0-13.74-.05-20.61a3.56 3.56 0 0 1 2.5-3.9c19.95-8.27 40.48-11.9 61.84-7 13.49 3.08 19.58 10.82 20.84 24.52 1.34 14.57.23 29.17.67 41.17zm-30.77 10c0-3.09 0-6.18 0-9.27 0-1.16.25-2.64-1.68-2.4-8.82 1.07-17.94 1.22-25.55 6.68-3.56 2.55-4.42 6.6-3.4 10.65.95 3.76 3.74 6 7.71 6.64a42.17 42.17 0 0 0 11.28.37c11.64-1.3 11.65-1.24 11.64-12.72z" fill="#fcfdfc"/><path d="m304.56 893c2-1 3.29-1.76 4.61-2.36 19.05-8.72 27.64-24 28.84-44.47 1.78-30.57.57-61.15.81-91.73 0-4.35.78-5.94 5.53-5.7 8.75.46 17.53.23 26.29.08 2.7-.05 3.54.73 3.49 3.46-.61 34.35 1.18 68.72-1.1 103.05-1.5 22.67-11.03 40.41-31.93 51.11a8 8 0 0 1 -8.12.13c-9.17-4.57-18.48-8.83-28.42-13.57z" fill="#fcfdfc"/><path d="m374.1 713.71c0 4.63-.11 9.27 0 13.9.08 2.48-.37 3.68-3.3 3.63-9.61-.18-19.23-.15-28.84 0-2.62 0-3.13-1-3.11-3.32.1-9.78.15-19.57 0-29.35-.05-2.85 1-3.4 3.6-3.37 9.44.13 18.88.16 28.32 0 2.88 0 3.43 1.06 3.35 3.6-.12 4.95-.02 9.93-.02 14.91z" fill="#fcfdfc"/><path d="m686.47 802.75c0 8.07-.1 16.15 0 24.22.05 2.72-.83 3.83-3.55 4.53-12.56 3.22-23.63.34-29.33-8-13.32-19.43-1.43-45.63 21.85-48.15 10.15-1.1 10.18-1.1 10.27 8.82" fill="none"/><path d="m282.89 804.37c0 8.08-.1 16.15.06 24.22.05 2.77-.64 3.92-3.62 4-4.63.19-9.21.94-13.87.27-13.15-1.88-21-9.81-22.3-23a54.89 54.89 0 0 1 0-10.8 27.82 27.82 0 0 1 37.47-23.43c2.51.92 2.26 2.64 2.26 4.5z" fill="none"/><path d="m450.45 824.33c0 11.48 0 11.42-11.65 12.67a42.17 42.17 0 0 1 -11.28-.37c-4-.63-6.76-2.88-7.71-6.64-1-4-.16-8.1 3.4-10.65 7.61-5.46 16.73-5.61 25.55-6.68 1.93-.24 1.67 1.24 1.68 2.4.02 3.09 0 6.18.01 9.27z" fill="none"/></svg>