<svg height="1595" viewBox="0 0 2043 1595" width="2043" xmlns="http://www.w3.org/2000/svg"><rect fill="#fff" height="79.16" rx="39.58" stroke="#000" stroke-miterlimit="10" stroke-width="3" width="229.5" x="863.74" y="729.58"/><path d="m1389.19 893.74c-1.19-.12-2.4-.18-3.57-.37-3.11-.52-6.19-1.14-9.3-1.64a40.08 40.08 0 0 1 -9.74-2.73 30.18 30.18 0 0 1 -14.64-12.74 22.61 22.61 0 0 1 -3-10.79c-.08-3.7 0-7.41 0-11.11q0-19.14 0-38.27a26 26 0 0 1 7.58-19 25.34 25.34 0 0 1 15.44-7.65 36.1 36.1 0 0 1 3.89-.24h45.55a30.52 30.52 0 0 0 19.11-6.84 34 34 0 0 0 12-17.71 31.2 31.2 0 0 0 1.17-8.76v-28.19h.81 19.92a24.93 24.93 0 0 1 16.29 5.61 31.22 31.22 0 0 1 8 10.32 55.61 55.61 0 0 1 4.31 12.86 132.06 132.06 0 0 1 2.58 14.76c.17 1.55.24 3.12.36 4.67 0 .29.08.57.12.85v6.79c0 .23-.1.46-.12.7-.2 2.2-.34 4.41-.61 6.6a106.39 106.39 0 0 1 -3.64 17.76 32.44 32.44 0 0 1 -13.49 18.38 33.73 33.73 0 0 1 -19 5.42h-76.08c-.33 0-.65 0-1 0v9.28h52.46v.71c0 7.75.06 15.5 0 23.25a51.08 51.08 0 0 1 -.72 7.81 17.12 17.12 0 0 1 -6.44 11.07 30.56 30.56 0 0 1 -10.19 4.92 77.29 77.29 0 0 1 -13.47 2.71c-4.27.51-8.56.84-12.84 1.22-1.36.12-2.73.17-4.1.26zm43.69-30.62a9.85 9.85 0 1 0 -9.42 10.08 9.88 9.88 0 0 0 9.42-10.08z" fill="#ffd300"/><path d="m1339.91 841.46h-.83c-6.88 0-13.76 0-20.64 0a24.31 24.31 0 0 1 -14.77-4.94 30.53 30.53 0 0 1 -8.78-11 56.8 56.8 0 0 1 -4.32-13 128 128 0 0 1 -2.57-14.72 82.13 82.13 0 0 1 -.25-14.71 110.53 110.53 0 0 1 3.84-21.45c3.19-11.32 10.13-19.31 21.42-23.18a35.4 35.4 0 0 1 11.56-1.73q37.9 0 75.81 0h1v-9.33h-52.48v-.78c0-7.68 0-15.36 0-23a37 37 0 0 1 1.2-10c1.6-5.68 5.39-9.4 10.6-11.84a52.85 52.85 0 0 1 14.71-4.17c4.68-.69 9.39-1.28 14.1-1.69a94.19 94.19 0 0 1 17.45-.15c3.31.33 6.58 1.11 9.87 1.64a41.81 41.81 0 0 1 9 2.35c6.34 2.57 11.61 6.47 15.25 12.36a22.71 22.71 0 0 1 3.49 12c0 16.63.07 33.27 0 49.9a26.16 26.16 0 0 1 -21.71 25.48 30.19 30.19 0 0 1 -5 .42q-22.46 0-44.91 0a31.18 31.18 0 0 0 -19.27 6.4 32.73 32.73 0 0 0 -13.77 26.88c-.07 9.1 0 18.2 0 27.29zm20.78-135.67a9.85 9.85 0 1 0 9.91-9.8 9.9 9.9 0 0 0 -9.91 9.8z" fill="#ffd300"/><path d="m1432.88 863.12a9.85 9.85 0 1 1 -10.12-9.59 9.89 9.89 0 0 1 10.12 9.59z" stroke="#000" stroke-miterlimit="10" stroke-width="3.13"/><path d="m1360.69 705.79a9.85 9.85 0 1 1 19.69.14 9.85 9.85 0 0 1 -19.69-.14z" stroke="#000" stroke-miterlimit="10" stroke-width="3.13"/><path d="m433.42 690.91h224.42v140.52h-224.42z" fill="#dddce0" stroke="#000" stroke-miterlimit="10" stroke-width="3"/><path d="m409.09 824.45h273.09v16.29h-273.09z" fill="#dddce0" stroke="#000" stroke-miterlimit="10" stroke-width="3"/><path d="m447.39 708.8h197.38v105.61h-197.38z" stroke="#000" stroke-miterlimit="10" stroke-width="3.13"/><path d="m607.9 773.01-23.61-41.52" fill="none" stroke="#fff" stroke-linecap="round" stroke-miterlimit="10" stroke-width="3"/><path d="m595.47 773.61-19.86-34.78" fill="none" stroke="#fff" stroke-linecap="round" stroke-miterlimit="10" stroke-width="3"/><path d="m524 824.89h45.06v7.42h-45.06z" fill="#fff" stroke="#000" stroke-miterlimit="10" stroke-width="3"/><path d="m1695.79 551.24v66c.38 18.54 48.08 33.53 106.87 33.53s106.48-15 106.86-33.53v-66z" fill="#f966ff" stroke="#000" stroke-miterlimit="10" stroke-width="3"/><ellipse cx="1802.67" cy="552.02" fill="#e772f8" rx="106.87" ry="33.75" stroke="#000" stroke-miterlimit="10" stroke-width="3"/><path d="m1695.79 486.24v66c.38 18.54 48.08 33.53 106.87 33.53s106.48-15 106.86-33.53v-66z" fill="#f966ff" stroke="#000" stroke-miterlimit="10" stroke-width="3"/><ellipse cx="1802.67" cy="487.02" fill="#e772f8" rx="106.87" ry="33.75" stroke="#000" stroke-miterlimit="10" stroke-width="3"/><path d="m1695.79 421.24v66c.38 18.54 48.08 33.53 106.87 33.53s106.48-15 106.86-33.53v-66z" fill="#f966ff" stroke="#000" stroke-miterlimit="10" stroke-width="3"/><ellipse cx="1802.67" cy="422.02" fill="#f966ff" rx="106.87" ry="33.75" stroke="#000" stroke-miterlimit="10" stroke-width="3"/><path d="m400.6 1004v-28.63h8.28a24.29 24.29 0 0 1 6.72.86 14.58 14.58 0 0 1 5.11 2.59 11.11 11.11 0 0 1 3.28 4.45 16.24 16.24 0 0 1 1.14 6.3c0 4.63-1.39 8.18-4.18 10.68s-6.64 3.74-11.58 3.74zm5.3-4.24h3.78q4.9 0 7.47-2.57t2.55-7.49c0-3.52-.87-6.07-2.63-7.67s-4.41-2.39-7.95-2.39h-3.22z" fill="#fff"/><path d="m426.13 1012.33-.57-3.79h1.14a7.06 7.06 0 0 0 1.6-.15 3.26 3.26 0 0 0 1-.41 1.47 1.47 0 0 0 .61-.81 4.84 4.84 0 0 0 .26-1.18 15.27 15.27 0 0 0 .07-1.69v-21.78h5.12v21a24.14 24.14 0 0 1 -.13 2.75 11.15 11.15 0 0 1 -.46 2.2 4.89 4.89 0 0 1 -.91 1.73 5.21 5.21 0 0 1 -1.47 1.2 6.52 6.52 0 0 1 -2.17.74 17.15 17.15 0 0 1 -3 .23zm4.14-32.93v-4.4h5.12v4.38z" fill="#fff"/><path d="m445.62 1004.4a7 7 0 0 1 -4.83-1.65 6.06 6.06 0 0 1 -1.85-4.76 5.73 5.73 0 0 1 2.19-5 13.46 13.46 0 0 1 6.6-2l1.31-.16 1.58-.15 1.39-.14v-1.13a3.86 3.86 0 0 0 -.9-2.84 3.71 3.71 0 0 0 -2.73-.89 18.81 18.81 0 0 0 -6.47 1.46s-.23-.63-.64-1.78l-.65-1.75a20.67 20.67 0 0 1 8.21-1.62c2.89 0 5 .62 6.3 1.88s2 3.29 2 6.1v14h-3.79s-.16-.49-.43-1.31a13.51 13.51 0 0 1 -.41-1.31 12 12 0 0 1 -3.14 2.3 8.69 8.69 0 0 1 -3.74.75zm1.39-3.64a5.61 5.61 0 0 0 3.09-.84 5 5 0 0 0 1.89-2.07v-4.14l-1 .08-1 .08a10.64 10.64 0 0 0 -4.55 1.17 3.14 3.14 0 0 0 -1.45 2.89 2.72 2.72 0 0 0 .8 2.1 3.28 3.28 0 0 0 2.21.73z" fill="#fff"/><path d="m462.26 1004v-21.48h4.12l.57 2.72a10.17 10.17 0 0 1 7.29-3.24c2.5 0 4.37.71 5.61 2.15a9.34 9.34 0 0 1 1.87 6.26v13.59h-5.14v-13a7.42 7.42 0 0 0 -.84-3.89 3.22 3.22 0 0 0 -2.95-1.29 5.74 5.74 0 0 0 -3 .85 5.18 5.18 0 0 0 -2 2.14 21.46 21.46 0 0 0 -.37 4.69v10.5z" fill="#fff"/><path d="m491.05 1013.6-.29-4.14h2.6c3 0 5.11-.4 6.31-1.21s1.79-2.26 1.79-4.4c0-.87 0-1.82-.12-2.83a8.83 8.83 0 0 1 -1 1.16 7.1 7.1 0 0 1 -1.15.91 5.3 5.3 0 0 1 -1.66.67 9.78 9.78 0 0 1 -2.2.23 9 9 0 0 1 -7-3.07 11.41 11.41 0 0 1 -2.75-7.91 14 14 0 0 1 .76-4.7 9.76 9.76 0 0 1 2.07-3.48 9.24 9.24 0 0 1 3-2.1 9.14 9.14 0 0 1 3.64-.73 7.21 7.21 0 0 1 6.43 3.14l.35-2.62h4.57v19.94a24.85 24.85 0 0 1 -.15 2.88 13.23 13.23 0 0 1 -.55 2.47 7.18 7.18 0 0 1 -2.62 3.66 8.55 8.55 0 0 1 -2.25 1.18 15.46 15.46 0 0 1 -3 .7 26.67 26.67 0 0 1 -3.87.25zm5.14-13.19q5.3 0 5.35-7.09v-.74a8.34 8.34 0 0 0 -1.33-4.92 4.43 4.43 0 0 0 -3.77-1.76 5 5 0 0 0 -4.26 1.93 8.45 8.45 0 0 0 -1.44 5.18 9.09 9.09 0 0 0 1.45 5.27 4.6 4.6 0 0 0 4 2.13z" fill="#fff"/><path d="m520.72 1004.4a9.49 9.49 0 0 1 -7.5-3.09 11.8 11.8 0 0 1 -2.73-8.12q0-5.21 2.73-8.2c1.82-2 4.39-3 7.71-3a9.54 9.54 0 0 1 7.53 3 13.49 13.49 0 0 1 0 16.31 9.88 9.88 0 0 1 -7.74 3.1zm.14-3.89a4.43 4.43 0 0 0 3.9-1.89 12 12 0 0 0 0-10.88 5 5 0 0 0 -7.86 0 11.81 11.81 0 0 0 0 10.87 4.52 4.52 0 0 0 3.96 1.9z" fill="#fff"/><path d="m545.93 1012.91v-30.39h4.4l.55 3a7.22 7.22 0 0 1 2.8-2.63 8.25 8.25 0 0 1 3.9-.92 7.6 7.6 0 0 1 4.63 1.46 9.08 9.08 0 0 1 3 4 15 15 0 0 1 1 5.72 12.91 12.91 0 0 1 -2.42 8.11 7.79 7.79 0 0 1 -6.53 3.14 8.25 8.25 0 0 1 -3.68-.81 8.06 8.06 0 0 1 -2.76-2.2c.1 1.87.15 2.93.15 3.16v8.11zm10.32-12.42a4.16 4.16 0 0 0 3.6-1.91 9.59 9.59 0 0 0 1.32-5.47 9.13 9.13 0 0 0 -1.33-5.43 4.32 4.32 0 0 0 -3.69-1.82q-5.08 0-5.14 6.92 0 4 1.32 5.85a4.5 4.5 0 0 0 3.92 1.86z" fill="#fff"/><path d="m570.49 1004v-21.48h4.29l.67 3.28a6.77 6.77 0 0 1 6.11-3.38 10 10 0 0 1 1.37.08l-.08 4.28a10.64 10.64 0 0 0 -1.62-.12 5.47 5.47 0 0 0 -4.23 1.51 5.9 5.9 0 0 0 -1.4 4.18v11.65z" fill="#fff"/><path d="m595.08 1004.4a9.49 9.49 0 0 1 -7.5-3.09 11.76 11.76 0 0 1 -2.74-8.12q0-5.21 2.74-8.2c1.82-2 4.39-3 7.71-3a9.57 9.57 0 0 1 7.53 3 13.53 13.53 0 0 1 0 16.31 9.91 9.91 0 0 1 -7.74 3.1zm.13-3.89a4.44 4.44 0 0 0 3.91-1.89 12 12 0 0 0 0-10.88 5 5 0 0 0 -7.86 0 9.44 9.44 0 0 0 -1.32 5.46 9.34 9.34 0 0 0 1.33 5.41 4.5 4.5 0 0 0 3.94 1.9z" fill="#fff"/><path d="m606.19 1012.33-.57-3.79h1.13a7.1 7.1 0 0 0 1.61-.15 3.26 3.26 0 0 0 1-.41 1.47 1.47 0 0 0 .61-.81 5.36 5.36 0 0 0 .26-1.18 15.27 15.27 0 0 0 .07-1.69v-21.78h5.12v21a26.7 26.7 0 0 1 -.13 2.75 11.92 11.92 0 0 1 -.46 2.2 4.89 4.89 0 0 1 -.91 1.73 5.21 5.21 0 0 1 -1.47 1.2 6.52 6.52 0 0 1 -2.17.74 17.23 17.23 0 0 1 -3 .23zm4.14-32.93v-4.4h5.12v4.38z" fill="#fff"/><path d="m629.94 1004.4c-3.45 0-6.14-1-8.06-3s-2.88-4.73-2.88-8.23a11.77 11.77 0 0 1 2.72-8.15 9.46 9.46 0 0 1 7.4-3 8.69 8.69 0 0 1 6.88 2.77 10.68 10.68 0 0 1 2.45 7.36v1.08s0 .86 0 1.09h-14.29a6.75 6.75 0 0 0 1.65 4.66 5.69 5.69 0 0 0 4.32 1.65 13.46 13.46 0 0 0 6.76-1.84l.72 3.64a14.33 14.33 0 0 1 -7.67 1.97zm-5.69-13.32h9.38a6.09 6.09 0 0 0 -1.19-4 4.13 4.13 0 0 0 -3.3-1.4 4.49 4.49 0 0 0 -3.33 1.36 6.22 6.22 0 0 0 -1.56 4.04z" fill="#fff"/><path d="m652 1004.4a10 10 0 0 1 -7.67-2.93q-2.75-2.94-2.74-8.38c0-3.52 1-6.24 2.88-8.18a10.16 10.16 0 0 1 7.59-2.91 11.78 11.78 0 0 1 6.36 1.62l-1.21 3.65a10.68 10.68 0 0 0 -4.94-1.39 5 5 0 0 0 -4.09 1.86 8.43 8.43 0 0 0 -1.49 5.41 8.74 8.74 0 0 0 1.47 5.47 5 5 0 0 0 4.17 1.87 9.86 9.86 0 0 0 5.41-1.66l.49 3.89a9.49 9.49 0 0 1 -2.79 1.29 13.36 13.36 0 0 1 -3.44.39z" fill="#fff"/><path d="m670.88 1004.28a10.9 10.9 0 0 1 -3.65-.52 4.63 4.63 0 0 1 -2.27-1.63 6.77 6.77 0 0 1 -1.16-2.63 17 17 0 0 1 -.35-3.74v-10.13h-3.51l.19-2.78 3.68-.33 1.64-5.82h3.12v5.84h5.33v3.11h-5.33v10.23a6.52 6.52 0 0 0 .7 3.48 2.93 2.93 0 0 0 2.6 1 15.63 15.63 0 0 0 2.38-.19l.14 3.67-.48.09-.84.15c-.26 0-.61.09-1 .13s-.83.07-1.19.07z" fill="#fff"/><path d="m1691.44 1057.65v6.92l-39.92-19.5v-4.61l40.07-20.07v7l-30.59 15.34z" fill="#ff8c00" stroke="#ff8c00" stroke-miterlimit="10"/><path d="m1717.56 1072h-7.3v-58.24h7.3v24.84h22.44v-24.84h7.31v58.24h-7.31v-27.42h-22.46z" fill="#ff8c00" stroke="#ff8c00" stroke-miterlimit="10"/><path d="m1798.5 1013.75v5.7h-16.57v52.55h-7.3v-52.54h-16.56v-5.7z" fill="#ff8c00" stroke="#ff8c00" stroke-miterlimit="10"/><path d="m1817.09 1023.94v48h-7.27v-58.24h10l8.32 26.91 8.32-26.91h9.73v58.3h-7.07v-48l-6.91 22.81h-8.21z" fill="#ff8c00" stroke="#ff8c00" stroke-miterlimit="10"/><path d="m1872.75 1066.28h22.5l-.39 5.71h-29.41v-58.24h7.3z" fill="#ff8c00" stroke="#ff8c00" stroke-miterlimit="10"/><path d="m1909.39 1026.87v-6.48l39.84 20.58v3.71l-40.08 19v-6.53l30.51-14.57z" fill="#ff8c00" stroke="#ff8c00" stroke-miterlimit="10"/><path d="m954.45 1004.4q-5.62 0-8.54-2.81c-1.94-1.86-2.91-4.5-2.91-7.9v-18.32h5.32v17.88q0 3.57 1.45 5.21t4.78 1.64c2.17 0 3.75-.55 4.72-1.65s1.47-2.84 1.47-5.22v-17.86h5.26v18.36q0 5.07-3 7.86t-8.55 2.81z" fill="#fff"/><path d="m971.81 1004v-28.7h10.61a31.56 31.56 0 0 1 3.76.19 14.25 14.25 0 0 1 3 .71 6.31 6.31 0 0 1 2.32 1.4 6.24 6.24 0 0 1 1.41 2.3 9.88 9.88 0 0 1 .51 3.35q0 5.7-5.17 7.5a21.11 21.11 0 0 1 2.61 4.41l4.26 8.83h-5.78l-3.34-7.48c-1.26-2.69-2-4.27-2.34-4.77-.23 0-1 0-2.21 0h-4.43v12.26zm11.08-16.1a7 7 0 0 0 4.37-1.08 4.24 4.24 0 0 0 1.33-3.49 3.6 3.6 0 0 0 -1.35-3.1 6.89 6.89 0 0 0 -4.12-1h-6.07v8.65h5.84z" fill="#fff"/><path d="m999 1004v-28.63h5.29v24.4h12l-.16 4.22z" fill="#fff"/><path d="m1360.92 1004-10.41-28.62h5.49l6 17.68q.36.91 1.62 5.37l.73-2.57q.65-2.25.84-2.76l3-8.82c1.82-5.44 2.82-8.4 3-8.9h5.39l-10.31 28.62z" fill="#fff"/><path d="m1379.14 979.4v-4.4h5.14v4.38zm0 24.59v-21.47h5.12v21.48z" fill="#fff"/><path d="m1399.51 1004.4c-3.45 0-6.13-1-8-3s-2.88-4.73-2.88-8.23a11.76 11.76 0 0 1 2.71-8.15 9.48 9.48 0 0 1 7.4-3 8.71 8.71 0 0 1 6.89 2.77 10.72 10.72 0 0 1 2.45 7.36v1.08s0 .86 0 1.09h-14.28a6.75 6.75 0 0 0 1.65 4.66 5.7 5.7 0 0 0 4.33 1.65 13.49 13.49 0 0 0 6.76-1.84l.72 3.64a14.4 14.4 0 0 1 -7.75 1.97zm-5.68-13.32h9.38a6 6 0 0 0 -1.2-4 4.1 4.1 0 0 0 -3.3-1.4 4.53 4.53 0 0 0 -3.33 1.36 6.26 6.26 0 0 0 -1.55 4.04z" fill="#fff"/><path d="m1416.35 1004-6.5-21.47h5.21l4.12 15.74 2.23-7.67q2.08-7.23 2.36-8.07h5.23q.24.83 2.24 8c1.33 4.78 2 7.34 2.15 7.7l4.24-15.69h5.13l-6.71 21.47h-5.05q-.26-.84-2.37-8.5c-1.42-5.1-2.18-7.86-2.3-8.26q-.39 1.42-2.49 8.59t-2.43 8.17z" fill="#fff"/><path d="m1717.75 1185.49v-24.38h-8.34v-4.24h21.95v4.24h-8.3v24.38z" fill="#fff"/><path d="m1743.26 1185.9c-3.46 0-6.14-1-8.06-3s-2.88-4.73-2.88-8.23a11.76 11.76 0 0 1 2.71-8.15 9.49 9.49 0 0 1 7.41-3 8.69 8.69 0 0 1 6.88 2.77 10.72 10.72 0 0 1 2.45 7.36v1.08s0 .86 0 1.09h-14.28a6.84 6.84 0 0 0 1.65 4.66 5.71 5.71 0 0 0 4.33 1.65 13.49 13.49 0 0 0 6.76-1.84l.72 3.64a14.38 14.38 0 0 1 -7.69 1.97zm-5.69-13.32h9.43a6.09 6.09 0 0 0 -1.19-4 4.13 4.13 0 0 0 -3.3-1.4 4.53 4.53 0 0 0 -3.34 1.36 6.26 6.26 0 0 0 -1.6 4.04z" fill="#fff"/><path d="m1755.93 1185.49v-21.49h4.14l.59 2.74q.39-.49.75-.87a7.33 7.33 0 0 1 1-.86 6.74 6.74 0 0 1 1.34-.79 8.6 8.6 0 0 1 1.76-.53 11.36 11.36 0 0 1 2.24-.21 7.2 7.2 0 0 1 4.09 1 5.93 5.93 0 0 1 2.16 2.52 7.73 7.73 0 0 1 3-2.56 9.11 9.11 0 0 1 4.08-.89q3.69 0 5.42 2.08c1.15 1.4 1.73 3.46 1.73 6.2v13.71h-5.14v-12.24a10.92 10.92 0 0 0 -.69-4.54 2.69 2.69 0 0 0 -2.65-1.4 4.45 4.45 0 0 0 -4.3 2.7 9.61 9.61 0 0 0 -.74 2.87v12.56h-5.12v-12.42a9.27 9.27 0 0 0 -.76-4.28 2.84 2.84 0 0 0 -2.75-1.41 4.78 4.78 0 0 0 -2.79.82 5.12 5.12 0 0 0 -1.78 2.15 21.57 21.57 0 0 0 -.45 4.73v10.41z" fill="#fff"/><path d="m1793.26 1194.41v-30.41h4.39l.55 3a7.22 7.22 0 0 1 2.8-2.63 8.25 8.25 0 0 1 3.9-.92 7.65 7.65 0 0 1 4.64 1.46 9.14 9.14 0 0 1 3 4 15 15 0 0 1 1 5.72 13 13 0 0 1 -2.41 8.11 7.82 7.82 0 0 1 -6.54 3.14 8.25 8.25 0 0 1 -3.68-.81 8.06 8.06 0 0 1 -2.76-2.2c.1 1.87.15 2.93.15 3.16v8.11zm10.31-12.42a4.16 4.16 0 0 0 3.6-1.91 9.59 9.59 0 0 0 1.32-5.47 9.13 9.13 0 0 0 -1.33-5.43 4.32 4.32 0 0 0 -3.69-1.82q-5.09 0-5.14 6.92 0 4 1.32 5.85a4.5 4.5 0 0 0 3.92 1.87z" fill="#fff"/><path d="m1825.31 1185.78a10.94 10.94 0 0 1 -3.67-.52 4.68 4.68 0 0 1 -2.29-1.65 6.78 6.78 0 0 1 -1.17-2.69 19.25 19.25 0 0 1 -.33-3.89v-20.92l5.11-.33v21.15a7.65 7.65 0 0 0 .69 3.92 3 3 0 0 0 2.65 1 18.58 18.58 0 0 0 2.48-.21l.14 3.65-.48.1-.88.17c-.28 0-.63.09-1.06.13a10.33 10.33 0 0 1 -1.19.09z" fill="#fff"/><path d="m1837.12 1185.9a7 7 0 0 1 -4.83-1.65 6.06 6.06 0 0 1 -1.85-4.76 5.73 5.73 0 0 1 2.19-5 13.46 13.46 0 0 1 6.6-2l1.31-.16 1.58-.15 1.39-.14v-1.13a3.86 3.86 0 0 0 -.9-2.84 3.71 3.71 0 0 0 -2.73-.89 18.81 18.81 0 0 0 -6.47 1.46s-.23-.63-.64-1.78l-.65-1.75a20.67 20.67 0 0 1 8.21-1.62c2.89 0 5 .62 6.3 1.88s2 3.29 2 6.1v14h-3.79s-.16-.49-.43-1.31-.41-1.26-.41-1.31a12 12 0 0 1 -3.14 2.3 8.69 8.69 0 0 1 -3.74.75zm1.39-3.64a5.67 5.67 0 0 0 3.1-.84 5.06 5.06 0 0 0 1.88-2.07v-4.14l-1 .08-1 .08a10.64 10.64 0 0 0 -4.55 1.17 3.14 3.14 0 0 0 -1.45 2.89 2.72 2.72 0 0 0 .8 2.1 3.28 3.28 0 0 0 2.22.73z" fill="#fff"/><path d="m1862.34 1185.78a10.79 10.79 0 0 1 -3.64-.52 4.65 4.65 0 0 1 -2.28-1.63 6.77 6.77 0 0 1 -1.16-2.63 17.1 17.1 0 0 1 -.34-3.74v-10.13h-3.52l.2-2.78 3.67-.33 1.64-5.82h3.12v5.8h5.34v3.11h-5.37v10.23a6.42 6.42 0 0 0 .71 3.48 2.91 2.91 0 0 0 2.59 1 15.75 15.75 0 0 0 2.39-.19l.13 3.67-.47.09-.84.15c-.27.05-.61.09-1 .13s-.81.11-1.17.11z" fill="#fff"/><path d="m1879.19 1185.9c-3.45 0-6.13-1-8-3s-2.88-4.73-2.88-8.23a11.76 11.76 0 0 1 2.71-8.15 9.48 9.48 0 0 1 7.4-3 8.71 8.71 0 0 1 6.89 2.77 10.72 10.72 0 0 1 2.45 7.36v1.08s0 .86 0 1.09h-14.28a6.75 6.75 0 0 0 1.65 4.66 5.7 5.7 0 0 0 4.33 1.65 13.51 13.51 0 0 0 6.76-1.84l.72 3.64a14.4 14.4 0 0 1 -7.75 1.97zm-5.68-13.32h9.37a6 6 0 0 0 -1.19-4 4.1 4.1 0 0 0 -3.3-1.4 4.53 4.53 0 0 0 -3.33 1.36 6.26 6.26 0 0 0 -1.55 4.04z" fill="#fff"/><g stroke-miterlimit="10"><path d="m1625.79 991.12-79.68-79.69" fill="#66c4ff" stroke="#66c4ff" stroke-width="4"/><path d="m1529.99 895.81 8.69 32.4 23.72-23.72z" fill="#66c4ff" stroke="#66c4ff" stroke-width="4"/><path d="m1567.12 858.68 79.47 79.9" fill="#66c4ff" stroke="#66c4ff" stroke-width="4"/><path d="m1662.67 954.25-8.6-32.43-23.78 23.66z" fill="#66c4ff" stroke="#66c4ff" stroke-width="4"/><path d="m1662.55 604.56-79.69 79.69" fill="#66c4ff" stroke="#66c4ff" stroke-width="4"/><path d="m1567.24 700.36 32.4-8.68-23.72-23.72z" fill="#66c4ff" stroke="#66c4ff" stroke-width="4"/><path d="m1530.24 663.36 79.69-79.68" fill="#66c4ff" stroke="#66c4ff" stroke-width="4"/><path d="m1625.55 567.56-32.4 8.69 23.72 23.72z" fill="#66c4ff" stroke="#66c4ff" stroke-width="4"/><path d="m729.17 747.26h59.56" fill="#66c4ff" stroke="#66c4ff" stroke-width="4"/><path d="m811.17 747.61-29.05 16.77v-33.54z" fill="#66c4ff" stroke="#66c4ff" stroke-width="4"/><path d="m811.17 802.26h-59.55" fill="#66c4ff" stroke="#66c4ff" stroke-width="4"/><path d="m729.17 802.61 29.06 16.77v-33.54z" fill="#66c4ff" stroke="#66c4ff" stroke-width="4"/><path d="m1144.17 747.26h59.56" fill="#66c4ff" stroke="#66c4ff" stroke-width="4"/><path d="m1226.17 747.61-29.05 16.77v-33.54z" fill="#66c4ff" stroke="#66c4ff" stroke-width="4"/><path d="m1226.17 802.26h-59.55" fill="#66c4ff" stroke="#66c4ff" stroke-width="4"/><path d="m1144.17 802.61 29.06 16.77v-33.54z" fill="#66c4ff" stroke="#66c4ff" stroke-width="4"/><path d="m280.17 747.26h59.56" fill="#66c4ff" stroke="#66c4ff" stroke-width="4"/><path d="m362.18 747.61-29.06 16.77v-33.54z" fill="#66c4ff" stroke="#66c4ff" stroke-width="4"/><path d="m362.17 802.26h-59.55" fill="#66c4ff" stroke="#66c4ff" stroke-width="4"/><path d="m280.18 802.61 29.05 16.77v-33.54z" fill="#66c4ff" stroke="#66c4ff" stroke-width="4"/><path d="m1055.67 790.24-13-13" fill="none" stroke="#000" stroke-linecap="round" stroke-width="3"/><circle cx="1034.17" cy="765.74" fill="#fff" r="15" stroke="#000" stroke-width="2.25"/><path d="m1669.78 1137.74h258.84v69h-258.84z" fill="none" stroke="#fff" stroke-width="2"/></g><path d="m1745.39 758.49v-28.62h6.25l8.65 20.67 8.71-20.67h6.18v28.62h-4.89v-14.14l.16-8.11-.72 2.15-7.33 18.14h-4.53l-7.17-18.24-.72-2.15.18 8.28v14.07z" fill="#fff"/><path d="m1790.08 758.9a9.49 9.49 0 0 1 -7.5-3.09 11.81 11.81 0 0 1 -2.74-8.12c0-3.47.92-6.2 2.74-8.2s4.39-3 7.71-3a9.54 9.54 0 0 1 7.53 3 13.49 13.49 0 0 1 0 16.31 9.88 9.88 0 0 1 -7.74 3.1zm.14-3.89a4.43 4.43 0 0 0 3.9-1.89 12 12 0 0 0 0-10.88 5 5 0 0 0 -7.86 0 9.44 9.44 0 0 0 -1.32 5.46 9.34 9.34 0 0 0 1.33 5.41 4.52 4.52 0 0 0 3.95 1.89z" fill="#fff"/><path d="m1812.72 758.9a7.93 7.93 0 0 1 -6.61-3.09 13.06 13.06 0 0 1 -2.4-8.24 12.67 12.67 0 0 1 2.39-8 8 8 0 0 1 6.6-3c3 0 5.2 1.08 6.46 3.24a36.5 36.5 0 0 1 -.19-3.69v-6.94l5.11-.33v29.71h-4.43l-.57-2.93c-.22.35-.42.65-.61.91a7 7 0 0 1 -.83.87 5.06 5.06 0 0 1 -1.18.81 8.24 8.24 0 0 1 -1.61.52 9.33 9.33 0 0 1 -2.13.16zm1.21-3.89q5.14 0 5.23-7 0-4-1.33-5.78a4.58 4.58 0 0 0 -4-1.82 4.35 4.35 0 0 0 -3.68 1.85 9 9 0 0 0 -1.38 5.44 9.11 9.11 0 0 0 1.38 5.45 4.38 4.38 0 0 0 3.78 1.85z" fill="#fff"/><path d="m1839.22 758.9c-3.45 0-6.14-1-8.06-3s-2.88-4.73-2.88-8.23a11.77 11.77 0 0 1 2.72-8.15 9.46 9.46 0 0 1 7.4-3 8.68 8.68 0 0 1 6.88 2.77 10.68 10.68 0 0 1 2.46 7.36v1.08s0 .86 0 1.09h-14.28a6.75 6.75 0 0 0 1.65 4.66 5.7 5.7 0 0 0 4.33 1.65 13.45 13.45 0 0 0 6.75-1.84l.73 3.64a14.4 14.4 0 0 1 -7.7 1.97zm-5.68-13.32h9.37a6.09 6.09 0 0 0 -1.19-4 4.1 4.1 0 0 0 -3.3-1.4 4.49 4.49 0 0 0 -3.33 1.36 6.21 6.21 0 0 0 -1.55 4.04z" fill="#fff"/><path d="m1859.42 758.78a10.94 10.94 0 0 1 -3.67-.52 4.68 4.68 0 0 1 -2.29-1.65 6.78 6.78 0 0 1 -1.17-2.69 18.47 18.47 0 0 1 -.29-3.92v-20.89l5.12-.33v21.15a7.79 7.79 0 0 0 .68 3.92 3 3 0 0 0 2.66 1 18.58 18.58 0 0 0 2.48-.21l.14 3.65-.48.1-.88.17c-.28 0-.63.09-1.06.13a10.33 10.33 0 0 1 -1.24.09z" fill="#fff"/><path d="m1683.67 710.74h238v69h-238z" fill="none" stroke="#fff" stroke-miterlimit="10" stroke-width="2"/><path d="m1321.17 956.74h152v69h-152z" fill="none" stroke="#fff" stroke-miterlimit="10" stroke-width="2"/><path d="m137.09 1004.4q-5.62 0-8.53-2.81c-1.94-1.86-2.91-4.5-2.91-7.9v-18.32h5.35v17.88q0 3.57 1.45 5.21t4.78 1.64q3.26 0 4.73-1.65t1.46-5.22v-17.86h5.29v18.36q0 5.07-3 7.86t-8.62 2.81z" fill="#fff"/><path d="m161 1004.38a15.34 15.34 0 0 1 -7.6-1.62l.53-3.85a15.65 15.65 0 0 0 3.28 1.26 13.68 13.68 0 0 0 3.63.56 4.76 4.76 0 0 0 2.65-.64 2.16 2.16 0 0 0 1-1.86 2.06 2.06 0 0 0 -.89-1.76 16.55 16.55 0 0 0 -3.39-1.6l-1.12-.41a11.47 11.47 0 0 1 -4.27-2.57 5.47 5.47 0 0 1 -1.31-3.84 5.22 5.22 0 0 1 2.12-4.49 9.79 9.79 0 0 1 5.91-1.56 16 16 0 0 1 7.2 1.54l-1.27 3.53a13.84 13.84 0 0 0 -5.84-1.42 4.69 4.69 0 0 0 -2.41.52 1.69 1.69 0 0 0 -.87 1.57 1.76 1.76 0 0 0 .84 1.55 18.54 18.54 0 0 0 3.28 1.46l.51.17.67.25a11.08 11.08 0 0 1 4.33 2.57 5.49 5.49 0 0 1 1.39 3.9 6.07 6.07 0 0 1 -2.19 5 9.54 9.54 0 0 1 -6.18 1.74z" fill="#fff"/><path d="m183.26 1004.4c-3.45 0-6.13-1-8-3s-2.88-4.73-2.88-8.23a11.76 11.76 0 0 1 2.62-8.17 9.48 9.48 0 0 1 7.4-3 8.71 8.71 0 0 1 6.89 2.77 10.72 10.72 0 0 1 2.45 7.36v1.08s0 .86 0 1.09h-14.26a6.75 6.75 0 0 0 1.65 4.66 5.7 5.7 0 0 0 4.33 1.65 13.51 13.51 0 0 0 6.76-1.84l.72 3.64a14.4 14.4 0 0 1 -7.68 1.99zm-5.68-13.32h9.42a6 6 0 0 0 -1.19-4 4.1 4.1 0 0 0 -3.3-1.4 4.53 4.53 0 0 0 -3.33 1.36 6.26 6.26 0 0 0 -1.6 4.04z" fill="#fff"/><path d="m196 1004v-21.48h4.29l.67 3.28a6.79 6.79 0 0 1 6.11-3.38 10 10 0 0 1 1.37.08l-.08 4.28a10.64 10.64 0 0 0 -1.62-.12 5.47 5.47 0 0 0 -4.23 1.51 5.9 5.9 0 0 0 -1.39 4.18v11.65z" fill="#fff"/><path d="m89.88 956.74h152v69h-152z" fill="none" stroke="#fff" stroke-miterlimit="10" stroke-width="2"/><path d="m902.49 956.74h152v69h-152z" fill="none" stroke="#fff" stroke-miterlimit="10" stroke-width="2"/><path d="m367.17 956.74h335v69h-335z" fill="none" stroke="#fff" stroke-miterlimit="10" stroke-width="2"/><path d="m160.88 741.27 27.92-2.39" fill="none" stroke="#aee938" stroke-miterlimit="10" stroke-width="6"/><path d="m134.41 723.5-12.58-28.76" fill="none" stroke="#aee938" stroke-miterlimit="10" stroke-width="6"/><path d="m152.42 726.21 14.82-29.31" fill="none" stroke="#aee938" stroke-miterlimit="10" stroke-width="6"/><path d="m122.96 736.85-30.86-12.02" fill="none" stroke="#aee938" stroke-miterlimit="10" stroke-width="6"/><path d="m127.38 753.47-30.01 13.13" fill="none" stroke="#aee938" stroke-miterlimit="10" stroke-width="6"/><path d="m146.89 789.5c-.19-.52-.38-1-.56-1.55-5.51-15.06-8.29-22.69-13.82-37.75a11 11 0 0 1 18.77-11 13.26 13.26 0 0 1 1.84 3.39c2.52 6.75 2.25 6.09 4.72 12.85l.3.8a11.15 11.15 0 0 1 17.29 0 11 11 0 0 1 8.64-4.59c3.58-.13 7.24 3.33 9.67 6 .18-.19.35-.35.5-.53a11 11 0 0 1 17.46.46 9.39 9.39 0 0 1 1.24 2.29c3.05 8.36 5.42 14.67 8.33 23.08a81.81 81.81 0 0 1 3.32 14 97.94 97.94 0 0 1 1.32 14.6c0 4.21.16 8.44-.08 12.64a9 9 0 0 1 -6.27 8.32q-17.94 6.64-35.91 13.14a9.47 9.47 0 0 1 -12.15-5.21 20.24 20.24 0 0 0 -7.29-9c-10.86-7.92-21.64-15.95-32.45-23.94a11.91 11.91 0 0 1 -1.1-18.28 11.66 11.66 0 0 1 15-.51c.35.29.72.56 1.08.84zm-2-21q5.15 14.06 10.27 28.11a3.66 3.66 0 0 1 .23 1.69 2.59 2.59 0 0 1 -4.26 1.61c-2.91-2.32-5.8-4.68-8.71-7a6.3 6.3 0 0 0 -7.87 0 6.62 6.62 0 0 0 .37 10.36c11 8.11 21.95 16.28 33 24.34a22.36 22.36 0 0 1 8.16 10.39 4.63 4.63 0 0 0 6.09 2.74c4.88-1.88 9.81-3.61 14.73-5.41 6.93-2.54 13.86-5.06 20.79-7.61a4.44 4.44 0 0 0 3-4.41c0-2.14 0-4.28 0-6.42a105.69 105.69 0 0 0 -1.42-19.94 78.26 78.26 0 0 0 -2.92-12.11c-2.89-8.32-5.2-14.56-8.25-22.83a5.26 5.26 0 0 0 -5-3.55 5.44 5.44 0 0 0 -5.31 3 5.69 5.69 0 0 0 -.25 5c1.25 3.38 1.74 4.73 3 8.12a2.6 2.6 0 0 1 -1.47 3.38 2.57 2.57 0 0 1 -3.41-1.47c-.16-.37-.3-.75-.44-1.13-1.76-4.81-3.49-9.63-5.29-14.42a6.59 6.59 0 0 0 -1.41-2.25 5.68 5.68 0 0 0 -7.09-.8 5.76 5.76 0 0 0 -2.29 6.88c1.22 3.34 2.4 6.69 3.68 10a2.73 2.73 0 0 1 -1.49 3.71 2.67 2.67 0 0 1 -3.47-1.86c-.52-1.59-1.14-3.15-1.72-4.73-1.31-3.59-2.6-7.19-3.95-10.77a5.75 5.75 0 0 0 -10.69 4.23q2.76 7.59 5.55 15.19a6.75 6.75 0 0 1 .25.76 2.6 2.6 0 0 1 -2.22 3 2.67 2.67 0 0 1 -3-2l-9.59-26.22c-2.37-6.49-2-5.55-4.41-12a5.7 5.7 0 0 0 -9.8-1.55 5.7 5.7 0 0 0 -.79 5.88c3.36 9.17 3.99 10.94 7.35 20.14z"/><path d="m144.84 768.55c-3.36-9.2-4-11-7.38-20.16a5.7 5.7 0 0 1 .79-5.88 5.7 5.7 0 0 1 9.8 1.55c2.39 6.48 2 5.54 4.41 12l9.59 26.22a2.67 2.67 0 0 0 3 2 2.6 2.6 0 0 0 2.22-3 6.75 6.75 0 0 0 -.25-.76q-2.78-7.61-5.55-15.19a5.75 5.75 0 0 1 10.69-4.23c1.35 3.58 2.64 7.18 3.95 10.77.58 1.58 1.2 3.14 1.72 4.73a2.67 2.67 0 0 0 3.47 1.86 2.73 2.73 0 0 0 1.49-3.71c-1.28-3.32-2.46-6.67-3.68-10a5.76 5.76 0 0 1 2.29-6.88 5.68 5.68 0 0 1 7.09.8 6.59 6.59 0 0 1 1.41 2.25c1.8 4.79 3.53 9.61 5.29 14.42.14.38.28.76.44 1.13a2.57 2.57 0 0 0 3.41 1.47 2.6 2.6 0 0 0 1.47-3.38c-1.22-3.39-1.71-4.74-3-8.12a5.69 5.69 0 0 1 .25-5 5.44 5.44 0 0 1 5.31-3 5.26 5.26 0 0 1 5 3.55c3.05 8.27 5.36 14.51 8.25 22.83a78.26 78.26 0 0 1 2.92 12.11c1.16 6.6 2.19 13 2.1 19.69v6.43s-1.71 3.94-3.64 4.65c-6.93 2.55-13.86 5.07-20.79 7.61-4.92 1.8-9.85 3.53-14.73 5.41-2.55 1-5.64.61-6.52-1.82a24.55 24.55 0 0 0 -8.48-11c-11-8.07-21.31-16.48-32.3-24.59a6.62 6.62 0 0 1 -.38-10.31c2.17-1.82 5.11-.94 7.44.92 2.92 2.33 6.47 4.45 9.39 6.77 1.64 1.31 3.73-.24 4-2.29a3.66 3.66 0 0 0 -.23-1.69q-5.1-14.12-10.26-28.16z" fill="#fff"/></svg>