<svg id="Layer_1" data-name="Layer 1" xmlns="http://www.w3.org/2000/svg" xmlns:xlink="http://www.w3.org/1999/xlink" viewBox="0 0 1224 951"><defs><style>.cls-1,.cls-12,.cls-4{fill:none;}.cls-2{fill:#10162f;}.cls-3{clip-path:url(#clip-path);}.cls-12,.cls-4{stroke:#7a98a9;stroke-width:1.33px;}.cls-4{stroke-linecap:square;}.cls-12,.cls-39,.cls-4{stroke-miterlimit:10;}.cls-5{clip-path:url(#clip-path-4);}.cls-39,.cls-6{fill:#4e768d;}.cls-7{clip-path:url(#clip-path-6);}.cls-8{fill:#fff;}.cls-9{clip-path:url(#clip-path-8);}.cls-10{clip-path:url(#clip-path-10);}.cls-11{fill:#7a98a9;}.cls-13{clip-path:url(#clip-path-13);}.cls-14{clip-path:url(#clip-path-15);}.cls-15{clip-path:url(#clip-path-17);}.cls-16{clip-path:url(#clip-path-19);}.cls-17{clip-path:url(#clip-path-22);}.cls-18{clip-path:url(#clip-path-24);}.cls-19{clip-path:url(#clip-path-27);}.cls-20{clip-path:url(#clip-path-29);}.cls-21{clip-path:url(#clip-path-31);}.cls-22{clip-path:url(#clip-path-33);}.cls-23{clip-path:url(#clip-path-35);}.cls-24{clip-path:url(#clip-path-37);}.cls-25{clip-path:url(#clip-path-39);}.cls-26{clip-path:url(#clip-path-41);}.cls-27{clip-path:url(#clip-path-43);}.cls-28{clip-path:url(#clip-path-45);}.cls-29{clip-path:url(#clip-path-48);}.cls-30{clip-path:url(#clip-path-50);}.cls-31{clip-path:url(#clip-path-53);}.cls-32{clip-path:url(#clip-path-55);}.cls-33{clip-path:url(#clip-path-57);}.cls-34{clip-path:url(#clip-path-59);}.cls-35{clip-path:url(#clip-path-61);}.cls-36{clip-path:url(#clip-path-63);}.cls-37{fill:#f87b7c;}.cls-38{clip-path:url(#clip-path-66);}.cls-39{stroke:#4e768d;stroke-width:0.1px;}</style><clipPath id="clip-path"><rect class="cls-1" x="5" y="5" width="1214" height="941"/></clipPath><clipPath id="clip-path-4"><rect class="cls-1" x="552" y="554" width="174.72" height="56.46"/></clipPath><clipPath id="clip-path-6"><path class="cls-1" d="M648.76,584.54h6.37a4.42,4.42,0,0,0-.81-2.86,2.73,2.73,0,0,0-2.21-1,2.84,2.84,0,0,0-2.31,1.06A5,5,0,0,0,648.76,584.54Zm3.65,6.7a4.67,4.67,0,0,1-3.68-1.55,6.14,6.14,0,0,1-1.36-4.2,6.46,6.46,0,0,1,1.33-4.19,4.37,4.37,0,0,1,3.44-1.68A4,4,0,0,1,655.3,581a5.66,5.66,0,0,1,1.19,3.78v.76H648.7a5.39,5.39,0,0,0,1,3.41,3.31,3.31,0,0,0,2.69,1.26,6.46,6.46,0,0,0,1.9-.26,10.36,10.36,0,0,0,1.68-.72l.21,1a7.16,7.16,0,0,1-3.77,1Zm-8.25,0a2.91,2.91,0,0,1-2.06-.64,2.81,2.81,0,0,1-.65-2.08v-13l1.24-.1v13.08a2,2,0,0,0,.37,1.41,1.52,1.52,0,0,0,1.13.39,6.09,6.09,0,0,0,1.53-.23l0,1a7.33,7.33,0,0,1-1.61.21Zm-7.17,0a2.91,2.91,0,0,1-2.06-.64,2.81,2.81,0,0,1-.65-2.08v-7.78H632.7l.09-.77,1.51-.14.34-2.56.89-.06v2.6h3.27v.93h-3.27v7.51a2.36,2.36,0,0,0,.39,1.59,1.89,1.89,0,0,0,1.37.4,6.41,6.41,0,0,0,1.57-.23l0,1a11.18,11.18,0,0,1-1.91.22Zm-8.17-13.71v-1.71h1.27v1.71Zm0,13.47V579.82h1.28V591Zm-4.49.23a2.91,2.91,0,0,1-2.06-.64,2.81,2.81,0,0,1-.65-2.08v-7.78H620l.09-.77,1.51-.14.34-2.56.89-.06v2.6h3.27v.93h-3.27v7.51a2.36,2.36,0,0,0,.39,1.59,1.89,1.89,0,0,0,1.37.4,6.41,6.41,0,0,0,1.57-.23l.05,1a10.85,10.85,0,0,1-1.88.23Z"/></clipPath><clipPath id="clip-path-8"><path class="cls-1" d="M807.61,133.67,801,118.2l-.56-1.48.1,5.3v13h-2.37V113.34h3.28L809,130.59l7.47-17.26h3.19V135H817.2V122l.1-5.19-.54,1.48-6.64,15.41Zm-14.56-9.49a14.18,14.18,0,0,1-.68,4.53,10,10,0,0,1-2,3.52,8.6,8.6,0,0,1-3.23,2.29,11.31,11.31,0,0,1-4.38.81,10.72,10.72,0,0,1-5.62-1.4,8.71,8.71,0,0,1-3.5-3.9,13.78,13.78,0,0,1-1.16-5.87q0-5.2,2.71-8.2a9.71,9.71,0,0,1,7.59-3,9.58,9.58,0,0,1,7.52,3,11.8,11.8,0,0,1,2.75,8.21Zm-17.84,0a10.14,10.14,0,0,0,1.92,6.56,7.92,7.92,0,0,0,11.2.12l.12-.12a12.39,12.39,0,0,0,0-13.2,6.82,6.82,0,0,0-5.62-2.36,6.9,6.9,0,0,0-5.65,2.36,10.17,10.17,0,0,0-2,6.63Zm-6.85,0q0,5.29-3,8.07T757,135h-6.43V113.34h6a16.93,16.93,0,0,1,4.85.64,10.45,10.45,0,0,1,3.71,1.93,8.22,8.22,0,0,1,2.41,3.38,13,13,0,0,1,.82,4.86Zm-2.71.07q0-4.55-2.34-6.61t-6.83-2.07h-3.4v17.24h3.82q4.27,0,6.51-2.16c1.49-1.44,2.23-3.58,2.24-6.43Z"/></clipPath><clipPath id="clip-path-10"><path class="cls-1" d="M920,172.27a3.28,3.28,0,0,1-2.37-.73,3.22,3.22,0,0,1-.75-2.38v-15l1.43-.12v15a2.35,2.35,0,0,0,.43,1.62,1.75,1.75,0,0,0,1.29.45,7.42,7.42,0,0,0,1.76-.27l.06,1.13A8.21,8.21,0,0,1,920,172.27Zm-15.61-7.69h7.31a5.09,5.09,0,0,0-.93-3.29,3.11,3.11,0,0,0-2.54-1.14,3.27,3.27,0,0,0-2.65,1.22,5.71,5.71,0,0,0-1.23,3.21Zm4.2,7.7a5.34,5.34,0,0,1-4.22-1.78,7,7,0,0,1-1.56-4.83,7.41,7.41,0,0,1,1.53-4.82,5,5,0,0,1,4-1.93,4.52,4.52,0,0,1,3.63,1.62,6.48,6.48,0,0,1,1.37,4.34v.88H904.4a6.12,6.12,0,0,0,1.2,3.92,3.76,3.76,0,0,0,3.09,1.45,7.3,7.3,0,0,0,2.18-.29,11.34,11.34,0,0,0,1.93-.83l.25,1.09a8.19,8.19,0,0,1-4.5,1.18Zm-14.82-1.16a4.34,4.34,0,0,0,1.91-.4A3.31,3.31,0,0,0,897,169.6a5.18,5.18,0,0,0,.73-1.67,8.18,8.18,0,0,0,.24-2.09q0-5.73-4.22-5.73a3.3,3.3,0,0,0-1.76.47,3.35,3.35,0,0,0-1.2,1.28,6.48,6.48,0,0,0-.65,1.75,9.64,9.64,0,0,0-.21,2,10.6,10.6,0,0,0,.13,1.69,6.65,6.65,0,0,0,.42,1.51,4.6,4.6,0,0,0,.73,1.22,3.11,3.11,0,0,0,1.09.81,3.51,3.51,0,0,0,1.43.28Zm0,1.15a4.82,4.82,0,0,1-4-1.78,7.66,7.66,0,0,1-1.44-4.92,7.4,7.4,0,0,1,1.48-4.8,4.77,4.77,0,0,1,3.91-1.85,6,6,0,0,1,2.39.52,3.76,3.76,0,0,1,1.82,1.61v-6.87l1.41-.13v18h-1.21l-.21-1.93a4.31,4.31,0,0,1-1.81,1.65,5.15,5.15,0,0,1-2.35.5Zm-14.15,0a5.44,5.44,0,0,1-3.08-.88,5.58,5.58,0,0,1-2-2.38,8,8,0,0,1-.7-3.4,8.52,8.52,0,0,1,.4-2.65,6.62,6.62,0,0,1,1.15-2.12,5.25,5.25,0,0,1,1.86-1.41,5.85,5.85,0,0,1,2.47-.51,5.37,5.37,0,0,1,5.12,3.26,9,9,0,0,1,0,6.82,5.45,5.45,0,0,1-2,2.38,5.6,5.6,0,0,1-3.21.9Zm.11-1.16a3.74,3.74,0,0,0,2.37-.74,4.18,4.18,0,0,0,1.41-2,8.09,8.09,0,0,0,.44-2.8,6.87,6.87,0,0,0-1.05-4,3.65,3.65,0,0,0-3.21-1.51,3.84,3.84,0,0,0-2.4.76,4.33,4.33,0,0,0-1.45,2,7.89,7.89,0,0,0-.46,2.81,6.5,6.5,0,0,0,1.12,3.94,3.76,3.76,0,0,0,3.21,1.55Zm-26.62.88V154.56h2.11l6.46,14.73L868,154.56h2V172h-1.49V160.27l.08-4-.43,1.41L862.39,171h-1.64L855,157.68l-.46-1.41.08,4V172Zm-11.28.27a3.27,3.27,0,0,1-2.37-.73,3.22,3.22,0,0,1-.75-2.38v-8.93h-1.82l.11-.88,1.73-.16.39-2.94,1-.07v3h3.75v1.07h-3.75v8.63a2.72,2.72,0,0,0,.45,1.82,2.12,2.12,0,0,0,1.57.46,7.84,7.84,0,0,0,1.8-.27L844,172a11.5,11.5,0,0,1-2.19.27Zm-10.15,0a5.69,5.69,0,0,1-3.23-.91,5.58,5.58,0,0,1-2-2.38,7.71,7.71,0,0,1-.67-3.28,8.21,8.21,0,0,1,.4-2.6,7.08,7.08,0,0,1,1.13-2.16,5.07,5.07,0,0,1,1.89-1.48,6,6,0,0,1,2.57-.54,7.23,7.23,0,0,1,1.85.25,4.07,4.07,0,0,1,1.37.59l-.46,1.09a5.7,5.7,0,0,0-2.86-.68,3.78,3.78,0,0,0-3.18,1.52,6.42,6.42,0,0,0-1.17,4,6.12,6.12,0,0,0,1.17,3.88,3.82,3.82,0,0,0,3.18,1.48,7.58,7.58,0,0,0,3-.7l.22,1a4.19,4.19,0,0,1-1.43.64,6.85,6.85,0,0,1-1.8.3ZM814,164.56h7.31a5.09,5.09,0,0,0-.93-3.29,3.11,3.11,0,0,0-2.54-1.14,3.27,3.27,0,0,0-2.65,1.22,5.78,5.78,0,0,0-1.21,3.23Zm4.2,7.7a5.34,5.34,0,0,1-4.22-1.78,7,7,0,0,1-1.56-4.83,7.41,7.41,0,0,1,1.53-4.82,5,5,0,0,1,4-1.93,4.54,4.54,0,0,1,3.63,1.62,6.48,6.48,0,0,1,1.37,4.34v.88H814a6.12,6.12,0,0,0,1.2,3.92,3.76,3.76,0,0,0,3.09,1.45,7.3,7.3,0,0,0,2.18-.29,11.34,11.34,0,0,0,1.93-.83l.25,1.09a8.22,8.22,0,0,1-4.48,1.2ZM807.76,156.5v-2h1.46v2Zm-2.57,21.93-.22-1.17h.57a5.5,5.5,0,0,0,1.28-.12,1,1,0,0,0,.66-.53,2.1,2.1,0,0,0,.24-.77V159.16h1.46V174.9a8.66,8.66,0,0,1-.15,1.76,2.2,2.2,0,0,1-.55,1.07,2.05,2.05,0,0,1-1,.57,8.27,8.27,0,0,1-1.72.15Zm-6.48-7.32a3.6,3.6,0,0,0,1.87-.46,3.17,3.17,0,0,0,1.22-1.27,6.28,6.28,0,0,0,.62-1.73,10.34,10.34,0,0,0,.19-2,11.07,11.07,0,0,0-.11-1.63,7.07,7.07,0,0,0-.4-1.5,4.69,4.69,0,0,0-.71-1.25,3,3,0,0,0-1.11-.83,3.64,3.64,0,0,0-1.56-.32,3.6,3.6,0,0,0-3.1,1.46,6.79,6.79,0,0,0-1.06,4.14,9.56,9.56,0,0,0,.23,2.2,5.08,5.08,0,0,0,.71,1.7,3.2,3.2,0,0,0,1.29,1.13,4.44,4.44,0,0,0,1.9.37Zm-.07,1.16a4.87,4.87,0,0,1-4.16-2.14l-.15,1.86h-1.22V154.18l1.44-.13v7a4.5,4.5,0,0,1,1.82-1.64,5.25,5.25,0,0,1,2.3-.54,4.88,4.88,0,0,1,4.06,1.86,7.53,7.53,0,0,1,1.46,4.79,9.28,9.28,0,0,1-.6,3.46,5,5,0,0,1-4.92,3.25Zm-17.34,0a9,9,0,0,1-3.56-.66,6.6,6.6,0,0,1-2.57-1.86,8.3,8.3,0,0,1-1.52-2.84,12,12,0,0,1-.52-3.62,9.61,9.61,0,0,1,2.14-6.59,8.57,8.57,0,0,1,12,0,9.68,9.68,0,0,1,2.14,6.58,11.65,11.65,0,0,1-.53,3.57,8.33,8.33,0,0,1-1.53,2.84,6.84,6.84,0,0,1-2.56,1.89,8.81,8.81,0,0,1-3.51.67Zm0-1.23a6.39,6.39,0,0,0,3.63-1,5.73,5.73,0,0,0,2.16-2.7,10.91,10.91,0,0,0,.69-4.08,8.88,8.88,0,0,0-1.64-5.73,5.83,5.83,0,0,0-4.82-2,6,6,0,0,0-4.87,2,10.62,10.62,0,0,0,0,11.42,5.85,5.85,0,0,0,4.84,2.05Zm-18.7,1.23a3.27,3.27,0,0,1-2.37-.73,3.22,3.22,0,0,1-.75-2.38v-8.93h-1.82l.11-.88,1.73-.16.39-2.94,1-.07v3h3.75v1.07h-3.75v8.63a2.72,2.72,0,0,0,.45,1.82,2.12,2.12,0,0,0,1.57.46,7.84,7.84,0,0,0,1.8-.27l.06,1.13a12.35,12.35,0,0,1-2.19.25ZM744.89,172V159.16h1.27l.2,2a4.85,4.85,0,0,1,1.86-1.62,5.48,5.48,0,0,1,2.51-.59,4.06,4.06,0,0,1,3.26,1.22,5.91,5.91,0,0,1,1,3.89v8h-1.46v-8.62a3.86,3.86,0,0,0-.73-2.46,2.81,2.81,0,0,0-2.19-.75,4.49,4.49,0,0,0-2.85.88,3.77,3.77,0,0,0-1.39,2.27V172Zm-12.37-7.42h7.31a5.09,5.09,0,0,0-.93-3.29,3.11,3.11,0,0,0-2.54-1.14,3.27,3.27,0,0,0-2.65,1.22,5.75,5.75,0,0,0-1.2,3.21Zm4.2,7.7a5.34,5.34,0,0,1-4.22-1.78,7,7,0,0,1-1.56-4.83,7.41,7.41,0,0,1,1.53-4.82,5,5,0,0,1,4-1.93,4.52,4.52,0,0,1,3.63,1.62,6.48,6.48,0,0,1,1.37,4.34v.88h-8.94a6.12,6.12,0,0,0,1.2,3.92,3.76,3.76,0,0,0,3.09,1.45,7.3,7.3,0,0,0,2.18-.29,11.34,11.34,0,0,0,1.93-.83l.25,1.09a8.28,8.28,0,0,1-4.47,1.18Zm-26.9-.28V159.16H711l.19,2a4.32,4.32,0,0,1,1.68-1.58,4.79,4.79,0,0,1,2.37-.62q3.07,0,3.87,2.43a4.61,4.61,0,0,1,4.32-2.43,3.77,3.77,0,0,1,3.1,1.2,5.51,5.51,0,0,1,1,3.58V172h-1.45v-7.77a8.88,8.88,0,0,0-.11-1.3,4.58,4.58,0,0,0-.27-1.15,3.85,3.85,0,0,0-.47-.84,1.74,1.74,0,0,0-.75-.59,2.83,2.83,0,0,0-1.08-.19,3.69,3.69,0,0,0-2.5.87,4.59,4.59,0,0,0-1.42,2.46c0,.8,0,1.42.06,1.85V172H718.1v-6.54c0-.67,0-1.24-.06-1.73a8.64,8.64,0,0,0-.23-1.44,3.62,3.62,0,0,0-.47-1.15,2.19,2.19,0,0,0-.8-.71,2.47,2.47,0,0,0-1.19-.27,4.22,4.22,0,0,0-2.67.85,3.9,3.9,0,0,0-1.39,2.31V172Zm-8.79.32a7.37,7.37,0,0,1-1.87-.23,5.47,5.47,0,0,1-1.6-.71,3.34,3.34,0,0,1-1.17-1.38,4.77,4.77,0,0,1-.43-2.1v-8.74h1.45v8.78a3.74,3.74,0,0,0,.28,1.55,2.09,2.09,0,0,0,.81,1,3.57,3.57,0,0,0,1.13.45A6.27,6.27,0,0,0,701,171a6.39,6.39,0,0,0,1.38-.13,3.48,3.48,0,0,0,1.11-.46,2.05,2.05,0,0,0,.79-1,3.84,3.84,0,0,0,.28-1.53V159.1H706v8.74a5,5,0,0,1-.28,1.76,3.56,3.56,0,0,1-.75,1.27,3.91,3.91,0,0,1-1.13.81,5.43,5.43,0,0,1-1.36.45,8.21,8.21,0,0,1-1.48.19Zm-11.31,0a5.69,5.69,0,0,1-3.23-.91,5.58,5.58,0,0,1-2-2.38,7.71,7.71,0,0,1-.67-3.28,8.21,8.21,0,0,1,.4-2.6,7.08,7.08,0,0,1,1.13-2.16,5.07,5.07,0,0,1,1.89-1.48,6,6,0,0,1,2.57-.54,7.18,7.18,0,0,1,1.85.25,4.07,4.07,0,0,1,1.37.59l-.46,1.09a5.7,5.7,0,0,0-2.86-.68,3.79,3.79,0,0,0-3.18,1.52,6.42,6.42,0,0,0-1.17,4,6.12,6.12,0,0,0,1.17,3.88,3.82,3.82,0,0,0,3.18,1.48,7.58,7.58,0,0,0,3-.7l.22,1a4.19,4.19,0,0,1-1.43.64,6.7,6.7,0,0,1-1.78.24Zm-14.66,0a5.44,5.44,0,0,1-3.08-.88,5.58,5.58,0,0,1-2-2.38,8,8,0,0,1-.7-3.4,8.52,8.52,0,0,1,.4-2.65,6.62,6.62,0,0,1,1.15-2.12,5.25,5.25,0,0,1,1.86-1.41,5.85,5.85,0,0,1,2.47-.51,5.37,5.37,0,0,1,5.12,3.26,9,9,0,0,1,0,6.82,5.45,5.45,0,0,1-2,2.38,5.64,5.64,0,0,1-3.2.85Zm.11-1.16a3.74,3.74,0,0,0,2.37-.74,4.18,4.18,0,0,0,1.41-2,8.09,8.09,0,0,0,.44-2.8,6.87,6.87,0,0,0-1-4,3.65,3.65,0,0,0-3.21-1.51,3.84,3.84,0,0,0-2.4.76,4.33,4.33,0,0,0-1.45,2,7.89,7.89,0,0,0-.46,2.81,6.5,6.5,0,0,0,1.12,3.94,3.75,3.75,0,0,0,3.23,1.5Zm-23,.88V154.56h4.72a13.25,13.25,0,0,1,3.81.5,8.13,8.13,0,0,1,2.92,1.54,6.64,6.64,0,0,1,1.91,2.73,10.72,10.72,0,0,1,.67,4c0,2.85-.79,5-2.36,6.49a9.25,9.25,0,0,1-6.6,2.21Zm1.5-1.25h3.42a7.64,7.64,0,0,0,5.54-1.86,7.38,7.38,0,0,0,1.9-5.54,10,10,0,0,0-.53-3.48,5.44,5.44,0,0,0-1.56-2.35,6.47,6.47,0,0,0-2.44-1.3,11.51,11.51,0,0,0-3.25-.42h-3.08Z"/></clipPath><clipPath id="clip-path-13"><rect class="cls-1" x="636" y="197" width="300" height="56.46"/></clipPath><clipPath id="clip-path-15"><rect class="cls-1" x="636" y="315" width="300" height="56.46"/></clipPath><clipPath id="clip-path-17"><path class="cls-1" d="M810.06,353.28a3.34,3.34,0,0,1-2.43-.75,3.3,3.3,0,0,1-.77-2.45V334.7l1.47-.12V350a2.4,2.4,0,0,0,.44,1.66,1.76,1.76,0,0,0,1.33.46,7.34,7.34,0,0,0,1.8-.28L812,353A8.41,8.41,0,0,1,810.06,353.28Zm-25.7-.28V339.82h1.3l.19,2a4.42,4.42,0,0,1,1.73-1.62,4.93,4.93,0,0,1,2.43-.64q3.16,0,4,2.49a4.73,4.73,0,0,1,4.44-2.49,3.88,3.88,0,0,1,3.18,1.23,5.64,5.64,0,0,1,1,3.67V353h-1.49v-8a9.16,9.16,0,0,0-.11-1.33,4.83,4.83,0,0,0-.28-1.18,4.14,4.14,0,0,0-.49-.87,1.74,1.74,0,0,0-.77-.6,2.79,2.79,0,0,0-1.11-.19,3.88,3.88,0,0,0-2.57.9,4.72,4.72,0,0,0-1.46,2.52c0,.82,0,1.45.06,1.9V353h-1.48v-6.71q0-1-.06-1.77a9,9,0,0,0-.24-1.47,3.6,3.6,0,0,0-.49-1.18,2.21,2.21,0,0,0-.82-.73,2.6,2.6,0,0,0-1.22-.28,4.23,4.23,0,0,0-2.74.87,4,4,0,0,0-1.42,2.37V353Zm-5.17.28a3.34,3.34,0,0,1-2.43-.75,3.3,3.3,0,0,1-.77-2.45v-9.16h-1.86l.11-.9,1.78-.17.4-3,1-.07v3.07h3.85v1.09h-3.85v8.85a2.76,2.76,0,0,0,.46,1.87,2.22,2.22,0,0,0,1.61.47,7.67,7.67,0,0,0,1.85-.28l.06,1.15A12.73,12.73,0,0,1,779.19,353.28ZM760.94,353V334.71l1.49-.13v7.24a5.34,5.34,0,0,1,4.62-2.24q4.29,0,4.29,5.18V353h-1.48v-7.95a5.72,5.72,0,0,0-.69-3.22,2.74,2.74,0,0,0-2.42-1,4.47,4.47,0,0,0-2.86.91,3.76,3.76,0,0,0-1.41,2.34V353Z"/></clipPath><clipPath id="clip-path-19"><path class="cls-1" d="M832.48,235.28a3.34,3.34,0,0,1-2.43-.75,3.3,3.3,0,0,1-.77-2.45v-9.16h-1.86l.11-.9,1.78-.17.4-3,1-.07v3.07h3.85v1.09h-3.85v8.85a2.76,2.76,0,0,0,.46,1.87,2.22,2.22,0,0,0,1.61.47,7.67,7.67,0,0,0,1.85-.28l.06,1.15A12.73,12.73,0,0,1,832.48,235.28ZM814.2,235V221.82h1.3l.2,2a5,5,0,0,1,1.91-1.67,5.51,5.51,0,0,1,2.58-.61,4.14,4.14,0,0,1,3.34,1.25,6.12,6.12,0,0,1,1.07,4V235h-1.5v-8.85a4,4,0,0,0-.75-2.53,2.86,2.86,0,0,0-2.25-.77,4.53,4.53,0,0,0-2.93.9,3.86,3.86,0,0,0-1.42,2.33V235Zm-12.83-7.61h7.5a5.25,5.25,0,0,0-1-3.37,3.17,3.17,0,0,0-2.61-1.17,3.37,3.37,0,0,0-2.72,1.25,5.89,5.89,0,0,0-1.21,3.29Zm4.3,7.9a5.5,5.5,0,0,1-4.33-1.83,7.25,7.25,0,0,1-1.61-5,7.58,7.58,0,0,1,1.57-4.94,5.16,5.16,0,0,1,4.06-2,4.65,4.65,0,0,1,3.73,1.66,6.68,6.68,0,0,1,1.41,4.45v.9h-9.17a6.31,6.31,0,0,0,1.23,4,3.87,3.87,0,0,0,3.17,1.48,7.71,7.71,0,0,0,2.24-.3,12.13,12.13,0,0,0,2-.85l.25,1.12a8.48,8.48,0,0,1-4.54,1.31ZM778,235V221.82h1.3l.19,2a4.42,4.42,0,0,1,1.73-1.62,4.93,4.93,0,0,1,2.43-.64q3.17,0,4,2.49a4.73,4.73,0,0,1,4.44-2.49,3.88,3.88,0,0,1,3.18,1.23,5.64,5.64,0,0,1,1,3.67V235h-1.49v-8a9.16,9.16,0,0,0-.11-1.33,4.83,4.83,0,0,0-.28-1.18,4.14,4.14,0,0,0-.49-.87,1.74,1.74,0,0,0-.77-.6,2.79,2.79,0,0,0-1.11-.19,3.78,3.78,0,0,0-2.57.9,4.72,4.72,0,0,0-1.46,2.52c0,.82,0,1.45.06,1.9V235h-1.48v-6.71q0-1-.06-1.77a9,9,0,0,0-.24-1.47,3.6,3.6,0,0,0-.49-1.18,2.21,2.21,0,0,0-.82-.73,2.6,2.6,0,0,0-1.22-.28,4.23,4.23,0,0,0-2.74.87,4,4,0,0,0-1.42,2.37V235Zm-9.15.32a7.31,7.31,0,0,1-1.92-.23,5.49,5.49,0,0,1-1.64-.73,3.42,3.42,0,0,1-1.2-1.41,4.82,4.82,0,0,1-.44-2.15v-9h1.49v9a3.77,3.77,0,0,0,.29,1.59,2.19,2.19,0,0,0,.83,1,3.6,3.6,0,0,0,1.15.46,6.86,6.86,0,0,0,1.43.13,6.17,6.17,0,0,0,1.42-.14,3.69,3.69,0,0,0,1.14-.48,2.09,2.09,0,0,0,.81-1,3.83,3.83,0,0,0,.28-1.57v-9H774v9a5.26,5.26,0,0,1-.29,1.8,3.74,3.74,0,0,1-.77,1.3,4,4,0,0,1-1.16.84,5.28,5.28,0,0,1-1.39.46,8.36,8.36,0,0,1-1.58.13Zm-11.73,0a5.83,5.83,0,0,1-3.32-.94,5.72,5.72,0,0,1-2.09-2.45,7.94,7.94,0,0,1-.69-3.36,8.32,8.32,0,0,1,.41-2.67,7.09,7.09,0,0,1,1.16-2.21,5.34,5.34,0,0,1,1.94-1.52,6.17,6.17,0,0,1,2.64-.56,7.11,7.11,0,0,1,1.89.25,4,4,0,0,1,1.4.6l-.47,1.12a5.87,5.87,0,0,0-2.93-.7,3.9,3.9,0,0,0-3.26,1.56,6.61,6.61,0,0,0-1.2,4.13,6.24,6.24,0,0,0,1.2,4,3.94,3.94,0,0,0,3.26,1.52,7.73,7.73,0,0,0,3.1-.72l.23,1.07a4.16,4.16,0,0,1-1.47.66,7.11,7.11,0,0,1-1.84.19Zm-15.17,0a5.62,5.62,0,0,1-3.16-.9,5.76,5.76,0,0,1-2.08-2.45,8.24,8.24,0,0,1-.72-3.49,8.67,8.67,0,0,1,.41-2.72,6.41,6.41,0,0,1,1.18-2.18,5.31,5.31,0,0,1,1.91-1.44,6,6,0,0,1,2.54-.52,5.52,5.52,0,0,1,5.25,3.35,9.22,9.22,0,0,1,0,7,5.63,5.63,0,0,1-2.08,2.45,5.81,5.81,0,0,1-3.27.87Zm.11-1.19a3.86,3.86,0,0,0,2.43-.76,4.38,4.38,0,0,0,1.44-2,8.45,8.45,0,0,0,.45-2.87,7,7,0,0,0-1.08-4.1,3.76,3.76,0,0,0-3.3-1.6,4,4,0,0,0-2.46.78,4.46,4.46,0,0,0-1.48,2,8.06,8.06,0,0,0-.47,2.88,6.7,6.7,0,0,0,1.15,4A3.84,3.84,0,0,0,742,234.1Zm-15.46,0a4.46,4.46,0,0,0,2-.41,3.41,3.41,0,0,0,1.35-1.15,5.34,5.34,0,0,0,.75-1.71,8.66,8.66,0,0,0,.25-2.15q0-5.88-4.33-5.88a3.36,3.36,0,0,0-1.8.49,3.44,3.44,0,0,0-1.23,1.31,6.66,6.66,0,0,0-.67,1.79,9,9,0,0,0-.22,2,11.32,11.32,0,0,0,.13,1.74,7,7,0,0,0,.43,1.55A4.48,4.48,0,0,0,724,233a3.15,3.15,0,0,0,1.12.83,3.53,3.53,0,0,0,1.43.3Zm0,1.18a5,5,0,0,1-4.11-1.83,7.83,7.83,0,0,1-1.47-5,7.62,7.62,0,0,1,1.52-4.92,4.91,4.91,0,0,1,4-1.89,6.27,6.27,0,0,1,2.45.53,3.84,3.84,0,0,1,1.86,1.65v-7l1.44-.13V235h-1.24l-.22-2a4.4,4.4,0,0,1-1.86,1.69,5.43,5.43,0,0,1-2.37.59Z"/></clipPath><clipPath id="clip-path-22"><rect class="cls-1" x="763" y="672" width="144.12" height="56.46" rx="13.54"/></clipPath><clipPath id="clip-path-24"><path class="cls-1" d="M888.28,708a3.47,3.47,0,0,0,1.35-.24,2.92,2.92,0,0,0,1-.63,3.52,3.52,0,0,0,.66-.92,4.35,4.35,0,0,0,.38-1.1,6.62,6.62,0,0,0,.11-1.17v-1.16a5.82,5.82,0,0,0-.19-1.5,4.52,4.52,0,0,0-.6-1.3,2.74,2.74,0,0,0-1.11-.94,3.68,3.68,0,0,0-1.63-.35,3.06,3.06,0,0,0-1.36.29,2.8,2.8,0,0,0-1,.77,4.49,4.49,0,0,0-.65,1.12,5.94,5.94,0,0,0-.37,1.31,8.94,8.94,0,0,0-.11,1.37,7,7,0,0,0,.1,1.21,5.43,5.43,0,0,0,.35,1.19,3.88,3.88,0,0,0,.64,1,3,3,0,0,0,1,.72A3.56,3.56,0,0,0,888.28,708Zm-2.58,6.23-.15-1.13h2.37a5.91,5.91,0,0,0,1.39-.14,4.42,4.42,0,0,0,1-.36,2.06,2.06,0,0,0,.7-.61,3.77,3.77,0,0,0,.45-.78,4.31,4.31,0,0,0,.25-1,10,10,0,0,0,.11-1.13c0-.34,0-.77,0-1.3s0-.54,0,0l-.05-.7a4.91,4.91,0,0,1-1.52,1.49,4.1,4.1,0,0,1-2.14.53,4.55,4.55,0,0,1-1.82-.36,3.93,3.93,0,0,1-1.35-.93,5.28,5.28,0,0,1-.88-1.31,6.17,6.17,0,0,1-.51-1.46,7,7,0,0,1-.15-1.44,9.79,9.79,0,0,1,.15-1.71,6.31,6.31,0,0,1,.52-1.59,4.92,4.92,0,0,1,.92-1.34,4,4,0,0,1,1.42-.91,5.27,5.27,0,0,1,2-.34,4.14,4.14,0,0,1,1.89.42,4.61,4.61,0,0,1,1.53,1.35l.12-1.57h1v11.46a10.36,10.36,0,0,1-.12,1.12,4.61,4.61,0,0,1-.3,1.16,5.54,5.54,0,0,1-.58,1,3,3,0,0,1-.93.87,5.8,5.8,0,0,1-1.4.54,7.38,7.38,0,0,1-1.93.22ZM871.61,709V697.82h1.1l.17,1.72a4.24,4.24,0,0,1,1.62-1.41,4.77,4.77,0,0,1,2.19-.52,3.54,3.54,0,0,1,2.84,1.06,5.18,5.18,0,0,1,.91,3.39V709h-1.28v-7.51a3.35,3.35,0,0,0-.63-2.14,2.44,2.44,0,0,0-1.91-.65,3.87,3.87,0,0,0-2.48.77,3.26,3.26,0,0,0-1.21,2V709Zm-5-13.47v-1.71h1.27v1.71Zm0,13.47V697.82h1.28V709Zm-8.62-.77a3.81,3.81,0,0,0,1.66-.35,2.82,2.82,0,0,0,1.14-1,4.49,4.49,0,0,0,.64-1.45,7,7,0,0,0,.21-1.82q0-5-3.67-5a2.84,2.84,0,0,0-1.53.41,3,3,0,0,0-1,1.11,5.94,5.94,0,0,0-.57,1.52,8.4,8.4,0,0,0-.18,1.73,9.09,9.09,0,0,0,.11,1.47,5.94,5.94,0,0,0,.37,1.31,3.73,3.73,0,0,0,.63,1.07,2.73,2.73,0,0,0,1,.7,3,3,0,0,0,1.25.3Zm0,1a4.23,4.23,0,0,1-3.49-1.55,6.65,6.65,0,0,1-1.25-4.29,6.47,6.47,0,0,1,1.29-4.18,4.13,4.13,0,0,1,3.4-1.61,5.33,5.33,0,0,1,2.08.45,3.26,3.26,0,0,1,1.58,1.4v-6l1.22-.11V709h-1l-.18-1.68a3.76,3.76,0,0,1-1.58,1.43,4.63,4.63,0,0,1-2,.48Zm-12.79-1a3.74,3.74,0,0,0,2.32-.77,3.58,3.58,0,0,0,1.33-2.14v-1.91l-1.48.12a8.61,8.61,0,0,0-3.46.82,2,2,0,0,0-1,1.84,1.89,1.89,0,0,0,.62,1.53,2.49,2.49,0,0,0,1.68.51Zm0,1a3.79,3.79,0,0,1-2.53-.8,2.81,2.81,0,0,1-.95-2.28,3,3,0,0,1,.38-1.53,2.78,2.78,0,0,1,1.1-1,6.54,6.54,0,0,1,1.64-.63,14.3,14.3,0,0,1,2.15-.32l1.94-.13v-1.25a2.81,2.81,0,0,0-.59-1.93,2.42,2.42,0,0,0-1.88-.65,6.78,6.78,0,0,0-3.32.85l-.19-.44a5.59,5.59,0,0,1-.21-.53,5.81,5.81,0,0,1,1.65-.68,7.49,7.49,0,0,1,2-.28,4,4,0,0,1,2.89.86,4.22,4.22,0,0,1,.88,3.06V709h-1q0-.22-.15-.93c-.07-.47-.1-.7-.1-.71a4.26,4.26,0,0,1-3.74,1.88Zm-13.74-6.7h6.37a4.42,4.42,0,0,0-.81-2.86,2.73,2.73,0,0,0-2.21-1,2.84,2.84,0,0,0-2.31,1.06,5,5,0,0,0-1.08,2.81Zm3.65,6.7a4.67,4.67,0,0,1-3.68-1.55,6.14,6.14,0,0,1-1.36-4.2,6.46,6.46,0,0,1,1.33-4.19,4.37,4.37,0,0,1,3.44-1.68A3.94,3.94,0,0,1,838,699a5.68,5.68,0,0,1,1.19,3.78v.76H831.4a5.39,5.39,0,0,0,1,3.41,3.31,3.31,0,0,0,2.69,1.26A6.16,6.16,0,0,0,837,708a10.36,10.36,0,0,0,1.68-.72l.21,1a7.09,7.09,0,0,1-3.81,1Zm-16.9-.23V693.48l1.27-.11v6.14a4.53,4.53,0,0,1,3.92-1.9q3.65,0,3.64,4.4v7h-1.26v-6.75a5,5,0,0,0-.58-2.73,2.31,2.31,0,0,0-2.05-.84,3.81,3.81,0,0,0-2.43.77,3.21,3.21,0,0,0-1.19,2V709ZM802,702.54h6.37a4.42,4.42,0,0,0-.81-2.86,2.73,2.73,0,0,0-2.21-1,2.84,2.84,0,0,0-2.31,1.06A5,5,0,0,0,802,702.54Zm3.65,6.7a4.67,4.67,0,0,1-3.68-1.55,6.14,6.14,0,0,1-1.36-4.2,6.46,6.46,0,0,1,1.33-4.19,4.37,4.37,0,0,1,3.44-1.68,4,4,0,0,1,3.16,1.41,5.66,5.66,0,0,1,1.19,3.78v.76h-7.79a5.39,5.39,0,0,0,1,3.41,3.31,3.31,0,0,0,2.69,1.26,6.46,6.46,0,0,0,1.9-.26,10.36,10.36,0,0,0,1.68-.72l.21,1a7.19,7.19,0,0,1-3.78,1ZM788.78,709V693.48l1.27-.11v6.14a4.53,4.53,0,0,1,3.92-1.9q3.64,0,3.64,4.4v7h-1.26v-6.75a5,5,0,0,0-.58-2.73,2.31,2.31,0,0,0-2-.84,3.81,3.81,0,0,0-2.43.77,3.21,3.21,0,0,0-1.19,2V709Zm-8.29,0V694.94h-4.78v-1.12h10.88v1.12h-4.78V709Z"/></clipPath><clipPath id="clip-path-27"><rect class="cls-1" x="567" y="672" width="144.12" height="56.46" rx="13.54"/></clipPath><clipPath id="clip-path-29"><path class="cls-1" d="M669.23,702.54h6.37a4.42,4.42,0,0,0-.81-2.86,2.68,2.68,0,0,0-2.21-1,2.84,2.84,0,0,0-2.31,1.06A5,5,0,0,0,669.23,702.54Zm3.65,6.7a4.67,4.67,0,0,1-3.68-1.55,6.14,6.14,0,0,1-1.36-4.2,6.46,6.46,0,0,1,1.33-4.19,4.37,4.37,0,0,1,3.44-1.68,4,4,0,0,1,3.16,1.41A5.67,5.67,0,0,1,677,702.8v.76h-7.79a5.39,5.39,0,0,0,1,3.41,3.31,3.31,0,0,0,2.69,1.26,6.46,6.46,0,0,0,1.9-.26,10.36,10.36,0,0,0,1.68-.72l.21,1A7.12,7.12,0,0,1,672.88,709.24Zm-8.25,0a2.91,2.91,0,0,1-2.06-.64,2.81,2.81,0,0,1-.65-2.08v-13l1.24-.1v13.08a2,2,0,0,0,.37,1.41,1.52,1.52,0,0,0,1.13.39,6.09,6.09,0,0,0,1.53-.23l0,1a7.33,7.33,0,0,1-1.61.21Zm-7.17,0a2.91,2.91,0,0,1-2.06-.64,2.81,2.81,0,0,1-.65-2.08v-7.78h-1.58l.09-.77,1.51-.14.34-2.56.89-.06v2.6h3.27v.93H656v7.51a2.36,2.36,0,0,0,.39,1.59,1.89,1.89,0,0,0,1.37.4,6.41,6.41,0,0,0,1.57-.23l0,1a10.27,10.27,0,0,1-1.92.22Zm-8.17-13.71v-1.71h1.27v1.71Zm0,13.47V697.82h1.28V709Zm-4.49.23a2.91,2.91,0,0,1-2.06-.64,2.81,2.81,0,0,1-.65-2.08v-7.78H640.5l.09-.77,1.51-.14.34-2.56.89-.06v2.6h3.27v.93h-3.27v7.51a2.36,2.36,0,0,0,.39,1.59,1.89,1.89,0,0,0,1.37.4,6.41,6.41,0,0,0,1.57-.23l.05,1a11.19,11.19,0,0,1-1.91.23Zm-19.37-6.69h6.37a4.42,4.42,0,0,0-.81-2.86,2.71,2.71,0,0,0-2.21-1,2.84,2.84,0,0,0-2.31,1.06,5,5,0,0,0-1,2.8Zm3.65,6.7a4.67,4.67,0,0,1-3.68-1.55,6.14,6.14,0,0,1-1.36-4.2,6.46,6.46,0,0,1,1.33-4.19,4.37,4.37,0,0,1,3.44-1.68A3.93,3.93,0,0,1,632,699a5.68,5.68,0,0,1,1.19,3.78v.76H625.4a5.39,5.39,0,0,0,1,3.41,3.31,3.31,0,0,0,2.69,1.26A6.16,6.16,0,0,0,631,708a10.36,10.36,0,0,0,1.68-.72l.21,1a7.09,7.09,0,0,1-3.81,1ZM612.22,709V693.48l1.27-.11v6.14a4.53,4.53,0,0,1,3.92-1.9q3.65,0,3.64,4.4v7h-1.26v-6.75a5,5,0,0,0-.58-2.73,2.31,2.31,0,0,0-2.05-.84,3.81,3.81,0,0,0-2.43.77,3.21,3.21,0,0,0-1.19,2V709Zm-8.29,0V694.94h-4.78v-1.12H610v1.12h-4.78V709Z"/></clipPath><clipPath id="clip-path-31"><rect class="cls-1" x="532" y="437" width="213.75" height="56.46"/></clipPath><clipPath id="clip-path-33"><path class="cls-1" d="M659.11,473.1a4.46,4.46,0,0,0,2-.41,3.41,3.41,0,0,0,1.35-1.15,5.34,5.34,0,0,0,.75-1.71,8.66,8.66,0,0,0,.25-2.15q0-5.88-4.33-5.88a3.36,3.36,0,0,0-1.8.49,3.44,3.44,0,0,0-1.23,1.31,6.66,6.66,0,0,0-.67,1.79,9,9,0,0,0-.22,2,11.32,11.32,0,0,0,.13,1.74,6.92,6.92,0,0,0,.43,1.54,4.48,4.48,0,0,0,.75,1.26,3.15,3.15,0,0,0,1.12.83A3.56,3.56,0,0,0,659.11,473.1Zm0,1.18a5,5,0,0,1-4.11-1.83,7.83,7.83,0,0,1-1.47-5,7.62,7.62,0,0,1,1.52-4.92,4.91,4.91,0,0,1,4-1.89,6.27,6.27,0,0,1,2.45.53,3.84,3.84,0,0,1,1.86,1.65v-7l1.44-.13V474h-1.24l-.22-2a4.4,4.4,0,0,1-1.86,1.69,5.4,5.4,0,0,1-2.33.59ZM644,473.1a4.45,4.45,0,0,0,2.74-.91,4.22,4.22,0,0,0,1.57-2.52v-2.25l-1.74.14a10.34,10.34,0,0,0-4.08,1,2.36,2.36,0,0,0-1.14,2.16,2.19,2.19,0,0,0,.73,1.8,2.93,2.93,0,0,0,2,.58Zm0,1.19a4.5,4.5,0,0,1-3-.94,3.29,3.29,0,0,1-1.12-2.68,3.26,3.26,0,0,1,1.73-3,7.85,7.85,0,0,1,1.94-.74,15.44,15.44,0,0,1,2.53-.37l2.28-.16V464.9a3.29,3.29,0,0,0-.69-2.28,2.85,2.85,0,0,0-2.22-.76,8,8,0,0,0-3.91,1l-.22-.52c-.11-.27-.2-.47-.25-.62a6.94,6.94,0,0,1,1.95-.81,9,9,0,0,1,2.36-.32,4.73,4.73,0,0,1,3.4,1,5,5,0,0,1,1,3.6V474h-1.17c0-.19-.1-.55-.17-1.09s-.11-.82-.11-.84a5,5,0,0,1-4.37,2.22Zm-16.19-7.9h7.5a5.25,5.25,0,0,0-1-3.37,3.17,3.17,0,0,0-2.61-1.17,3.37,3.37,0,0,0-2.72,1.25,6,6,0,0,0-1.23,3.29Zm4.3,7.9a5.5,5.5,0,0,1-4.33-1.83,7.25,7.25,0,0,1-1.61-5,7.58,7.58,0,0,1,1.57-4.94,5.16,5.16,0,0,1,4.06-2,4.65,4.65,0,0,1,3.73,1.66,6.68,6.68,0,0,1,1.41,4.45v.9h-9.17a6.31,6.31,0,0,0,1.23,4,3.87,3.87,0,0,0,3.17,1.48,7.71,7.71,0,0,0,2.24-.3,12.13,12.13,0,0,0,2-.85l.25,1.12a8.46,8.46,0,0,1-4.56,1.31ZM612.27,474V455.71l1.49-.13v7.24a5.34,5.34,0,0,1,4.62-2.24q4.29,0,4.29,5.18V474h-1.48v-7.95a5.72,5.72,0,0,0-.69-3.22,2.74,2.74,0,0,0-2.42-1,4.41,4.41,0,0,0-2.86.91,3.76,3.76,0,0,0-1.41,2.34V474Z"/></clipPath><clipPath id="clip-path-35"><rect class="cls-1" x="826" y="437" width="213.75" height="56.46"/></clipPath><clipPath id="clip-path-37"><path class="cls-1" d="M950.28,480.25a5.56,5.56,0,0,1-1-.1l-.11-1.23H950a4.09,4.09,0,0,0,2.27-.52,4.3,4.3,0,0,0,1.35-2l.38-1c.21-.55.36-1,.47-1.31l-5.27-13.26h1.56l4.48,11.86.54-1.66q3.32-10.33,3.39-10.32c.08,0,0,0,0,.12h1.56l-5.51,15.49a7.87,7.87,0,0,1-2,3A4.35,4.35,0,0,1,950.28,480.25Zm-9.41-7.15a4.46,4.46,0,0,0,2-.41,3.41,3.41,0,0,0,1.35-1.15,5.34,5.34,0,0,0,.75-1.71,8.66,8.66,0,0,0,.25-2.15q0-5.88-4.33-5.88a3.36,3.36,0,0,0-1.8.49,3.44,3.44,0,0,0-1.23,1.31,6.66,6.66,0,0,0-.67,1.79,9,9,0,0,0-.22,2,11.32,11.32,0,0,0,.13,1.74,6.92,6.92,0,0,0,.43,1.54,4.48,4.48,0,0,0,.75,1.26,3.15,3.15,0,0,0,1.12.83,3.67,3.67,0,0,0,1.46.34Zm0,1.18a5,5,0,0,1-4.11-1.83,7.83,7.83,0,0,1-1.47-5,7.62,7.62,0,0,1,1.52-4.92,4.91,4.91,0,0,1,4-1.89,6.27,6.27,0,0,1,2.45.53,3.84,3.84,0,0,1,1.86,1.65v-7l1.44-.13V474h-1.24l-.22-2a4.4,4.4,0,0,1-1.86,1.69,5.48,5.48,0,0,1-2.34.59Zm-14.65,0a5.62,5.62,0,0,1-3.16-.9,5.76,5.76,0,0,1-2.08-2.45,8.24,8.24,0,0,1-.72-3.49,8.67,8.67,0,0,1,.41-2.72,6.41,6.41,0,0,1,1.18-2.18,5.31,5.31,0,0,1,1.91-1.44,6,6,0,0,1,2.54-.52,5.52,5.52,0,0,1,5.25,3.35,9.22,9.22,0,0,1,0,7,5.63,5.63,0,0,1-2.08,2.45,5.75,5.75,0,0,1-3.2.91Zm.11-1.19a3.86,3.86,0,0,0,2.43-.76,4.38,4.38,0,0,0,1.44-2,8.45,8.45,0,0,0,.45-2.87,7,7,0,0,0-1.08-4.1,3.74,3.74,0,0,0-3.29-1.55,4,4,0,0,0-2.46.78,4.46,4.46,0,0,0-1.48,2,8.06,8.06,0,0,0-.47,2.88,6.7,6.7,0,0,0,1.15,4,3.84,3.84,0,0,0,3.34,1.63Zm-14.7,0a3.7,3.7,0,0,0,1.92-.47,3.32,3.32,0,0,0,1.25-1.3,6.65,6.65,0,0,0,.64-1.78,10.23,10.23,0,0,0,.2-2.07,11.85,11.85,0,0,0-.11-1.68,6.87,6.87,0,0,0-.41-1.54,4.66,4.66,0,0,0-.73-1.28,3.08,3.08,0,0,0-1.14-.85,3.89,3.89,0,0,0-1.61-.32,3.71,3.71,0,0,0-3.18,1.5,7,7,0,0,0-1.09,4.25,10,10,0,0,0,.23,2.25,5.45,5.45,0,0,0,.73,1.74,3.29,3.29,0,0,0,1.33,1.15,4.46,4.46,0,0,0,2,.41Zm-.07,1.19a5,5,0,0,1-4.27-2.2l-.16,1.91h-1.25V455.71l1.48-.13v7.22a4.66,4.66,0,0,1,1.87-1.68,5.35,5.35,0,0,1,2.36-.55,5,5,0,0,1,4.17,1.91,7.67,7.67,0,0,1,1.5,4.91,9.56,9.56,0,0,1-.62,3.55,5.17,5.17,0,0,1-5,3.34Z"/></clipPath><clipPath id="clip-path-39"><rect class="cls-1" x="1040.3" y="788.55" width="144.12" height="56.46" rx="13.54"/></clipPath><clipPath id="clip-path-41"><path class="cls-1" d="M1165.62,825.7V814.52h1.1l.17,1.72a4.24,4.24,0,0,1,1.62-1.41,4.77,4.77,0,0,1,2.19-.52,3.54,3.54,0,0,1,2.84,1.06,5.18,5.18,0,0,1,.91,3.39v6.94h-1.28v-7.51a3.35,3.35,0,0,0-.63-2.14,2.44,2.44,0,0,0-1.91-.65,3.87,3.87,0,0,0-2.48.77,3.26,3.26,0,0,0-1.21,2v7.56Zm-8.14.24a4.73,4.73,0,0,1-2.68-.77,4.83,4.83,0,0,1-1.77-2.08,7,7,0,0,1-.61-3,7.28,7.28,0,0,1,.35-2.31,5.55,5.55,0,0,1,1-1.85,4.63,4.63,0,0,1,1.62-1.22,5.14,5.14,0,0,1,2.15-.44,4.68,4.68,0,0,1,4.45,2.84,7.36,7.36,0,0,1,.58,3,7.21,7.21,0,0,1-.59,3,4.83,4.83,0,0,1-1.77,2.08A5,5,0,0,1,1157.48,825.94Zm.09-1a3.35,3.35,0,0,0,2.07-.65,3.68,3.68,0,0,0,1.22-1.71,7,7,0,0,0,.38-2.44,5.94,5.94,0,0,0-.92-3.48,3.18,3.18,0,0,0-2.8-1.32,3.34,3.34,0,0,0-2.09.66,3.79,3.79,0,0,0-1.26,1.72,7,7,0,0,0-.4,2.44,5.68,5.68,0,0,0,1,3.43,3.28,3.28,0,0,0,2.8,1.34ZM1148,812.23v-1.71h1.27v1.71Zm0,13.47V814.52h1.28V825.7Zm-4.41.23a2.91,2.91,0,0,1-2.06-.64,2.81,2.81,0,0,1-.65-2.08v-7.78h-1.58l.09-.77,1.51-.14.34-2.56.89-.06v2.6h3.27v.93h-3.27V823a2.36,2.36,0,0,0,.39,1.59,1.89,1.89,0,0,0,1.37.4,6.41,6.41,0,0,0,1.57-.23l0,1a10.31,10.31,0,0,1-1.92.17Zm-10.91-1a2.88,2.88,0,0,0,1.54-.42,3.16,3.16,0,0,0,1.07-1.11,6,6,0,0,0,.6-1.52,7.6,7.6,0,0,0,0-3.42,5.64,5.64,0,0,0-.59-1.52,3.05,3.05,0,0,0-1.08-1.12,3,3,0,0,0-1.56-.42,3.56,3.56,0,0,0-1.64.34,2.63,2.63,0,0,0-1.09,1,4.43,4.43,0,0,0-.59,1.44,8,8,0,0,0-.18,1.82,10.32,10.32,0,0,0,.17,2,5.08,5.08,0,0,0,.57,1.55,2.63,2.63,0,0,0,1.09,1,3.63,3.63,0,0,0,1.68.35Zm-4.77,5.78V814.52H1129l.11,1.59a5.93,5.93,0,0,1,1.6-1.35,3.88,3.88,0,0,1,1.89-.45,4.18,4.18,0,0,1,3.58,1.59,7,7,0,0,1,1.19,4.34,6.46,6.46,0,0,1-1.26,4.11,4.1,4.1,0,0,1-3.4,1.6,4.42,4.42,0,0,1-2.08-.52,4.17,4.17,0,0,1-1.55-1.37c0,.84.05,1.66.05,2.47v4.06ZM1123,812.23v-1.71h1.27v1.71Zm0,13.47V814.52h1.28V825.7Zm-7.94,0V814.52h1l.08,2.2a5.29,5.29,0,0,1,1.53-1.63,3.45,3.45,0,0,1,1.94-.63,5.46,5.46,0,0,1,.9.07l-.09,1.05a4.9,4.9,0,0,0-.77-.06,3,3,0,0,0-2.38,1.12,3.92,3.92,0,0,0-1,2.65v6.42Zm-5.74.24a5,5,0,0,1-2.82-.8,4.86,4.86,0,0,1-1.78-2.08,6.83,6.83,0,0,1-.58-2.85,7.27,7.27,0,0,1,.35-2.27,6.08,6.08,0,0,1,1-1.88,4.49,4.49,0,0,1,1.64-1.29,5.24,5.24,0,0,1,2.24-.47,6.3,6.3,0,0,1,1.61.21,3.41,3.41,0,0,1,1.19.51l-.4,1a5,5,0,0,0-2.49-.59,3.32,3.32,0,0,0-2.76,1.32,5.55,5.55,0,0,0-1,3.51,5.3,5.3,0,0,0,1,3.38,3.35,3.35,0,0,0,2.77,1.29,6.66,6.66,0,0,0,2.63-.61l.19.91a3.67,3.67,0,0,1-1.24.56,6.06,6.06,0,0,1-1.58.2Zm-11.56,0a7.48,7.48,0,0,1-2-.27,5.09,5.09,0,0,1-1.5-.63l.18-1.06a7,7,0,0,0,3.23.88c1.85,0,2.8-.68,2.87-2.05a1.69,1.69,0,0,0-.56-1.35,6.79,6.79,0,0,0-2.23-1l-1-.34c-1.75-.53-2.63-1.48-2.64-2.83a2.68,2.68,0,0,1,1-2.08,4.07,4.07,0,0,1,2.8-.9,8.07,8.07,0,0,1,3.32.69l-.43.94a8.35,8.35,0,0,0-2.92-.59,3,3,0,0,0-1.86.53,1.71,1.71,0,0,0-.68,1.43,1.48,1.48,0,0,0,.44,1.16,4.62,4.62,0,0,0,1.76.77l.53.18.42.15a5.76,5.76,0,0,1,2.46,1.28,2.82,2.82,0,0,1,.7,2,2.79,2.79,0,0,1-1.1,2.28,4.6,4.6,0,0,1-2.82.87Zm-14.07-6.71H1090a4.42,4.42,0,0,0-.81-2.86,2.68,2.68,0,0,0-2.22-1,2.84,2.84,0,0,0-2.31,1.06,5,5,0,0,0-1,2.81Zm3.65,6.7a4.67,4.67,0,0,1-3.68-1.55,6.14,6.14,0,0,1-1.36-4.2,6.46,6.46,0,0,1,1.33-4.19,4.37,4.37,0,0,1,3.44-1.68,4,4,0,0,1,3.16,1.41,5.66,5.66,0,0,1,1.19,3.78v.76h-7.79a5.39,5.39,0,0,0,1,3.41,3.31,3.31,0,0,0,2.69,1.26,6.46,6.46,0,0,0,1.9-.26,10.36,10.36,0,0,0,1.68-.72l.21.95a7.06,7.06,0,0,1-3.8,1Zm-12.94-1a3.81,3.81,0,0,0,1.66-.35,2.82,2.82,0,0,0,1.14-1,4.49,4.49,0,0,0,.64-1.45,7,7,0,0,0,.21-1.82q0-5-3.67-5a2.84,2.84,0,0,0-1.53.41,3,3,0,0,0-1,1.11,5.94,5.94,0,0,0-.57,1.52,8.4,8.4,0,0,0-.18,1.73,9.09,9.09,0,0,0,.11,1.47,5.94,5.94,0,0,0,.37,1.31,4,4,0,0,0,.63,1.07,2.73,2.73,0,0,0,1,.7,3.17,3.17,0,0,0,1.21.3Zm0,1a4.21,4.21,0,0,1-3.48-1.55,6.65,6.65,0,0,1-1.25-4.29,6.47,6.47,0,0,1,1.29-4.18,4.13,4.13,0,0,1,3.4-1.61,5.29,5.29,0,0,1,2.08.45,3.26,3.26,0,0,1,1.58,1.4v-6l1.22-.11V825.7h-1L1078,824a3.76,3.76,0,0,1-1.58,1.43,4.6,4.6,0,0,1-2,.5Zm-20.66-6.35h5.33q-2.29-6.58-2.6-7.76c-.08.3-.35,1.1-.81,2.39l-1.31,3.65Zm-3.82,6.11,5.93-15.19h1.26l5.71,15.19h-1.35l-1.94-5.15h-6.3l-2,5.15Z"/></clipPath><clipPath id="clip-path-43"><rect class="cls-1" x="884" y="790" width="144.12" height="56.46" rx="13.54"/></clipPath><clipPath id="clip-path-45"><path class="cls-1" d="M1001.29,832.46a5.12,5.12,0,0,1-.87-.08l-.09-1h.7a3.44,3.44,0,0,0,1.93-.44,3.62,3.62,0,0,0,1.14-1.71l.32-.88.4-1.11L1000.37,816h1.33l3.8,10,.46-1.41q2.81-8.77,2.88-8.76c.07,0,0,0,0,.1h1.33l-4.67,13.14a6.73,6.73,0,0,1-1.65,2.52A3.73,3.73,0,0,1,1001.29,832.46Zm-7.39-5.31V816h1l.08,2.2a5.29,5.29,0,0,1,1.53-1.63,3.45,3.45,0,0,1,1.94-.63,5.46,5.46,0,0,1,.9.07l-.09,1a5.12,5.12,0,0,0-.78-.06,3,3,0,0,0-2.38,1.12,3.92,3.92,0,0,0-1,2.65v6.42Zm-8.59-.77a3.74,3.74,0,0,0,2.32-.77,3.58,3.58,0,0,0,1.33-2.14v-1.91l-1.48.12a8.61,8.61,0,0,0-3.46.82,2,2,0,0,0-1,1.84,1.89,1.89,0,0,0,.62,1.53,2.49,2.49,0,0,0,1.68.51Zm0,1a3.79,3.79,0,0,1-2.53-.8,2.81,2.81,0,0,1-.95-2.28,3,3,0,0,1,.38-1.53,2.78,2.78,0,0,1,1.1-1,6.54,6.54,0,0,1,1.64-.63,14.3,14.3,0,0,1,2.15-.32l1.94-.13v-1.25a2.81,2.81,0,0,0-.59-1.93,2.42,2.42,0,0,0-1.88-.65,6.78,6.78,0,0,0-3.32.85l-.19-.44a5.59,5.59,0,0,1-.21-.53,5.81,5.81,0,0,1,1.65-.68,7.49,7.49,0,0,1,2-.28,4,4,0,0,1,2.89.86,4.22,4.22,0,0,1,.88,3.06v7.47h-1q0-.23-.15-.93c-.07-.47-.1-.7-.1-.71a4.28,4.28,0,0,1-3.74,1.91Zm-22-.24V816h1.1l.16,1.71A3.76,3.76,0,0,1,966,816.3a4.15,4.15,0,0,1,2.07-.54c1.79,0,2.91.7,3.37,2.11a4,4,0,0,1,3.77-2.11,3.29,3.29,0,0,1,2.7,1,4.81,4.81,0,0,1,.86,3.12v7.23H977.5v-6.77a6.66,6.66,0,0,0-.1-1.13,3.82,3.82,0,0,0-.23-1,3.5,3.5,0,0,0-.41-.73,1.49,1.49,0,0,0-.65-.51,2.51,2.51,0,0,0-.94-.16,3.26,3.26,0,0,0-2.18.76,4,4,0,0,0-1.24,2.14c0,.67,0,1.2,0,1.61v5.8h-1.26v-5.69c0-.58,0-1.08,0-1.51a7.57,7.57,0,0,0-.2-1.25,3.35,3.35,0,0,0-.41-1,2,2,0,0,0-.69-.62,2,2,0,0,0-1-.23,3.58,3.58,0,0,0-2.32.74,3.35,3.35,0,0,0-1.21,2v7.55Zm-19,0V816h1.1l.16,1.71A3.76,3.76,0,0,1,947,816.3a4.15,4.15,0,0,1,2.07-.54c1.79,0,2.91.7,3.37,2.11a4,4,0,0,1,3.77-2.11,3.29,3.29,0,0,1,2.7,1,4.81,4.81,0,0,1,.86,3.12v7.23H958.5v-6.77a6.66,6.66,0,0,0-.1-1.13,3.82,3.82,0,0,0-.23-1,3.5,3.5,0,0,0-.41-.73A1.53,1.53,0,0,0,957,817a2.51,2.51,0,0,0-.94-.16,3.26,3.26,0,0,0-2.18.76,4,4,0,0,0-1.24,2.14c0,.67,0,1.2.05,1.61v5.8h-1.26v-5.69c0-.58,0-1.08,0-1.51a7.57,7.57,0,0,0-.2-1.25,3.35,3.35,0,0,0-.41-1,2,2,0,0,0-.69-.62,2,2,0,0,0-1-.23,3.58,3.58,0,0,0-2.32.74,3.35,3.35,0,0,0-1.21,2v7.55Zm-7.76.28a6.38,6.38,0,0,1-1.63-.2,4.81,4.81,0,0,1-1.39-.62,2.91,2.91,0,0,1-1-1.2,4.11,4.11,0,0,1-.37-1.83V816h1.27v7.64a3.29,3.29,0,0,0,.24,1.35,1.83,1.83,0,0,0,.7.83,3.06,3.06,0,0,0,1,.39,5.45,5.45,0,0,0,1.21.11,6,6,0,0,0,1.2-.12,3.09,3.09,0,0,0,1-.4,1.8,1.8,0,0,0,.69-.83,3.34,3.34,0,0,0,.24-1.33V816H941v7.61a4.42,4.42,0,0,1-.24,1.53,3.14,3.14,0,0,1-.65,1.1,3.32,3.32,0,0,1-1,.71,4.81,4.81,0,0,1-1.18.39,6.69,6.69,0,0,1-1.41.09Zm-11.14,0a7.48,7.48,0,0,1-2-.27,5.09,5.09,0,0,1-1.5-.63l.18-1.06a7,7,0,0,0,3.22.88c1.85,0,2.8-.68,2.87-2.05a1.69,1.69,0,0,0-.56-1.35,6.79,6.79,0,0,0-2.23-1l-1-.34c-1.75-.53-2.63-1.48-2.64-2.83a2.71,2.71,0,0,1,1-2.08,4.07,4.07,0,0,1,2.8-.9,8.07,8.07,0,0,1,3.32.69l-.43.94a8.35,8.35,0,0,0-2.92-.59,3,3,0,0,0-1.86.53,1.71,1.71,0,0,0-.68,1.43,1.48,1.48,0,0,0,.44,1.16,4.62,4.62,0,0,0,1.76.77l.53.18.42.15a5.76,5.76,0,0,1,2.46,1.28,2.82,2.82,0,0,1,.7,2,2.79,2.79,0,0,1-1.1,2.28,4.59,4.59,0,0,1-2.83.8ZM905.51,821h5.33q-2.3-6.59-2.6-7.76c-.08.3-.35,1.1-.81,2.39l-1.31,3.65Zm-3.82,6.11L907.62,812h1.26l5.71,15.19h-1.35L911.3,822H905l-2,5.15Z"/></clipPath><clipPath id="clip-path-48"><rect class="cls-1" x="928" y="672" width="57" height="56"/></clipPath><clipPath id="clip-path-50"><path class="cls-1" d="M958.38,708.06a3.43,3.43,0,0,0,1.82-.49,3.6,3.6,0,0,0,1.26-1.31,6.73,6.73,0,0,0,.7-1.79,8.47,8.47,0,0,0,.23-2,9,9,0,0,0-.23-2,6.71,6.71,0,0,0-.69-1.79,3.57,3.57,0,0,0-1.27-1.32,3.5,3.5,0,0,0-1.84-.49,4.26,4.26,0,0,0-1.93.4,3.12,3.12,0,0,0-1.29,1.15,5.25,5.25,0,0,0-.69,1.7,9.6,9.6,0,0,0-.22,2.14,12.78,12.78,0,0,0,.2,2.39,6,6,0,0,0,.67,1.82,3,3,0,0,0,1.28,1.21A4.43,4.43,0,0,0,958.38,708.06Zm-5.61,6.81v-19h1.33l.13,1.88a7.36,7.36,0,0,1,1.88-1.59,4.56,4.56,0,0,1,2.23-.53,4.93,4.93,0,0,1,4.21,1.87,8.38,8.38,0,0,1,1.4,5.12,7.65,7.65,0,0,1-1.48,4.84,4.8,4.8,0,0,1-4,1.88,5.23,5.23,0,0,1-2.45-.61,5.06,5.06,0,0,1-1.83-1.61q.06,1.49.06,2.91v4.79Z"/></clipPath><clipPath id="clip-path-53"><rect class="cls-1" x="1084" y="672" width="56.27" height="56.46"/></clipPath><clipPath id="clip-path-55"><path class="cls-1" d="M1113.13,708.41a3.43,3.43,0,0,0,1.82-.49,3.6,3.6,0,0,0,1.26-1.31,6.73,6.73,0,0,0,.7-1.79,8.47,8.47,0,0,0,.23-2,9,9,0,0,0-.23-2,7.06,7.06,0,0,0-.69-1.79,3.57,3.57,0,0,0-1.27-1.32,3.5,3.5,0,0,0-1.84-.49,4.26,4.26,0,0,0-1.93.4,3.12,3.12,0,0,0-1.29,1.15,5.25,5.25,0,0,0-.69,1.7,9.6,9.6,0,0,0-.22,2.14,12,12,0,0,0,.21,2.39,6,6,0,0,0,.67,1.82,3,3,0,0,0,1.28,1.21A4.39,4.39,0,0,0,1113.13,708.41Zm-5.61,6.81v-19h1.34L1109,698a7.36,7.36,0,0,1,1.88-1.59,4.56,4.56,0,0,1,2.23-.53,5,5,0,0,1,4.22,1.87,8.38,8.38,0,0,1,1.4,5.12,7.65,7.65,0,0,1-1.48,4.84,4.8,4.8,0,0,1-4,1.88,5.23,5.23,0,0,1-2.45-.61,5.06,5.06,0,0,1-1.83-1.61q.06,1.49.06,2.91v4.79Z"/></clipPath><clipPath id="clip-path-57"><rect class="cls-1" x="748" y="554" width="175" height="56.46"/></clipPath><clipPath id="clip-path-59"><path class="cls-1" d="M842.07,591V574.7a9.79,9.79,0,0,1-1.22.69,14.37,14.37,0,0,1-1.67.7v-1.3a19.87,19.87,0,0,0,3.16-1.67h1.26V591ZM826,591V572.71l1.49-.13v7.24a5.34,5.34,0,0,1,4.62-2.24q4.29,0,4.29,5.18V591h-1.48v-8a5.72,5.72,0,0,0-.69-3.22,2.74,2.74,0,0,0-2.42-1,4.47,4.47,0,0,0-2.86.91,3.76,3.76,0,0,0-1.41,2.34V591Z"/></clipPath><clipPath id="clip-path-61"><rect class="cls-1" x="947" y="554" width="175" height="56.46"/></clipPath><clipPath id="clip-path-63"><path class="cls-1" d="M1044.24,591l-5-13.18h1.6l3.05,8.31c.16.52.35,1.08.57,1.67s.4,1.05.53,1.38l.21.49a16.2,16.2,0,0,1,.59-1.65,19.14,19.14,0,0,0,.67-1.85c.2-.65.59-1.69,1.18-3.12s1.19-3.13,1.86-5.22h1.6L1046,591Zm-9.18-15.87v-2h1.49v2Zm0,15.87V577.82h1.5V591Zm-10.16-.9a4.46,4.46,0,0,0,2-.41,3.41,3.41,0,0,0,1.35-1.15,5.34,5.34,0,0,0,.75-1.71,8.66,8.66,0,0,0,.25-2.15q0-5.88-4.33-5.88a3.36,3.36,0,0,0-1.8.49,3.44,3.44,0,0,0-1.23,1.31,6.66,6.66,0,0,0-.67,1.79,9,9,0,0,0-.22,2,11.32,11.32,0,0,0,.13,1.74,6.92,6.92,0,0,0,.43,1.54,4.48,4.48,0,0,0,.75,1.26,3.15,3.15,0,0,0,1.12.83,3.56,3.56,0,0,0,1.47.34Zm0,1.18a5,5,0,0,1-4.11-1.83,7.83,7.83,0,0,1-1.47-5,7.62,7.62,0,0,1,1.52-4.92,4.91,4.91,0,0,1,4-1.89,6.27,6.27,0,0,1,2.45.53,3.84,3.84,0,0,1,1.86,1.65v-7l1.44-.13V591h-1.24l-.22-2a4.4,4.4,0,0,1-1.86,1.69,5.4,5.4,0,0,1-2.33.59Z"/></clipPath><clipPath id="clip-path-66"><path class="cls-1" d="M332.51,134.29a7,7,0,0,1-5.52-2.23,8.75,8.75,0,0,1-2-6.09,9.1,9.1,0,0,1,1.95-6.06,6.49,6.49,0,0,1,5.13-2.37,5.93,5.93,0,0,1,4.74,2,8.12,8.12,0,0,1,1.75,5.46v1.31h-11a6.3,6.3,0,0,0,1.41,4.27,4.71,4.71,0,0,0,3.68,1.53,10.89,10.89,0,0,0,5.11-1.35l.38,2A10.53,10.53,0,0,1,332.51,134.29ZM335,120.86a3.64,3.64,0,0,0-2.94-1.29A3.92,3.92,0,0,0,329,120.9a6.05,6.05,0,0,0-1.39,3.63h8.48A5.5,5.5,0,0,0,335,120.86Zm-14.15,13.39a4,4,0,0,1-3.32-1.26c-.67-.84-1-2.3-1-4.38v-17l2.43-.15V129.2a9.24,9.24,0,0,0,.11,1.18,3,3,0,0,0,.23.87,1.79,1.79,0,0,0,.42.53,1.49,1.49,0,0,0,.67.32,4.77,4.77,0,0,0,1,.08c.62,0,1.24-.09,1.85-.18l.13,1.95a15.58,15.58,0,0,1-2.54.3ZM311,112v2.9h-2.46V112Zm0,5.84V134h-2.46V117.88ZM295,134h-2.53V112.29h12l-.1,2.24H295v7.6h9v2.15h-9Zm-26.72,0V112.29h2.55V131.7h9.54l-.09,2.26Zm-18-1.33-6.65-15.47-.56-1.48.1,5.3v13H240.8V112.29h3.28l7.54,17.26,7.47-17.26h3.19V134h-2.46V121l.1-5.19-.54,1.48-6.64,15.41ZM230.59,134H228V114.53h-6.67v-2.24h15.88v2.24h-6.67Zm-12.74,0h-2.53V123.82H203.69V134h-2.53V112.29h2.53v9.3h11.63v-9.3h2.53Z"/></clipPath></defs><g id="Layer_2" data-name="Layer 2"><g id="Layer_1-2" data-name="Layer 1-2"><rect class="cls-2" width="1224" height="951"/><g class="cls-3"><g class="cls-3"><rect class="cls-1" width="1224" height="951"/></g></g><g class="cls-3"><line class="cls-4" x1="640" y1="503.6" x2="640" y2="543.4"/></g><g class="cls-5"><g class="cls-3"><rect class="cls-6" x="547" y="549" width="184.72" height="66.46"/></g></g><g class="cls-7"><g class="cls-3"><rect class="cls-8" x="615.04" y="570.37" width="46.47" height="25.88"/></g></g><g class="cls-9"><g class="cls-3"><rect class="cls-8" x="745.55" y="107.95" width="79.07" height="32.37"/></g></g><g class="cls-10"><g class="cls-3"><rect class="cls-11" x="647.13" y="149.05" width="279.68" height="34.4"/></g></g><g class="cls-3"><line class="cls-12" x1="832.32" y1="544.32" x2="873.65" y2="503"/><line class="cls-12" x1="637.32" y1="425.32" x2="678.65" y2="384"/><line class="cls-12" x1="989.32" y1="503.68" x2="1030.65" y2="545"/><line class="cls-12" x1="888.32" y1="384.68" x2="929.65" y2="426"/><line class="cls-4" x1="786" y1="263.62" x2="786" y2="304.38"/></g><g class="cls-13"><g class="cls-3"><rect class="cls-6" x="631" y="192" width="310" height="66.46"/></g></g><g class="cls-14"><g class="cls-3"><rect class="cls-6" x="631" y="310" width="310" height="66.46"/></g></g><g class="cls-15"><g class="cls-3"><rect class="cls-8" x="755.94" y="329.58" width="61.02" height="28.7"/></g></g><g class="cls-16"><g class="cls-3"><rect class="cls-8" x="716.02" y="211.58" width="123.71" height="28.74"/></g></g><g class="cls-3"><line class="cls-4" x1="839.99" y1="620.61" x2="839.99" y2="660.61"/></g><g class="cls-17"><g class="cls-3"><rect class="cls-6" x="758" y="667" width="154.12" height="66.46"/></g></g><g class="cls-18"><g class="cls-3"><rect class="cls-8" x="770.71" y="688.37" width="127.31" height="30.83"/></g></g><g class="cls-3"><line class="cls-4" x1="641.99" y1="621.61" x2="641.99" y2="661.61"/></g><g class="cls-19"><g class="cls-3"><rect class="cls-6" x="562" y="667" width="154.12" height="66.46"/></g></g><g class="cls-20"><g class="cls-3"><rect class="cls-8" x="594.15" y="688.37" width="87.83" height="25.88"/></g></g><g class="cls-21"><g class="cls-3"><rect class="cls-6" x="527" y="432" width="223.75" height="66.46"/></g></g><g class="cls-22"><g class="cls-3"><rect class="cls-8" x="607.27" y="450.58" width="62.59" height="28.71"/></g></g><g class="cls-23"><g class="cls-3"><rect class="cls-6" x="821" y="432" width="223.75" height="66.46"/></g></g><g class="cls-24"><g class="cls-3"><rect class="cls-8" x="900.91" y="450.58" width="64.8" height="34.67"/></g></g><g class="cls-25"><g class="cls-3"><rect class="cls-6" x="1035.3" y="783.55" width="154.12" height="66.46"/></g></g><g class="cls-26"><g class="cls-3"><rect class="cls-8" x="1044.92" y="805.07" width="134.52" height="30.61"/></g></g><g class="cls-27"><g class="cls-3"><rect class="cls-6" x="879" y="785" width="154.12" height="66.46"/></g></g><g class="cls-28"><g class="cls-3"><rect class="cls-8" x="896.69" y="806.96" width="118.46" height="30.49"/></g></g><g class="cls-3"><line class="cls-4" x1="956.88" y1="620.61" x2="956.88" y2="661.12"/><line class="cls-4" x1="956.99" y1="739.61" x2="956.99" y2="779.61"/></g><g class="cls-29"><g class="cls-3"><rect class="cls-6" x="923" y="667" width="67" height="66"/></g></g><g class="cls-30"><g class="cls-3"><rect class="cls-8" x="947.77" y="690.58" width="21.19" height="29.29"/></g></g><g class="cls-3"><line class="cls-4" x1="1112.88" y1="620.61" x2="1112.88" y2="661.12"/><line class="cls-4" x1="1112.99" y1="739.61" x2="1112.99" y2="779.61"/></g><g class="cls-31"><g class="cls-3"><rect class="cls-6" x="1079" y="667" width="66.27" height="66.46"/></g></g><g class="cls-32"><g class="cls-3"><rect class="cls-8" x="1102.52" y="690.93" width="21.19" height="29.29"/></g></g><g class="cls-33"><g class="cls-3"><rect class="cls-6" x="743" y="549" width="185" height="66.46"/></g></g><g class="cls-34"><g class="cls-3"><rect class="cls-8" x="821.01" y="567.58" width="27.6" height="28.42"/></g></g><g class="cls-35"><g class="cls-3"><rect class="cls-6" x="942" y="549" width="185" height="66.46"/></g></g><g class="cls-36"><g class="cls-3"><rect class="cls-8" x="1014.36" y="567.58" width="41.72" height="28.7"/></g></g><g class="cls-3"><path class="cls-8" d="M68.3,212.74v2L57,209.17v-1.31l11.36-5.69v2l-8.67,4.35Z"/><path class="cls-37" d="M81.13,209.47v7.33h-2v-7.08a5.49,5.49,0,0,0-.61-3.08,2.14,2.14,0,0,0-1.84-.81,3,3,0,0,0-2.15.86,2.54,2.54,0,0,0-.91,1.84v8.26h-2v-17.1l2-.22v6.66a4.55,4.55,0,0,1,3.8-1.84Q81.13,204.29,81.13,209.47Z"/><path class="cls-37" d="M90.41,206.2v5.7a9.5,9.5,0,0,0,.12,1.68,2,2,0,0,0,.46,1,1.75,1.75,0,0,0,.9.52,7,7,0,0,0,1.51.13h2.23l-.11,1.55h-2c-2.09,0-3.48-.38-4.18-1.15a4.24,4.24,0,0,1-.83-2.43c-.06-.61-.08-1.22-.08-1.83V206.2H85l.22-1.55h3.21v-4.19l2-.6v4.78h5.12v1.55Z"/><path class="cls-37" d="M105.73,206.17a2.6,2.6,0,0,1,2.56-1.88q2.31,0,2.61,3.33c0,.41,0,.88.06,1.4v7.79h-1.85v-7.55a7.54,7.54,0,0,0-.29-2.71,1.31,1.31,0,0,0-.53-.61,1.6,1.6,0,0,0-.53-.09,1.42,1.42,0,0,0-1.38,1.09,7.18,7.18,0,0,0-.27,2.35v7.53h-1.69v-7.41a5.74,5.74,0,0,0-.58-3.18,1,1,0,0,0-.86-.38,1.2,1.2,0,0,0-1,.49,3.83,3.83,0,0,0-.74,2.49v8h-1.8V204.65H101l.12,1.61a4.12,4.12,0,0,1,.89-1.4,1.91,1.91,0,0,1,1.41-.57,2.16,2.16,0,0,1,1.44.5A2.66,2.66,0,0,1,105.73,206.17Z"/><path class="cls-37" d="M124.22,216.8h-1.61a7.59,7.59,0,0,1-3.06-.44,2.72,2.72,0,0,1-.84-.59c-.55-.57-.83-1.82-.85-3.76V201h-3.63v-1.55h5.65v12.44a5.32,5.32,0,0,0,.4,2.7,1.47,1.47,0,0,0,1,.57,10.31,10.31,0,0,0,1.24.07h1.78Z"/><path class="cls-8" d="M128.85,204v-1.84l11.3,5.84v1.05l-11.36,5.38v-1.85l8.65-4.13Z"/><path class="cls-8" d="M124.3,247.74v2L113,244.17v-1.31l11.36-5.69v2l-8.67,4.35Z"/><path class="cls-37" d="M137.24,244.47v7.33h-2v-7.08a5.49,5.49,0,0,0-.61-3.08,2.14,2.14,0,0,0-1.84-.81,3,3,0,0,0-2.15.86,2.54,2.54,0,0,0-.91,1.84v8.26h-2v-17.1l2-.22v6.66a4.55,4.55,0,0,1,3.8-1.84Q137.24,239.29,137.24,244.47Z"/><path class="cls-37" d="M144.59,251.23A5.13,5.13,0,0,1,142.7,249a8,8,0,0,1-.62-3.24,8.72,8.72,0,0,1,.57-3.24,5.37,5.37,0,0,1,1.71-2.31,4,4,0,0,1,2.5-.88,4.25,4.25,0,0,1,3.76,1.76,7.55,7.55,0,0,1,1.2,4.33V246h-7.7a6,6,0,0,0,.94,3.18,2.92,2.92,0,0,0,2.61,1.31,9.24,9.24,0,0,0,3.24-1.26l.67,1.37a5.3,5.3,0,0,1-3.93,1.44A5.41,5.41,0,0,1,144.59,251.23Zm5.3-6.66q-.22-3.73-2.61-3.73-2.7,0-3.09,3.73Z"/><path class="cls-37" d="M163.85,243.43c0-1.73-.73-2.6-2.2-2.6a12.73,12.73,0,0,0-2.3.24,9.8,9.8,0,0,0-1.77.46l-.48-1.48a13.76,13.76,0,0,1,4.31-.76,5.24,5.24,0,0,1,3.23.92,3.32,3.32,0,0,1,1.22,2.83v8.76h-1.67l-.27-1.41a5.71,5.71,0,0,1-1.82,1.2,5.49,5.49,0,0,1-2.18.48,3.69,3.69,0,0,1-2.56-.92,3.35,3.35,0,0,1-1-2.61,2.68,2.68,0,0,1,1.33-2.48,6,6,0,0,1,1.91-.76c.67-.13,1.55-.27,2.64-.4l1.62-.19Zm0,5.66V246l-1.65.23a13,13,0,0,0-2.39.49,2,2,0,0,0-1.48,1.89,2,2,0,0,0,.53,1.46,2,2,0,0,0,1.46.54A4.76,4.76,0,0,0,163.85,249.09Z"/><path class="cls-37" d="M178.55,241.32v-6.63l2-.22V251.8h-2v-1.88a3.84,3.84,0,0,1-3.48,2.16,4.1,4.1,0,0,1-3.74-1.84,8.43,8.43,0,0,1-1.17-4.62,7,7,0,0,1,1.71-5.09,4.23,4.23,0,0,1,3.21-1.24,4,4,0,0,1,2.23.56A3.23,3.23,0,0,1,178.55,241.32Zm0,4.33c0-1.89-.28-3.17-.84-3.83a3,3,0,0,0-2.39-1,2.68,2.68,0,0,0-2.78,2.13,9.81,9.81,0,0,0-.34,2.8q0,4.75,3.12,4.76t3.23-4.86Z"/><path class="cls-8" d="M185,239v-1.84L196.3,243v1.05l-11.36,5.38v-1.85l8.65-4.13Z"/><path class="cls-8" d="M152.3,282.74v2L141,279.17v-1.31l11.36-5.69v2l-8.67,4.35Z"/><path class="cls-37" d="M160.14,276.2v5.7a9.5,9.5,0,0,0,.12,1.68,2,2,0,0,0,.47,1,1.75,1.75,0,0,0,.9.52,7,7,0,0,0,1.51.13h2.23l-.11,1.55h-2c-2.09,0-3.48-.38-4.17-1.15a4.24,4.24,0,0,1-.83-2.43c-.06-.61-.08-1.22-.08-1.83V276.2h-3.43l.22-1.55h3.21v-4.19l2-.6v4.78h5.12v1.55Z"/><path class="cls-37" d="M170.89,276.2v-1.55h5.48v10.6h3.48v1.55H170.5v-1.55h3.85v-9Zm3.13-4.75v-1.1a.85.85,0,0,1,.45-.7,1.47,1.47,0,0,1,1.78,0,.85.85,0,0,1,.45.7v1.1a.85.85,0,0,1-.45.7,1.47,1.47,0,0,1-1.78,0,.85.85,0,0,1-.47-.7Z"/><path class="cls-37" d="M188.9,276.2v5.7a9.5,9.5,0,0,0,.12,1.68,2,2,0,0,0,.47,1,1.75,1.75,0,0,0,.9.52,7,7,0,0,0,1.51.13h2.23L194,286.8h-2c-2.09,0-3.48-.38-4.17-1.15a4.24,4.24,0,0,1-.83-2.43c-.06-.61-.08-1.22-.08-1.83V276.2h-3.43l.22-1.55h3.21v-4.19l2-.6v4.78H194v1.55Z"/><path class="cls-37" d="M208.33,286.8h-1.61a7.77,7.77,0,0,1-3.06-.44,2.72,2.72,0,0,1-.84-.59c-.55-.57-.83-1.82-.85-3.77V271h-3.63v-1.55H204v12.44a5.32,5.32,0,0,0,.4,2.7,1.47,1.47,0,0,0,1,.57,10.31,10.31,0,0,0,1.24.07h1.78Z"/><path class="cls-37" d="M215.74,286.23a5.13,5.13,0,0,1-1.89-2.28,8,8,0,0,1-.62-3.24,8.72,8.72,0,0,1,.57-3.24,5.37,5.37,0,0,1,1.71-2.31,4,4,0,0,1,2.5-.88,4.25,4.25,0,0,1,3.76,1.76,7.55,7.55,0,0,1,1.2,4.33V281h-7.7a6,6,0,0,0,.94,3.18,2.92,2.92,0,0,0,2.61,1.31,9.24,9.24,0,0,0,3.24-1.26l.67,1.37A5.3,5.3,0,0,1,218.8,287,5.41,5.41,0,0,1,215.74,286.23Zm5.3-6.66q-.22-3.74-2.61-3.73-2.7,0-3.09,3.73Z"/><path class="cls-8" d="M227.34,274v-1.84l11.3,5.84v1.05l-11.36,5.38v-1.85l8.65-4.13Z"/><path class="cls-8" d="M252.47,270.29v1.62h-4.7V286.8H245.7V271.91H241v-1.62Z"/><path class="cls-8" d="M265.91,279.47v7.33h-2v-7.08a5.49,5.49,0,0,0-.61-3.08,2.14,2.14,0,0,0-1.84-.81,3,3,0,0,0-2.15.86,2.54,2.54,0,0,0-.91,1.84v8.26h-2v-17.1l2-.22v6.66a4.55,4.55,0,0,1,3.8-1.84Q265.91,274.29,265.91,279.47Z"/><path class="cls-8" d="M273.26,286.23a5.13,5.13,0,0,1-1.89-2.28,8,8,0,0,1-.62-3.24,8.72,8.72,0,0,1,.57-3.24,5.37,5.37,0,0,1,1.71-2.31,4,4,0,0,1,2.5-.88,4.25,4.25,0,0,1,3.76,1.76,7.55,7.55,0,0,1,1.2,4.33V281h-7.7a6,6,0,0,0,.94,3.18,2.92,2.92,0,0,0,2.61,1.31,9.24,9.24,0,0,0,3.24-1.26l.67,1.37a5.3,5.3,0,0,1-3.93,1.44A5.41,5.41,0,0,1,273.26,286.23Zm5.3-6.66q-.22-3.74-2.61-3.73-2.7,0-3.09,3.73Z"/><path class="cls-8" d="M304,276.2v5.7a9.5,9.5,0,0,0,.12,1.68,2,2,0,0,0,.47,1,1.75,1.75,0,0,0,.9.52,7,7,0,0,0,1.51.13h2.23l-.11,1.55h-2c-2.09,0-3.48-.38-4.17-1.15a4.24,4.24,0,0,1-.83-2.43c-.06-.61-.08-1.22-.08-1.83V276.2H298.5l.22-1.55h3.21v-4.19l2-.6v4.78h5.12v1.55Z"/><path class="cls-8" d="M314.7,276.2v-1.55h5.48v10.6h3.48v1.55h-9.35v-1.55h3.85v-9Zm3.13-4.75v-1.1a.85.85,0,0,1,.45-.7,1.47,1.47,0,0,1,1.78,0,.85.85,0,0,1,.45.7v1.1a.85.85,0,0,1-.45.7,1.47,1.47,0,0,1-1.78,0,.85.85,0,0,1-.45-.7Z"/><path class="cls-8" d="M332.71,276.2v5.7a9.5,9.5,0,0,0,.12,1.68,2,2,0,0,0,.47,1,1.75,1.75,0,0,0,.9.52,7,7,0,0,0,1.51.13h2.23l-.11,1.55h-2c-2.09,0-3.48-.38-4.17-1.15a4.24,4.24,0,0,1-.83-2.43c-.06-.61-.08-1.22-.08-1.83V276.2h-3.43l.22-1.55h3.21v-4.19l2-.6v4.78h5.12v1.55Z"/><path class="cls-8" d="M352.14,286.8h-1.61a7.77,7.77,0,0,1-3.06-.44,2.72,2.72,0,0,1-.84-.59c-.55-.57-.83-1.82-.85-3.77V271h-3.63v-1.55h5.65v12.44a5.32,5.32,0,0,0,.4,2.7,1.47,1.47,0,0,0,1,.57,10.31,10.31,0,0,0,1.24.07h1.78Z"/><path class="cls-8" d="M359.55,286.23a5.13,5.13,0,0,1-1.89-2.28,8,8,0,0,1-.62-3.24,8.72,8.72,0,0,1,.57-3.24,5.37,5.37,0,0,1,1.71-2.31,4,4,0,0,1,2.5-.88,4.25,4.25,0,0,1,3.76,1.76,7.55,7.55,0,0,1,1.2,4.33V281h-7.7a6,6,0,0,0,.94,3.18,2.92,2.92,0,0,0,2.61,1.31,9.24,9.24,0,0,0,3.24-1.26l.67,1.37a5.3,5.3,0,0,1-3.93,1.44A5.41,5.41,0,0,1,359.55,286.23Zm5.3-6.66q-.23-3.74-2.61-3.73-2.7,0-3.09,3.73Z"/><path class="cls-8" d="M382.4,282.74v2l-11.32-5.53V277.9l11.36-5.69v2l-8.67,4.35Z"/><path class="cls-8" d="M393.6,269.25h2.18l-7.85,20h-2.11Z"/><path class="cls-37" d="M404.62,276.2v5.7a9.5,9.5,0,0,0,.12,1.68,2,2,0,0,0,.47,1,1.75,1.75,0,0,0,.9.52,7,7,0,0,0,1.51.13h2.23l-.11,1.55h-2c-2.09,0-3.48-.38-4.17-1.15a4.24,4.24,0,0,1-.83-2.43c-.06-.61-.08-1.22-.08-1.83V276.2h-3.43l.22-1.55h3.21v-4.19l2-.6v4.78h5.12v1.55Z"/><path class="cls-37" d="M415.37,276.2v-1.55h5.48v10.6h3.48v1.55H415v-1.55h3.85v-9Zm3.13-4.75v-1.1a.85.85,0,0,1,.45-.7,1.47,1.47,0,0,1,1.78,0,.85.85,0,0,1,.45.7v1.1a.85.85,0,0,1-.45.7,1.47,1.47,0,0,1-1.78,0A.85.85,0,0,1,418.5,271.45Z"/><path class="cls-37" d="M433.38,276.2v5.7a9.5,9.5,0,0,0,.12,1.68,2,2,0,0,0,.47,1,1.75,1.75,0,0,0,.9.52,7,7,0,0,0,1.51.13h2.23l-.11,1.55h-2c-2.09,0-3.48-.38-4.17-1.15a4.24,4.24,0,0,1-.83-2.43c-.06-.61-.08-1.22-.08-1.83V276.2H428l.22-1.55h3.21v-4.19l2-.6v4.78h5.12v1.55Z"/><path class="cls-37" d="M452.81,286.8H451.2a7.77,7.77,0,0,1-3.06-.44,2.72,2.72,0,0,1-.84-.59c-.55-.57-.83-1.82-.85-3.77V271h-3.63v-1.55h5.65v12.44a5.32,5.32,0,0,0,.4,2.7,1.47,1.47,0,0,0,1,.57,10.31,10.31,0,0,0,1.24.07h1.78Z"/><path class="cls-37" d="M460.22,286.23a5.13,5.13,0,0,1-1.89-2.28,8,8,0,0,1-.62-3.24,8.72,8.72,0,0,1,.57-3.24,5.37,5.37,0,0,1,1.71-2.31,4,4,0,0,1,2.5-.88,4.25,4.25,0,0,1,3.76,1.76,7.55,7.55,0,0,1,1.2,4.33V281h-7.7a6,6,0,0,0,.94,3.18,2.92,2.92,0,0,0,2.61,1.31,9.24,9.24,0,0,0,3.24-1.26l.67,1.37a5.3,5.3,0,0,1-3.93,1.44A5.41,5.41,0,0,1,460.22,286.23Zm5.3-6.66q-.22-3.74-2.61-3.73-2.7,0-3.09,3.73Z"/><path class="cls-8" d="M471.82,274v-1.84l11.3,5.84v1.05l-11.36,5.38v-1.85l8.65-4.13Z"/><path class="cls-8" d="M124.3,317.74v2L113,314.17v-1.31l11.36-5.69v2l-8.67,4.35Z"/><path class="cls-8" d="M135.5,304.25h2.18l-7.85,20h-2.11Z"/><path class="cls-37" d="M151.62,314.47v7.33h-2v-7.08a5.49,5.49,0,0,0-.61-3.08,2.14,2.14,0,0,0-1.84-.81,3,3,0,0,0-2.15.86,2.54,2.54,0,0,0-.91,1.84v8.26h-2v-17.1l2-.22v6.66a4.55,4.55,0,0,1,3.8-1.84Q151.62,309.29,151.62,314.47Z"/><path class="cls-37" d="M159,321.23a5.13,5.13,0,0,1-1.89-2.28,8,8,0,0,1-.62-3.24,8.72,8.72,0,0,1,.57-3.24,5.37,5.37,0,0,1,1.71-2.31,4,4,0,0,1,2.5-.88A4.22,4.22,0,0,1,165,311a7.55,7.55,0,0,1,1.2,4.33V316h-7.7a6,6,0,0,0,.94,3.18,2.92,2.92,0,0,0,2.61,1.31,9.24,9.24,0,0,0,3.24-1.26l.67,1.37A5.3,5.3,0,0,1,162,322,5.4,5.4,0,0,1,159,321.23Zm5.3-6.66q-.23-3.74-2.61-3.73-2.7,0-3.09,3.73Z"/><path class="cls-37" d="M178.23,313.43c0-1.73-.73-2.6-2.2-2.6a12.73,12.73,0,0,0-2.3.24,9.8,9.8,0,0,0-1.77.46l-.48-1.48a13.76,13.76,0,0,1,4.31-.76,5.24,5.24,0,0,1,3.23.92,3.32,3.32,0,0,1,1.22,2.83v8.76h-1.67l-.27-1.41a5.71,5.71,0,0,1-1.82,1.2,5.49,5.49,0,0,1-2.18.48,3.69,3.69,0,0,1-2.56-.92,3.35,3.35,0,0,1-1-2.61,2.68,2.68,0,0,1,1.33-2.48,6,6,0,0,1,1.91-.76c.67-.13,1.55-.27,2.64-.4l1.62-.19Zm0,5.66V316l-1.65.23a13,13,0,0,0-2.39.49,2,2,0,0,0-1.48,1.89,2,2,0,0,0,.53,1.46,2,2,0,0,0,1.46.54A4.76,4.76,0,0,0,178.23,319.09Z"/><path class="cls-37" d="M192.93,311.32v-6.63l2-.22V321.8h-2v-1.88a3.84,3.84,0,0,1-3.48,2.16,4.1,4.1,0,0,1-3.74-1.84,8.43,8.43,0,0,1-1.17-4.62,7,7,0,0,1,1.71-5.09,4.23,4.23,0,0,1,3.21-1.24,4,4,0,0,1,2.23.56A3.23,3.23,0,0,1,192.93,311.32Zm0,4.33c0-1.89-.28-3.17-.84-3.83a3,3,0,0,0-2.39-1,2.68,2.68,0,0,0-2.78,2.13,9.81,9.81,0,0,0-.34,2.8q0,4.75,3.12,4.76T192.93,315.65Z"/><path class="cls-8" d="M199.34,309v-1.84l11.3,5.84v1.05l-11.36,5.38v-1.85l8.65-4.13Z"/><path class="cls-8" d="M124.3,387.74v2L113,384.17v-1.31l11.36-5.69v2l-8.67,4.35Z"/><path class="cls-37" d="M129.59,381.32a4.46,4.46,0,0,1,7.28-.23,8,8,0,0,1,1.15,4.45,7.47,7.47,0,0,1-1.66,5.28,4.25,4.25,0,0,1-3.26,1.29,3.61,3.61,0,0,1-2.08-.5,6.92,6.92,0,0,1-1.43-1.43v1.66h-2V374.69l2-.22Zm.08,5.85a4.73,4.73,0,0,0,.93,2.45,3,3,0,0,0,4.24,0,3.1,3.1,0,0,0,.76-1.25,7.38,7.38,0,0,0,.37-2.33,16.71,16.71,0,0,0-.08-1.87,4.81,4.81,0,0,0-.87-2.45,2.61,2.61,0,0,0-2.19-.9,2.81,2.81,0,0,0-3,2.39,9,9,0,0,0-.23,2.13A15.65,15.65,0,0,0,129.67,387.17Z"/><path class="cls-37" d="M150.83,381.06a7.55,7.55,0,0,1,1.32,4.63,7.12,7.12,0,0,1-1.43,4.62,4.74,4.74,0,0,1-3.88,1.77,5.23,5.23,0,0,1-2.33-.5,4.3,4.3,0,0,1-1.65-1.37,7.67,7.67,0,0,1-1.27-4.58A7.07,7.07,0,0,1,143,381a4.8,4.8,0,0,1,4-1.75A4.52,4.52,0,0,1,150.83,381.06Zm-4,9.47a2.85,2.85,0,0,0,2.88-2.1,6.79,6.79,0,0,0,.41-2.32,14.48,14.48,0,0,0-.09-1.86,4.9,4.9,0,0,0-1-2.46,2.69,2.69,0,0,0-2.24-1A2.81,2.81,0,0,0,144,383a7.34,7.34,0,0,0-.4,2.41,8.47,8.47,0,0,0,.7,3.68,2.54,2.54,0,0,0,2.54,1.44Z"/><path class="cls-37" d="M164.17,381.32v-6.63l2-.22V391.8h-2v-1.88a3.84,3.84,0,0,1-3.48,2.16,4.1,4.1,0,0,1-3.74-1.84,8.43,8.43,0,0,1-1.17-4.62,7,7,0,0,1,1.71-5.09,4.23,4.23,0,0,1,3.21-1.24,4,4,0,0,1,2.23.56A3.23,3.23,0,0,1,164.17,381.32Zm0,4.33c0-1.89-.28-3.17-.84-3.83a3,3,0,0,0-2.39-1,2.68,2.68,0,0,0-2.78,2.13,9.81,9.81,0,0,0-.34,2.8q0,4.75,3.12,4.76T164.17,385.65Z"/><path class="cls-37" d="M176,389.5l3.21-9.85h2.2q-3.37,9.5-4,11.07l-.83,2.13c-.15.37-.31.76-.5,1.16a5.71,5.71,0,0,1-.65,1.09,3.51,3.51,0,0,1-.71.73,3.78,3.78,0,0,1-1.06.44,11.63,11.63,0,0,1-2.7.21l-.23-1.69a13.1,13.1,0,0,0,1.77-.07l.56-.15a1.16,1.16,0,0,0,.4-.2l.33-.3a7,7,0,0,0,1.14-2.54q-3.12-7.18-4.51-10.68l-.48-1.21h2.18Z"/><path class="cls-8" d="M185,379v-1.84L196.3,383v1.05l-11.36,5.38v-1.85l8.65-4.13Z"/><path class="cls-8" d="M152.3,422.74v2L141,419.17v-1.31l11.36-5.69v2l-8.67,4.35Z"/><path class="cls-37" d="M165.24,419.47v7.33h-2v-7.08a5.49,5.49,0,0,0-.61-3.08,2.14,2.14,0,0,0-1.84-.81,3,3,0,0,0-2.15.86,2.54,2.54,0,0,0-.91,1.84v8.26h-2v-17.1l2-.22v6.66a4.55,4.55,0,0,1,3.8-1.84Q165.24,414.29,165.24,419.47Z"/><path class="cls-37" d="M170.69,412.55a17.9,17.9,0,0,0,3.72-2.27h2.08v14.91H180v1.62h-9.3v-1.62h3.72V412.51l-1.55.92a14.41,14.41,0,0,1-2.18,1.11Z"/><path class="cls-8" d="M184.19,414v-1.84l11.3,5.84v1.05l-11.36,5.38v-1.85l8.65-4.13Z"/><path class="cls-8" d="M209.33,410.29v1.62h-4.7V426.8h-2.07V411.91h-4.7v-1.62Z"/><path class="cls-8" d="M222.77,419.47v7.33h-2v-7.08a5.49,5.49,0,0,0-.61-3.08,2.14,2.14,0,0,0-1.84-.81,3,3,0,0,0-2.15.86,2.54,2.54,0,0,0-.91,1.84v8.26h-2v-17.1l2-.22v6.66a4.55,4.55,0,0,1,3.8-1.84Q222.77,414.29,222.77,419.47Z"/><path class="cls-8" d="M230.12,426.23a5.13,5.13,0,0,1-1.89-2.28,8,8,0,0,1-.62-3.24,8.72,8.72,0,0,1,.57-3.24,5.37,5.37,0,0,1,1.71-2.31,4,4,0,0,1,2.5-.88,4.25,4.25,0,0,1,3.76,1.76,7.55,7.55,0,0,1,1.2,4.33V421h-7.7a6,6,0,0,0,.94,3.18,2.92,2.92,0,0,0,2.61,1.31,9.24,9.24,0,0,0,3.24-1.26l.67,1.37a5.3,5.3,0,0,1-3.93,1.44A5.41,5.41,0,0,1,230.12,426.23Zm5.3-6.66q-.22-3.74-2.61-3.73-2.7,0-3.09,3.73Z"/><path class="cls-8" d="M260.81,416.2v5.7a9.5,9.5,0,0,0,.12,1.68,2,2,0,0,0,.47,1,1.75,1.75,0,0,0,.9.52,7,7,0,0,0,1.51.13H266l-.11,1.55h-2c-2.09,0-3.48-.38-4.17-1.15a4.24,4.24,0,0,1-.83-2.43c-.06-.61-.08-1.22-.08-1.83V416.2h-3.43l.22-1.55h3.21v-4.19l2-.6v4.78h5.12v1.55Z"/><path class="cls-8" d="M271.56,416.2v-1.55H277v10.6h3.48v1.55h-9.35v-1.55H275v-9Zm3.13-4.75v-1.1a.85.85,0,0,1,.45-.7,1.47,1.47,0,0,1,1.78,0,.85.85,0,0,1,.45.7v1.1a.85.85,0,0,1-.45.7,1.47,1.47,0,0,1-1.78,0A.85.85,0,0,1,274.69,411.45Z"/><path class="cls-8" d="M289.57,416.2v5.7a9.5,9.5,0,0,0,.12,1.68,2,2,0,0,0,.47,1,1.75,1.75,0,0,0,.9.52,7,7,0,0,0,1.51.13h2.23l-.11,1.55h-2c-2.09,0-3.48-.38-4.17-1.15a4.24,4.24,0,0,1-.83-2.43c-.06-.61-.08-1.22-.08-1.83V416.2h-3.43l.22-1.55h3.21v-4.19l2-.6v4.78h5.12v1.55Z"/><path class="cls-8" d="M309,426.8h-1.61a7.77,7.77,0,0,1-3.06-.44,2.72,2.72,0,0,1-.84-.59c-.55-.57-.83-1.82-.85-3.77V411H299v-1.55h5.65v12.44a5.32,5.32,0,0,0,.4,2.7,1.47,1.47,0,0,0,1,.57,10.31,10.31,0,0,0,1.24.07h1.78Z"/><path class="cls-8" d="M316.4,426.23a5.13,5.13,0,0,1-1.89-2.28,8,8,0,0,1-.62-3.24,8.72,8.72,0,0,1,.57-3.24,5.37,5.37,0,0,1,1.71-2.31,4,4,0,0,1,2.5-.88,4.25,4.25,0,0,1,3.76,1.76,7.55,7.55,0,0,1,1.2,4.33V421h-7.7a6,6,0,0,0,.94,3.18,2.92,2.92,0,0,0,2.61,1.31,9.24,9.24,0,0,0,3.24-1.26l.67,1.37a5.3,5.3,0,0,1-3.93,1.44A5.41,5.41,0,0,1,316.4,426.23Zm5.3-6.66q-.22-3.74-2.61-3.73-2.7,0-3.09,3.73Z"/><path class="cls-8" d="M339.26,422.74v2l-11.32-5.53V417.9l11.36-5.69v2l-8.67,4.35Z"/><path class="cls-8" d="M350.46,409.25h2.18l-7.85,20h-2.11Z"/><path class="cls-37" d="M366.58,419.47v7.33h-2v-7.08a5.49,5.49,0,0,0-.61-3.08,2.14,2.14,0,0,0-1.84-.81,3,3,0,0,0-2.15.86,2.54,2.54,0,0,0-.91,1.84v8.26h-2v-17.1l2-.22v6.66a4.55,4.55,0,0,1,3.8-1.84Q366.57,414.29,366.58,419.47Z"/><path class="cls-37" d="M372,412.55a17.9,17.9,0,0,0,3.72-2.27h2.08v14.91h3.48v1.62H372v-1.62h3.72V412.51l-1.55.92a14.41,14.41,0,0,1-2.18,1.11Z"/><path class="cls-8" d="M385.53,414v-1.84l11.3,5.84v1.05l-11.36,5.38v-1.85l8.65-4.13Z"/><path class="cls-8" d="M152.3,457.74v2L141,454.17v-1.31l11.36-5.69v2l-8.67,4.35Z"/><path class="cls-37" d="M163.4,451.32v-6.63l2-.22V461.8h-2v-1.88a3.84,3.84,0,0,1-3.48,2.16,4.1,4.1,0,0,1-3.74-1.84,8.43,8.43,0,0,1-1.17-4.62,7,7,0,0,1,1.71-5.09,4.23,4.23,0,0,1,3.21-1.24,4,4,0,0,1,2.23.56A3.23,3.23,0,0,1,163.4,451.32Zm0,4.33c0-1.89-.28-3.17-.84-3.83a3,3,0,0,0-2.39-1,2.68,2.68,0,0,0-2.78,2.13,9.81,9.81,0,0,0-.34,2.8q0,4.75,3.12,4.76T163.4,455.65Z"/><path class="cls-37" d="M170.89,451.2v-1.55h5.48v10.6h3.48v1.55H170.5v-1.55h3.85v-9Zm3.13-4.75v-1.1a.85.85,0,0,1,.45-.7,1.47,1.47,0,0,1,1.78,0,.85.85,0,0,1,.45.7v1.1a.85.85,0,0,1-.45.7,1.47,1.47,0,0,1-1.78,0,.85.85,0,0,1-.47-.7Z"/><path class="cls-37" d="M189.29,459.71q1-2.62,3.55-10.06h2.24l-4.73,12.15H188.1l-4.7-12.15h2.33Z"/><path class="cls-8" d="M198.57,449v-1.84l11.3,5.84v1.05l-11.36,5.38v-1.85l8.65-4.13Z"/><path class="cls-8" d="M208.3,492.74v2L197,489.17v-1.31l11.36-5.69v2l-8.67,4.35Z"/><path class="cls-37" d="M216.92,497.08a4,4,0,0,1-2.08-.54,3.78,3.78,0,0,1-1.38-1.4v6.32l-2,.22v-17h2v1.67a4.34,4.34,0,0,1,1.42-1.47,3.62,3.62,0,0,1,2-.56,4.4,4.4,0,0,1,4.26,2.48,8.21,8.21,0,0,1,.8,3.74,7.5,7.5,0,0,1-1.67,5.27A4.32,4.32,0,0,1,216.92,497.08Zm-3.49-6.42q0,4.88,3.41,4.87,3.07,0,3.07-4.87a6.34,6.34,0,0,0-.83-3.76,2.73,2.73,0,0,0-2.28-1.06q-2.84,0-3.28,3.28a9.82,9.82,0,0,0-.09,1.53Z"/><path class="cls-8" d="M225.81,484v-1.84l11.3,5.84v1.05l-11.36,5.38v-1.85l8.65-4.13Z"/><path class="cls-8" d="M246.42,480.29l4.88,16.51h-2.18l-1.56-5.33h-4.64l-1.55,5.33H239.2l4.87-16.51Zm-3.07,9.52h3.79l-1.86-7.17Z"/><path class="cls-8" d="M276.93,486.32v-6.63l2-.22V496.8h-2v-1.88a3.84,3.84,0,0,1-3.48,2.16,4.1,4.1,0,0,1-3.74-1.84,8.43,8.43,0,0,1-1.17-4.62,7,7,0,0,1,1.71-5.09,4.23,4.23,0,0,1,3.21-1.24,4,4,0,0,1,2.23.56A3.23,3.23,0,0,1,276.93,486.32Zm0,4.33c0-1.89-.28-3.17-.84-3.83a3,3,0,0,0-2.39-1,2.68,2.68,0,0,0-2.78,2.13,9.81,9.81,0,0,0-.34,2.8q0,4.75,3.12,4.76T276.93,490.65Z"/><path class="cls-8" d="M286.12,496.23a5.13,5.13,0,0,1-1.89-2.28,8,8,0,0,1-.62-3.24,8.72,8.72,0,0,1,.57-3.24,5.37,5.37,0,0,1,1.71-2.31,4,4,0,0,1,2.5-.88,4.25,4.25,0,0,1,3.76,1.76,7.55,7.55,0,0,1,1.2,4.33V491h-7.7a6,6,0,0,0,.94,3.18,2.92,2.92,0,0,0,2.61,1.31,9.24,9.24,0,0,0,3.24-1.26l.67,1.37a5.3,5.3,0,0,1-3.93,1.44A5.41,5.41,0,0,1,286.12,496.23Zm5.3-6.66q-.23-3.74-2.61-3.73-2.7,0-3.09,3.73Z"/><path class="cls-8" d="M306.55,491.13a3.61,3.61,0,0,1,.73,2.43,3.11,3.11,0,0,1-1.21,2.55,4.72,4.72,0,0,1-3,1,9.89,9.89,0,0,1-2.54-.33,5.24,5.24,0,0,1-1.82-.77l.5-1.45a6.43,6.43,0,0,0,1.47.58,7.71,7.71,0,0,0,2.19.29,3.28,3.28,0,0,0,1.88-.49,1.54,1.54,0,0,0,.7-1.31,2.17,2.17,0,0,0-.35-1.29,2.34,2.34,0,0,0-1.35-.71l-2.06-.5a4,4,0,0,1-2.37-1.29,3.59,3.59,0,0,1-.59-2.11,3.3,3.3,0,0,1,1-2.33,4,4,0,0,1,3-1.08h.14a7.86,7.86,0,0,1,3.75.83l-.44,1.42a8.25,8.25,0,0,0-3.28-.69,2.76,2.76,0,0,0-1.69.51,1.53,1.53,0,0,0-.66,1.27,1.69,1.69,0,0,0,.33,1.15,2.39,2.39,0,0,0,1.26.6l2.12.52A4.35,4.35,0,0,1,306.55,491.13Z"/><path class="cls-8" d="M321.45,496a4.69,4.69,0,0,1-3.31,1.07,5.82,5.82,0,0,1-2.5-.53,5,5,0,0,1-1.85-1.41,6.87,6.87,0,0,1-1.52-4.48,7.22,7.22,0,0,1,.69-3.13,5.67,5.67,0,0,1,2-2.34,5.87,5.87,0,0,1,3.33-.9,4.28,4.28,0,0,1,3.08,1.05l-.51,1.35a5.09,5.09,0,0,0-2.88-.85,3.23,3.23,0,0,0-2.66,1.37,5.53,5.53,0,0,0-1.06,3.49,5.47,5.47,0,0,0,1.06,3.47,3.3,3.3,0,0,0,2.7,1.35,4.85,4.85,0,0,0,2.9-.89Z"/><path class="cls-8" d="M330.75,496.8h-2V484.65h1.65l.17,2.25a4.94,4.94,0,0,1,1.95-1.95,5.58,5.58,0,0,1,2.74-.66h1v1.87H335a4.56,4.56,0,0,0-3.07,1,3.64,3.64,0,0,0-1.13,2.92Z"/><path class="cls-8" d="M341.94,486.2v-1.55h5.48v10.6h3.48v1.55h-9.35v-1.55h3.85v-9Zm3.13-4.75v-1.1a.85.85,0,0,1,.45-.7,1.47,1.47,0,0,1,1.78,0,.85.85,0,0,1,.45.7v1.1a.85.85,0,0,1-.45.7,1.47,1.47,0,0,1-1.78,0A.85.85,0,0,1,345.07,481.45Z"/><path class="cls-8" d="M360.74,497.08a4,4,0,0,1-2.08-.54,3.78,3.78,0,0,1-1.38-1.4v6.32l-2,.22v-17h2v1.67a4.34,4.34,0,0,1,1.42-1.47,3.62,3.62,0,0,1,2-.56A4.4,4.4,0,0,1,365,486.8a8.21,8.21,0,0,1,.8,3.74,7.5,7.5,0,0,1-1.67,5.27A4.32,4.32,0,0,1,360.74,497.08Zm-3.49-6.42q0,4.88,3.41,4.87,3.07,0,3.07-4.87a6.34,6.34,0,0,0-.83-3.76,2.73,2.73,0,0,0-2.28-1.06q-2.83,0-3.28,3.28a9.82,9.82,0,0,0-.09,1.53Z"/><path class="cls-8" d="M374.33,486.2v5.7a9.5,9.5,0,0,0,.12,1.68,2,2,0,0,0,.47,1,1.75,1.75,0,0,0,.9.52,7,7,0,0,0,1.51.13h2.23l-.11,1.55h-2c-2.09,0-3.48-.38-4.17-1.15a4.24,4.24,0,0,1-.83-2.43c-.06-.61-.08-1.22-.08-1.83V486.2h-3.43l.22-1.55h3.21v-4.19l2-.6v4.78h5.12v1.55Z"/><path class="cls-8" d="M385.08,486.2v-1.55h5.48v10.6H394v1.55h-9.35v-1.55h3.85v-9Zm3.13-4.75v-1.1a.85.85,0,0,1,.45-.7,1.47,1.47,0,0,1,1.78,0,.85.85,0,0,1,.45.7v1.1a.85.85,0,0,1-.45.7,1.47,1.47,0,0,1-1.78,0A.85.85,0,0,1,388.21,481.45Z"/><path class="cls-8" d="M407.4,486.06a7.55,7.55,0,0,1,1.32,4.63,7.12,7.12,0,0,1-1.43,4.62,4.74,4.74,0,0,1-3.88,1.77,5.23,5.23,0,0,1-2.33-.5,4.3,4.3,0,0,1-1.65-1.37,7.67,7.67,0,0,1-1.27-4.58,7.12,7.12,0,0,1,1.41-4.58,4.8,4.8,0,0,1,4-1.75A4.53,4.53,0,0,1,407.4,486.06Zm-4,9.47a2.85,2.85,0,0,0,2.88-2.1,6.79,6.79,0,0,0,.41-2.32,14.48,14.48,0,0,0-.09-1.86,4.9,4.9,0,0,0-1-2.46,2.69,2.69,0,0,0-2.24-1A2.8,2.8,0,0,0,400.6,488a7.34,7.34,0,0,0-.4,2.41,8.47,8.47,0,0,0,.7,3.68,2.55,2.55,0,0,0,2.52,1.44Z"/><path class="cls-8" d="M418.92,484.29q3.78,0,3.78,4.78v7.73h-2v-7.49a8.72,8.72,0,0,0-.13-1.84,2.48,2.48,0,0,0-.4-.91,2.16,2.16,0,0,0-1.85-.73,3.3,3.3,0,0,0-2.19.75,2.45,2.45,0,0,0-.9,2v8.22h-2V484.65H415l.11,1.32A4.31,4.31,0,0,1,418.92,484.29Z"/><path class="cls-8" d="M438.4,492.74v2l-11.32-5.53V487.9l11.36-5.69v2l-8.67,4.35Z"/><path class="cls-8" d="M449.61,479.25h2.18l-7.85,20h-2.11Z"/><path class="cls-37" d="M461.4,497.08a4,4,0,0,1-2.08-.54,3.78,3.78,0,0,1-1.38-1.4v6.32l-2,.22v-17h2v1.67a4.34,4.34,0,0,1,1.42-1.47,3.62,3.62,0,0,1,2-.56,4.4,4.4,0,0,1,4.26,2.48,8.21,8.21,0,0,1,.8,3.74,7.5,7.5,0,0,1-1.67,5.27A4.32,4.32,0,0,1,461.4,497.08Zm-3.49-6.42q0,4.88,3.41,4.87,3.07,0,3.07-4.87a6.34,6.34,0,0,0-.83-3.76,2.73,2.73,0,0,0-2.28-1.06q-2.83,0-3.28,3.28a11.21,11.21,0,0,0-.08,1.53Z"/><path class="cls-8" d="M470.29,484v-1.84l11.3,5.84v1.05l-11.36,5.38v-1.85l8.65-4.13Z"/><path class="cls-8" d="M208.3,527.74v2L197,524.17v-1.31l11.36-5.69v2l-8.67,4.35Z"/><path class="cls-37" d="M216.92,532.08a4,4,0,0,1-2.08-.54,3.78,3.78,0,0,1-1.38-1.4v6.32l-2,.22v-17h2v1.67a4.34,4.34,0,0,1,1.42-1.47,3.62,3.62,0,0,1,2-.56,4.4,4.4,0,0,1,4.26,2.48,8.21,8.21,0,0,1,.8,3.74,7.5,7.5,0,0,1-1.67,5.27A4.32,4.32,0,0,1,216.92,532.08Zm-3.49-6.42q0,4.88,3.41,4.87,3.07,0,3.07-4.87a6.34,6.34,0,0,0-.83-3.76,2.73,2.73,0,0,0-2.28-1.06q-2.84,0-3.28,3.28a9.82,9.82,0,0,0-.09,1.53Z"/><path class="cls-8" d="M225.81,519v-1.84l11.3,5.84v1l-11.36,5.38v-1.85l8.65-4.13Z"/><path class="cls-8" d="M246.42,515.29l4.88,16.51h-2.18l-1.56-5.33h-4.64l-1.55,5.33H239.2l4.87-16.51Zm-3.07,9.52h3.79l-1.86-7.17Z"/><path class="cls-8" d="M277.79,526.13a3.61,3.61,0,0,1,.73,2.43,3.11,3.11,0,0,1-1.21,2.55,4.72,4.72,0,0,1-3,1,9.89,9.89,0,0,1-2.54-.33A5.24,5.24,0,0,1,270,531l.5-1.45a6.43,6.43,0,0,0,1.47.58,7.71,7.71,0,0,0,2.19.29,3.28,3.28,0,0,0,1.88-.49,1.54,1.54,0,0,0,.7-1.31,2.17,2.17,0,0,0-.35-1.29,2.34,2.34,0,0,0-1.35-.71l-2.06-.5a4,4,0,0,1-2.37-1.29,3.59,3.59,0,0,1-.59-2.11,3.3,3.3,0,0,1,1-2.33,4,4,0,0,1,3-1.08h.14a7.86,7.86,0,0,1,3.75.83l-.44,1.42a8.25,8.25,0,0,0-3.28-.69,2.76,2.76,0,0,0-1.69.51,1.53,1.53,0,0,0-.66,1.27,1.69,1.69,0,0,0,.33,1.15,2.39,2.39,0,0,0,1.26.6l2.12.52A4.35,4.35,0,0,1,277.79,526.13Z"/><path class="cls-8" d="M293.09,527.86q0,4.21-4.7,4.22t-4.7-4.22v-8.21h2V528a2.48,2.48,0,0,0,.64,1.89,3.77,3.77,0,0,0,4.08,0,2.48,2.48,0,0,0,.64-1.89v-8.38h2Z"/><path class="cls-8" d="M303.37,521.17a2.6,2.6,0,0,1,2.56-1.88q2.31,0,2.61,3.33c0,.41.06.88.06,1.4v7.79h-1.85v-7.55a7.54,7.54,0,0,0-.29-2.71,1.29,1.29,0,0,0-.53-.62,1.6,1.6,0,0,0-.53-.09,1.43,1.43,0,0,0-1.38,1.08,7.18,7.18,0,0,0-.27,2.35v7.53h-1.69v-7.41a5.74,5.74,0,0,0-.58-3.18,1,1,0,0,0-.86-.38,1.2,1.2,0,0,0-1,.49,3.83,3.83,0,0,0-.74,2.49v8H297V519.65h1.61l.12,1.61a4.12,4.12,0,0,1,.89-1.4,1.91,1.91,0,0,1,1.41-.57,2.16,2.16,0,0,1,1.44.5A2.66,2.66,0,0,1,303.37,521.17Z"/><path class="cls-8" d="M317.75,521.17a2.6,2.6,0,0,1,2.56-1.88q2.31,0,2.61,3.33c0,.41.06.88.06,1.4v7.79h-1.85v-7.55a7.54,7.54,0,0,0-.29-2.71,1.29,1.29,0,0,0-.53-.62,1.6,1.6,0,0,0-.53-.09,1.43,1.43,0,0,0-1.38,1.08,7.18,7.18,0,0,0-.27,2.35v7.53h-1.69v-7.41a5.74,5.74,0,0,0-.58-3.18,1,1,0,0,0-.86-.38,1.2,1.2,0,0,0-1,.49,3.83,3.83,0,0,0-.74,2.49v8h-1.85V519.65H313l.12,1.61a4.12,4.12,0,0,1,.89-1.4,1.91,1.91,0,0,1,1.41-.57,2.16,2.16,0,0,1,1.44.5A2.66,2.66,0,0,1,317.75,521.17Z"/><path class="cls-8" d="M334.13,523.43c0-1.73-.73-2.6-2.2-2.6a12.73,12.73,0,0,0-2.3.24,9.8,9.8,0,0,0-1.77.46l-.48-1.48a13.76,13.76,0,0,1,4.31-.76,5.24,5.24,0,0,1,3.23.92,3.32,3.32,0,0,1,1.22,2.83v8.76h-1.67l-.27-1.41a5.71,5.71,0,0,1-1.82,1.2,5.49,5.49,0,0,1-2.18.48,3.69,3.69,0,0,1-2.56-.92,3.35,3.35,0,0,1-1-2.61,2.68,2.68,0,0,1,1.33-2.48,6,6,0,0,1,1.91-.76c.67-.13,1.55-.27,2.64-.4l1.62-.19Zm0,5.66V526l-1.65.23a13,13,0,0,0-2.39.49,2,2,0,0,0-1.48,1.89,2,2,0,0,0,.53,1.46,2,2,0,0,0,1.46.54,4.76,4.76,0,0,0,3.53-1.52Z"/><path class="cls-8" d="M345.13,531.8h-2V519.65h1.65l.17,2.25A4.94,4.94,0,0,1,346.9,520a5.58,5.58,0,0,1,2.74-.66h1v1.87h-1.26a4.56,4.56,0,0,0-3.07,1,3.64,3.64,0,0,0-1.13,2.92Z"/><path class="cls-8" d="M360.63,529.5l3.21-9.85H366q-3.37,9.5-4,11.07l-.83,2.13c-.15.37-.31.76-.5,1.16a5.71,5.71,0,0,1-.65,1.09,3.51,3.51,0,0,1-.71.73,3.78,3.78,0,0,1-1.06.44,11.63,11.63,0,0,1-2.7.21l-.23-1.69a13.1,13.1,0,0,0,1.77-.07l.56-.15a1.16,1.16,0,0,0,.4-.2l.33-.3a7,7,0,0,0,1.14-2.54q-3.12-7.18-4.51-10.68l-.48-1.21h2.18Z"/><path class="cls-8" d="M380.88,527.74v2l-11.32-5.53V522.9l11.36-5.69v2l-8.67,4.35Z"/><path class="cls-8" d="M392.08,514.25h2.18l-7.85,20H384.3Z"/><path class="cls-37" d="M403.88,532.08a4,4,0,0,1-2.08-.54,3.78,3.78,0,0,1-1.38-1.4v6.32l-2,.22v-17h2v1.67a4.34,4.34,0,0,1,1.42-1.47,3.62,3.62,0,0,1,2-.56,4.4,4.4,0,0,1,4.26,2.48,8.21,8.21,0,0,1,.8,3.74,7.5,7.5,0,0,1-1.67,5.27A4.32,4.32,0,0,1,403.88,532.08Zm-3.49-6.42q0,4.88,3.41,4.87,3.07,0,3.07-4.87a6.34,6.34,0,0,0-.83-3.76,2.73,2.73,0,0,0-2.28-1.06q-2.83,0-3.28,3.28a9.82,9.82,0,0,0-.09,1.53Z"/><path class="cls-8" d="M412.77,519v-1.84l11.3,5.84v1l-11.36,5.38v-1.85l8.65-4.13Z"/><path class="cls-8" d="M152.3,562.74v2L141,559.17v-1.31l11.36-5.69v2l-8.67,4.35Z"/><path class="cls-8" d="M163.5,549.25h2.18l-7.85,20h-2.11Z"/><path class="cls-37" d="M177.79,556.32v-6.63l2-.22V566.8h-2v-1.88a3.84,3.84,0,0,1-3.48,2.16,4.1,4.1,0,0,1-3.74-1.84,8.43,8.43,0,0,1-1.17-4.62,7,7,0,0,1,1.71-5.09,4.23,4.23,0,0,1,3.21-1.24,4,4,0,0,1,2.23.56A3.23,3.23,0,0,1,177.79,556.32Zm0,4.33c0-1.89-.28-3.17-.84-3.83a3,3,0,0,0-2.39-1,2.68,2.68,0,0,0-2.78,2.13,9.81,9.81,0,0,0-.34,2.8q0,4.75,3.12,4.76T177.79,560.65Z"/><path class="cls-37" d="M185.27,556.2v-1.55h5.48v10.6h3.48v1.55h-9.35v-1.55h3.85v-9Zm3.13-4.75v-1.1a.85.85,0,0,1,.45-.7,1.47,1.47,0,0,1,1.78,0,.85.85,0,0,1,.45.7v1.1a.85.85,0,0,1-.45.7,1.47,1.47,0,0,1-1.78,0,.85.85,0,0,1-.45-.7Z"/><path class="cls-37" d="M203.67,564.71q1-2.62,3.55-10.06h2.24l-4.73,12.15h-2.25l-4.7-12.15h2.33Z"/><path class="cls-8" d="M213,554v-1.84L224.3,558v1l-11.36,5.38v-1.85l8.65-4.13Z"/><path class="cls-8" d="M124.3,597.74v2L113,594.17v-1.31l11.36-5.69v2l-8.67,4.35Z"/><path class="cls-8" d="M135.5,584.25h2.18l-7.85,20h-2.11Z"/><path class="cls-37" d="M144,591.32a4.46,4.46,0,0,1,7.28-.23,8,8,0,0,1,1.15,4.45,7.47,7.47,0,0,1-1.66,5.28,4.25,4.25,0,0,1-3.26,1.29,3.61,3.61,0,0,1-2.08-.5,6.92,6.92,0,0,1-1.43-1.43v1.66h-2V584.69l2-.22Zm.08,5.85a4.73,4.73,0,0,0,.93,2.45,3,3,0,0,0,4.24,0,3.1,3.1,0,0,0,.76-1.25,7.38,7.38,0,0,0,.37-2.33,16.71,16.71,0,0,0-.08-1.87,4.81,4.81,0,0,0-.87-2.45,2.61,2.61,0,0,0-2.19-.9,2.81,2.81,0,0,0-3,2.39,9,9,0,0,0-.23,2.13,15.61,15.61,0,0,0,0,1.81Z"/><path class="cls-37" d="M165.21,591.06a7.55,7.55,0,0,1,1.32,4.63,7.12,7.12,0,0,1-1.43,4.62,4.74,4.74,0,0,1-3.88,1.77,5.23,5.23,0,0,1-2.33-.5,4.3,4.3,0,0,1-1.65-1.37,7.67,7.67,0,0,1-1.27-4.58,7.12,7.12,0,0,1,1.41-4.58,4.8,4.8,0,0,1,4-1.75A4.53,4.53,0,0,1,165.21,591.06Zm-4,9.47a2.85,2.85,0,0,0,2.88-2.1,6.79,6.79,0,0,0,.41-2.32,14.48,14.48,0,0,0-.09-1.86,4.9,4.9,0,0,0-1-2.46,2.69,2.69,0,0,0-2.24-1,2.8,2.8,0,0,0-2.81,2.15,7.34,7.34,0,0,0-.4,2.41,8.47,8.47,0,0,0,.7,3.68,2.54,2.54,0,0,0,2.56,1.5Z"/><path class="cls-37" d="M178.55,591.32v-6.63l2-.22V601.8h-2v-1.88a3.84,3.84,0,0,1-3.48,2.16,4.1,4.1,0,0,1-3.74-1.84,8.43,8.43,0,0,1-1.17-4.62,7,7,0,0,1,1.71-5.09,4.23,4.23,0,0,1,3.21-1.24,4,4,0,0,1,2.23.56A3.23,3.23,0,0,1,178.55,591.32Zm0,4.33c0-1.89-.28-3.17-.84-3.83a3,3,0,0,0-2.39-1,2.68,2.68,0,0,0-2.78,2.13,9.81,9.81,0,0,0-.34,2.8q0,4.75,3.12,4.76T178.55,595.65Z"/><path class="cls-37" d="M190.34,599.5l3.21-9.85h2.2q-3.37,9.5-4,11.07l-.83,2.13c-.15.37-.31.76-.5,1.16a5.71,5.71,0,0,1-.65,1.09,3.51,3.51,0,0,1-.71.73,3.78,3.78,0,0,1-1.06.44,11.63,11.63,0,0,1-2.7.21l-.23-1.69a13.1,13.1,0,0,0,1.77-.07l.56-.15a1.16,1.16,0,0,0,.4-.2l.33-.3a7,7,0,0,0,1.14-2.54q-3.12-7.18-4.51-10.68l-.48-1.21h2.18Z"/><path class="cls-8" d="M199.34,589v-1.84l11.3,5.84v1l-11.36,5.38v-1.85l8.65-4.13Z"/><path class="cls-8" d="M68.3,632.74v2L57,629.17v-1.31l11.36-5.69v2l-8.67,4.35Z"/><path class="cls-8" d="M79.5,619.25h2.18l-7.85,20H71.72Z"/><path class="cls-37" d="M95.62,629.47v7.33h-2v-7.08a5.49,5.49,0,0,0-.61-3.08,2.14,2.14,0,0,0-1.84-.81,3,3,0,0,0-2.15.86,2.54,2.54,0,0,0-.91,1.84v8.26h-2v-17.1l2-.22v6.66a4.55,4.55,0,0,1,3.8-1.84Q95.62,624.29,95.62,629.47Z"/><path class="cls-37" d="M104.9,626.2v5.7a9.5,9.5,0,0,0,.12,1.68,2,2,0,0,0,.46,1,1.75,1.75,0,0,0,.9.52,7,7,0,0,0,1.51.13h2.23L110,636.8h-2c-2.09,0-3.48-.38-4.18-1.15a4.24,4.24,0,0,1-.83-2.43c-.06-.61-.08-1.22-.08-1.83V626.2H99.45l.22-1.55h3.21v-4.19l2-.6v4.78H110v1.55Z"/><path class="cls-37" d="M120.22,626.17a2.6,2.6,0,0,1,2.56-1.88q2.31,0,2.61,3.33c0,.41.06.88.06,1.4v7.79H123.6v-7.55a7.54,7.54,0,0,0-.29-2.71,1.29,1.29,0,0,0-.53-.62,1.6,1.6,0,0,0-.53-.09,1.43,1.43,0,0,0-1.38,1.08,7.18,7.18,0,0,0-.27,2.35v7.53h-1.69v-7.41a5.74,5.74,0,0,0-.58-3.18,1,1,0,0,0-.86-.38,1.2,1.2,0,0,0-1,.49,3.83,3.83,0,0,0-.74,2.49v8h-1.85V624.65h1.61l.12,1.61a4.12,4.12,0,0,1,.89-1.4,1.91,1.91,0,0,1,1.41-.57,2.16,2.16,0,0,1,1.44.5A2.66,2.66,0,0,1,120.22,626.17Z"/><path class="cls-37" d="M138.71,636.8H137.1a7.77,7.77,0,0,1-3.06-.44,2.72,2.72,0,0,1-.84-.59c-.55-.57-.83-1.82-.85-3.77V621h-3.63v-1.55h5.65v12.44a5.32,5.32,0,0,0,.4,2.7,1.47,1.47,0,0,0,1,.57,10.31,10.31,0,0,0,1.24.07h1.78Z"/><path class="cls-8" d="M143.34,624v-1.84l11.3,5.84v1l-11.36,5.38v-1.85l8.65-4.13Z"/></g><path class="cls-8" d="M997,221.35v-5.3l1.61-.18v13.86H997v-1.51a3.05,3.05,0,0,1-2.78,1.73,3.3,3.3,0,0,1-3-1.47,6.75,6.75,0,0,1-.93-3.69,5.56,5.56,0,0,1,1.36-4.07,3.43,3.43,0,0,1,2.57-1,3.2,3.2,0,0,1,1.78.45A2.5,2.5,0,0,1,997,221.35Zm0,3.46a5,5,0,0,0-.67-3.06,2.39,2.39,0,0,0-1.91-.79,2.14,2.14,0,0,0-2.22,1.7,7.68,7.68,0,0,0-.27,2.24q0,3.81,2.5,3.81c1.67,0,2.52-1.3,2.57-3.89Z"/><path class="cls-8" d="M1008.75,221.14a5.93,5.93,0,0,1,1,3.7,5.71,5.71,0,0,1-1.14,3.7,3.76,3.76,0,0,1-3.1,1.41,4.27,4.27,0,0,1-1.86-.4,3.44,3.44,0,0,1-1.32-1.1,6.05,6.05,0,0,1-1-3.67,5.66,5.66,0,0,1,1.12-3.66,3.8,3.8,0,0,1,3.17-1.4A3.6,3.6,0,0,1,1008.75,221.14Zm-3.19,7.57a2.27,2.27,0,0,0,2.3-1.68,5.4,5.4,0,0,0,.33-1.86,12.22,12.22,0,0,0-.07-1.48,3.91,3.91,0,0,0-.77-2,2.15,2.15,0,0,0-1.79-.76,2.25,2.25,0,0,0-2.25,1.72,6,6,0,0,0-.32,1.93,6.91,6.91,0,0,0,.56,2.94A2,2,0,0,0,1005.56,228.71Z"/><path class="cls-8" d="M1019.89,229.09a3.75,3.75,0,0,1-2.65.86,4.61,4.61,0,0,1-2-.42,4.1,4.1,0,0,1-1.48-1.13,5.46,5.46,0,0,1-1.21-3.59,5.71,5.71,0,0,1,.55-2.51,4.61,4.61,0,0,1,1.63-1.87,4.72,4.72,0,0,1,2.66-.72,3.41,3.41,0,0,1,2.46.84l-.41,1.08a4,4,0,0,0-2.3-.68,2.58,2.58,0,0,0-2.13,1.1,4.43,4.43,0,0,0-.85,2.79,4.39,4.39,0,0,0,.85,2.78,2.63,2.63,0,0,0,2.16,1.08,3.86,3.86,0,0,0,2.32-.71Z"/><path class="cls-8" d="M1031.1,226.58q0,3.38-3.75,3.37t-3.75-3.37V220h1.61v6.7a2,2,0,0,0,.51,1.51,3,3,0,0,0,3.26,0,2,2,0,0,0,.51-1.51V220h1.61Z"/><path class="cls-8" d="M1038.7,221.23a2.08,2.08,0,0,1,2-1.51c1.23,0,1.93.89,2.09,2.67v7.33h-1.48v-6a5.84,5.84,0,0,0-.23-2.16,1,1,0,0,0-.42-.49,1.2,1.2,0,0,0-.42-.07,1.14,1.14,0,0,0-1.11.87,6,6,0,0,0-.21,1.88v6h-1.35v-5.92a4.66,4.66,0,0,0-.46-2.54.8.8,0,0,0-.69-.3,1,1,0,0,0-.77.39,3.1,3.1,0,0,0-.59,2v6.38h-1.48V220H1035l.1,1.28a3.29,3.29,0,0,1,.71-1.12,1.56,1.56,0,0,1,1.13-.46,1.72,1.72,0,0,1,1.15.4A2.07,2.07,0,0,1,1038.7,221.23Z"/><path class="cls-8" d="M1047.28,229.27a4.07,4.07,0,0,1-1.51-1.82,6.56,6.56,0,0,1-.49-2.59,7,7,0,0,1,.46-2.59,4.32,4.32,0,0,1,1.36-1.85,3.22,3.22,0,0,1,2-.7,3.38,3.38,0,0,1,3,1.41,6,6,0,0,1,1,3.46v.54H1047a4.86,4.86,0,0,0,.75,2.54,2.34,2.34,0,0,0,2.09,1,7.5,7.5,0,0,0,2.59-1l.53,1.1a5,5,0,0,1-5.63.5Zm4.24-5.32c-.12-2-.82-3-2.09-3-1.44,0-2.26,1-2.47,3Z"/><path class="cls-8" d="M1060.86,219.73q3,0,3,3.82v6.18h-1.61v-6a7.23,7.23,0,0,0-.11-1.47,2.17,2.17,0,0,0-.32-.73,1.76,1.76,0,0,0-1.48-.58,2.59,2.59,0,0,0-1.75.6,2,2,0,0,0-.72,1.59v6.57h-1.61V220h1.48l.09,1.05A3.45,3.45,0,0,1,1060.86,219.73Z"/><path class="cls-8" d="M1070.59,221.26v4.56a7.66,7.66,0,0,0,.09,1.35,1.63,1.63,0,0,0,.37.81,1.36,1.36,0,0,0,.72.42,5.36,5.36,0,0,0,1.2.11h1.78l-.09,1.24H1073c-1.67,0-2.79-.31-3.34-.92a3.31,3.31,0,0,1-.66-1.94c0-.49-.06-1-.06-1.46v-4.15h-2.74l.18-1.24H1069v-3.35l1.61-.48V220h4.09v1.24Z"/><path class="cls-6" d="M1053,254.56h-1.88l-5-6.25-1.2,1.05v5.2h-1.54V241.47h1.54v6.43l5.75-6.43h1.92l-5.31,5.9Z"/><path class="cls-6" d="M1058,254.76a4.28,4.28,0,0,1-3.33-1.35,5.29,5.29,0,0,1-1.22-3.68,5.51,5.51,0,0,1,1.18-3.66,3.91,3.91,0,0,1,3.1-1.43,3.56,3.56,0,0,1,2.86,1.24,4.92,4.92,0,0,1,1.06,3.3v.8H1055a3.85,3.85,0,0,0,.85,2.58,2.85,2.85,0,0,0,2.23.92,6.56,6.56,0,0,0,3.09-.81l.23,1.19A6.35,6.35,0,0,1,1058,254.76Zm1.49-8.12a2.2,2.2,0,0,0-1.78-.77,2.38,2.38,0,0,0-1.85.8,3.67,3.67,0,0,0-.84,2.19h5.13a3.33,3.33,0,0,0-.63-2.22Z"/><path class="cls-6" d="M1062.49,244.85h1.57l3.06,8.08,2.73-8.08h1.57q-3.93,10.82-4.06,11.16a5.46,5.46,0,0,1-1.48,2.24,3.46,3.46,0,0,1-2.28.71,5.26,5.26,0,0,1-.89-.07l-.09-1.26h.74a2.63,2.63,0,0,0,1.52-.37,3,3,0,0,0,.92-1.38c.24-.62.42-1.1.54-1.43Z"/><path class="cls-6" d="M1081.16,254.56c-1.33-4.35-2.18-7.07-2.53-8.14-.18.67-.39,1.37-.63,2.11s-.45,1.39-.62,1.95l-.69,2.11-.65,2h-1.59l-2.77-9.71h1.53l2.08,8q.43-1.43,2.55-8h1.67c1.41,4.45,2.23,7.09,2.48,7.92l2-7.92h1.51l-2.8,9.71Z"/><path class="cls-6" d="M1095.45,249.7a5.44,5.44,0,0,1-1.2,3.66,4.14,4.14,0,0,1-3.33,1.4,4.06,4.06,0,0,1-3.25-1.42,6.12,6.12,0,0,1,0-7.3,4.18,4.18,0,0,1,3.33-1.4,4,4,0,0,1,3.27,1.4A5.51,5.51,0,0,1,1095.45,249.7Zm-7.46,0a4.55,4.55,0,0,0,.77,2.77,2.59,2.59,0,0,0,2.24,1,2.53,2.53,0,0,0,2.19-1,5.68,5.68,0,0,0,0-5.59,2.9,2.9,0,0,0-4.44,0,4.62,4.62,0,0,0-.75,2.85Z"/><path class="cls-6" d="M1101.89,244.76a4.48,4.48,0,0,1,.73.05l0,1.36a4.17,4.17,0,0,0-.71-.07,2.59,2.59,0,0,0-2,.86,3.1,3.1,0,0,0-.77,2.14v5.45h-1.48v-9.71h1.23l.14,1.74a4.17,4.17,0,0,1,1.28-1.33A2.94,2.94,0,0,1,1101.89,244.76Z"/><path class="cls-6" d="M1110.67,253.15a3.48,3.48,0,0,1-1.27,1.17,4,4,0,0,1-4.79-.93,5.82,5.82,0,0,1-1.09-3.72,5.65,5.65,0,0,1,1.11-3.64,3.61,3.61,0,0,1,3-1.39,4.12,4.12,0,0,1,1.82.42,3,3,0,0,1,1.28,1.13v-5.12l1.46-.09v13.57h-1.26Zm-2.91.34a2.56,2.56,0,0,0,2.17-.94,4.37,4.37,0,0,0,.71-2.68,5.16,5.16,0,0,0-.69-3,2.51,2.51,0,0,0-2.22-1,2.39,2.39,0,0,0-1.2.29,2.18,2.18,0,0,0-.84.81,4.31,4.31,0,0,0-.48,1.2,7.13,7.13,0,0,0,.12,3.48,2.83,2.83,0,0,0,.9,1.33,2.41,2.41,0,0,0,1.53.51Z"/><g class="cls-38"><rect class="cls-8" x="196.15" y="106.5" width="147.39" height="32.79"/></g><line class="cls-4" x1="940.66" y1="225.16" x2="981.17" y2="225.16"/><path class="cls-39" d="M954.81,253V241.4h1.56v11q0,.65,0,1.08c0,.3-.05.59-.1.89a2.88,2.88,0,0,1-.24.75,2.52,2.52,0,0,1-.4.56,1.77,1.77,0,0,1-.61.41,4.26,4.26,0,0,1-.86.23,7.92,7.92,0,0,1-1.16.08h-.31l-.19-1.25h.65a2.55,2.55,0,0,0,.79-.11,1.4,1.4,0,0,0,.5-.29,1.09,1.09,0,0,0,.26-.48,2.89,2.89,0,0,0,.12-.6C954.8,253.52,954.81,253.27,954.81,253Z"/><path class="cls-39" d="M965,254.55c-.09-.38-.17-.78-.26-1.21a5,5,0,0,1-1.5,1.1,4,4,0,0,1-1.65.31,3.2,3.2,0,0,1-2.18-.71,2.52,2.52,0,0,1-.82-2,2.42,2.42,0,0,1,1.12-2.19,7.33,7.33,0,0,1,3.23-.89l.88-.07.87-.08v-.85a2.13,2.13,0,0,0-.47-1.51,2,2,0,0,0-1.5-.49,6.48,6.48,0,0,0-2.87.7c0-.07-.11-.27-.23-.61s-.19-.51-.19-.52a6.1,6.1,0,0,1,1.52-.58,7.77,7.77,0,0,1,1.8-.21,3.64,3.64,0,0,1,2.6.78,3.7,3.7,0,0,1,.79,2.68v6.38Zm-3.19-1a3.08,3.08,0,0,0,1.84-.58,2.55,2.55,0,0,0,1-1.55v-1.63l-.53.05-.64,0a6.66,6.66,0,0,0-2.65.62,1.61,1.61,0,0,0-.76,1.47,1.47,1.47,0,0,0,.46,1.17A1.88,1.88,0,0,0,961.83,253.57Z"/><path class="cls-39" d="M971.29,254.55l-3.74-9.64h1.58l2.12,5.73.88,2.44c.2-.62.48-1.43.83-2.42q.66-1.87,2.07-5.75h1.57l-3.71,9.64Z"/><path class="cls-39" d="M983.86,254.55c-.09-.38-.17-.78-.26-1.21a5,5,0,0,1-1.5,1.1,4,4,0,0,1-1.65.31,3.2,3.2,0,0,1-2.18-.71,2.56,2.56,0,0,1-.82-2,2.44,2.44,0,0,1,1.12-2.19,7.33,7.33,0,0,1,3.23-.89l.88-.07.87-.08v-.85a2.13,2.13,0,0,0-.47-1.51,2,2,0,0,0-1.5-.49,6.52,6.52,0,0,0-2.87.7c0-.07-.11-.27-.23-.61s-.19-.51-.19-.52a6.1,6.1,0,0,1,1.52-.58,7.77,7.77,0,0,1,1.8-.21,3.62,3.62,0,0,1,2.6.78,3.7,3.7,0,0,1,.79,2.68v6.38Zm-3.19-1a3.08,3.08,0,0,0,1.84-.58,2.55,2.55,0,0,0,1-1.55v-1.63l-.53.05-.63,0a6.67,6.67,0,0,0-2.66.62A1.6,1.6,0,0,0,979,252a1.46,1.46,0,0,0,.45,1.17A1.9,1.9,0,0,0,980.67,253.57Z"/><path class="cls-39" d="M987.69,252.41a9.78,9.78,0,0,0,4.35,1c1.9,0,2.85-.87,2.85-2.6a2,2,0,0,0-.45-1.37,3.17,3.17,0,0,0-1.65-.82l-2.58-.65c-2-.5-3-1.56-3-3.17a3.14,3.14,0,0,1,1.27-2.75,6,6,0,0,1,3.52-.9,9.12,9.12,0,0,1,2.21.25,5.82,5.82,0,0,1,1.72.69l-.44,1.24a6.67,6.67,0,0,0-1.56-.58,7.65,7.65,0,0,0-2-.26c-2.12,0-3.18.74-3.18,2.21a1.54,1.54,0,0,0,.49,1.2,3.26,3.26,0,0,0,1.46.69l2.47.59a5,5,0,0,1,2.4,1.21,3.25,3.25,0,0,1,.82,2.36,3.68,3.68,0,0,1-1.22,3,5,5,0,0,1-3.31,1,10.67,10.67,0,0,1-2.78-.32,7.17,7.17,0,0,1-1.93-.76Z"/><path class="cls-39" d="M1002.65,254.75a4.18,4.18,0,0,1-3.33-1.38,5.3,5.3,0,0,1-1.2-3.61,5.42,5.42,0,0,1,1.23-3.65,4.16,4.16,0,0,1,3.33-1.4,5.82,5.82,0,0,1,1.45.18,3.22,3.22,0,0,1,1.1.48l-.4,1.15a4.53,4.53,0,0,0-2.17-.56,2.66,2.66,0,0,0-2.21,1,4.31,4.31,0,0,0-.82,2.79,4.23,4.23,0,0,0,.81,2.73,2.69,2.69,0,0,0,2.23,1,5.06,5.06,0,0,0,2.32-.61l.18,1.17A4.22,4.22,0,0,1,1002.65,254.75Z"/><path class="cls-39" d="M1011.53,244.82a5.31,5.31,0,0,1,.72.05l0,1.36a3.94,3.94,0,0,0-.71-.07,2.56,2.56,0,0,0-2,.85,3.08,3.08,0,0,0-.77,2.13v5.41h-1.46q0-8.88,0-9.64h1.22l.14,1.73a4.11,4.11,0,0,1,1.27-1.32A3,3,0,0,1,1011.53,244.82Z"/><path class="cls-39" d="M1015.62,241.4v1.74h-1.48V241.4Zm0,3.51v9.64h-1.48v-9.64Z"/><path class="cls-39" d="M1018.5,258.73V244.91h1.29l.15,1.31a3.82,3.82,0,0,1,3-1.51,3.7,3.7,0,0,1,2.23.66,3.79,3.79,0,0,1,1.35,1.78,7.29,7.29,0,0,1,.43,2.63,6.64,6.64,0,0,1-.47,2.56,4,4,0,0,1-1.4,1.77,3.61,3.61,0,0,1-2.14.64,3.77,3.77,0,0,1-1.75-.42,3.45,3.45,0,0,1-1.31-1.1c0,.63.05,1.25.05,1.85v3.56Zm4.27-5.22a2.38,2.38,0,0,0,1.2-.3,2.33,2.33,0,0,0,.85-.83,4,4,0,0,0,.49-1.2,5.62,5.62,0,0,0,.17-1.46,4.89,4.89,0,0,0-.69-2.71,2.3,2.3,0,0,0-2-1.06q-2.81,0-2.8,3.62a5.37,5.37,0,0,0,.66,3A2.37,2.37,0,0,0,1022.77,253.51Z"/><path class="cls-39" d="M1032.26,254.73a2.56,2.56,0,0,1-2-.7,3.5,3.5,0,0,1-.63-2.24V246h-1.44l.07-1,1.36-.12.5-2.21,1,0v2.24h2.68V246h-2.68v5.53a2.68,2.68,0,0,0,.33,1.54,1.32,1.32,0,0,0,1.14.45,12.5,12.5,0,0,0,1.26-.14l.06,1.16A10.53,10.53,0,0,1,1032.26,254.73Z"/></g></g></svg>