<?xml version="1.0" encoding="utf-8"?>
<!-- Generator: Adobe Illustrator 18.1.1, SVG Export Plug-In . SVG Version: 6.00 Build 0)  -->
<svg version="1.1" id="Layer_1" xmlns="http://www.w3.org/2000/svg" xmlns:xlink="http://www.w3.org/1999/xlink" x="0px" y="0px"
	 viewBox="0 208 720 240" enable-background="new 0 208 720 240" xml:space="preserve">
<g id="Backgroud">
</g>
<g>
	<path fill="#0798A8" d="M47.7,354.1c0-1.6,0.4-2.8,1.4-3.7c1-0.9,2.1-1.3,3.5-1.3h11.8c6.2,0,11.1,2.2,14.9,6.6
		c3.5,4.1,5.3,9.1,5.3,14.9c0,6.9-2,12.4-6.1,16.5c-3.7,3.8-8.5,5.8-14.1,5.8H52.6c-1.4,0-2.5-0.4-3.5-1.4c-1-0.9-1.5-2.1-1.5-3.6
		L47.7,354.1L47.7,354.1z M57.5,383.8h5.2c3.7,0,6.6-1.2,8.5-3.6c1.8-2.2,2.8-5.3,2.8-9.4c0-3.8-0.9-6.8-2.7-9
		c-1.9-2.2-4.6-3.4-8.2-3.4h-5.7C57.5,358.4,57.5,383.8,57.5,383.8z"/>
	<path fill="#0798A8" d="M97.3,357.2c1.2-3.1,2.1-5.2,2.9-6.3c1.4-1.8,3.1-2.7,5.3-2.7c1.8,0,3.3,0.5,4.5,1.6s2.5,3.5,3.9,7.5
		l9.5,25.9c0.6,1.7,1.1,3,1.2,3.7c0.2,0.7,0.2,1.6,0.2,2.3c0,1.3-0.4,2.2-1.3,3s-2,1.1-3.5,1.1s-2.7-0.4-3.5-1.4
		c-0.6-0.6-1.2-1.9-1.7-3.5l-1.2-3.9H97.5l-1.2,3.9c-0.5,1.6-1.1,2.8-1.7,3.5c-0.9,1-1.9,1.4-3.5,1.4c-1.4,0-2.6-0.4-3.4-1.2
		c-0.9-0.7-1.3-1.7-1.3-3c0-0.7,0.1-1.6,0.3-2.5s0.5-2.1,1.2-3.7L97.3,357.2z M105.8,359.3l-5.4,16.1h10.3L105.8,359.3z"/>
	<path fill="#0798A8" d="M153.3,353.3c0.5-1.5,1.1-2.6,1.6-3.1c0.9-1,2.1-1.4,3.8-1.4c1.4,0,2.6,0.4,3.4,1.4c1,1,1.4,2.1,1.4,3.4
		c0,0.4-0.1,1-0.3,1.6s-0.4,1.3-0.7,2L150.2,388c-0.7,1.9-1.3,3.1-1.7,3.6c-0.9,1.2-2.1,1.7-3.7,1.7s-2.8-0.5-3.7-1.7
		c-0.5-0.6-1.1-1.8-1.8-3.6l-12.1-30.7c-0.2-0.4-0.4-1.1-0.6-1.8c-0.2-0.9-0.4-1.4-0.4-1.8c0-1.3,0.4-2.5,1.4-3.4
		c0.9-1,2-1.5,3.5-1.5c1.7,0,2.9,0.4,3.7,1.4c0.5,0.6,1.2,1.7,1.7,3.2l8.4,22.4L153.3,353.3z"/>
	<path fill="#0798A8" d="M176.9,388c0,1.7-0.4,3-1.4,3.9c-1,1-2.1,1.4-3.5,1.4c-1.5,0-2.7-0.4-3.6-1.4c-0.9-0.9-1.4-2.2-1.4-3.9v-34
		c0-1.7,0.4-3,1.4-3.9c1-1,2.1-1.4,3.5-1.4c1.5,0,2.7,0.4,3.6,1.4c0.9,0.9,1.4,2.2,1.4,3.9V388z"/>
	<path fill="#0798A8" d="M180.3,354.1c0-1.6,0.4-2.8,1.4-3.7c1-0.9,2.1-1.3,3.5-1.3h15.1c1.6,0,2.8,0.4,3.6,1.2
		c0.9,0.9,1.3,1.9,1.3,3.4c0,1.4-0.4,2.6-1.3,3.3c-0.9,0.9-2,1.2-3.6,1.2h-10.1v8h9.3c1.5,0,2.8,0.4,3.6,1.2
		c0.9,0.9,1.3,1.9,1.3,3.3c0,3.1-1.6,4.6-4.9,4.6h-9.3v8.2h10.6c1.6,0,2.8,0.4,3.6,1.2c0.9,0.9,1.3,1.9,1.3,3.4
		c0,1.4-0.4,2.6-1.3,3.3c-0.9,0.9-2.1,1.3-3.6,1.3h-15.5c-1.4,0-2.5-0.4-3.5-1.4c-1-0.9-1.5-2.1-1.5-3.6L180.3,354.1L180.3,354.1z"
		/>
	<path fill="#0798A8" d="M216.7,364.9c-0.5,0.9-1.1,1.6-1.8,2.1c-0.6,0.5-1.5,0.7-2.6,0.7c-1.4,0-2.5-0.4-3.3-1.2s-1.3-1.8-1.3-3.1
		c0-0.6,0.1-1.2,0.3-1.7c0.1-0.2,0.3-0.6,0.6-1.2l5-9.1c0.5-0.9,1.1-1.5,1.6-1.9c0.7-0.5,1.7-0.9,2.7-0.9c1.4,0,2.5,0.4,3.3,1.2
		c0.9,0.7,1.3,1.7,1.3,3c0,0.5-0.1,1.1-0.2,1.5c-0.2,0.4-0.4,1-0.6,1.5L216.7,364.9z"/>
	<path fill="#0798A8" d="M228.7,381.5c0.5,0,2,0.4,4.4,1.3c2.3,0.9,4.4,1.3,6.3,1.3c1.7,0,3.1-0.4,3.9-1.2c0.9-0.9,1.3-1.8,1.3-2.9
		c0-1.7-1.3-3.1-3.9-4.1c-0.5-0.2-2.3-0.9-5.4-1.8c-4.3-1.4-7-2.9-8.4-4.8c-1.4-1.8-2-4.2-2-7c0-4.6,1.6-8.1,4.7-10.6
		c2.9-2.2,6.5-3.4,10.9-3.4c3.9,0,6.9,0.6,9.1,1.8c2.1,1.2,3.2,2.8,3.2,4.8c0,1.4-0.4,2.5-1.2,3.3c-0.9,0.9-1.9,1.4-3.2,1.4
		c-0.7,0-2.3-0.3-4.8-1.1c-1.4-0.4-2.6-0.6-3.6-0.6c-1.4,0-2.5,0.3-3.3,1c-0.9,0.6-1.3,1.5-1.3,2.6c0,1.3,1.1,2.2,3.3,3.1
		c2.2,0.7,4.2,1.5,5.9,2c3.2,1.1,5.7,2.3,7.3,3.9c2.2,2.1,3.3,5.1,3.3,8.9c0,4.8-1.6,8.5-4.8,11.1c-3,2.3-6.9,3.5-11.7,3.5
		c-3.5,0-6.6-0.5-9.4-1.7c-3.4-1.4-5.1-3.2-5.1-5.4c0-1.5,0.4-2.7,1.2-3.7C226,382,227.2,381.5,228.7,381.5z"/>
	<path fill="#0798A8" d="M423.8,354.1c0-1.6,0.4-2.8,1.4-3.7c1-0.9,2.1-1.3,3.5-1.3h11.6c3.7,0,6.7,1.1,8.9,3.2
		c2.2,2.1,3.3,4.9,3.3,8.3c0,2-0.6,3.7-1.8,5.3c-0.9,1.2-2,2.1-3.4,3c2.7,0.5,4.8,1.8,6.3,3.7c1.6,1.9,2.3,4.3,2.3,7
		c0,3.7-1.2,6.8-3.5,9.2c-2.7,2.7-6.5,4.1-11.5,4.1h-12.3c-1.4,0-2.5-0.4-3.5-1.4c-1-0.9-1.5-2.1-1.5-3.6v-33.8L423.8,354.1
		L423.8,354.1z M433.7,366.3h4.5c3,0,4.5-1.4,4.5-4.2s-1.5-4.2-4.5-4.2h-4.5V366.3z M433.7,384.1h6.2c1.8,0,3.2-0.3,4.2-1
		c1.2-0.7,1.8-1.9,1.8-3.5c0-1.5-0.6-2.7-1.8-3.4s-2.6-1.2-4.2-1.2h-6.2V384.1z"/>
	<path fill="#0798A8" d="M469.5,375.4c0,2.8,0.9,5,2.7,6.7c1.6,1.5,3.7,2.3,6.3,2.3s4.6-0.9,6.4-2.5c1.7-1.6,2.6-3.8,2.6-6.6v-21.2
		c0-1.7,0.4-3,1.4-3.9s2.1-1.4,3.5-1.4c1.5,0,2.7,0.4,3.6,1.4c0.9,0.9,1.4,2.2,1.4,3.9v21.2c0,5.7-1.7,10.2-5.2,13.5s-8,5-13.7,5
		c-5.5,0-10-1.6-13.4-4.9c-3.5-3.4-5.3-8-5.3-13.7V354c0-1.7,0.4-3,1.4-3.9c1-1,2.1-1.4,3.5-1.4c1.5,0,2.7,0.4,3.6,1.4
		c0.9,0.9,1.4,2.2,1.4,3.9v21.2h-0.2V375.4z"/>
	<path fill="#0798A8" d="M500.6,354.1c0-1.6,0.4-2.8,1.4-3.7c1-0.9,2.1-1.3,3.5-1.3h11.8c4.4,0,7.9,1.3,10.6,3.7
		c2.7,2.5,3.9,5.8,3.9,9.8c0,3.2-0.9,6-2.7,8.1s-4.3,3.5-7.5,4.2l8.6,9.4c0.6,0.7,1.2,1.4,1.6,2.1c0.3,0.6,0.5,1.4,0.5,2.1
		c0,1.1-0.3,1.9-1.1,2.9c-1,1.2-2.3,1.8-3.9,1.8c-1.2,0-2.1-0.2-2.7-0.5s-1.3-1-2-1.9l-12.2-15.5l-0.1,12.6c0,1.7-0.4,3-1.4,3.9
		c-1,1-2.1,1.4-3.5,1.4c-1.5,0-2.7-0.4-3.6-1.4c-0.9-0.9-1.4-2.2-1.4-3.9L500.6,354.1L500.6,354.1z M510.4,368h6.5
		c1.6,0,2.8-0.4,3.7-1.4s1.4-2.1,1.4-3.5s-0.4-2.6-1.4-3.4c-1-0.9-2.1-1.3-3.6-1.3h-6.5v9.6L510.4,368L510.4,368z"/>
	<path fill="#0798A8" d="M571,366.9c3.5,0,5.2,2,5.2,6.1c0,6-1.8,11-5.3,14.8c-3.6,4.1-8.4,6.1-14.4,6.1c-6.6,0-11.8-2.2-15.8-6.7
		c-3.7-4.3-5.5-9.6-5.5-16.2s2-12.1,6.1-16.4s9.1-6.5,15.3-6.5c4.4,0,8.2,0.9,11.4,2.5c3.5,1.8,5.3,4.2,5.3,7.1
		c0,1.3-0.4,2.3-1.2,3.1c-0.7,0.7-1.9,1.2-3.3,1.2c-1,0-2.6-0.7-4.8-2.2c-2.3-1.5-4.7-2.2-7.1-2.2c-3.4,0-6.1,1.3-8.1,3.8
		c-2,2.6-3.1,5.9-3.1,9.8c0,3.7,0.9,6.9,2.6,9.4c2,2.9,4.8,4.4,8.4,4.4c2.6,0,4.7-0.7,6.4-2.3c1.7-1.5,2.7-3.6,2.9-6.2h-5.7
		c-1.6,0-2.8-0.4-3.6-1.2c-0.9-0.9-1.3-1.9-1.3-3.3c0-3.1,1.6-4.6,4.9-4.6h10.8v-0.5H571z"/>
	<path fill="#0798A8" d="M578.8,354.1c0-1.6,0.4-2.8,1.4-3.7c1-0.9,2.1-1.3,3.5-1.3h15.1c1.6,0,2.8,0.4,3.6,1.2
		c0.9,0.9,1.3,1.9,1.3,3.4c0,1.4-0.4,2.6-1.3,3.3c-0.9,0.9-2,1.2-3.6,1.2h-10.2v8h9.3c1.5,0,2.8,0.4,3.6,1.2
		c0.9,0.9,1.3,1.9,1.3,3.3c0,3.1-1.6,4.6-4.9,4.6h-9.3v8.2h10.6c1.6,0,2.8,0.4,3.6,1.2c0.9,0.9,1.3,1.9,1.3,3.4
		c0,1.4-0.4,2.6-1.3,3.3c-0.9,0.9-2.1,1.3-3.6,1.3h-15.5c-1.4,0-2.5-0.4-3.5-1.4c-1-0.9-1.5-2.1-1.5-3.6v-33.5h0.1V354.1z"/>
	<path fill="#0798A8" d="M606.7,354.1c0-1.6,0.4-2.8,1.4-3.7c1-0.9,2.1-1.3,3.5-1.3h11.8c4.4,0,7.9,1.3,10.6,3.7
		c2.7,2.5,3.9,5.8,3.9,9.8c0,3.2-0.9,6-2.7,8.1s-4.3,3.5-7.5,4.2l8.6,9.4c0.6,0.7,1.2,1.4,1.6,2.1c0.3,0.6,0.5,1.4,0.5,2.1
		c0,1.1-0.3,1.9-1.1,2.9c-1,1.2-2.3,1.8-3.9,1.8c-1.2,0-2.1-0.2-2.7-0.5s-1.3-1-2-1.9l-12.2-15.5l-0.1,12.6c0,1.7-0.4,3-1.4,3.9
		c-1,1-2.1,1.4-3.5,1.4c-1.5,0-2.7-0.4-3.6-1.4c-0.9-0.9-1.4-2.2-1.4-3.9L606.7,354.1L606.7,354.1z M616.5,368h6.5
		c1.6,0,2.8-0.4,3.7-1.4s1.4-2.1,1.4-3.5s-0.4-2.6-1.4-3.4c-1-0.9-2.1-1.3-3.6-1.3h-6.5v9.6L616.5,368L616.5,368z"/>
	<path fill="#0798A8" d="M645.1,381.5c0.5,0,2,0.4,4.4,1.3c2.3,0.9,4.4,1.3,6.3,1.3c1.7,0,3.1-0.4,3.9-1.2c0.9-0.9,1.3-1.8,1.3-2.9
		c0-1.7-1.3-3.1-3.9-4.1c-0.5-0.2-2.3-0.9-5.4-1.8c-4.3-1.4-7-2.9-8.4-4.8c-1.4-1.8-2-4.2-2-7c0-4.6,1.6-8.1,4.7-10.6
		c2.9-2.2,6.5-3.4,10.9-3.4c3.9,0,6.9,0.6,9.1,1.8c2.1,1.2,3.2,2.8,3.2,4.8c0,1.4-0.4,2.5-1.2,3.3c-0.9,0.9-1.9,1.4-3.2,1.4
		c-0.7,0-2.3-0.3-4.8-1.1c-1.4-0.4-2.6-0.6-3.6-0.6c-1.4,0-2.5,0.3-3.3,1c-0.9,0.6-1.3,1.5-1.3,2.6c0,1.3,1.1,2.2,3.3,3.1
		c2.2,0.7,4.2,1.5,5.9,2c3.2,1.1,5.7,2.3,7.3,3.9c2.2,2.1,3.3,5.1,3.3,8.9c0,4.8-1.6,8.5-4.8,11.1c-3,2.3-6.9,3.5-11.7,3.5
		c-3.5,0-6.6-0.5-9.4-1.7c-3.4-1.4-5.1-3.2-5.1-5.4c0-1.5,0.4-2.7,1.2-3.7C642.6,382,643.6,381.5,645.1,381.5z"/>
	
		<path fill="#0798A8" stroke="#0798A8" stroke-width="11" stroke-linecap="round" stroke-linejoin="round" stroke-miterlimit="10" d="
		M382.2,400.8c-3,0-6-1.2-7.9-3.3l-11.6-12.4c-4.2-4.4-11.6-4.4-15.8,0l-7.7,8.1c-3.8,4.1-10.8,4.4-15,0.7c-4.1-3.4-10.3-3.4-14.3,0
		l-4.9,4.3c-1.9,1.7-4.5,2.6-7.1,2.6h-26v2.9v0.6v0.6c0,0.4,0,0.9,0.1,1.2c1,13.8,12.4,24.7,26.5,24.7h83
		c14.1,0,25.5-10.9,26.5-24.7c0.1-0.4,0.1-0.7,0.1-1.2v-0.6v-0.6v-2.9L382.2,400.8L382.2,400.8z"/>
	
		<path fill="#0798A8" stroke="#0798A8" stroke-width="11" stroke-linecap="round" stroke-linejoin="round" stroke-miterlimit="10" d="
		M407.6,354.1c0-37.5-30.4-67.9-67.9-67.9s-67.9,30.4-67.9,67.9h0.1c-0.7,6.2,0.4,13.5,10,13.5c8.2,0,13.3-9.6,21.5-9.6
		s11.9,9.6,20.3,9.6c8.2,0,7.8-9.6,16-9.6s8.4,9.6,16.6,9.6s11.4-9.6,19.6-9.6s13.1,9.6,21.3,9.6c9.6,0,10.9-7.5,10.2-13.5H407.6z"
		/>
	<ellipse fill="#FFFFFF" cx="294" cy="333.8" rx="3.3" ry="3.3"/>
	<ellipse fill="#FFFFFF" cx="311.7" cy="333.8" rx="3.3" ry="3.3"/>
	<ellipse fill="#FFFFFF" cx="298.9" cy="321.2" rx="1.6" ry="1.6"/>
	<path fill="#FFFFFF" d="M371,320.4c0.3,1.8-0.9,3.5-2.7,3.8s-3.5-0.9-3.8-2.7c-0.3-1.8,0.9-3.5,2.7-3.8
		C369,317.5,370.7,318.7,371,320.4z"/>
	<path fill="#FFFFFF" d="M388.5,317.2c0.3,1.8-0.9,3.5-2.7,3.8c-1.8,0.3-3.5-0.9-3.8-2.7c-0.3-1.8,0.9-3.5,2.7-3.8
		C386.4,314.4,388.1,315.5,388.5,317.2z"/>
	<ellipse fill="#FFFFFF" cx="356.8" cy="314.3" rx="1.6" ry="1.6"/>
	<ellipse fill="#FFFFFF" cx="385.2" cy="333.8" rx="1.6" ry="1.6"/>
	<ellipse fill="#FFFFFF" cx="380" cy="324.4" rx="1.6" ry="1.6"/>
	<ellipse fill="#FFFFFF" cx="331.5" cy="316.3" rx="3.3" ry="3.3"/>
</g>
</svg>
