<?xml version="1.0" encoding="utf-8"?>
<!-- Generator: Adobe Illustrator 23.0.1, SVG Export Plug-In . SVG Version: 6.00 Build 0)  -->
<svg version="1.1" id="Layer_1" xmlns="http://www.w3.org/2000/svg" xmlns:xlink="http://www.w3.org/1999/xlink" x="0px" y="0px"
	 viewBox="0 0 2771 1594.1" style="enable-background:new 0 0 2771 1594.1;" xml:space="preserve">
<style type="text/css">
	.st0{fill:#214056;}
	.st1{fill:#FFFFFF;stroke:#000000;stroke-width:6;stroke-miterlimit:10;}
	.st2{fill:none;stroke:#000000;stroke-width:6;stroke-miterlimit:10;}
	.st3{fill:#F84D45;}
	.st4{fill:#FEC64E;}
	.st5{fill:#71EFC3;}
	.st6{fill:#FD92F2;}
	.st7{fill:#641FE1;}
	.st8{fill:#F94D45;}
	.st9{fill:#999999;stroke:#000000;stroke-width:8;stroke-miterlimit:10;}
	.st10{fill:none;stroke:#CCCCCC;stroke-width:8;stroke-miterlimit:10;}
	.st11{fill:#FFFFFF;}
	.st12{fill:none;stroke:#FFFFFF;stroke-width:12;stroke-miterlimit:10;}
	.st13{fill:#F84D45;stroke:#000000;stroke-width:10;stroke-miterlimit:10;}
	.st14{fill:#FFFFFF;stroke:#000000;stroke-width:10;stroke-miterlimit:10;}
	.st15{fill:#71EFC3;stroke:#000000;stroke-width:10;stroke-miterlimit:10;}
	.st16{fill:#FEC64E;stroke:#000000;stroke-width:10;stroke-miterlimit:10;}
	.st17{fill:#FD92F2;stroke:#000000;stroke-width:10;stroke-miterlimit:10;}
	.st18{fill:#641FE1;stroke:#000000;stroke-width:10;stroke-miterlimit:10;}
	.st19{fill:#1CAEFC;stroke:#000000;stroke-width:10;stroke-miterlimit:10;}
	.st20{fill:#FFFFFF;stroke:#F84D45;stroke-width:8;stroke-miterlimit:10;}
	.st21{fill:#FFFFFF;stroke:#151D39;stroke-width:5;stroke-miterlimit:10;}
	.st22{fill:none;stroke:#641FE1;stroke-width:5;stroke-linecap:round;stroke-miterlimit:10;}
	.st23{fill:#151D39;}
</style>
<rect x="-5.5" y="-4.3" class="st0" width="2776.6" height="1636.8"/>
<g>
	<rect x="2165.4" y="622.4" class="st1" width="461.4" height="447.1"/>
	<line class="st2" x1="2165.4" y1="655" x2="2626.8" y2="655"/>
	<circle class="st3" cx="2184.6" cy="638.5" r="7"/>
	<circle class="st4" cx="2205.8" cy="638.5" r="7"/>
	<circle class="st5" cx="2226.1" cy="638.5" r="7"/>
	<g>
		<rect x="2198.9" y="685" class="st6" width="392.9" height="52.4"/>
		<rect x="2198.9" y="756.6" class="st5" width="129.1" height="138.6"/>
		<rect x="2354.8" y="756.6" class="st4" width="237" height="59.6"/>
		<rect x="2354.8" y="837.2" class="st7" width="237" height="58.4"/>
		<rect x="2198.9" y="916.6" class="st8" width="392.9" height="117.2"/>
	</g>
</g>
<g>
	<rect x="1484.7" y="709.4" class="st9" width="345.8" height="90"/>
	<rect x="1484.7" y="799.3" class="st9" width="345.8" height="90"/>
	<rect x="1484.7" y="889.3" class="st9" width="345.8" height="90"/>
	<rect x="1484.7" y="979.3" class="st9" width="345.8" height="90"/>
	<circle cx="1798.7" cy="754.4" r="9.6"/>
	<circle cx="1762.8" cy="754.4" r="9.6"/>
	<circle cx="1798.7" cy="844.3" r="9.6"/>
	<circle cx="1762.8" cy="844.3" r="9.6"/>
	<circle cx="1798.7" cy="934.3" r="9.6"/>
	<circle cx="1762.8" cy="934.3" r="9.6"/>
	<circle cx="1798.7" cy="1024.3" r="9.6"/>
	<circle cx="1762.8" cy="1024.3" r="9.6"/>
	<line class="st10" x1="1514.4" y1="757.1" x2="1719.3" y2="757.1"/>
	<rect x="1484.7" y="619.4" class="st9" width="345.8" height="90"/>
	<circle cx="1798.7" cy="666.5" r="9.6"/>
	<circle cx="1762.8" cy="666.5" r="9.6"/>
	<line class="st10" x1="1514.4" y1="667.6" x2="1719.3" y2="667.6"/>
	<line class="st10" x1="1514.4" y1="843.7" x2="1719.3" y2="843.7"/>
	<line class="st10" x1="1514.4" y1="937.7" x2="1719.3" y2="937.7"/>
	<line class="st10" x1="1514.4" y1="1024.3" x2="1719.3" y2="1024.3"/>
</g>
<g>
	<path class="st11" d="M2344.7,556.2c5,0,8.9-2.7,10.3-7.2h8.3c-2.2,8.9-10,14.1-18.6,14.1c-11.1,0-19.7-8.2-19.7-19.6
		c0-11.4,8.6-19.6,19.7-19.6c8.5,0,16.3,5.2,18.6,14.1h-8.3c-1.4-4.5-5.2-7.2-10.3-7.2c-7.1,0-11.9,5.4-11.9,12.7
		S2337.6,556.2,2344.7,556.2z"/>
	<path class="st11" d="M2374.6,562.5h-7v-37.9h7V562.5z"/>
	<path class="st11" d="M2389.1,562.5h-7v-18.8h-3.5v-5.9h10.5V562.5z M2385.3,524.6c2.5,0,4.5,2.1,4.5,4.5c0,2.5-2,4.5-4.5,4.5
		s-4.5-1.9-4.5-4.5C2380.8,526.7,2382.8,524.6,2385.3,524.6z"/>
	<path class="st11" d="M2419.5,552.2H2401c0.4,2.8,2.5,5,5.7,5c2.1,0,4-0.9,5-2.5l7.3,0.8c-2.2,5.3-6.9,7.8-12.4,7.8
		c-7.4,0-13-5.5-13-13s5.5-13,12.9-13c6.8,0,13,4.4,13,14.8V552.2z M2400.9,547.4h11.1c-0.4-2.5-2.5-4.5-5.5-4.5
		S2401.4,544.8,2400.9,547.4z"/>
	<path class="st11" d="M2438,537.1c5.4,0,9.2,3.4,9.2,9.2v16.2h-7V548c0-3.1-2-4.4-4.2-4.4c-2.1,0-3.9,1.1-5.2,2.8v16.1h-7v-24.8
		h6.9v1c0,0.9-0.1,1.9-0.1,1.9C2432.3,538.3,2435.1,537.1,2438,537.1z"/>
	<path class="st11" d="M2461.8,528.3v9.4h5.4v5.9h-5.4v11.2c0,1.6,1.2,1.8,2.3,1.8c1.8,0,3.2-0.2,3.2-0.2v6c0,0-3.4,0.3-5.5,0.3
		c-3.5,0-7.1-0.6-7.1-5.6v-13.6h-3.9v-5.9h3.9v-9.4L2461.8,528.3L2461.8,528.3z"/>
</g>
<g>
	<path class="st11" d="M1552.6,524.6l7.2,27.1h0.1l6.1-27.1h7.7l-9.2,37.9h-8.7l-7.1-27.2l-7,27.2h-8.7l-9.4-37.9h8.1l5.8,27.1h0.1
		l7.2-27.1H1552.6z"/>
	<path class="st11" d="M1599.8,552.2h-18.4c0.4,2.8,2.5,5,5.7,5c2.1,0,4-0.9,5-2.5l7.3,0.8c-2.2,5.3-6.9,7.8-12.4,7.8
		c-7.4,0-13-5.5-13-13s5.5-13,12.9-13c6.8,0,13,4.4,13,14.8L1599.8,552.2L1599.8,552.2z M1581.2,547.4h11.1
		c-0.4-2.5-2.5-4.5-5.5-4.5C1583.8,542.9,1581.7,544.8,1581.2,547.4z"/>
	<path class="st11" d="M1611,562.5h-7v-37.9h7v12.2c0,1.6-0.1,3.4-0.1,4.1c1.2-2.1,4.1-3.8,7.8-3.8c6.8,0,12,5.5,12,13
		s-5.2,13-12.1,13c-3.5,0-6.4-1.7-7.7-3.8L1611,562.5L1611,562.5z M1610.8,550.1c0,3.8,2.6,6.8,6.3,6.8s6.3-3,6.3-6.8
		s-2.6-6.8-6.3-6.8S1610.8,546.3,1610.8,550.1z"/>
	<path class="st11" d="M1666.5,534.7c-2.3-2.3-5.4-3.9-8-3.9c-2.5,0-4.8,1.3-4.8,3.6c0,1.7,1.1,3.1,4.1,4.5l3.1,1.5
		c6,2.8,9.6,6,9.6,11.6s-4.8,11.2-13.1,11.2c-5.7,0-10-2.2-13.6-5.7l4.2-5.6c2.8,2.9,6.4,4.5,9.2,4.5c3.2,0,5.2-1.8,5.2-4.1
		c0-2.6-2.3-4.1-6-5.7l-2.7-1.2c-5.1-2.4-8.3-5.8-8.3-10.6c0-6.7,6-10.7,12.7-10.7c4.4,0,8.9,2.2,12.5,5.3L1666.5,534.7z"/>
	<path class="st11" d="M1699.5,552.2h-18.4c0.4,2.8,2.5,5,5.7,5c2.1,0,4-0.9,5-2.5l7.3,0.8c-2.2,5.3-6.9,7.8-12.4,7.8
		c-7.4,0-13-5.5-13-13s5.5-13,12.9-13c6.8,0,13,4.4,13,14.8L1699.5,552.2L1699.5,552.2z M1680.9,547.4h11.1
		c-0.4-2.5-2.5-4.5-5.5-4.5S1681.4,544.8,1680.9,547.4z"/>
	<path class="st11" d="M1718.9,544.6h-3c-3.6,0-5.2,1.7-5.2,6v11.8h-7v-24.8h6.8v3.9c1-2.7,3.4-4.3,6.4-4.3c0.6,0,1.3,0.1,1.9,0.2
		L1718.9,544.6L1718.9,544.6z"/>
	<path class="st11" d="M1733.4,554.9l5.6-17.2h7.4l-8.8,24.8h-8.7l-8.4-24.8h7.6L1733.4,554.9z"/>
	<path class="st11" d="M1773.4,552.2H1755c0.4,2.8,2.5,5,5.7,5c2.1,0,4-0.9,5-2.5l7.3,0.8c-2.2,5.3-6.9,7.8-12.4,7.8
		c-7.4,0-13-5.5-13-13s5.5-13,12.9-13c6.8,0,13,4.4,13,14.8L1773.4,552.2L1773.4,552.2z M1754.8,547.4h11.1
		c-0.4-2.5-2.5-4.5-5.5-4.5S1755.3,544.8,1754.8,547.4z"/>
	<path class="st11" d="M1792.8,544.6h-3c-3.6,0-5.2,1.7-5.2,6v11.8h-7v-24.8h6.8v3.9c1-2.7,3.4-4.3,6.4-4.3c0.6,0,1.3,0.1,1.9,0.2
		L1792.8,544.6L1792.8,544.6z"/>
</g>
<g>
	<path class="st11" d="M902.7,982.4l7.2,27.1h0.1l6.1-27.1h7.7l-9.2,37.9h-8.7l-7.1-27.2l-7,27.2H883l-9.4-37.9h8.1l5.8,27.1h0.1
		l7.2-27.1H902.7z"/>
	<path class="st11" d="M949.9,1009.9h-18.4c0.4,2.8,2.5,5,5.7,5c2.1,0,4-0.9,5-2.5l7.3,0.8c-2.2,5.3-6.9,7.8-12.4,7.8
		c-7.4,0-13-5.5-13-13c0-7.6,5.5-13,12.9-13c6.8,0,13,4.4,13,14.8L949.9,1009.9L949.9,1009.9z M931.3,1005.2h11.1
		c-0.4-2.5-2.5-4.5-5.5-4.5C933.9,1000.7,931.8,1002.6,931.3,1005.2z"/>
	<path class="st11" d="M961.1,1020.3h-7v-37.9h7v12.2c0,1.6-0.1,3.4-0.1,4.1c1.2-2.1,4.1-3.8,7.8-3.8c6.8,0,12,5.5,12,13
		c0,7.6-5.2,13-12.1,13c-3.5,0-6.4-1.7-7.7-3.8L961.1,1020.3L961.1,1020.3z M960.9,1007.9c0,3.8,2.6,6.8,6.3,6.8s6.3-3,6.3-6.8
		s-2.6-6.8-6.3-6.8S960.9,1004,960.9,1007.9z"/>
	<path class="st11" d="M1026,1020.3h-8.1l-3.2-10.3h-11.4l-3,10.3h-7.9l12.2-37.9h9L1026,1020.3z M1008.9,990.5L1008.9,990.5
		l-3.9,13h7.7L1008.9,990.5z"/>
	<path class="st11" d="M1037.8,1020.3h-7.5v-37.9h12.8c8.9,0,13.6,5.6,13.6,12.4c0,6.8-4.7,12.6-13.6,12.6h-5.4L1037.8,1020.3
		L1037.8,1020.3z M1037.8,988.9v12.1h4.2c4.1,0,7.1-1.9,7.1-6.2c0-4.2-3-6-7.1-6h-4.2V988.9z"/>
	<path class="st11" d="M1061.9,982.4h7.5v37.9h-7.5V982.4z"/>
</g>
<g>
	<path class="st11" d="M791.1,148H783l-3.2-10.3h-11.4l-3,10.3h-7.9l12.2-37.9h9L791.1,148z M774.1,118.2L774.1,118.2l-3.9,13h7.7
		L774.1,118.2z"/>
	<path class="st11" d="M801.6,157.4h-7v-34.2h7v1.2c0,1.2-0.1,1.7-0.1,2c1.2-2.1,4.1-3.8,7.8-3.8c6.8,0,12,5.5,12,13
		s-5.2,13-12.1,13c-3.5,0-6.4-1.7-7.7-3.8L801.6,157.4L801.6,157.4z M801.5,135.6c0,3.8,2.6,6.8,6.3,6.8s6.3-3,6.3-6.8
		s-2.6-6.8-6.3-6.8S801.5,131.7,801.5,135.6z"/>
	<path class="st11" d="M832.9,157.4h-7v-34.2h7v1.2c0,1.2-0.1,1.7-0.1,2c1.2-2.1,4.1-3.8,7.8-3.8c6.8,0,12,5.5,12,13
		s-5.2,13-12.1,13c-3.5,0-6.4-1.7-7.7-3.8L832.9,157.4L832.9,157.4z M832.8,135.6c0,3.8,2.6,6.8,6.3,6.8s6.3-3,6.3-6.8
		s-2.6-6.8-6.3-6.8S832.8,131.7,832.8,135.6z"/>
	<path class="st11" d="M864.2,148h-7v-37.9h7V148z"/>
	<path class="st11" d="M878.8,148h-7v-18.8h-3.5v-6h10.5V148z M874.9,110.1c2.5,0,4.5,2.1,4.5,4.5c0,2.5-2,4.5-4.5,4.5
		s-4.5-1.9-4.5-4.5C870.4,112.2,872.4,110.1,874.9,110.1z"/>
	<path class="st11" d="M890.3,135.6c0,3.9,2.5,6.8,6.2,6.8c2.6,0,4.5-1.5,5.5-3.8l6.6,2.1c-1.6,4.9-6.5,8-12.1,8
		c-7.4,0-13.2-5.5-13.2-13s5.8-13,13.2-13c5.6,0,10.5,3.1,12.1,8.1l-6.6,2c-0.9-2.3-2.9-3.8-5.5-3.8
		C892.8,128.8,890.3,131.7,890.3,135.6z"/>
	<path class="st11" d="M926.5,131.5c0-1.8-1.4-2.9-4.1-2.9c-2.5,0-5.6,1.2-7.5,2.3l-2.8-5.3c0,0,4.6-3,10.6-3
		c5.6,0,10.8,2.6,10.8,9.1V148h-7v-2.3c-1.3,1.9-4.1,3-6.9,3c-5.2,0-8.7-3.7-8.7-7.8c0-4.7,3.5-7.6,9-7.6h4.9c1.2,0,1.7-0.5,1.7-1.5
		V131.5z M926.5,139.1v-1.8c-0.4,0.4-1.2,0.5-2.2,0.5h-2.7c-2.2,0-3.5,1-3.5,2.7s1.4,2.9,3.5,2.9
		C924.2,143.5,926.5,142.2,926.5,139.1z"/>
	<path class="st11" d="M948.2,113.8v9.4h5.4v6h-5.4v11.2c0,1.6,1.2,1.8,2.3,1.8c1.8,0,3.2-0.2,3.2-0.2v6c0,0-3.4,0.3-5.5,0.3
		c-3.5,0-7.1-0.6-7.1-5.6v-13.6h-3.9v-6h3.9v-9.4L948.2,113.8L948.2,113.8z"/>
	<path class="st11" d="M966.9,148h-7v-18.8h-3.5v-6h10.5V148z M963,110.1c2.5,0,4.5,2.1,4.5,4.5c0,2.5-2,4.5-4.5,4.5
		s-4.5-1.9-4.5-4.5C958.6,112.2,960.6,110.1,963,110.1z"/>
	<path class="st11" d="M971.4,135.6c0-7.6,5.9-13,13.3-13s13.3,5.5,13.3,13s-5.9,13-13.3,13S971.4,143.2,971.4,135.6z M978.4,135.6
		c0,3.8,2.5,6.8,6.2,6.8c3.6,0,6.2-2.9,6.2-6.8c0-3.9-2.5-6.8-6.2-6.8S978.4,131.7,978.4,135.6z"/>
	<path class="st11" d="M1016.7,122.5c5.4,0,9.2,3.4,9.2,9.2V148h-7v-14.4c0-3.1-2-4.4-4.2-4.4c-2.1,0-3.9,1.1-5.2,2.8v16h-7v-24.8
		h6.9v1c0,0.9-0.1,1.9-0.1,1.9C1011,123.8,1013.8,122.5,1016.7,122.5z"/>
	<path class="st11" d="M1062.9,120.2c-2.3-2.3-5.4-3.9-8-3.9c-2.5,0-4.8,1.3-4.8,3.6c0,1.7,1.1,3.1,4.1,4.5l3.1,1.5
		c6,2.8,9.6,5.9,9.6,11.6s-4.8,11.2-13.1,11.2c-5.7,0-10-2.2-13.6-5.7l4.2-5.6c2.8,2.9,6.4,4.5,9.2,4.5c3.2,0,5.2-1.8,5.2-4.1
		c0-2.6-2.3-4.1-6-5.7l-2.7-1.2c-5.1-2.4-8.3-5.8-8.3-10.6c0-6.7,6-10.7,12.7-10.7c4.4,0,8.9,2.2,12.5,5.3L1062.9,120.2z"/>
	<path class="st11" d="M1095.9,137.6h-18.4c0.4,2.8,2.5,5,5.7,5c2.1,0,4-0.9,5-2.5l7.3,0.8c-2.2,5.3-6.9,7.8-12.4,7.8
		c-7.4,0-13-5.5-13-13s5.5-13,12.9-13C1089.8,122.7,1096,127.1,1095.9,137.6L1095.9,137.6L1095.9,137.6z M1077.3,132.9h11.1
		c-0.4-2.5-2.5-4.5-5.5-4.5S1077.8,130.3,1077.3,132.9z"/>
	<path class="st11" d="M1115.3,130.1h-3c-3.6,0-5.2,1.7-5.2,6V148h-7v-24.8h6.8v3.9c1-2.7,3.4-4.3,6.4-4.3c0.6,0,1.3,0.1,1.9,0.2
		L1115.3,130.1L1115.3,130.1z"/>
	<path class="st11" d="M1129.8,140.4l5.6-17.2h7.4L1134,148h-8.7l-8.4-24.8h7.6L1129.8,140.4z"/>
	<path class="st11" d="M1169.8,137.6h-18.4c0.4,2.8,2.5,5,5.7,5c2.1,0,4-0.9,5-2.5l7.3,0.8c-2.2,5.3-6.9,7.8-12.4,7.8
		c-7.4,0-13-5.5-13-13s5.5-13,12.9-13C1163.7,122.7,1169.9,127.1,1169.8,137.6L1169.8,137.6L1169.8,137.6z M1151.2,132.9h11.1
		c-0.4-2.5-2.5-4.5-5.5-4.5C1153.8,128.4,1151.7,130.3,1151.2,132.9z"/>
	<path class="st11" d="M1189.2,130.1h-3c-3.6,0-5.2,1.7-5.2,6V148h-7v-24.8h6.8v3.9c1-2.7,3.4-4.3,6.4-4.3c0.6,0,1.3,0.1,1.9,0.2
		L1189.2,130.1L1189.2,130.1z"/>
</g>
<g>
	<path class="st11" d="M199.1,1019.2h-13v-37.9h13c12.4,0,19.6,7.7,19.6,18.9C218.8,1011.5,211.5,1019.2,199.1,1019.2z M198.9,987.9
		h-5.2v25h5.2c6.9,0,12.2-4.1,12.2-12.5C211.1,992,205.8,987.9,198.9,987.9z"/>
	<path class="st11" d="M236.9,1002.8c0-1.8-1.4-2.9-4.1-2.9c-2.5,0-5.6,1.2-7.5,2.3l-2.8-5.3c0,0,4.6-3,10.6-3
		c5.6,0,10.8,2.6,10.8,9.1v16.3h-7v-2.3c-1.3,1.9-4.1,3-6.9,3c-5.2,0-8.7-3.7-8.7-7.8c0-4.7,3.5-7.6,9-7.6h4.9
		c1.2,0,1.7-0.5,1.7-1.5V1002.8z M236.9,1010.4v-1.8c-0.4,0.4-1.2,0.5-2.2,0.5H232c-2.2,0-3.5,1-3.5,2.7s1.4,2.9,3.5,2.9
		C234.6,1014.8,236.9,1013.5,236.9,1010.4z"/>
	<path class="st11" d="M258.6,985v9.4h5.4v6h-5.4v11.2c0,1.6,1.2,1.8,2.3,1.8c1.8,0,3.2-0.2,3.2-0.2v6c0,0-3.4,0.3-5.5,0.3
		c-3.5,0-7.1-0.6-7.1-5.6v-13.5h-3.9v-6h3.9V985H258.6z"/>
	<path class="st11" d="M282.6,1002.8c0-1.8-1.4-2.9-4.1-2.9c-2.5,0-5.6,1.2-7.5,2.3l-2.8-5.3c0,0,4.6-3,10.6-3
		c5.6,0,10.8,2.6,10.8,9.1v16.3h-7v-2.3c-1.3,1.9-4.1,3-6.9,3c-5.2,0-8.7-3.7-8.7-7.8c0-4.7,3.5-7.6,9-7.6h4.9
		c1.2,0,1.7-0.5,1.7-1.5V1002.8z M282.6,1010.4v-1.8c-0.4,0.4-1.2,0.5-2.2,0.5h-2.7c-2.2,0-3.5,1-3.5,2.7s1.4,2.9,3.5,2.9
		C280.3,1014.8,282.6,1013.5,282.6,1010.4z"/>
	<path class="st11" d="M302.4,1019.2h-7v-37.9h7v12.2c0,1.6-0.1,3.4-0.1,4.1c1.2-2.1,4.1-3.8,7.8-3.8c6.8,0,12,5.5,12,13
		c0,7.6-5.2,13-12.1,13c-3.5,0-6.4-1.7-7.7-3.8v3.2H302.4z M302.3,1006.9c0,3.8,2.6,6.8,6.3,6.8s6.3-3,6.3-6.8s-2.6-6.8-6.3-6.8
		S302.3,1003,302.3,1006.9z"/>
	<path class="st11" d="M340.4,1002.8c0-1.8-1.4-2.9-4.1-2.9c-2.5,0-5.6,1.2-7.5,2.3l-2.8-5.3c0,0,4.6-3,10.6-3
		c5.6,0,10.8,2.6,10.8,9.1v16.3h-7v-2.3c-1.3,1.9-4.1,3-6.9,3c-5.2,0-8.7-3.7-8.7-7.8c0-4.7,3.5-7.6,9-7.6h4.9
		c1.2,0,1.7-0.5,1.7-1.5V1002.8z M340.4,1010.4v-1.8c-0.4,0.4-1.2,0.5-2.2,0.5h-2.7c-2.2,0-3.5,1-3.5,2.7s1.4,2.9,3.5,2.9
		C338.2,1014.8,340.4,1013.5,340.4,1010.4z"/>
	<path class="st11" d="M367.9,1002c-2-1.9-4.5-2.5-6.1-2.5c-1.8,0-2.5,0.9-2.5,1.7c0,0.9,0.5,1.5,1.8,1.9l4.1,1.3
		c5.1,1.7,6.8,4.4,6.8,7.7c0,3.6-3.1,7.8-9.8,7.8c-5.5,0-8.9-2.1-10.9-3.9l3.7-4.9c1.8,1.7,5,3.1,7.3,3.1c1.7,0,2.7-0.9,2.7-1.8
		c0-1.2-0.8-1.8-2.8-2.4l-4.2-1.2c-4-1.3-5.7-4-5.7-7.2c0-4.1,3.7-7.7,9.6-7.7c3.2,0,7.1,1,10,3.7L367.9,1002z"/>
	<path class="st11" d="M400.8,1009h-18.4c0.4,2.8,2.5,5,5.7,5c2.1,0,4-0.9,5-2.5l7.3,0.8c-2.2,5.3-6.9,7.8-12.4,7.8
		c-7.4,0-13-5.5-13-13c0-7.6,5.5-13,12.9-13c6.8,0,13,4.4,13,14.8v0.1H400.8z M382.2,1004.2h11.1c-0.4-2.5-2.5-4.5-5.5-4.5
		C384.9,999.7,382.8,1001.5,382.2,1004.2z"/>
</g>
<g>
	<g>
		<line class="st12" x1="1915.9" y1="849.6" x2="1875.8" y2="814.4"/>
		<line class="st12" x1="1876.8" y1="822.3" x2="1912" y2="782.3"/>
	</g>
	<line class="st12" x1="2120.6" y1="817.4" x2="1887" y2="817.4"/>
</g>
<g>
	<g>
		<line class="st12" x1="2080.5" y1="876.9" x2="2120.6" y2="912.1"/>
		<line class="st12" x1="2119.6" y1="904.2" x2="2084.4" y2="944.3"/>
	</g>
	<line class="st12" x1="1875.8" y1="909.2" x2="2109.4" y2="909.2"/>
</g>
<g>
	<g>
		<line class="st12" x1="1273.4" y1="1213.4" x2="1220.2" y2="1216.8"/>
		<line class="st12" x1="1226.5" y1="1221.7" x2="1223" y2="1168.5"/>
	</g>
	<line class="st12" x1="1395.4" y1="1045.8" x2="1230.2" y2="1211"/>
</g>
<g>
	<g>
		<line class="st12" x1="1413.8" y1="1115.5" x2="1467" y2="1112"/>
		<line class="st12" x1="1460.7" y1="1107.1" x2="1464.2" y2="1160.3"/>
	</g>
	<line class="st12" x1="1291.9" y1="1283" x2="1457.1" y2="1117.8"/>
</g>
<g>
	<g>
		<line class="st12" x1="543.7" y1="1276.9" x2="503.7" y2="1241.7"/>
		<line class="st12" x1="504.7" y1="1249.7" x2="539.9" y2="1209.6"/>
	</g>
	<line class="st12" x1="748.5" y1="1244.7" x2="514.8" y2="1244.7"/>
</g>
<g>
	<g>
		<line class="st12" x1="708.4" y1="1309.3" x2="748.5" y2="1344.5"/>
		<line class="st12" x1="747.5" y1="1336.6" x2="712.3" y2="1376.6"/>
	</g>
	<line class="st12" x1="503.7" y1="1341.5" x2="737.3" y2="1341.5"/>
</g>
<g>
	<g>
		<line class="st12" x1="960.8" y1="864.9" x2="925.6" y2="905"/>
		<line class="st12" x1="933.5" y1="904" x2="893.4" y2="868.8"/>
	</g>
	<line class="st12" x1="928.5" y1="660.2" x2="928.5" y2="893.8"/>
</g>
<g>
	<g>
		<line class="st12" x1="985" y1="700.3" x2="1020.1" y2="660.2"/>
		<line class="st12" x1="1012.2" y1="661.2" x2="1052.3" y2="696.4"/>
	</g>
	<line class="st12" x1="1017.2" y1="905" x2="1017.2" y2="671.4"/>
</g>
<g>
	<g>
		<line class="st12" x1="1367.4" y1="666" x2="1383.3" y2="716.9"/>
		<line class="st12" x1="1386.6" y1="709.6" x2="1335.7" y2="725.5"/>
	</g>
	<line class="st12" x1="1175.7" y1="587.1" x2="1375.3" y2="708.5"/>
</g>
<g>
	<g>
		<line class="st12" x1="1243.9" y1="547" x2="1228" y2="496.1"/>
		<line class="st12" x1="1224.7" y1="503.4" x2="1275.6" y2="487.4"/>
	</g>
	<line class="st12" x1="1435.6" y1="625.9" x2="1236" y2="504.4"/>
</g>
<g>
	<rect x="236.5" y="1295.3" class="st13" width="73" height="73"/>
	<rect x="163.5" y="1295.3" class="st14" width="73" height="73"/>
	<rect x="236.5" y="1222.3" class="st14" width="73" height="73"/>
	<rect x="309.5" y="1149.3" class="st15" width="73" height="73"/>
	<rect x="309.5" y="1076.3" class="st14" width="73" height="73"/>
	<rect x="163.5" y="1149.3" class="st16" width="73" height="73"/>
	<rect x="309.5" y="1295.3" class="st14" width="73" height="73"/>
	<rect x="309.5" y="1368.3" class="st17" width="73" height="73"/>
	<rect x="309.5" y="1439.8" class="st14" width="73" height="73"/>
	<rect x="382.5" y="1368.3" class="st14" width="73" height="73"/>
	<rect x="382.5" y="1295.3" class="st18" width="73" height="73"/>
	<rect x="236.5" y="1439.8" class="st19" width="73" height="73"/>
</g>
<path class="st20" d="M1112,1186.7c29.8,0,54-24.2,54-54s-24.2-54-54-54H853.4c-29.8,0-54,24.2-54,54s24.2,54,54,54H1112z"/>
<path class="st20" d="M1112,1294.7c29.8,0,54-24.2,54-54s-24.2-54-54-54H853.4c-29.8,0-54,24.2-54,54s24.2,54,54,54H1112z"/>
<path class="st20" d="M1112,1402.6c29.8,0,54-24.2,54-54s-24.2-54-54-54H853.4c-29.8,0-54,24.2-54,54s24.2,54,54,54H1112z"/>
<path class="st20" d="M1112,1510.6c29.8,0,54-24.2,54-54s-24.2-54-54-54H853.4c-29.8,0-54,24.2-54,54s24.2,54,54,54H1112z"/>
<g>
	<path d="M924.4,1151.9c5,0,8.9-2.7,10.3-7.2h8.3c-2.2,8.9-10,14.1-18.6,14.1c-11.1,0-19.7-8.2-19.7-19.6s8.6-19.6,19.7-19.6
		c8.5,0,16.3,5.2,18.6,14.1h-8.3c-1.4-4.5-5.2-7.2-10.3-7.2c-7.1,0-11.9,5.4-11.9,12.7S917.2,1151.9,924.4,1151.9z"/>
	<path d="M962.4,1140.3h-3c-3.6,0-5.2,1.7-5.2,6v11.8h-7v-24.8h6.8v3.9c1-2.7,3.4-4.3,6.4-4.3c0.6,0,1.3,0.1,1.9,0.2L962.4,1140.3
		L962.4,1140.3z"/>
	<path d="M990.4,1147.9H972c0.4,2.8,2.5,5,5.7,5c2.1,0,4-0.9,5-2.5l7.3,0.8c-2.2,5.3-6.9,7.8-12.4,7.8c-7.4,0-13-5.5-13-13
		s5.5-13,12.9-13C984.3,1133,990.5,1137.4,990.4,1147.9L990.4,1147.9L990.4,1147.9z M971.8,1143.1h11.1c-0.4-2.5-2.5-4.5-5.5-4.5
		C974.5,1138.6,972.3,1140.5,971.8,1143.1z"/>
	<path d="M1008.3,1141.7c0-1.8-1.4-2.9-4.1-2.9c-2.5,0-5.6,1.2-7.5,2.3l-2.8-5.3c0,0,4.6-3,10.6-3c5.6,0,10.8,2.6,10.8,9.1v16.3h-7
		v-2.3c-1.3,1.9-4.1,3-6.9,3c-5.2,0-8.7-3.7-8.7-7.8c0-4.7,3.5-7.6,9-7.6h4.9c1.2,0,1.7-0.5,1.7-1.5V1141.7z M1008.3,1149.3v-1.8
		c-0.4,0.4-1.2,0.5-2.2,0.5h-2.7c-2.2,0-3.5,1-3.5,2.7s1.4,2.9,3.5,2.9C1006,1153.7,1008.3,1152.4,1008.3,1149.3z"/>
	<path d="M1030,1124v9.4h5.4v6h-5.4v11.2c0,1.6,1.2,1.8,2.3,1.8c1.8,0,3.2-0.2,3.2-0.2v6c0,0-3.4,0.3-5.5,0.3
		c-3.5,0-7.1-0.6-7.1-5.6v-13.6h-3.9v-6h3.9v-9.4L1030,1124L1030,1124z"/>
	<path d="M1064.5,1147.9h-18.4c0.4,2.8,2.5,5,5.7,5c2.1,0,4-0.9,5-2.5l7.3,0.8c-2.2,5.3-6.9,7.8-12.4,7.8c-7.4,0-13-5.5-13-13
		s5.5-13,12.9-13C1058.4,1133,1064.6,1137.4,1064.5,1147.9L1064.5,1147.9L1064.5,1147.9z M1045.9,1143.1h11.1
		c-0.4-2.5-2.5-4.5-5.5-4.5C1048.6,1138.6,1046.5,1140.5,1045.9,1143.1z"/>
	<path d="M941.4,1247.6h-5.3v14.6h-7.5v-37.9h14.2c8.3,0,13.1,4.9,13.1,11.5c0,3.6-1.5,8.1-7.2,10.4l9.7,16h-8.7L941.4,1247.6z
		 M941.9,1230.8h-5.7v10.3h5.7c4.2,0,6.6-1.9,6.6-5.2C948.5,1232.5,946,1230.8,941.9,1230.8z"/>
	<path d="M984.9,1251.9h-18.4c0.4,2.8,2.5,5,5.7,5c2.1,0,4-0.9,5-2.5l7.3,0.8c-2.2,5.3-6.9,7.8-12.4,7.8c-7.4,0-13-5.5-13-13
		s5.5-13,12.9-13C978.8,1237,985,1241.4,984.9,1251.9L984.9,1251.9L984.9,1251.9z M966.3,1247.1h11.1c-0.4-2.5-2.5-4.5-5.5-4.5
		C968.9,1242.6,966.8,1244.5,966.3,1247.1z"/>
	<path d="M1002.8,1245.7c0-1.8-1.4-2.9-4.1-2.9c-2.5,0-5.6,1.2-7.5,2.3l-2.8-5.3c0,0,4.6-3,10.6-3c5.6,0,10.8,2.6,10.8,9.1v16.3h-7
		v-2.3c-1.3,1.9-4.1,3-6.9,3c-5.2,0-8.7-3.7-8.7-7.8c0-4.7,3.5-7.6,9-7.6h4.9c1.2,0,1.7-0.5,1.7-1.5V1245.7z M1002.8,1253.3v-1.8
		c-0.4,0.4-1.2,0.5-2.2,0.5H998c-2.2,0-3.5,1-3.5,2.7s1.4,2.9,3.5,2.9C1000.5,1257.7,1002.8,1256.4,1002.8,1253.3z"/>
	<path d="M1033.8,1259c-1.2,2.1-4.2,3.8-7.7,3.8c-6.8,0-12-5.5-12-13s5.1-13,12-13c3.8,0,6.7,1.7,7.9,3.8c0-0.8-0.1-2.9-0.1-4.7
		v-11.6h7v37.9h-7v-3.2H1033.8z M1021.3,1249.8c0,3.8,2.6,6.8,6.3,6.8c3.7,0,6.3-3,6.3-6.8s-2.6-6.8-6.3-6.8
		C1023.9,1243,1021.3,1246,1021.3,1249.8z"/>
	<path d="M922.9,1352.9v-24.6h7.4v25.3c0,7.4-4.8,13.2-14.2,13.2s-14.1-5.8-14.1-13.2v-25.3h7.5v24.6c0,4.1,2.3,7,6.7,7
		S922.9,1357,922.9,1352.9z"/>
	<path d="M943.5,1375.7h-7v-34.2h7v1.2c0,1.2-0.1,1.7-0.1,2c1.2-2.1,4.1-3.8,7.8-3.8c6.8,0,12,5.5,12,13s-5.2,13-12.1,13
		c-3.5,0-6.4-1.7-7.7-3.8L943.5,1375.7L943.5,1375.7z M943.4,1353.8c0,3.8,2.6,6.8,6.3,6.8s6.3-3,6.3-6.8s-2.6-6.8-6.3-6.8
		S943.4,1350,943.4,1353.8z"/>
	<path d="M986.1,1363c-1.2,2.1-4.2,3.8-7.7,3.8c-6.8,0-12-5.5-12-13s5.1-13,12-13c3.8,0,6.7,1.7,7.9,3.8c0-0.8-0.1-2.9-0.1-4.7
		v-11.6h7v37.9h-7v-3.2H986.1z M973.6,1353.8c0,3.8,2.6,6.8,6.3,6.8s6.3-3,6.3-6.8s-2.6-6.8-6.3-6.8S973.6,1350,973.6,1353.8z"/>
	<path d="M1012.9,1349.7c0-1.8-1.4-2.9-4.1-2.9c-2.5,0-5.6,1.2-7.5,2.3l-2.8-5.3c0,0,4.6-3,10.6-3c5.6,0,10.8,2.6,10.8,9.1v16.3h-7
		v-2.3c-1.3,1.9-4.1,3-6.9,3c-5.2,0-8.7-3.7-8.7-7.8c0-4.7,3.5-7.6,9-7.6h4.9c1.2,0,1.7-0.5,1.7-1.5V1349.7z M1012.9,1357.3v-1.8
		c-0.4,0.4-1.2,0.5-2.2,0.5h-2.7c-2.2,0-3.5,1-3.5,2.7s1.4,2.9,3.5,2.9C1010.6,1361.7,1012.9,1360.4,1012.9,1357.3z"/>
	<path d="M1034.6,1332v9.4h5.4v6h-5.4v11.2c0,1.6,1.2,1.8,2.3,1.8c1.8,0,3.2-0.2,3.2-0.2v6c0,0-3.4,0.3-5.5,0.3
		c-3.5,0-7.1-0.6-7.1-5.6v-13.6h-3.9v-6h3.9v-9.4L1034.6,1332L1034.6,1332z"/>
	<path d="M1069.1,1355.9h-18.4c0.4,2.8,2.5,5,5.7,5c2.1,0,4-0.9,5-2.5l7.3,0.8c-2.2,5.3-6.9,7.8-12.4,7.8c-7.4,0-13-5.5-13-13
		s5.5-13,12.9-13C1063,1341,1069.2,1345.4,1069.1,1355.9L1069.1,1355.9L1069.1,1355.9z M1050.5,1351.1h11.1
		c-0.4-2.5-2.5-4.5-5.5-4.5S1051,1348.5,1050.5,1351.1z"/>
	<path d="M923.4,1470.2h-13v-37.9h13c12.4,0,19.6,7.7,19.6,18.9S935.8,1470.2,923.4,1470.2z M923.2,1438.8H918v25h5.2
		c6.9,0,12.2-4.1,12.2-12.5S930.1,1438.8,923.2,1438.8z"/>
	<path d="M971.9,1459.9h-18.4c0.4,2.8,2.5,5,5.7,5c2.1,0,4-0.9,5-2.5l7.3,0.8c-2.2,5.3-6.9,7.8-12.4,7.8c-7.4,0-13-5.5-13-13
		s5.5-13,12.9-13C965.8,1445,972,1449.4,971.9,1459.9L971.9,1459.9L971.9,1459.9z M953.3,1455.1h11.1c-0.4-2.5-2.5-4.5-5.5-4.5
		C955.9,1450.6,953.8,1452.5,953.3,1455.1z"/>
	<path d="M983,1470.2h-7v-37.9h7V1470.2z"/>
	<path d="M1013.4,1459.9H995c0.4,2.8,2.5,5,5.7,5c2.1,0,4-0.9,5-2.5l7.3,0.8c-2.2,5.3-6.9,7.8-12.4,7.8c-7.4,0-13-5.5-13-13
		s5.5-13,12.9-13C1007.3,1445,1013.5,1449.4,1013.4,1459.9L1013.4,1459.9L1013.4,1459.9z M994.7,1455.1h11.1
		c-0.4-2.5-2.5-4.5-5.5-4.5C997.4,1450.6,995.3,1452.5,994.7,1455.1z"/>
	<path d="M1026.4,1436v9.4h5.4v6h-5.4v11.2c0,1.6,1.2,1.8,2.3,1.8c1.8,0,3.2-0.2,3.2-0.2v6c0,0-3.4,0.3-5.5,0.3
		c-3.5,0-7.1-0.6-7.1-5.6v-13.6h-3.9v-6h3.9v-9.4L1026.4,1436L1026.4,1436z"/>
	<path d="M1060.9,1459.9h-18.4c0.4,2.8,2.5,5,5.7,5c2.1,0,4-0.9,5-2.5l7.3,0.8c-2.2,5.3-6.9,7.8-12.4,7.8c-7.4,0-13-5.5-13-13
		s5.5-13,12.9-13C1054.8,1445,1061,1449.4,1060.9,1459.9L1060.9,1459.9L1060.9,1459.9z M1042.3,1455.1h11.1
		c-0.4-2.5-2.5-4.5-5.5-4.5S1042.8,1452.5,1042.3,1455.1z"/>
</g>
<g>
	<rect x="802.3" y="198.6" class="st21" width="215.3" height="267.4"/>
	<g>
		<line class="st22" x1="835.9" y1="240.2" x2="983.9" y2="240.2"/>
		<line class="st22" x1="835.9" y1="267.1" x2="983.9" y2="267.1"/>
		<line class="st22" x1="833.6" y1="325.9" x2="981.6" y2="325.9"/>
		<line class="st22" x1="833.6" y1="353.8" x2="981.6" y2="353.8"/>
		<line class="st22" x1="833.6" y1="413.7" x2="981.6" y2="413.7"/>
		<line class="st22" x1="820" y1="296.5" x2="999.8" y2="296.5"/>
		<line class="st22" x1="820" y1="382.7" x2="999.8" y2="382.7"/>
	</g>
	<rect x="853.5" y="250.8" class="st23" width="164.1" height="215.3"/>
	<rect x="865.4" y="261.6" class="st21" width="215.3" height="267.4"/>
	<g>
		<line class="st22" x1="899" y1="304.3" x2="1047" y2="304.3"/>
		<line class="st22" x1="899" y1="331.2" x2="1047" y2="331.2"/>
		<line class="st22" x1="896.7" y1="390" x2="1044.7" y2="390"/>
		<line class="st22" x1="896.7" y1="417.9" x2="1044.7" y2="417.9"/>
		<line class="st22" x1="896.7" y1="477.8" x2="1044.7" y2="477.8"/>
		<line class="st22" x1="883.1" y1="360.6" x2="1062.9" y2="360.6"/>
		<line class="st22" x1="883.1" y1="446.8" x2="1062.9" y2="446.8"/>
	</g>
	<rect x="916.6" y="314" class="st23" width="164.1" height="215.1"/>
	<rect x="928.4" y="324.8" class="st21" width="215.3" height="267.4"/>
	<g>
		<line class="st22" x1="964.3" y1="375.5" x2="1112.3" y2="375.5"/>
		<line class="st22" x1="964.3" y1="402.3" x2="1112.3" y2="402.3"/>
		<line class="st22" x1="962" y1="461.1" x2="1110" y2="461.1"/>
		<line class="st22" x1="962" y1="489" x2="1110" y2="489"/>
		<line class="st22" x1="962" y1="548.9" x2="1110" y2="548.9"/>
		<line class="st22" x1="948.4" y1="431.7" x2="1128.3" y2="431.7"/>
		<line class="st22" x1="948.4" y1="518" x2="1128.3" y2="518"/>
	</g>
</g>
</svg>
