<?xml version="1.0" encoding="utf-8"?>
<!-- Generator: Adobe Illustrator 23.0.3, SVG Export Plug-In . SVG Version: 6.00 Build 0)  -->
<svg version="1.1" id="Layer_1" xmlns="http://www.w3.org/2000/svg" xmlns:xlink="http://www.w3.org/1999/xlink" x="0px" y="0px"
	 viewBox="0 0 2349.5 1103.1" style="enable-background:new 0 0 2349.5 1103.1;" xml:space="preserve">
<style type="text/css">
	.st0{fill:#FFFFFF;}
	.st1{fill:#FEC64E;}
	.st2{fill:#641FE1;}
	.st3{fill:#F84D45;}
	.st4{fill:none;stroke:#000000;stroke-width:8;stroke-miterlimit:10;}
	.st5{fill:#F84D45;stroke:#000000;stroke-width:8;stroke-miterlimit:10;}
	.st6{fill:#641FE1;stroke:#000000;stroke-width:8;stroke-miterlimit:10;}
	.st7{fill:#1CAEFC;stroke:#000000;stroke-width:8;stroke-miterlimit:10;}
	.st8{fill:#FEC64E;stroke:#000000;stroke-width:8;stroke-miterlimit:10;}
	.st9{fill:none;stroke:#FEC64E;stroke-width:3;stroke-linecap:round;stroke-miterlimit:10;}
	.st10{fill:none;stroke:#F84D45;stroke-width:3;stroke-linecap:round;stroke-miterlimit:10;}
</style>
<g>
	<g>
		<path class="st0" d="M220.8,184.8h-9v24.8H199v-64.5h24.2c14.1,0,22.4,8.4,22.4,19.6c0,6.1-2.5,13.8-12.2,17.7l16.5,27.2h-14.7
			L220.8,184.8z M221.6,156.2h-9.8v17.5h9.8c7.1,0,11.2-3.3,11.2-8.8C232.8,159.2,228.7,156.2,221.6,156.2z"/>
		<path class="st0" d="M299.1,192h-31.4c0.6,4.7,4.3,8.5,9.7,8.5c3.5,0,6.8-1.5,8.5-4.3l12.4,1.3c-3.8,9-11.7,13.3-21.1,13.3
			c-12.6,0-22.1-9.3-22.1-22.2s9.3-22.2,21.9-22.2c11.6,0,22.1,7.6,22.1,25.2V192z M267.4,184h18.9c-0.6-4.2-4.2-7.7-9.3-7.7
			C272,176.3,268.4,179.5,267.4,184z"/>
		<path class="st0" d="M320.4,209.6h-11.9v-64.5h11.9V209.6z"/>
		<path class="st0" d="M356.4,181.5c0-3-2.4-5-7-5c-4.2,0-9.6,2.1-12.7,4l-4.7-9c0,0,7.8-5.2,18.1-5.2c9.6,0,18.3,4.4,18.3,15.6
			v27.7h-12v-4c-2.2,3.3-7,5.1-11.8,5.1c-8.9,0-14.7-6.4-14.7-13.3c0-8,5.9-13,15.3-13h8.3c2,0,2.9-0.9,2.9-2.5L356.4,181.5
			L356.4,181.5z M356.4,194.5v-3c-0.7,0.7-2,0.9-3.7,0.9h-4.5c-3.8,0-6,1.7-6,4.6c0,2.9,2.3,5,6,5
			C352.5,202,356.4,199.8,356.4,194.5z"/>
		<path class="st0" d="M395.6,151.4v16h9.1v10.1h-9.1v19.1c0,2.7,2.1,3,4,3c3,0,5.5-0.3,5.5-0.3v10.2c0,0-5.8,0.6-9.3,0.6
			c-6,0-12.2-1-12.2-9.5v-23.1H377v-10.1h6.6v-16H395.6z"/>
		<path class="st0" d="M429.8,209.6h-12v-32.1h-5.9v-10.1h17.9V209.6z M423.3,145.2c4.3,0,7.7,3.5,7.7,7.7c0,4.3-3.4,7.6-7.7,7.6
			c-4.2,0-7.6-3.3-7.6-7.6C415.6,148.7,419,145.2,423.3,145.2z"/>
		<path class="st0" d="M439.8,188.5c0-12.9,10-22.2,22.6-22.2s22.6,9.3,22.6,22.2s-10,22.2-22.6,22.2S439.8,201.4,439.8,188.5z
			 M451.7,188.5c0,6.5,4.3,11.5,10.6,11.5c6.2,0,10.5-5,10.5-11.5c0-6.6-4.3-11.5-10.5-11.5S451.7,181.9,451.7,188.5z"/>
		<path class="st0" d="M519.2,166.3c9.1,0,15.7,5.8,15.7,15.7v27.6h-12V185c0-5.3-3.4-7.6-7.2-7.6c-3.5,0-6.6,1.9-8.9,4.8v27.4h-12
			v-42.2h11.7v1.7c0,1.5-0.2,3.3-0.2,3.3C509.6,168.5,514.4,166.3,519.2,166.3z"/>
		<path class="st0" d="M570.4,181.5c0-3-2.4-5-7-5c-4.2,0-9.6,2.1-12.7,4l-4.7-9c0,0,7.8-5.2,18.1-5.2c9.6,0,18.3,4.4,18.3,15.6
			v27.7h-12v-4c-2.2,3.3-7,5.1-11.8,5.1c-8.9,0-14.7-6.4-14.7-13.3c0-8,5.9-13,15.3-13h8.3c2,0,2.9-0.9,2.9-2.5L570.4,181.5
			L570.4,181.5z M570.4,194.5v-3c-0.7,0.7-2,0.9-3.7,0.9h-4.5c-3.8,0-6,1.7-6,4.6c0,2.9,2.3,5,6,5
			C566.6,202,570.4,199.8,570.4,194.5z"/>
		<path class="st0" d="M606.5,209.6h-11.9v-64.5h11.9V209.6z"/>
	</g>
</g>
<g>
	<g>
		<path class="st0" d="M366.4,950.4v6.7h-11.3v31.1h-7.5v-31.1h-11.3v-6.7H366.4z"/>
		<path class="st0" d="M385.2,971.7c0-1.8-1.4-2.9-4.1-2.9c-2.5,0-5.6,1.2-7.5,2.3l-2.8-5.3c0,0,4.6-3,10.6-3
			c5.6,0,10.7,2.6,10.7,9.1v16.3h-7v-2.3c-1.3,1.9-4.1,3-6.9,3c-5.2,0-8.6-3.7-8.6-7.8c0-4.7,3.5-7.6,9-7.6h4.9
			c1.2,0,1.7-0.5,1.7-1.5L385.2,971.7L385.2,971.7z M385.2,979.3v-1.8c-0.4,0.4-1.2,0.5-2.2,0.5h-2.6c-2.2,0-3.5,1-3.5,2.7
			s1.3,2.9,3.5,2.9C383,983.7,385.2,982.4,385.2,979.3z"/>
		<path class="st0" d="M406.4,988.2h-7v-37.8h7v12.2c0,1.6-0.1,3.3-0.1,4c1.2-2.1,4.1-3.8,7.8-3.8c6.8,0,12,5.5,12,13s-5.2,13-12,13
			c-3.5,0-6.4-1.7-7.7-3.8L406.4,988.2L406.4,988.2z M406.2,975.8c0,3.8,2.6,6.8,6.3,6.8s6.3-3,6.3-6.8s-2.6-6.8-6.3-6.8
			S406.2,972,406.2,975.8z"/>
		<path class="st0" d="M439,988.2h-7v-37.8h7V988.2z"/>
		<path class="st0" d="M470.6,977.9h-18.4c0.4,2.8,2.5,5,5.7,5c2.1,0,4-0.9,5-2.5l7.3,0.8c-2.2,5.3-6.9,7.8-12.4,7.8
			c-7.4,0-13-5.5-13-13s5.5-13,12.9-13c6.8,0,13,4.4,13,14.8v0.1H470.6z M452,973.2h11.1c-0.4-2.5-2.5-4.5-5.5-4.5
			C454.7,968.6,452.6,970.5,452,973.2z"/>
	</g>
</g>
<g>
	<g>
		<path class="st0" d="M1266.5,965.3h1.9l12.2-14.9h9.3l-15.1,17.9l14.5,19.9h-9.3l-11.8-16.5h-1.7v16.5h-7.5v-37.8h7.5V965.3z"/>
		<path class="st0" d="M1318,977.9h-18.4c0.4,2.8,2.5,5,5.7,5c2.1,0,4-0.9,5-2.5l7.3,0.8c-2.2,5.3-6.9,7.8-12.4,7.8
			c-7.4,0-13-5.5-13-13s5.5-13,12.9-13c6.8,0,13,4.4,13,14.8L1318,977.9L1318,977.9z M1299.4,973.2h11.1c-0.4-2.5-2.5-4.5-5.5-4.5
			C1302.1,968.6,1300,970.5,1299.4,973.2z"/>
		<path class="st0" d="M1331.3,988.2h-1.8l-8.5-24.7h7.8l5.2,17.6l5.3-17.6h7.6l-9.9,28.6c-1.2,3.6-3.2,5.6-7.7,5.6h-4.9v-5.9h3.5
			c1.4,0,2.3-0.5,2.8-1.9L1331.3,988.2z"/>
		<path class="st0" d="M1350,970.7h11.3v5.9H1350V970.7z"/>
		<path class="st0" d="M1364.1,950.4h8.3l8.6,28h0.1l9-28h7.8l-12.8,37.8h-8.2L1364.1,950.4z"/>
		<path class="st0" d="M1416.3,971.7c0-1.8-1.4-2.9-4.1-2.9c-2.5,0-5.6,1.2-7.5,2.3l-2.8-5.3c0,0,4.6-3,10.6-3
			c5.6,0,10.7,2.6,10.7,9.1v16.3h-7v-2.3c-1.3,1.9-4.1,3-6.9,3c-5.2,0-8.6-3.7-8.6-7.8c0-4.7,3.5-7.6,9-7.6h4.9
			c1.2,0,1.7-0.5,1.7-1.5L1416.3,971.7L1416.3,971.7z M1416.3,979.3v-1.8c-0.4,0.4-1.2,0.5-2.2,0.5h-2.6c-2.2,0-3.5,1-3.5,2.7
			s1.3,2.9,3.5,2.9C1414.1,983.7,1416.3,982.4,1416.3,979.3z"/>
		<path class="st0" d="M1437.4,988.2h-7v-37.8h7V988.2z"/>
		<path class="st0" d="M1444.5,979.1v-15.7h7v14.4c0,3.4,2.3,4.8,4.8,4.8s4.8-1.4,4.8-4.8v-14.4h7v15.7c0,5.2-4.1,9.7-11.7,9.7
			C1448.7,988.8,1444.5,984.3,1444.5,979.1z"/>
		<path class="st0" d="M1499.2,977.9h-18.4c0.4,2.8,2.5,5,5.7,5c2.1,0,4-0.9,5-2.5l7.3,0.8c-2.2,5.3-6.9,7.8-12.4,7.8
			c-7.4,0-13-5.5-13-13s5.5-13,12.9-13c6.8,0,13,4.4,13,14.8L1499.2,977.9L1499.2,977.9z M1480.6,973.2h11.1
			c-0.4-2.5-2.5-4.5-5.5-4.5C1483.3,968.6,1481.2,970.5,1480.6,973.2z"/>
	</g>
</g>
<g>
	<path class="st0" d="M1569.7,211.2h-12.6v-64.5h16.9l21.7,42.9v-42.9h12.6v64.5h-15.6l-23-44.8V211.2z"/>
	<path class="st0" d="M1616.4,190.1c0-12.9,10-22.2,22.6-22.2s22.6,9.3,22.6,22.2s-10,22.2-22.6,22.2S1616.4,203,1616.4,190.1z
		 M1628.4,190.1c0,6.5,4.3,11.5,10.6,11.5c6.2,0,10.5-5,10.5-11.5c0-6.6-4.3-11.5-10.5-11.5C1632.7,178.6,1628.4,183.5,1628.4,190.1
		z"/>
	<path class="st0" d="M1702.9,163.9c-4-3.9-9.1-6.6-13.6-6.6c-4.2,0-8.1,2.2-8.1,6.1c0,2.9,1.8,5.2,7,7.6l5.3,2.5
		c10.2,4.8,16.4,10.1,16.4,19.8s-8.2,19.1-22.4,19.1c-9.8,0-17-3.8-23.1-9.7l7.1-9.6c4.8,4.9,10.9,7.6,15.7,7.6c5.5,0,8.9-3,8.9-7
		c0-4.4-4-6.9-10.1-9.8l-4.5-2.1c-8.7-4.1-14.1-9.9-14.1-18.1c0-11.3,10.1-18.1,21.6-18.1c7.5,0,15.1,3.7,21.3,9L1702.9,163.9z"/>
	<path class="st0" d="M1783.5,179c0,11.4-5.2,20.9-13.3,26.8l1.5,2.4c1.5,2.4,3.1,3.4,7.5,3.4c2.9,0,4.6-0.3,4.6-0.3v11.2
		c0,0-5.9,0.5-9.3,0.5c-7,0-10.5-3-14.6-9.9l-1.2-1.9c-2.9,0.7-5.8,1.1-8.8,1.1c-18.7,0-33.7-13.9-33.7-33.3s15-33.3,33.7-33.3
		C1768.5,145.6,1783.5,159.5,1783.5,179z M1752.1,200.4l-5.5-9.2l10.8-6.5l6.4,10.5c4.1-3.9,6.4-9.6,6.4-16.2
		c0-12.3-8.2-21.6-20.4-21.6c-12.2,0-20.4,9.2-20.4,21.6s8.2,21.6,20.4,21.6C1750.5,200.5,1751.3,200.5,1752.1,200.4z"/>
	<path class="st0" d="M1793.2,211.2v-64.5h12.8v53.5h27.4v11H1793.2z"/>
</g>
<rect x="130.4" y="508.5" class="st1" width="546.6" height="66.1"/>
<rect x="130.3" y="377.4" class="st2" width="546.6" height="68.3"/>
<rect x="130.4" y="445.7" class="st3" width="546.6" height="62.8"/>
<rect x="130.4" y="696.9" class="st1" width="546.6" height="66.1"/>
<rect x="130.4" y="574.6" class="st2" width="546.6" height="59.5"/>
<rect x="130.3" y="762.5" class="st2" width="546.6" height="59.5"/>
<rect x="130.4" y="634.1" class="st3" width="546.6" height="62.8"/>
<rect x="130.3" y="823.4" class="st3" width="546.6" height="62.8"/>
<g>
	<rect x="130.4" y="377.4" class="st4" width="546.6" height="507.9"/>
	<line class="st4" x1="130.4" y1="445.7" x2="677" y2="445.7"/>
	<line class="st4" x1="130.4" y1="508.5" x2="677" y2="508.5"/>
	<line class="st4" x1="130.4" y1="574.8" x2="677" y2="574.8"/>
	<line class="st4" x1="301.9" y1="885.3" x2="301.9" y2="377.4"/>
	<line class="st4" x1="502" y1="885.3" x2="502" y2="377.4"/>
	<line class="st4" x1="130.4" y1="634.1" x2="677" y2="634.1"/>
	<line class="st4" x1="130.4" y1="696.9" x2="677" y2="696.9"/>
	<line class="st4" x1="130.4" y1="763.2" x2="677" y2="763.2"/>
	<line class="st4" x1="130.4" y1="822.5" x2="677" y2="822.5"/>
	<line class="st4" x1="130.4" y1="885.3" x2="677" y2="885.3"/>
</g>
<path class="st5" d="M1594,606c25.4,0,45.9-20.6,45.9-45.9s-20.6-45.9-45.9-45.9h-145c-25.4,0-45.9,20.6-45.9,45.9
	s20.6,45.9,45.9,45.9H1594z"/>
<g>
	<path class="st6" d="M1594,474.9c25.4,0,45.9-20.6,45.9-45.9c0-25.4-20.6-45.9-45.9-45.9h-145c-25.4,0-45.9,20.6-45.9,45.9
		c0,25.4,20.6,45.9,45.9,45.9H1594z"/>
</g>
<path class="st7" d="M1594,864.8c25.4,0,45.9-20.6,45.9-45.9c0-25.4-20.6-45.9-45.9-45.9h-145c-25.4,0-45.9,20.6-45.9,45.9
	c0,25.4,20.6,45.9,45.9,45.9H1594z"/>
<path class="st8" d="M1594,733.7c25.4,0,45.9-20.6,45.9-45.9s-20.6-45.9-45.9-45.9h-145c-25.4,0-45.9,20.6-45.9,45.9
	s20.6,45.9,45.9,45.9H1594z"/>
<g>
	<g>
		<path class="st0" d="M1915.6,988.2h-13v-37.8h13c12.4,0,19.6,7.7,19.6,18.9C1935.2,980.5,1928,988.2,1915.6,988.2z M1915.3,956.8
			h-5.2v25h5.2c6.9,0,12.2-4.1,12.2-12.5C1927.5,960.9,1922.2,956.8,1915.3,956.8z"/>
		<path class="st0" d="M1939.8,975.8c0-7.6,5.9-13,13.2-13c7.3,0,13.2,5.5,13.2,13s-5.9,13-13.2,13
			C1945.7,988.8,1939.8,983.4,1939.8,975.8z M1946.9,975.8c0,3.8,2.5,6.8,6.2,6.8c3.6,0,6.2-2.9,6.2-6.8c0-3.9-2.5-6.8-6.2-6.8
			C1949.4,969.1,1946.9,971.9,1946.9,975.8z"/>
		<path class="st0" d="M1977.6,975.8c0,3.9,2.5,6.8,6.2,6.8c2.6,0,4.5-1.5,5.5-3.8l6.6,2.1c-1.6,4.9-6.5,8-12.1,8
			c-7.3,0-13.2-5.5-13.2-13s5.8-13,13.2-13c5.6,0,10.5,3.1,12.1,8l-6.6,2c-0.9-2.3-2.9-3.8-5.5-3.8
			C1980.1,969.1,1977.6,971.9,1977.6,975.8z"/>
		<path class="st0" d="M2001,979.1v-15.7h7v14.4c0,3.4,2.3,4.8,4.8,4.8s4.8-1.4,4.8-4.8v-14.4h7v15.7c0,5.2-4.1,9.7-11.7,9.7
			C2005.2,988.8,2001,984.3,2001,979.1z"/>
		<path class="st0" d="M2064,973.6c0-3-1.9-4.3-4.1-4.3c-2,0-3.8,1.1-5.1,2.8v16h-7v-14.5c0-3-1.9-4.3-4.1-4.3c-2,0-3.8,1.1-5.1,2.8
			v16h-7v-24.7h6.9v1c0,0.9-0.1,1.9-0.1,1.9c1.8-2.3,4.6-3.6,7.4-3.6c3.7,0,6.5,1.6,7.9,4.5c2.1-2.9,4.9-4.5,8.3-4.5
			c5.3,0,9.1,3.4,9.1,9.2v16.2h-7v-14.5H2064z"/>
		<path class="st0" d="M2102.4,977.9H2084c0.4,2.8,2.5,5,5.7,5c2.1,0,4-0.9,5-2.5l7.3,0.8c-2.2,5.3-6.9,7.8-12.4,7.8
			c-7.4,0-13-5.5-13-13s5.5-13,12.9-13c6.8,0,13,4.4,13,14.8v0.1H2102.4z M2083.8,973.2h11.1c-0.4-2.5-2.5-4.5-5.5-4.5
			C2086.4,968.6,2084.3,970.5,2083.8,973.2z"/>
		<path class="st0" d="M2122.2,962.8c5.3,0,9.2,3.4,9.2,9.2v16.2h-7v-14.4c0-3.1-2-4.4-4.2-4.4c-2.1,0-3.9,1.1-5.2,2.8v16h-7v-24.7
			h6.9v1c0,0.9-0.1,1.9-0.1,1.9C2116.5,964,2119.3,962.8,2122.2,962.8z"/>
		<path class="st0" d="M2147.4,954v9.4h5.3v5.9h-5.3v11.2c0,1.6,1.2,1.8,2.3,1.8c1.8,0,3.2-0.2,3.2-0.2v6c0,0-3.4,0.3-5.5,0.3
			c-3.5,0-7.1-0.6-7.1-5.6v-13.6h-3.9v-5.9h3.9V954H2147.4z"/>
	</g>
</g>
<rect x="1099.9" y="387.8" class="st6" width="153.9" height="91.4"/>
<rect x="1099.9" y="514.2" class="st5" width="153.9" height="91.4"/>
<rect x="1099.9" y="641.9" class="st8" width="153.9" height="91.4"/>
<rect x="1099.9" y="773.7" class="st7" width="153.9" height="91.4"/>
<g>
	<line class="st4" x1="1272.8" y1="433.5" x2="1387.4" y2="433.5"/>
	<g>
		<line class="st4" x1="1365.6" y1="412" x2="1389.9" y2="436.4"/>
		<line class="st4" x1="1389.9" y1="430.7" x2="1365.5" y2="455"/>
	</g>
</g>
<g>
	<line class="st4" x1="1272.8" y1="560.1" x2="1387.4" y2="560.1"/>
	<g>
		<line class="st4" x1="1365.6" y1="538.6" x2="1389.9" y2="562.9"/>
		<line class="st4" x1="1389.9" y1="557.3" x2="1365.5" y2="581.6"/>
	</g>
</g>
<g>
	<line class="st4" x1="1271.6" y1="685.6" x2="1386.1" y2="685.6"/>
	<g>
		<line class="st4" x1="1364.3" y1="664.1" x2="1388.6" y2="688.4"/>
		<line class="st4" x1="1388.6" y1="682.7" x2="1364.3" y2="707.1"/>
	</g>
</g>
<g>
	<line class="st4" x1="1271.6" y1="817.1" x2="1386.1" y2="817.1"/>
	<g>
		<line class="st4" x1="1364.3" y1="795.6" x2="1388.6" y2="819.9"/>
		<line class="st4" x1="1388.6" y1="814.2" x2="1364.3" y2="838.6"/>
	</g>
</g>
<g>
	<g>
		<path class="st0" d="M1453.4,408.6h8.3l8.6,28.1h0.1l9-28.1h7.8l-12.8,37.9h-8.2L1453.4,408.6z"/>
		<path class="st0" d="M1505.7,430c0-1.8-1.4-2.9-4.1-2.9c-2.5,0-5.6,1.2-7.5,2.3l-2.8-5.3c0,0,4.6-3,10.6-3
			c5.6,0,10.8,2.6,10.8,9.1v16.3h-7v-2.3c-1.3,1.9-4.1,3-6.9,3c-5.2,0-8.7-3.7-8.7-7.8c0-4.7,3.5-7.6,9-7.6h4.9
			c1.2,0,1.7-0.5,1.7-1.5V430z M1505.7,437.6v-1.8c-0.4,0.4-1.2,0.5-2.2,0.5h-2.7c-2.2,0-3.5,1-3.5,2.7s1.4,2.9,3.5,2.9
			C1503.5,442,1505.7,440.7,1505.7,437.6z"/>
		<path class="st0" d="M1526.9,446.5h-7v-37.9h7V446.5z"/>
		<path class="st0" d="M1533.9,437.4v-15.7h7v14.4c0,3.4,2.3,4.8,4.8,4.8s4.8-1.4,4.8-4.8v-14.4h7v15.7c0,5.2-4.1,9.7-11.7,9.7
			C1538.1,447.1,1533.9,442.6,1533.9,437.4z"/>
		<path class="st0" d="M1588.8,436.1h-18.4c0.4,2.8,2.5,5,5.7,5c2.1,0,4-0.9,5-2.5l7.3,0.8c-2.2,5.3-6.9,7.8-12.4,7.8
			c-7.4,0-13-5.5-13-13s5.5-13,12.9-13c6.8,0,13,4.4,13,14.8L1588.8,436.1L1588.8,436.1z M1570.2,431.4h11.1
			c-0.4-2.5-2.5-4.5-5.5-4.5S1570.7,428.8,1570.2,431.4z"/>
	</g>
</g>
<g>
	<g>
		<path class="st0" d="M1453.4,541.2h8.3l8.6,28.1h0.1l9-28.1h7.8l-12.8,37.9h-8.2L1453.4,541.2z"/>
		<path class="st0" d="M1505.7,562.6c0-1.8-1.4-2.9-4.1-2.9c-2.5,0-5.6,1.2-7.5,2.3l-2.8-5.3c0,0,4.6-3,10.6-3
			c5.6,0,10.8,2.6,10.8,9.1v16.3h-7v-2.3c-1.3,1.9-4.1,3-6.9,3c-5.2,0-8.7-3.7-8.7-7.8c0-4.7,3.5-7.6,9-7.6h4.9
			c1.2,0,1.7-0.5,1.7-1.5V562.6z M1505.7,570.2v-1.8c-0.4,0.4-1.2,0.5-2.2,0.5h-2.7c-2.2,0-3.5,1-3.5,2.7s1.4,2.9,3.5,2.9
			C1503.5,574.6,1505.7,573.3,1505.7,570.2z"/>
		<path class="st0" d="M1526.9,579.1h-7v-37.9h7V579.1z"/>
		<path class="st0" d="M1533.9,570v-15.7h7v14.4c0,3.4,2.3,4.8,4.8,4.8s4.8-1.4,4.8-4.8v-14.4h7V570c0,5.2-4.1,9.7-11.7,9.7
			C1538.1,579.8,1533.9,575.2,1533.9,570z"/>
		<path class="st0" d="M1588.8,568.8h-18.4c0.4,2.8,2.5,5,5.7,5c2.1,0,4-0.9,5-2.5l7.3,0.8c-2.2,5.3-6.9,7.8-12.4,7.8
			c-7.4,0-13-5.5-13-13s5.5-13,12.9-13c6.8,0,13,4.4,13,14.8L1588.8,568.8L1588.8,568.8z M1570.2,564.1h11.1
			c-0.4-2.5-2.5-4.5-5.5-4.5S1570.7,561.4,1570.2,564.1z"/>
	</g>
</g>
<g>
	<g>
		<path class="st0" d="M1141,556.2h1.9l12.2-14.9h9.3l-15.1,18l14.5,19.9h-9.3l-11.8-16.6h-1.7v16.6h-7.5v-37.9h7.5V556.2z"/>
		<path class="st0" d="M1192.6,568.8h-18.4c0.4,2.8,2.5,5,5.7,5c2.1,0,4-0.9,5-2.5l7.3,0.8c-2.2,5.3-6.9,7.8-12.4,7.8
			c-7.4,0-13-5.5-13-13s5.5-13,12.9-13c6.8,0,13,4.4,13,14.8L1192.6,568.8L1192.6,568.8z M1174,564.1h11.1c-0.4-2.5-2.5-4.5-5.5-4.5
			S1174.5,561.4,1174,564.1z"/>
		<path class="st0" d="M1205.9,579.1h-1.8l-8.5-24.8h7.8l5.2,17.6l5.3-17.6h7.6l-9.9,28.7c-1.2,3.6-3.2,5.6-7.7,5.6h-4.9v-5.9h3.5
			c1.4,0,2.3-0.5,2.8-1.9L1205.9,579.1z"/>
	</g>
</g>
<g>
	<g>
		<path class="st0" d="M1141,683.3h1.9l12.2-14.9h9.3l-15.1,18l14.5,19.9h-9.3l-11.8-16.6h-1.7v16.6h-7.5v-37.9h7.5V683.3z"/>
		<path class="st0" d="M1192.6,695.9h-18.4c0.4,2.8,2.5,5,5.7,5c2.1,0,4-0.9,5-2.5l7.3,0.8c-2.2,5.3-6.9,7.8-12.4,7.8
			c-7.4,0-13-5.5-13-13s5.5-13,12.9-13c6.8,0,13,4.4,13,14.8L1192.6,695.9L1192.6,695.9z M1174,691.2h11.1c-0.4-2.5-2.5-4.5-5.5-4.5
			S1174.5,688.6,1174,691.2z"/>
		<path class="st0" d="M1205.9,706.3h-1.8l-8.5-24.8h7.8l5.2,17.6l5.3-17.6h7.6l-9.9,28.7c-1.2,3.6-3.2,5.6-7.7,5.6h-4.9v-5.9h3.5
			c1.4,0,2.3-0.5,2.8-1.9L1205.9,706.3z"/>
	</g>
</g>
<g>
	<g>
		<path class="st0" d="M1141,815.4h1.9l12.2-14.9h9.3l-15.1,18l14.5,19.9h-9.3l-11.8-16.6h-1.7v16.6h-7.5v-37.9h7.5V815.4z"/>
		<path class="st0" d="M1192.6,828h-18.4c0.4,2.8,2.5,5,5.7,5c2.1,0,4-0.9,5-2.5l7.3,0.8c-2.2,5.3-6.9,7.8-12.4,7.8
			c-7.4,0-13-5.5-13-13s5.5-13,12.9-13c6.8,0,13,4.4,13,14.8L1192.6,828L1192.6,828z M1174,823.3h11.1c-0.4-2.5-2.5-4.5-5.5-4.5
			S1174.5,820.7,1174,823.3z"/>
		<path class="st0" d="M1205.9,838.4h-1.8l-8.5-24.8h7.8l5.2,17.6l5.3-17.6h7.6l-9.9,28.7c-1.2,3.6-3.2,5.6-7.7,5.6h-4.9V842h3.5
			c1.4,0,2.3-0.5,2.8-1.9L1205.9,838.4z"/>
	</g>
</g>
<g>
	<g>
		<path class="st0" d="M1141,429h1.9l12.2-14.9h9.3l-15.1,18l14.5,19.9h-9.3l-11.8-16.6h-1.7V452h-7.5v-37.9h7.5V429z"/>
		<path class="st0" d="M1192.6,441.6h-18.4c0.4,2.8,2.5,5,5.7,5c2.1,0,4-0.9,5-2.5l7.3,0.8c-2.2,5.3-6.9,7.8-12.4,7.8
			c-7.4,0-13-5.5-13-13s5.5-13,12.9-13c6.8,0,13,4.4,13,14.8L1192.6,441.6L1192.6,441.6z M1174,436.9h11.1c-0.4-2.5-2.5-4.5-5.5-4.5
			S1174.5,434.3,1174,436.9z"/>
		<path class="st0" d="M1205.9,452h-1.8l-8.5-24.8h7.8l5.2,17.6l5.3-17.6h7.6l-9.9,28.7c-1.2,3.6-3.2,5.6-7.7,5.6h-4.9v-5.9h3.5
			c1.4,0,2.3-0.5,2.8-1.9L1205.9,452z"/>
	</g>
</g>
<g>
	<g>
		<path class="st0" d="M1453.4,668.4h8.3l8.6,28.1h0.1l9-28.1h7.8l-12.8,37.9h-8.2L1453.4,668.4z"/>
		<path class="st0" d="M1505.7,689.8c0-1.8-1.4-2.9-4.1-2.9c-2.5,0-5.6,1.2-7.5,2.3l-2.8-5.3c0,0,4.6-3,10.6-3
			c5.6,0,10.8,2.6,10.8,9.1v16.3h-7V704c-1.3,1.9-4.1,3-6.9,3c-5.2,0-8.7-3.7-8.7-7.8c0-4.7,3.5-7.6,9-7.6h4.9
			c1.2,0,1.7-0.5,1.7-1.5V689.8z M1505.7,697.4v-1.8c-0.4,0.4-1.2,0.5-2.2,0.5h-2.7c-2.2,0-3.5,1-3.5,2.7s1.4,2.9,3.5,2.9
			C1503.5,701.8,1505.7,700.5,1505.7,697.4z"/>
		<path class="st0" d="M1526.9,706.3h-7v-37.9h7V706.3z"/>
		<path class="st0" d="M1533.9,697.2v-15.7h7v14.4c0,3.4,2.3,4.8,4.8,4.8s4.8-1.4,4.8-4.8v-14.4h7v15.7c0,5.2-4.1,9.7-11.7,9.7
			C1538.1,706.9,1533.9,702.4,1533.9,697.2z"/>
		<path class="st0" d="M1588.8,695.9h-18.4c0.4,2.8,2.5,5,5.7,5c2.1,0,4-0.9,5-2.5l7.3,0.8c-2.2,5.3-6.9,7.8-12.4,7.8
			c-7.4,0-13-5.5-13-13s5.5-13,12.9-13c6.8,0,13,4.4,13,14.8L1588.8,695.9L1588.8,695.9z M1570.2,691.2h11.1
			c-0.4-2.5-2.5-4.5-5.5-4.5S1570.7,688.6,1570.2,691.2z"/>
	</g>
</g>
<g>
	<g>
		<path class="st0" d="M1453.4,798.2h8.3l8.6,28.1h0.1l9-28.1h7.8l-12.8,37.9h-8.2L1453.4,798.2z"/>
		<path class="st0" d="M1505.7,819.5c0-1.8-1.4-2.9-4.1-2.9c-2.5,0-5.6,1.2-7.5,2.3l-2.8-5.3c0,0,4.6-3,10.6-3
			c5.6,0,10.8,2.6,10.8,9.1V836h-7v-2.3c-1.3,1.9-4.1,3-6.9,3c-5.2,0-8.7-3.7-8.7-7.8c0-4.7,3.5-7.6,9-7.6h4.9
			c1.2,0,1.7-0.5,1.7-1.5V819.5z M1505.7,827.2v-1.8c-0.4,0.4-1.2,0.5-2.2,0.5h-2.7c-2.2,0-3.5,1-3.5,2.7s1.4,2.9,3.5,2.9
			C1503.5,831.5,1505.7,830.2,1505.7,827.2z"/>
		<path class="st0" d="M1526.9,836h-7v-37.9h7V836z"/>
		<path class="st0" d="M1533.9,826.9v-15.7h7v14.4c0,3.4,2.3,4.8,4.8,4.8s4.8-1.4,4.8-4.8v-14.4h7v15.7c0,5.2-4.1,9.7-11.7,9.7
			C1538.1,836.7,1533.9,832.1,1533.9,826.9z"/>
		<path class="st0" d="M1588.8,825.7h-18.4c0.4,2.8,2.5,5,5.7,5c2.1,0,4-0.9,5-2.5l7.3,0.8c-2.2,5.3-6.9,7.8-12.4,7.8
			c-7.4,0-13-5.5-13-13s5.5-13,12.9-13c6.8,0,13,4.4,13,14.8L1588.8,825.7L1588.8,825.7z M1570.2,821h11.1c-0.4-2.5-2.5-4.5-5.5-4.5
			S1570.7,818.3,1570.2,821z"/>
	</g>
</g>
<line class="st4" x1="902.3" y1="160.2" x2="902.3" y2="1029.4"/>
<polyline class="st4" points="1955,685.9 1888.4,554.7 2033.8,429.3 2169,554.7 2109.7,685.9 2109.7,820.3 "/>
<polyline class="st4" points="1819.8,821.1 1821.8,685.9 1888.4,554.7 "/>
<line class="st4" x1="2233.4" y1="685.9" x2="2169" y2="554.7"/>
<g>
	<rect x="2061.4" y="766.8" class="st5" width="92" height="114.2"/>
	<g>
		<line class="st9" x1="2078.6" y1="788.4" x2="2137.1" y2="788.4"/>
		<line class="st9" x1="2078.6" y1="799.9" x2="2137.1" y2="799.9"/>
		<line class="st9" x1="2077.7" y1="825" x2="2136.2" y2="825"/>
		<line class="st9" x1="2077.7" y1="836.9" x2="2136.2" y2="836.9"/>
		<line class="st9" x1="2077.7" y1="862.5" x2="2136.2" y2="862.5"/>
		<line class="st9" x1="2072.3" y1="812.5" x2="2143.4" y2="812.5"/>
		<line class="st9" x1="2072.3" y1="849.3" x2="2143.4" y2="849.3"/>
	</g>
</g>
<g>
	<rect x="1982.7" y="331" class="st6" width="92" height="114.2"/>
	<g>
		<line class="st10" x1="2000" y1="352.7" x2="2058.4" y2="352.7"/>
		<line class="st10" x1="2000" y1="364.2" x2="2058.4" y2="364.2"/>
		<line class="st10" x1="1999.1" y1="389.3" x2="2057.5" y2="389.3"/>
		<line class="st10" x1="1999.1" y1="401.2" x2="2057.5" y2="401.2"/>
		<line class="st10" x1="1999.1" y1="426.8" x2="2057.5" y2="426.8"/>
		<line class="st10" x1="1993.7" y1="376.7" x2="2064.7" y2="376.7"/>
		<line class="st10" x1="1993.7" y1="413.6" x2="2064.7" y2="413.6"/>
	</g>
</g>
<g>
	<rect x="2061.4" y="625" class="st6" width="92" height="114.2"/>
	<g>
		<line class="st10" x1="2078.6" y1="646.6" x2="2137.1" y2="646.6"/>
		<line class="st10" x1="2078.6" y1="658.1" x2="2137.1" y2="658.1"/>
		<line class="st10" x1="2077.7" y1="683.2" x2="2136.2" y2="683.2"/>
		<line class="st10" x1="2077.7" y1="695.1" x2="2136.2" y2="695.1"/>
		<line class="st10" x1="2077.7" y1="720.7" x2="2136.2" y2="720.7"/>
		<line class="st10" x1="2072.3" y1="670.7" x2="2143.4" y2="670.7"/>
		<line class="st10" x1="2072.3" y1="707.5" x2="2143.4" y2="707.5"/>
	</g>
</g>
<g>
	<rect x="2187.4" y="625" class="st8" width="92" height="114.2"/>
	<g>
		<line class="st10" x1="2204.7" y1="646.6" x2="2263.2" y2="646.6"/>
		<line class="st10" x1="2204.7" y1="658.1" x2="2263.2" y2="658.1"/>
		<line class="st10" x1="2203.8" y1="683.2" x2="2262.2" y2="683.2"/>
		<line class="st10" x1="2203.8" y1="695.1" x2="2262.2" y2="695.1"/>
		<line class="st10" x1="2203.8" y1="720.7" x2="2262.2" y2="720.7"/>
		<line class="st10" x1="2198.4" y1="670.7" x2="2269.4" y2="670.7"/>
		<line class="st10" x1="2198.4" y1="707.5" x2="2269.4" y2="707.5"/>
	</g>
</g>
<g>
	<rect x="2123" y="480.8" class="st7" width="92" height="114.2"/>
	<g>
		<line class="st9" x1="2140.3" y1="502.5" x2="2198.7" y2="502.5"/>
		<line class="st9" x1="2140.3" y1="514" x2="2198.7" y2="514"/>
		<line class="st9" x1="2139.4" y1="539.1" x2="2197.8" y2="539.1"/>
		<line class="st9" x1="2139.4" y1="551" x2="2197.8" y2="551"/>
		<line class="st9" x1="2139.4" y1="576.6" x2="2197.8" y2="576.6"/>
		<line class="st9" x1="2134" y1="526.6" x2="2205" y2="526.6"/>
		<line class="st9" x1="2134" y1="563.4" x2="2205" y2="563.4"/>
	</g>
</g>
<g>
	<rect x="1773.8" y="766.8" class="st5" width="92" height="114.2"/>
	<g>
		<line class="st9" x1="1791.1" y1="788.4" x2="1849.5" y2="788.4"/>
		<line class="st9" x1="1791.1" y1="799.9" x2="1849.5" y2="799.9"/>
		<line class="st9" x1="1790.2" y1="825" x2="1848.6" y2="825"/>
		<line class="st9" x1="1790.2" y1="836.9" x2="1848.6" y2="836.9"/>
		<line class="st9" x1="1790.2" y1="862.5" x2="1848.6" y2="862.5"/>
		<line class="st9" x1="1784.8" y1="812.5" x2="1855.8" y2="812.5"/>
		<line class="st9" x1="1784.8" y1="849.3" x2="1855.8" y2="849.3"/>
	</g>
</g>
<g>
	<rect x="1773.8" y="625" class="st8" width="92" height="114.2"/>
	<g>
		<line class="st10" x1="1791.1" y1="646.6" x2="1849.5" y2="646.6"/>
		<line class="st10" x1="1791.1" y1="658.1" x2="1849.5" y2="658.1"/>
		<line class="st10" x1="1790.2" y1="683.2" x2="1848.6" y2="683.2"/>
		<line class="st10" x1="1790.2" y1="695.1" x2="1848.6" y2="695.1"/>
		<line class="st10" x1="1790.2" y1="720.7" x2="1848.6" y2="720.7"/>
		<line class="st10" x1="1784.8" y1="670.7" x2="1855.8" y2="670.7"/>
		<line class="st10" x1="1784.8" y1="707.5" x2="1855.8" y2="707.5"/>
	</g>
</g>
<g>
	<rect x="1842.4" y="480.8" class="st5" width="92" height="114.2"/>
	<g>
		<line class="st9" x1="1859.7" y1="502.5" x2="1918.1" y2="502.5"/>
		<line class="st9" x1="1859.7" y1="514" x2="1918.1" y2="514"/>
		<line class="st9" x1="1858.7" y1="539.1" x2="1917.2" y2="539.1"/>
		<line class="st9" x1="1858.7" y1="551" x2="1917.2" y2="551"/>
		<line class="st9" x1="1858.7" y1="576.6" x2="1917.2" y2="576.6"/>
		<line class="st9" x1="1853.4" y1="526.6" x2="1924.4" y2="526.6"/>
		<line class="st9" x1="1853.4" y1="563.4" x2="1924.4" y2="563.4"/>
	</g>
</g>
<g>
	<rect x="1902.1" y="625" class="st7" width="92" height="114.2"/>
	<g>
		<line class="st9" x1="1919.3" y1="646.6" x2="1977.8" y2="646.6"/>
		<line class="st9" x1="1919.3" y1="658.1" x2="1977.8" y2="658.1"/>
		<line class="st9" x1="1918.4" y1="683.2" x2="1976.9" y2="683.2"/>
		<line class="st9" x1="1918.4" y1="695.1" x2="1976.9" y2="695.1"/>
		<line class="st9" x1="1918.4" y1="720.7" x2="1976.9" y2="720.7"/>
		<line class="st9" x1="1913.1" y1="670.7" x2="1984.1" y2="670.7"/>
		<line class="st9" x1="1913.1" y1="707.5" x2="1984.1" y2="707.5"/>
	</g>
</g>
</svg>
