<?xml version="1.0" encoding="utf-8"?>
<!-- Generator: Adobe Illustrator 23.0.3, SVG Export Plug-In . SVG Version: 6.00 Build 0)  -->
<svg version="1.1" id="Layer_1" xmlns="http://www.w3.org/2000/svg" xmlns:xlink="http://www.w3.org/1999/xlink" x="0px" y="0px"
	 viewBox="0 0 1575.8 1234.3" style="enable-background:new 0 0 1575.8 1234.3;" xml:space="preserve">
<style type="text/css">
	.st0{fill:#B3B3B3;}
	.st1{fill:#151D39;}
	.st2{clip-path:url(#SVGID_2_);}
	.st3{clip-path:url(#SVGID_4_);fill:#FFFFFF;}
	.st4{clip-path:url(#SVGID_6_);fill:#FFFFFF;}
	.st5{clip-path:url(#SVGID_8_);fill:#FFFFFF;}
	.st6{clip-path:url(#SVGID_10_);fill:#FFFFFF;}
	.st7{clip-path:url(#SVGID_12_);fill:#FFFFFF;}
	.st8{clip-path:url(#SVGID_14_);fill:#FFFFFF;}
	.st9{clip-path:url(#SVGID_16_);fill:#FFFFFF;}
	.st10{clip-path:url(#SVGID_18_);fill:#FFFFFF;}
	.st11{clip-path:url(#SVGID_20_);fill:#FFFFFF;}
	.st12{clip-path:url(#SVGID_22_);fill:#FFFFFF;}
	.st13{clip-path:url(#SVGID_24_);fill:#FFFFFF;}
	.st14{clip-path:url(#SVGID_26_);fill:#FFFFFF;}
	.st15{fill:#214056;}
	.st16{fill:#E6E6E6;}
	.st17{fill:none;stroke:#151D39;stroke-width:5;stroke-linecap:round;stroke-miterlimit:10;}
	.st18{fill:none;stroke:#641FE1;stroke-width:5;stroke-linecap:round;stroke-miterlimit:10;}
	.st19{fill:none;stroke:#DB681B;stroke-width:5;stroke-linecap:round;stroke-miterlimit:10;}
	.st20{clip-path:url(#SVGID_28_);}
	.st21{clip-path:url(#SVGID_30_);fill:#FFFFFF;}
	.st22{clip-path:url(#SVGID_32_);fill:#FFFFFF;}
	.st23{clip-path:url(#SVGID_34_);fill:#FFFFFF;}
	.st24{clip-path:url(#SVGID_36_);fill:#FFFFFF;}
	.st25{clip-path:url(#SVGID_38_);fill:#FFFFFF;}
	.st26{clip-path:url(#SVGID_40_);fill:#FFFFFF;}
	.st27{clip-path:url(#SVGID_42_);fill:#FFFFFF;}
	.st28{clip-path:url(#SVGID_44_);fill:#FFFFFF;}
	.st29{clip-path:url(#SVGID_46_);fill:#FFFFFF;}
	.st30{clip-path:url(#SVGID_48_);fill:#FFFFFF;}
	.st31{clip-path:url(#SVGID_50_);fill:#FFFFFF;}
	.st32{clip-path:url(#SVGID_52_);fill:#FFFFFF;}
	.st33{fill:none;stroke:#F84D45;stroke-width:10;stroke-linecap:round;stroke-miterlimit:10;}
	.st34{clip-path:url(#SVGID_54_);}
	.st35{clip-path:url(#SVGID_56_);fill:#FFFFFF;}
	.st36{clip-path:url(#SVGID_58_);fill:#FFFFFF;}
	.st37{clip-path:url(#SVGID_60_);fill:#FFFFFF;}
	.st38{clip-path:url(#SVGID_62_);fill:#FFFFFF;}
	.st39{clip-path:url(#SVGID_64_);fill:#FFFFFF;}
	.st40{clip-path:url(#SVGID_66_);fill:#FFFFFF;}
	.st41{clip-path:url(#SVGID_68_);fill:#FFFFFF;}
	.st42{clip-path:url(#SVGID_70_);fill:#FFFFFF;}
	.st43{clip-path:url(#SVGID_72_);fill:#FFFFFF;}
	.st44{clip-path:url(#SVGID_74_);fill:#FFFFFF;}
	.st45{clip-path:url(#SVGID_76_);fill:#FFFFFF;}
	.st46{clip-path:url(#SVGID_78_);fill:#FFFFFF;}
	.st47{fill:#71EFC3;}
	.st48{fill:#641FE1;}
	.st49{clip-path:url(#SVGID_80_);}
	.st50{clip-path:url(#SVGID_82_);fill:#151D39;}
	.st51{clip-path:url(#SVGID_84_);fill:#151D39;}
	.st52{clip-path:url(#SVGID_86_);fill:#151D39;}
	.st53{clip-path:url(#SVGID_88_);fill:#151D39;}
	.st54{clip-path:url(#SVGID_90_);fill:#151D39;}
	.st55{clip-path:url(#SVGID_92_);fill:#151D39;}
	.st56{clip-path:url(#SVGID_94_);fill:#151D39;}
	.st57{clip-path:url(#SVGID_96_);fill:#151D39;}
	.st58{clip-path:url(#SVGID_98_);fill:#151D39;}
	.st59{clip-path:url(#SVGID_100_);fill:#151D39;}
	.st60{clip-path:url(#SVGID_102_);fill:#151D39;}
	.st61{clip-path:url(#SVGID_104_);fill:#151D39;}
	.st62{fill:#C18927;}
	.st63{fill:#8C7156;}
	.st64{fill:#8C7156;stroke:#151D39;stroke-width:8;stroke-miterlimit:10;}
	.st65{fill:none;stroke:#F84D45;stroke-width:14;stroke-linecap:round;stroke-miterlimit:10;}
	.st66{fill:#FEC64E;}
	.st67{fill:#EF9A6A;}
	.st68{fill:#EF9A6A;stroke:#151D39;stroke-width:8;stroke-miterlimit:10;}
	.st69{fill:#EDD8CB;}
	.st70{fill:#A67C52;}
	.st71{fill:#8C6239;}
	.st72{fill:none;stroke:#999999;stroke-width:12;stroke-linecap:round;stroke-miterlimit:10;}
	.st73{fill:#F84D45;}
	.st74{clip-path:url(#SVGID_106_);fill:#FD92F2;}
	.st75{clip-path:url(#SVGID_108_);fill:#FD92F2;}
	.st76{clip-path:url(#SVGID_110_);fill:#FD92F2;}
	.st77{fill:none;stroke:#151D39;stroke-width:8;stroke-miterlimit:10;}
	.st78{fill:none;stroke:#151D39;stroke-width:8;stroke-linecap:round;stroke-miterlimit:10;}
	.st79{fill:#1CAEFC;}
	.st80{fill:#EDD8CB;stroke:#151D39;stroke-width:8;stroke-miterlimit:10;}
	.st81{clip-path:url(#SVGID_112_);fill:#641FE1;}
	.st82{clip-path:url(#SVGID_114_);fill:#641FE1;}
	.st83{clip-path:url(#SVGID_116_);fill:#641FE1;}
	.st84{fill:#FFFFFF;}
</style>
<g>
	<g>
		<rect x="897" y="751.4" class="st0" width="561.9" height="371.7"/>
		<rect x="897" y="751.4" class="st1" width="561.9" height="308.2"/>
	</g>
	<g>
		<g>
			<g>
				<defs>
					<rect id="SVGID_1_" x="923.6" y="778.2" width="156.6" height="32.9"/>
				</defs>
				<clipPath id="SVGID_2_">
					<use xlink:href="#SVGID_1_"  style="overflow:visible;"/>
				</clipPath>
				<g class="st2">
					<g>
						<defs>
							<rect id="SVGID_3_" x="923.6" y="778.2" width="156.6" height="32.9"/>
						</defs>
						<clipPath id="SVGID_4_">
							<use xlink:href="#SVGID_3_"  style="overflow:visible;"/>
						</clipPath>
						<path class="st3" d="M929.9,800.9c-0.3-0.9-0.4-1.9-0.4-3.4s0.1-2.5,0.4-3.4c0.8-2.4,2.9-3.8,5.6-3.8c2,0,3.6,0.8,4.7,2.1
							c0.1,0.1,0.1,0.3,0,0.4l-1.8,1.6c-0.1,0.1-0.3,0.1-0.4-0.1c-0.7-0.8-1.4-1.2-2.5-1.2c-1.2,0-2.1,0.6-2.5,1.8
							c-0.2,0.7-0.3,1.5-0.3,2.5c0,1.1,0.1,1.9,0.3,2.6c0.4,1.2,1.3,1.8,2.5,1.8c1.1,0,1.8-0.4,2.5-1.2c0.1-0.1,0.3-0.1,0.4,0
							l1.8,1.6c0.1,0.1,0.1,0.3,0,0.4c-1.1,1.3-2.7,2.1-4.7,2.1C932.8,804.7,930.7,803.3,929.9,800.9"/>
					</g>
					<g>
						<defs>
							<rect id="SVGID_5_" x="923.6" y="778.2" width="156.6" height="32.9"/>
						</defs>
						<clipPath id="SVGID_6_">
							<use xlink:href="#SVGID_5_"  style="overflow:visible;"/>
						</clipPath>
						<path class="st4" d="M991.5,800.9c-0.3-0.9-0.4-1.9-0.4-3.4s0.1-2.5,0.4-3.4c0.8-2.4,2.9-3.8,5.6-3.8c2,0,3.6,0.8,4.7,2.1
							c0.1,0.1,0.1,0.3,0,0.4l-1.8,1.6c-0.1,0.1-0.3,0.1-0.4-0.1c-0.7-0.8-1.4-1.2-2.5-1.2c-1.2,0-2.1,0.6-2.5,1.8
							c-0.2,0.7-0.3,1.5-0.3,2.5c0,1.1,0.1,1.9,0.3,2.6c0.4,1.2,1.3,1.8,2.5,1.8c1.1,0,1.8-0.4,2.5-1.2c0.1-0.1,0.3-0.1,0.4,0
							l1.8,1.6c0.1,0.1,0.1,0.3,0,0.4c-1.1,1.3-2.7,2.1-4.7,2.1C994.4,804.7,992.3,803.3,991.5,800.9"/>
					</g>
					<g>
						<defs>
							<rect id="SVGID_7_" x="923.6" y="778.2" width="156.6" height="32.9"/>
						</defs>
						<clipPath id="SVGID_8_">
							<use xlink:href="#SVGID_7_"  style="overflow:visible;"/>
						</clipPath>
						<path class="st5" d="M1062.7,804.4c-0.2,0-0.3-0.1-0.3-0.3v-7.9c0-1.8-0.9-3-2.6-3c-1.6,0-2.6,1.2-2.6,3v7.9
							c0,0.2-0.1,0.3-0.3,0.3h-2.6c-0.2,0-0.3-0.1-0.3-0.3v-7.9c0-1.8-0.9-3-2.6-3c-1.6,0-2.6,1.2-2.6,3v7.9c0,0.2-0.1,0.3-0.3,0.3
							h-2.6c-0.2,0-0.3-0.1-0.3-0.3v-13.2c0-0.2,0.1-0.3,0.3-0.3h2.6c0.2,0,0.3,0.1,0.3,0.3v1l0,0c0.6-0.9,1.8-1.6,3.6-1.6
							c1.6,0,2.9,0.7,3.7,1.8l0,0c1-1.1,2.4-1.8,4.3-1.8c3.2,0,4.9,2.2,4.9,5.1v8.7c0,0.2-0.1,0.3-0.3,0.3H1062.7z"/>
					</g>
					<g>
						<defs>
							<rect id="SVGID_9_" x="923.6" y="778.2" width="156.6" height="32.9"/>
						</defs>
						<clipPath id="SVGID_10_">
							<use xlink:href="#SVGID_9_"  style="overflow:visible;"/>
						</clipPath>
						<path class="st6" d="M1069.5,809.5c-0.2,0-0.3-0.1-0.3-0.3v-2.3c0-0.2,0.1-0.3,0.3-0.3h0.5c1.1,0,1.6-0.5,2-1.6l0.4-1.2
							l-5-12.9c-0.1-0.2,0.1-0.3,0.2-0.3h2.8c0.2,0,0.3,0.1,0.3,0.3l3.1,9h0.1l2.9-9c0.1-0.2,0.2-0.3,0.3-0.3h2.7
							c0.2,0,0.3,0.1,0.2,0.3l-5.2,14.3c-1.2,3.2-2.3,4.3-4.6,4.3H1069.5z"/>
					</g>
					<g>
						<defs>
							<rect id="SVGID_11_" x="923.6" y="778.2" width="156.6" height="32.9"/>
						</defs>
						<clipPath id="SVGID_12_">
							<use xlink:href="#SVGID_11_"  style="overflow:visible;"/>
						</clipPath>
						<path class="st7" d="M951,800c0.2-0.7,0.3-1.4,0.3-2.5c0-1.2-0.1-1.8-0.3-2.5c-0.4-1.1-1.3-1.8-2.5-1.8
							c-1.3,0-2.2,0.7-2.6,1.8c-0.2,0.7-0.3,1.4-0.3,2.5c0,1.2,0.1,1.8,0.3,2.5c0.4,1.1,1.3,1.8,2.6,1.8
							C949.7,801.8,950.6,801.2,951,800 M942.8,800.9c-0.3-1-0.5-1.9-0.5-3.4s0.1-2.4,0.5-3.4c0.8-2.4,2.8-3.8,5.6-3.8
							c2.7,0,4.8,1.4,5.6,3.8c0.3,1,0.5,1.9,0.5,3.4s-0.1,2.4-0.5,3.4c-0.8,2.4-2.8,3.8-5.6,3.8
							C945.7,804.7,943.6,803.3,942.8,800.9"/>
					</g>
					<g>
						<defs>
							<rect id="SVGID_13_" x="923.6" y="778.2" width="156.6" height="32.9"/>
						</defs>
						<clipPath id="SVGID_14_">
							<use xlink:href="#SVGID_13_"  style="overflow:visible;"/>
						</clipPath>
						<path class="st8" d="M1009.4,790.3c-2.2,0-3.7,0.5-4.8,1.3c-0.1,0.1-0.1,0.2-0.1,0.4l1,1.9c0.1,0.1,0.3,0.2,0.4,0.1
							c0.6-0.5,1.6-0.9,3.1-0.9c2.2,0,3,0.7,3,2.2l0,0v0.1v4.4c0,1.6-1.1,2.3-3,2.3c-1.5,0-2.3-0.6-2.3-1.7c0-1.3,0.9-1.9,2.9-1.9
							h0.6c0.2,0,0.3-0.1,0.3-0.3v-1.8c0-0.2-0.1-0.3-0.3-0.3h-0.1h-1c-3.4,0-5.4,1.4-5.4,4.4c0,2.9,2.1,4.2,4.6,4.2
							c1.9,0,3.2-0.7,3.8-1.6l0,0v1c0,0.2,0.1,0.3,0.3,0.3h2.4c0.2,0,0.3-0.1,0.3-0.3v-9C1015,791.8,1013.5,790.3,1009.4,790.3"/>
					</g>
					<g>
						<defs>
							<rect id="SVGID_15_" x="923.6" y="778.2" width="156.6" height="32.9"/>
						</defs>
						<clipPath id="SVGID_16_">
							<use xlink:href="#SVGID_15_"  style="overflow:visible;"/>
						</clipPath>
						<path class="st9" d="M975.7,796.1C975.6,796.1,975.6,796.1,975.7,796.1l-0.1,0.2v0.2v1.5v0.2v0.1c0,0.1,0,0.1,0.1,0.1h0.1h6.9
							c0.2,0,0.3-0.1,0.3-0.3c0-2.2-0.1-3.2-0.5-4.1c-0.8-2.3-2.8-3.8-5.6-3.8c-2.7,0-4.8,1.4-5.6,3.8c-0.3,0.9-0.5,2-0.5,3.4
							s0.2,2.5,0.5,3.4c0.8,2.4,2.8,3.8,5.7,3.8c2.5,0,4.4-1,5.6-2.3c0.1-0.1,0.1-0.3,0-0.4l-1.7-1.5c-0.1-0.1-0.3-0.1-0.4,0.1
							c-0.7,0.7-1.7,1.3-3.2,1.3s-2.6-0.7-3-2.1c-0.1-0.2-0.1-0.4-0.2-0.6c-0.1-0.6-0.2-1.1-0.2-2c0-0.8,0.1-1.3,0.2-1.9l0,0l0,0
							l0,0c0-0.1,0.1-0.3,0.1-0.4c0.4-1.1,1.4-1.8,2.7-1.8s2.3,0.7,2.6,1.8c0.1,0.3,0.2,0.7,0.2,1.2c0,0.1-0.1,0.2-0.2,0.2
							L975.7,796.1L975.7,796.1L975.7,796.1L975.7,796.1z"/>
					</g>
					<g>
						<defs>
							<rect id="SVGID_17_" x="923.6" y="778.2" width="156.6" height="32.9"/>
						</defs>
						<clipPath id="SVGID_18_">
							<use xlink:href="#SVGID_17_"  style="overflow:visible;"/>
						</clipPath>
						<path class="st10" d="M968.3,785h-2.6c-0.2,0-0.3,0.1-0.3,0.3v6.7v5.5l0,0l0,0v0.7l0,0c0,0.8-0.1,1.3-0.3,1.8
							c-0.4,1.1-1.2,1.8-2.5,1.8s-2.1-0.6-2.5-1.8c-0.2-0.6-0.3-1.3-0.3-2.6c0-1.2,0.1-1.9,0.3-2.6c0.4-1.1,1.2-1.7,2.4-1.8h1.1
							c0.1,0,0.1-0.1,0.1-0.1v-2.6c0-0.1,0-0.1-0.1-0.1h-0.9h-1l0,0c-2.3,0-3.9,1.1-4.6,3.3c-0.3,1.1-0.5,2-0.5,3.9
							c0,1.8,0.1,2.8,0.5,3.9c0.7,2.2,2.4,3.3,4.7,3.3c1.8,0,3-0.7,3.6-1.6l0,0v1c0,0.2,0.1,0.3,0.3,0.3h2.6c0.2,0,0.3-0.1,0.3-0.3
							v-18.8C968.6,785.1,968.5,785,968.3,785"/>
					</g>
					<g>
						<defs>
							<rect id="SVGID_19_" x="923.6" y="778.2" width="156.6" height="32.9"/>
						</defs>
						<clipPath id="SVGID_20_">
							<use xlink:href="#SVGID_19_"  style="overflow:visible;"/>
						</clipPath>
						<path class="st11" d="M1036.2,796.1C1036.1,796.1,1036.1,796.1,1036.2,796.1l-0.1,0.2v0.2v1.5v0.2v0.1c0,0.1,0,0.1,0.1,0.1
							h0.1h6.9c0.2,0,0.3-0.1,0.3-0.3c0-2.2-0.1-3.2-0.5-4.1c-0.8-2.3-2.8-3.8-5.6-3.8c-2.7,0-4.8,1.4-5.6,3.8
							c-0.3,0.9-0.5,2-0.5,3.4s0.2,2.5,0.5,3.4c0.8,2.4,2.8,3.8,5.7,3.8c2.5,0,4.4-1,5.6-2.3c0.1-0.1,0.1-0.3,0-0.4l-1.7-1.5
							c-0.1-0.1-0.3-0.1-0.4,0.1c-0.7,0.7-1.7,1.3-3.2,1.3s-2.6-0.7-3-2.1c-0.1-0.2-0.1-0.4-0.2-0.6c-0.1-0.6-0.2-1.1-0.2-2
							c0-0.8,0.1-1.3,0.2-1.9l0,0l0,0l0,0c0-0.1,0.1-0.3,0.1-0.4c0.4-1.1,1.4-1.8,2.7-1.8c1.3,0,2.3,0.7,2.6,1.8
							c0.1,0.3,0.2,0.7,0.2,1.2c0,0.1-0.1,0.2-0.2,0.2h-3.7l0,0L1036.2,796.1L1036.2,796.1z"/>
					</g>
					<g>
						<defs>
							<rect id="SVGID_21_" x="923.6" y="778.2" width="156.6" height="32.9"/>
						</defs>
						<clipPath id="SVGID_22_">
							<use xlink:href="#SVGID_21_"  style="overflow:visible;"/>
						</clipPath>
						<path class="st12" d="M1029,785h-2.6c-0.2,0-0.3,0.1-0.3,0.3v6.7v5.5l0,0l0,0v0.7l0,0c0,0.8-0.1,1.3-0.3,1.8
							c-0.4,1.1-1.2,1.8-2.5,1.8c-1.3,0-2.1-0.6-2.5-1.8c-0.2-0.6-0.3-1.3-0.3-2.6s0.1-1.9,0.3-2.6c0.4-1.1,1.2-1.7,2.4-1.8h1.1
							c0.2,0,0.3-0.1,0.3-0.3v-2.3c0-0.2-0.1-0.3-0.3-0.3h-0.1h-1.7l0,0l0,0l0,0l0,0c-2.3,0-3.9,1.1-4.6,3.3c-0.3,1.1-0.5,2-0.5,3.9
							s0.1,2.8,0.5,3.9c0.7,2.2,2.4,3.3,4.7,3.3c1.8,0,3-0.7,3.6-1.6l0,0v1c0,0.2,0.1,0.3,0.3,0.3h2.6c0.2,0,0.3-0.1,0.3-0.3v-18.8
							C1029.2,785.1,1029.1,785,1029,785"/>
					</g>
					<g>
						<defs>
							<rect id="SVGID_23_" x="923.6" y="778.2" width="156.6" height="32.9"/>
						</defs>
						<clipPath id="SVGID_24_">
							<use xlink:href="#SVGID_23_"  style="overflow:visible;"/>
						</clipPath>
						<path class="st13" d="M991.3,808.3v2.6c0,0.2,0.1,0.3,0.3,0.3h9.6c0.2,0,0.3-0.1,0.3-0.3v-2.6c0-0.2-0.1-0.3-0.3-0.3h-9.6
							C991.4,808,991.3,808.1,991.3,808.3"/>
					</g>
					<g>
						<defs>
							<rect id="SVGID_25_" x="923.6" y="778.2" width="156.6" height="32.9"/>
						</defs>
						<clipPath id="SVGID_26_">
							<use xlink:href="#SVGID_25_"  style="overflow:visible;"/>
						</clipPath>
						<path class="st14" d="M927,808L927,808C926.9,808,926.9,808,927,808C926.9,808,926.9,808,927,808L927,808
							c-0.2,0-0.3-0.1-0.3-0.3v-23.5v-2.6c0-0.1,0.1-0.2,0.2-0.3l0,0c0,0,0,0,0.1,0c0,0,0,0,0.1,0h58.5c0,0,0,0,0.1,0l0,0l0,0l0,0
							c0.1,0,0.2,0.1,0.2,0.3v26c0,0.1-0.1,0.2-0.2,0.3l0,0l0,0l0,0c0,0,0,0-0.1,0L927,808L927,808z M988.8,778.3L988.8,778.3
							L988.8,778.3c-0.1-0.1-0.1-0.1-0.2-0.1l0,0h-64.8c0,0,0,0-0.1,0l0,0l0,0l0,0c-0.1,0-0.2,0.1-0.2,0.3l0,0v32.4l0,0
							c0,0.1,0,0.2,0.1,0.2l0,0l0,0c0,0,0.1,0,0.2,0h64.8l0,0c0.1,0,0.2,0,0.2-0.1c0,0,0.1-0.1,0.1-0.2l0,0v-32.4l0,0
							C988.9,778.4,988.9,778.3,988.8,778.3"/>
					</g>
				</g>
			</g>
		</g>
	</g>
	<rect x="1080.1" y="829.7" class="st15" width="354.7" height="204.1"/>
	<rect x="923.6" y="829.7" class="st16" width="156.6" height="204.1"/>
	<g>
		<line class="st17" x1="943.2" y1="850.4" x2="1060.5" y2="850.4"/>
		<line class="st17" x1="943.2" y1="866.7" x2="1060.5" y2="866.7"/>
		<line class="st17" x1="943.2" y1="902.3" x2="1060.5" y2="902.3"/>
		<line class="st17" x1="943.2" y1="919.2" x2="1060.5" y2="919.2"/>
		<line class="st17" x1="943.2" y1="954.2" x2="1060.5" y2="954.2"/>
		<line class="st17" x1="943.2" y1="884.5" x2="1060.5" y2="884.5"/>
		<line class="st17" x1="943.2" y1="936.7" x2="1060.5" y2="936.7"/>
		<line class="st17" x1="943.2" y1="971.7" x2="1060.5" y2="971.7"/>
		<line class="st17" x1="943.2" y1="1006.8" x2="1060.5" y2="1006.8"/>
		<line class="st17" x1="943.2" y1="989.3" x2="1060.5" y2="989.3"/>
	</g>
	<g>
		<line class="st18" x1="1126.5" y1="847.8" x2="1408.8" y2="847.8"/>
		<line class="st19" x1="1101.1" y1="864.8" x2="1383.3" y2="864.8"/>
		<line class="st18" x1="1126.5" y1="901.9" x2="1408.8" y2="901.9"/>
		<line class="st18" x1="1126.5" y1="919.6" x2="1408.8" y2="919.6"/>
		<line class="st19" x1="1103.5" y1="956.2" x2="1385.8" y2="956.2"/>
		<line class="st19" x1="1101.1" y1="883.4" x2="1383.3" y2="883.4"/>
		<line class="st19" x1="1103.5" y1="937.9" x2="1385.8" y2="937.9"/>
		<line class="st19" x1="1126.5" y1="974.5" x2="1408.8" y2="974.5"/>
		<line class="st18" x1="1126.5" y1="1011.1" x2="1408.8" y2="1011.1"/>
		<line class="st18" x1="1126.5" y1="992.8" x2="1408.8" y2="992.8"/>
	</g>
</g>
<g>
	<g>
		<rect x="128.2" y="751.4" class="st0" width="561.9" height="371.7"/>
		<rect x="128.2" y="751.4" class="st1" width="561.9" height="308.2"/>
	</g>
	<g>
		<g>
			<g>
				<defs>
					<rect id="SVGID_27_" x="154.8" y="778.2" width="156.6" height="32.9"/>
				</defs>
				<clipPath id="SVGID_28_">
					<use xlink:href="#SVGID_27_"  style="overflow:visible;"/>
				</clipPath>
				<g class="st20">
					<g>
						<defs>
							<rect id="SVGID_29_" x="154.8" y="778.2" width="156.6" height="32.9"/>
						</defs>
						<clipPath id="SVGID_30_">
							<use xlink:href="#SVGID_29_"  style="overflow:visible;"/>
						</clipPath>
						<path class="st21" d="M161.1,800.9c-0.3-0.9-0.4-1.9-0.4-3.4s0.1-2.5,0.4-3.4c0.8-2.4,2.9-3.8,5.6-3.8c2,0,3.6,0.8,4.7,2.1
							c0.1,0.1,0.1,0.3,0,0.4l-1.8,1.6c-0.1,0.1-0.3,0.1-0.4-0.1c-0.7-0.8-1.4-1.2-2.5-1.2c-1.2,0-2.1,0.6-2.5,1.8
							c-0.2,0.7-0.3,1.5-0.3,2.5c0,1.1,0.1,1.9,0.3,2.6c0.4,1.2,1.3,1.8,2.5,1.8c1.1,0,1.8-0.4,2.5-1.2c0.1-0.1,0.3-0.1,0.4,0
							l1.8,1.6c0.1,0.1,0.1,0.3,0,0.4c-1.1,1.3-2.7,2.1-4.7,2.1C164,804.7,161.9,803.3,161.1,800.9"/>
					</g>
					<g>
						<defs>
							<rect id="SVGID_31_" x="154.8" y="778.2" width="156.6" height="32.9"/>
						</defs>
						<clipPath id="SVGID_32_">
							<use xlink:href="#SVGID_31_"  style="overflow:visible;"/>
						</clipPath>
						<path class="st22" d="M222.7,800.9c-0.3-0.9-0.4-1.9-0.4-3.4s0.1-2.5,0.4-3.4c0.8-2.4,2.9-3.8,5.6-3.8c2,0,3.6,0.8,4.7,2.1
							c0.1,0.1,0.1,0.3,0,0.4l-1.8,1.6c-0.1,0.1-0.3,0.1-0.4-0.1c-0.7-0.8-1.4-1.2-2.5-1.2c-1.2,0-2.1,0.6-2.5,1.8
							c-0.2,0.7-0.3,1.5-0.3,2.5c0,1.1,0.1,1.9,0.3,2.6c0.4,1.2,1.3,1.8,2.5,1.8c1.1,0,1.8-0.4,2.5-1.2c0.1-0.1,0.3-0.1,0.4,0
							l1.8,1.6c0.1,0.1,0.1,0.3,0,0.4c-1.1,1.3-2.7,2.1-4.7,2.1C225.6,804.7,223.5,803.3,222.7,800.9"/>
					</g>
					<g>
						<defs>
							<rect id="SVGID_33_" x="154.8" y="778.2" width="156.6" height="32.9"/>
						</defs>
						<clipPath id="SVGID_34_">
							<use xlink:href="#SVGID_33_"  style="overflow:visible;"/>
						</clipPath>
						<path class="st23" d="M293.9,804.4c-0.2,0-0.3-0.1-0.3-0.3v-7.9c0-1.8-0.9-3-2.6-3c-1.6,0-2.6,1.2-2.6,3v7.9
							c0,0.2-0.1,0.3-0.3,0.3h-2.6c-0.2,0-0.3-0.1-0.3-0.3v-7.9c0-1.8-0.9-3-2.6-3c-1.6,0-2.6,1.2-2.6,3v7.9c0,0.2-0.1,0.3-0.3,0.3
							h-2.6c-0.2,0-0.3-0.1-0.3-0.3v-13.2c0-0.2,0.1-0.3,0.3-0.3h2.6c0.2,0,0.3,0.1,0.3,0.3v1l0,0c0.6-0.9,1.8-1.6,3.6-1.6
							c1.6,0,2.9,0.7,3.7,1.8l0,0c1-1.1,2.4-1.8,4.3-1.8c3.2,0,4.9,2.2,4.9,5.1v8.7c0,0.2-0.1,0.3-0.3,0.3H293.9z"/>
					</g>
					<g>
						<defs>
							<rect id="SVGID_35_" x="154.8" y="778.2" width="156.6" height="32.9"/>
						</defs>
						<clipPath id="SVGID_36_">
							<use xlink:href="#SVGID_35_"  style="overflow:visible;"/>
						</clipPath>
						<path class="st24" d="M300.7,809.5c-0.2,0-0.3-0.1-0.3-0.3v-2.3c0-0.2,0.1-0.3,0.3-0.3h0.5c1.1,0,1.6-0.5,2-1.6l0.4-1.2
							l-5-12.9c-0.1-0.2,0.1-0.3,0.2-0.3h2.8c0.2,0,0.3,0.1,0.3,0.3l3.1,9h0.1l2.9-9c0.1-0.2,0.2-0.3,0.3-0.3h2.7
							c0.2,0,0.3,0.1,0.2,0.3l-5.2,14.3c-1.2,3.2-2.3,4.3-4.6,4.3H300.7z"/>
					</g>
					<g>
						<defs>
							<rect id="SVGID_37_" x="154.8" y="778.2" width="156.6" height="32.9"/>
						</defs>
						<clipPath id="SVGID_38_">
							<use xlink:href="#SVGID_37_"  style="overflow:visible;"/>
						</clipPath>
						<path class="st25" d="M182.2,800c0.2-0.7,0.3-1.4,0.3-2.5c0-1.2-0.1-1.8-0.3-2.5c-0.4-1.1-1.3-1.8-2.5-1.8
							c-1.3,0-2.2,0.7-2.6,1.8c-0.2,0.7-0.3,1.4-0.3,2.5c0,1.2,0.1,1.8,0.3,2.5c0.4,1.1,1.3,1.8,2.6,1.8
							C180.9,801.8,181.8,801.2,182.2,800 M174,800.9c-0.3-1-0.5-1.9-0.5-3.4s0.1-2.4,0.5-3.4c0.8-2.4,2.8-3.8,5.6-3.8
							c2.7,0,4.8,1.4,5.6,3.8c0.3,1,0.5,1.9,0.5,3.4s-0.1,2.4-0.5,3.4c-0.8,2.4-2.8,3.8-5.6,3.8C176.9,804.7,174.8,803.3,174,800.9"
							/>
					</g>
					<g>
						<defs>
							<rect id="SVGID_39_" x="154.8" y="778.2" width="156.6" height="32.9"/>
						</defs>
						<clipPath id="SVGID_40_">
							<use xlink:href="#SVGID_39_"  style="overflow:visible;"/>
						</clipPath>
						<path class="st26" d="M240.6,790.3c-2.2,0-3.7,0.5-4.8,1.3c-0.1,0.1-0.1,0.2-0.1,0.4l1,1.9c0.1,0.1,0.3,0.2,0.4,0.1
							c0.6-0.5,1.6-0.9,3.1-0.9c2.2,0,3,0.7,3,2.2l0,0v0.1v4.4c0,1.6-1.1,2.3-3,2.3c-1.5,0-2.3-0.6-2.3-1.7c0-1.3,0.9-1.9,2.9-1.9
							h0.6c0.2,0,0.3-0.1,0.3-0.3v-1.8c0-0.2-0.1-0.3-0.3-0.3h-0.1h-1c-3.4,0-5.4,1.4-5.4,4.4c0,2.9,2.1,4.2,4.6,4.2
							c1.9,0,3.2-0.7,3.8-1.6l0,0v1c0,0.2,0.1,0.3,0.3,0.3h2.4c0.2,0,0.3-0.1,0.3-0.3v-9C246.2,791.8,244.7,790.3,240.6,790.3"/>
					</g>
					<g>
						<defs>
							<rect id="SVGID_41_" x="154.8" y="778.2" width="156.6" height="32.9"/>
						</defs>
						<clipPath id="SVGID_42_">
							<use xlink:href="#SVGID_41_"  style="overflow:visible;"/>
						</clipPath>
						<path class="st27" d="M206.9,796.1c-0.1,0-0.1,0-0.1,0.1v0.1v0.2v1.5v0.2v0.1c0,0.1,0,0.1,0.1,0.1h0.1h6.9
							c0.2,0,0.3-0.1,0.3-0.3c0-2.2-0.1-3.2-0.5-4.1c-0.8-2.3-2.8-3.8-5.6-3.8c-2.7,0-4.8,1.4-5.6,3.8c-0.3,0.9-0.5,2-0.5,3.4
							s0.2,2.5,0.5,3.4c0.8,2.4,2.8,3.8,5.7,3.8c2.5,0,4.4-1,5.6-2.3c0.1-0.1,0.1-0.3,0-0.4l-1.7-1.5c-0.1-0.1-0.3-0.1-0.4,0.1
							c-0.7,0.7-1.7,1.3-3.2,1.3s-2.6-0.7-3-2.1c-0.1-0.2-0.1-0.4-0.2-0.6c-0.1-0.6-0.2-1.1-0.2-2c0-0.8,0.1-1.3,0.2-1.9l0,0l0,0
							l0,0c0-0.1,0.1-0.3,0.1-0.4c0.4-1.1,1.4-1.8,2.7-1.8s2.3,0.7,2.6,1.8c0.1,0.3,0.2,0.7,0.2,1.2c0,0.1-0.1,0.2-0.2,0.2H207l0,0
							L206.9,796.1L206.9,796.1z"/>
					</g>
					<g>
						<defs>
							<rect id="SVGID_43_" x="154.8" y="778.2" width="156.6" height="32.9"/>
						</defs>
						<clipPath id="SVGID_44_">
							<use xlink:href="#SVGID_43_"  style="overflow:visible;"/>
						</clipPath>
						<path class="st28" d="M199.5,785h-2.6c-0.2,0-0.3,0.1-0.3,0.3v6.7v5.5l0,0l0,0v0.7l0,0c0,0.8-0.1,1.3-0.3,1.8
							c-0.4,1.1-1.2,1.8-2.5,1.8s-2.1-0.6-2.5-1.8c-0.2-0.6-0.3-1.3-0.3-2.6c0-1.2,0.1-1.9,0.3-2.6c0.4-1.1,1.2-1.7,2.4-1.8h1.1
							c0.1,0,0.1-0.1,0.1-0.1v-2.6c0-0.1,0-0.1-0.1-0.1h-0.9h-1l0,0c-2.3,0-3.9,1.1-4.6,3.3c-0.3,1.1-0.5,2-0.5,3.9
							c0,1.8,0.1,2.8,0.5,3.9c0.7,2.2,2.4,3.3,4.7,3.3c1.8,0,3-0.7,3.6-1.6l0,0v1c0,0.2,0.1,0.3,0.3,0.3h2.6c0.2,0,0.3-0.1,0.3-0.3
							v-18.8C199.8,785.1,199.7,785,199.5,785"/>
					</g>
					<g>
						<defs>
							<rect id="SVGID_45_" x="154.8" y="778.2" width="156.6" height="32.9"/>
						</defs>
						<clipPath id="SVGID_46_">
							<use xlink:href="#SVGID_45_"  style="overflow:visible;"/>
						</clipPath>
						<path class="st29" d="M267.4,796.1c-0.1,0-0.1,0-0.1,0.1v0.1v0.2v1.5v0.2v0.1c0,0.1,0,0.1,0.1,0.1h0.1h6.9
							c0.2,0,0.3-0.1,0.3-0.3c0-2.2-0.1-3.2-0.5-4.1c-0.8-2.3-2.8-3.8-5.6-3.8c-2.7,0-4.8,1.4-5.6,3.8c-0.3,0.9-0.5,2-0.5,3.4
							s0.2,2.5,0.5,3.4c0.8,2.4,2.8,3.8,5.7,3.8c2.5,0,4.4-1,5.6-2.3c0.1-0.1,0.1-0.3,0-0.4l-1.7-1.5c-0.1-0.1-0.3-0.1-0.4,0.1
							c-0.7,0.7-1.7,1.3-3.2,1.3s-2.6-0.7-3-2.1c-0.1-0.2-0.1-0.4-0.2-0.6c-0.1-0.6-0.2-1.1-0.2-2c0-0.8,0.1-1.3,0.2-1.9l0,0l0,0
							l0,0c0-0.1,0.1-0.3,0.1-0.4c0.4-1.1,1.4-1.8,2.7-1.8c1.3,0,2.3,0.7,2.6,1.8c0.1,0.3,0.2,0.7,0.2,1.2c0,0.1-0.1,0.2-0.2,0.2
							L267.4,796.1L267.4,796.1L267.4,796.1L267.4,796.1z"/>
					</g>
					<g>
						<defs>
							<rect id="SVGID_47_" x="154.8" y="778.2" width="156.6" height="32.9"/>
						</defs>
						<clipPath id="SVGID_48_">
							<use xlink:href="#SVGID_47_"  style="overflow:visible;"/>
						</clipPath>
						<path class="st30" d="M260.2,785h-2.6c-0.2,0-0.3,0.1-0.3,0.3v6.7v5.5l0,0l0,0v0.7l0,0c0,0.8-0.1,1.3-0.3,1.8
							c-0.4,1.1-1.2,1.8-2.5,1.8s-2.1-0.6-2.5-1.8c-0.2-0.6-0.3-1.3-0.3-2.6s0.1-1.9,0.3-2.6c0.4-1.1,1.2-1.7,2.4-1.8h1.1
							c0.2,0,0.3-0.1,0.3-0.3v-2.3c0-0.2-0.1-0.3-0.3-0.3h-0.1h-1.7l0,0l0,0l0,0l0,0c-2.3,0-3.9,1.1-4.6,3.3c-0.3,1.1-0.5,2-0.5,3.9
							s0.1,2.8,0.5,3.9c0.7,2.2,2.4,3.3,4.7,3.3c1.8,0,3-0.7,3.6-1.6l0,0v1c0,0.2,0.1,0.3,0.3,0.3h2.6c0.2,0,0.3-0.1,0.3-0.3v-18.8
							C260.5,785.1,260.3,785,260.2,785"/>
					</g>
					<g>
						<defs>
							<rect id="SVGID_49_" x="154.8" y="778.2" width="156.6" height="32.9"/>
						</defs>
						<clipPath id="SVGID_50_">
							<use xlink:href="#SVGID_49_"  style="overflow:visible;"/>
						</clipPath>
						<path class="st31" d="M222.5,808.3v2.6c0,0.2,0.1,0.3,0.3,0.3h9.6c0.2,0,0.3-0.1,0.3-0.3v-2.6c0-0.2-0.1-0.3-0.3-0.3h-9.6
							C222.6,808,222.5,808.1,222.5,808.3"/>
					</g>
					<g>
						<defs>
							<rect id="SVGID_51_" x="154.8" y="778.2" width="156.6" height="32.9"/>
						</defs>
						<clipPath id="SVGID_52_">
							<use xlink:href="#SVGID_51_"  style="overflow:visible;"/>
						</clipPath>
						<path class="st32" d="M158.2,808L158.2,808C158.1,808,158.1,808,158.2,808c-0.1,0-0.1,0-0.1,0l0,0c-0.1,0-0.2-0.1-0.2-0.3
							v-23.5v-2.6c0-0.1,0.1-0.2,0.2-0.3l0,0c0,0,0,0,0.1,0c0,0,0,0,0.1,0h58.5c0,0,0,0,0.1,0l0,0l0,0l0,0c0.1,0,0.2,0.1,0.2,0.3v26
							c0,0.1-0.1,0.2-0.2,0.3l0,0l0,0l0,0c0,0,0,0-0.1,0L158.2,808L158.2,808z M220,778.3L220,778.3L220,778.3
							c-0.1-0.1-0.1-0.1-0.2-0.1l0,0H155c0,0,0,0-0.1,0l0,0l0,0l0,0c-0.1,0-0.2,0.1-0.2,0.3l0,0v32.4l0,0c0,0.1,0,0.2,0.1,0.2l0,0
							l0,0c0,0,0.1,0,0.2,0h64.8l0,0c0.1,0,0.2,0,0.2-0.1c0,0,0.1-0.1,0.1-0.2l0,0v-32.4l0,0C220.1,778.4,220.1,778.3,220,778.3"/>
					</g>
				</g>
			</g>
		</g>
	</g>
	<rect x="154.8" y="829.7" class="st16" width="506.1" height="204.1"/>
	<polyline class="st33" points="178.3,1006.8 205.5,919.9 228.5,968.1 259.1,863.9 303.5,980.5 407.1,850.4 518.2,988.4 
		554.2,884.5 587.5,989.3 609.6,923.8 639.6,1006.8 	"/>
</g>
<g>
	<g>
		<rect x="897" y="208.8" class="st0" width="561.9" height="371.7"/>
		<rect x="897" y="208.8" class="st1" width="561.9" height="308.2"/>
	</g>
	<g>
		<g>
			<g>
				<defs>
					<rect id="SVGID_53_" x="923.6" y="235.5" width="156.6" height="32.9"/>
				</defs>
				<clipPath id="SVGID_54_">
					<use xlink:href="#SVGID_53_"  style="overflow:visible;"/>
				</clipPath>
				<g class="st34">
					<g>
						<defs>
							<rect id="SVGID_55_" x="923.6" y="235.5" width="156.6" height="32.9"/>
						</defs>
						<clipPath id="SVGID_56_">
							<use xlink:href="#SVGID_55_"  style="overflow:visible;"/>
						</clipPath>
						<path class="st35" d="M929.9,258.2c-0.3-0.9-0.4-1.9-0.4-3.4s0.1-2.5,0.4-3.4c0.8-2.4,2.9-3.8,5.6-3.8c2,0,3.6,0.8,4.7,2.1
							c0.1,0.1,0.1,0.3,0,0.4l-1.8,1.6c-0.1,0.1-0.3,0.1-0.4-0.1c-0.7-0.8-1.4-1.2-2.5-1.2c-1.2,0-2.1,0.6-2.5,1.8
							c-0.2,0.7-0.3,1.5-0.3,2.5c0,1.1,0.1,1.9,0.3,2.6c0.4,1.2,1.3,1.8,2.5,1.8c1.1,0,1.8-0.4,2.5-1.2c0.1-0.1,0.3-0.1,0.4,0
							l1.8,1.6c0.1,0.1,0.1,0.3,0,0.4c-1.1,1.3-2.7,2.1-4.7,2.1C932.8,262,930.7,260.7,929.9,258.2"/>
					</g>
					<g>
						<defs>
							<rect id="SVGID_57_" x="923.6" y="235.5" width="156.6" height="32.9"/>
						</defs>
						<clipPath id="SVGID_58_">
							<use xlink:href="#SVGID_57_"  style="overflow:visible;"/>
						</clipPath>
						<path class="st36" d="M991.5,258.2c-0.3-0.9-0.4-1.9-0.4-3.4s0.1-2.5,0.4-3.4c0.8-2.4,2.9-3.8,5.6-3.8c2,0,3.6,0.8,4.7,2.1
							c0.1,0.1,0.1,0.3,0,0.4l-1.8,1.6c-0.1,0.1-0.3,0.1-0.4-0.1c-0.7-0.8-1.4-1.2-2.5-1.2c-1.2,0-2.1,0.6-2.5,1.8
							c-0.2,0.7-0.3,1.5-0.3,2.5c0,1.1,0.1,1.9,0.3,2.6c0.4,1.2,1.3,1.8,2.5,1.8c1.1,0,1.8-0.4,2.5-1.2c0.1-0.1,0.3-0.1,0.4,0
							l1.8,1.6c0.1,0.1,0.1,0.3,0,0.4c-1.1,1.3-2.7,2.1-4.7,2.1C994.4,262,992.3,260.7,991.5,258.2"/>
					</g>
					<g>
						<defs>
							<rect id="SVGID_59_" x="923.6" y="235.5" width="156.6" height="32.9"/>
						</defs>
						<clipPath id="SVGID_60_">
							<use xlink:href="#SVGID_59_"  style="overflow:visible;"/>
						</clipPath>
						<path class="st37" d="M1062.7,261.7c-0.2,0-0.3-0.1-0.3-0.3v-7.9c0-1.8-0.9-3-2.6-3c-1.6,0-2.6,1.2-2.6,3v7.9
							c0,0.2-0.1,0.3-0.3,0.3h-2.6c-0.2,0-0.3-0.1-0.3-0.3v-7.9c0-1.8-0.9-3-2.6-3c-1.6,0-2.6,1.2-2.6,3v7.9c0,0.2-0.1,0.3-0.3,0.3
							h-2.6c-0.2,0-0.3-0.1-0.3-0.3v-13.2c0-0.2,0.1-0.3,0.3-0.3h2.6c0.2,0,0.3,0.1,0.3,0.3v1l0,0c0.6-0.9,1.8-1.6,3.6-1.6
							c1.6,0,2.9,0.7,3.7,1.8l0,0c1-1.1,2.4-1.8,4.3-1.8c3.2,0,4.9,2.2,4.9,5.1v8.7c0,0.2-0.1,0.3-0.3,0.3H1062.7z"/>
					</g>
					<g>
						<defs>
							<rect id="SVGID_61_" x="923.6" y="235.5" width="156.6" height="32.9"/>
						</defs>
						<clipPath id="SVGID_62_">
							<use xlink:href="#SVGID_61_"  style="overflow:visible;"/>
						</clipPath>
						<path class="st38" d="M1069.5,266.8c-0.2,0-0.3-0.1-0.3-0.3v-2.3c0-0.2,0.1-0.3,0.3-0.3h0.5c1.1,0,1.6-0.5,2-1.6l0.4-1.2
							l-5-12.9c-0.1-0.2,0.1-0.3,0.2-0.3h2.8c0.2,0,0.3,0.1,0.3,0.3l3.1,9h0.1l2.9-9c0.1-0.2,0.2-0.3,0.3-0.3h2.7
							c0.2,0,0.3,0.1,0.2,0.3l-5.2,14.3c-1.2,3.2-2.3,4.3-4.6,4.3H1069.5z"/>
					</g>
					<g>
						<defs>
							<rect id="SVGID_63_" x="923.6" y="235.5" width="156.6" height="32.9"/>
						</defs>
						<clipPath id="SVGID_64_">
							<use xlink:href="#SVGID_63_"  style="overflow:visible;"/>
						</clipPath>
						<path class="st39" d="M951,257.4c0.2-0.7,0.3-1.4,0.3-2.5c0-1.2-0.1-1.8-0.3-2.5c-0.4-1.1-1.3-1.8-2.5-1.8
							c-1.3,0-2.2,0.7-2.6,1.8c-0.2,0.7-0.3,1.4-0.3,2.5c0,1.2,0.1,1.8,0.3,2.5c0.4,1.1,1.3,1.8,2.6,1.8
							C949.7,259.2,950.6,258.5,951,257.4 M942.8,258.2c-0.3-1-0.5-1.9-0.5-3.4s0.1-2.4,0.5-3.4c0.8-2.4,2.8-3.8,5.6-3.8
							c2.7,0,4.8,1.4,5.6,3.8c0.3,1,0.5,1.9,0.5,3.4s-0.1,2.4-0.5,3.4c-0.8,2.4-2.8,3.8-5.6,3.8C945.7,262,943.6,260.6,942.8,258.2"
							/>
					</g>
					<g>
						<defs>
							<rect id="SVGID_65_" x="923.6" y="235.5" width="156.6" height="32.9"/>
						</defs>
						<clipPath id="SVGID_66_">
							<use xlink:href="#SVGID_65_"  style="overflow:visible;"/>
						</clipPath>
						<path class="st40" d="M1009.4,247.7c-2.2,0-3.7,0.5-4.8,1.3c-0.1,0.1-0.1,0.2-0.1,0.4l1,1.9c0.1,0.1,0.3,0.2,0.4,0.1
							c0.6-0.5,1.6-0.9,3.1-0.9c2.2,0,3,0.7,3,2.2l0,0v0.1v4.4c0,1.6-1.1,2.3-3,2.3c-1.5,0-2.3-0.6-2.3-1.7c0-1.3,0.9-1.9,2.9-1.9
							h0.6c0.2,0,0.3-0.1,0.3-0.3v-1.8c0-0.2-0.1-0.3-0.3-0.3h-0.1h-1c-3.4,0-5.4,1.4-5.4,4.4c0,2.9,2.1,4.2,4.6,4.2
							c1.9,0,3.2-0.7,3.8-1.6l0,0v1c0,0.2,0.1,0.3,0.3,0.3h2.4c0.2,0,0.3-0.1,0.3-0.3v-9C1015,249.1,1013.5,247.7,1009.4,247.7"/>
					</g>
					<g>
						<defs>
							<rect id="SVGID_67_" x="923.6" y="235.5" width="156.6" height="32.9"/>
						</defs>
						<clipPath id="SVGID_68_">
							<use xlink:href="#SVGID_67_"  style="overflow:visible;"/>
						</clipPath>
						<path class="st41" d="M975.7,253.5c-0.1,0-0.1,0-0.1,0.1v0.1v0.2v1.5v0.2v0.1c0,0.1,0,0.1,0.1,0.1h0.1h6.9
							c0.2,0,0.3-0.1,0.3-0.3c0-2.2-0.1-3.2-0.5-4.1c-0.8-2.3-2.8-3.8-5.6-3.8c-2.7,0-4.8,1.4-5.6,3.8c-0.3,0.9-0.5,2-0.5,3.4
							c0,1.4,0.2,2.5,0.5,3.4c0.8,2.4,2.8,3.8,5.7,3.8c2.5,0,4.4-1,5.6-2.3c0.1-0.1,0.1-0.3,0-0.4l-1.7-1.5
							c-0.1-0.1-0.3-0.1-0.4,0.1c-0.7,0.7-1.7,1.3-3.2,1.3s-2.6-0.7-3-2.1c-0.1-0.2-0.1-0.4-0.2-0.6c-0.1-0.6-0.2-1.1-0.2-2
							c0-0.8,0.1-1.3,0.2-1.9l0,0l0,0l0,0c0-0.1,0.1-0.3,0.1-0.4c0.4-1.1,1.4-1.8,2.7-1.8s2.3,0.7,2.6,1.8c0.1,0.3,0.2,0.7,0.2,1.2
							c0,0.1-0.1,0.2-0.2,0.2h-3.7l0,0h-0.1V253.5z"/>
					</g>
					<g>
						<defs>
							<rect id="SVGID_69_" x="923.6" y="235.5" width="156.6" height="32.9"/>
						</defs>
						<clipPath id="SVGID_70_">
							<use xlink:href="#SVGID_69_"  style="overflow:visible;"/>
						</clipPath>
						<path class="st42" d="M968.3,242.3h-2.6c-0.2,0-0.3,0.1-0.3,0.3v6.7v5.5l0,0l0,0v0.7l0,0c0,0.8-0.1,1.3-0.3,1.8
							c-0.4,1.1-1.2,1.8-2.5,1.8s-2.1-0.6-2.5-1.8c-0.2-0.6-0.3-1.3-0.3-2.6c0-1.2,0.1-1.9,0.3-2.6c0.4-1.1,1.2-1.7,2.4-1.8h1.1
							c0.1,0,0.1-0.1,0.1-0.1v-2.6c0-0.1,0-0.1-0.1-0.1h-0.9h-1l0,0c-2.3,0-3.9,1.1-4.6,3.3c-0.3,1.1-0.5,2-0.5,3.9
							c0,1.8,0.1,2.8,0.5,3.9c0.7,2.2,2.4,3.3,4.7,3.3c1.8,0,3-0.7,3.6-1.6l0,0v1c0,0.2,0.1,0.3,0.3,0.3h2.6c0.2,0,0.3-0.1,0.3-0.3
							v-18.8C968.6,242.5,968.5,242.3,968.3,242.3"/>
					</g>
					<g>
						<defs>
							<rect id="SVGID_71_" x="923.6" y="235.5" width="156.6" height="32.9"/>
						</defs>
						<clipPath id="SVGID_72_">
							<use xlink:href="#SVGID_71_"  style="overflow:visible;"/>
						</clipPath>
						<path class="st43" d="M1036.2,253.5c-0.1,0-0.1,0-0.1,0.1v0.1v0.2v1.5v0.2v0.1c0,0.1,0,0.1,0.1,0.1h0.1h6.9
							c0.2,0,0.3-0.1,0.3-0.3c0-2.2-0.1-3.2-0.5-4.1c-0.8-2.3-2.8-3.8-5.6-3.8c-2.7,0-4.8,1.4-5.6,3.8c-0.3,0.9-0.5,2-0.5,3.4
							c0,1.4,0.2,2.5,0.5,3.4c0.8,2.4,2.8,3.8,5.7,3.8c2.5,0,4.4-1,5.6-2.3c0.1-0.1,0.1-0.3,0-0.4l-1.7-1.5
							c-0.1-0.1-0.3-0.1-0.4,0.1c-0.7,0.7-1.7,1.3-3.2,1.3s-2.6-0.7-3-2.1c-0.1-0.2-0.1-0.4-0.2-0.6c-0.1-0.6-0.2-1.1-0.2-2
							c0-0.8,0.1-1.3,0.2-1.9l0,0l0,0l0,0c0-0.1,0.1-0.3,0.1-0.4c0.4-1.1,1.4-1.8,2.7-1.8c1.3,0,2.3,0.7,2.6,1.8
							c0.1,0.3,0.2,0.7,0.2,1.2c0,0.1-0.1,0.2-0.2,0.2h-3.7l0,0h-0.1V253.5z"/>
					</g>
					<g>
						<defs>
							<rect id="SVGID_73_" x="923.6" y="235.5" width="156.6" height="32.9"/>
						</defs>
						<clipPath id="SVGID_74_">
							<use xlink:href="#SVGID_73_"  style="overflow:visible;"/>
						</clipPath>
						<path class="st44" d="M1029,242.3h-2.6c-0.2,0-0.3,0.1-0.3,0.3v6.7v5.5l0,0l0,0v0.7l0,0c0,0.8-0.1,1.3-0.3,1.8
							c-0.4,1.1-1.2,1.8-2.5,1.8c-1.3,0-2.1-0.6-2.5-1.8c-0.2-0.6-0.3-1.3-0.3-2.6s0.1-1.9,0.3-2.6c0.4-1.1,1.2-1.7,2.4-1.8h1.1
							c0.2,0,0.3-0.1,0.3-0.3v-2.3c0-0.2-0.1-0.3-0.3-0.3h-0.1h-1.7l0,0l0,0l0,0l0,0c-2.3,0-3.9,1.1-4.6,3.3c-0.3,1.1-0.5,2-0.5,3.9
							c0,1.9,0.1,2.8,0.5,3.9c0.7,2.2,2.4,3.3,4.7,3.3c1.8,0,3-0.7,3.6-1.6l0,0v1c0,0.2,0.1,0.3,0.3,0.3h2.6c0.2,0,0.3-0.1,0.3-0.3
							v-18.8C1029.2,242.5,1029.1,242.3,1029,242.3"/>
					</g>
					<g>
						<defs>
							<rect id="SVGID_75_" x="923.6" y="235.5" width="156.6" height="32.9"/>
						</defs>
						<clipPath id="SVGID_76_">
							<use xlink:href="#SVGID_75_"  style="overflow:visible;"/>
						</clipPath>
						<path class="st45" d="M991.3,265.6v2.6c0,0.2,0.1,0.3,0.3,0.3h9.6c0.2,0,0.3-0.1,0.3-0.3v-2.6c0-0.2-0.1-0.3-0.3-0.3h-9.6
							C991.4,265.3,991.3,265.4,991.3,265.6"/>
					</g>
					<g>
						<defs>
							<rect id="SVGID_77_" x="923.6" y="235.5" width="156.6" height="32.9"/>
						</defs>
						<clipPath id="SVGID_78_">
							<use xlink:href="#SVGID_77_"  style="overflow:visible;"/>
						</clipPath>
						<path class="st46" d="M927,265.3L927,265.3C926.9,265.3,926.9,265.3,927,265.3C926.9,265.3,926.9,265.3,927,265.3L927,265.3
							c-0.2,0-0.3-0.1-0.3-0.3v-23.5V239c0-0.1,0.1-0.2,0.2-0.3l0,0c0,0,0,0,0.1,0c0,0,0,0,0.1,0h58.5c0,0,0,0,0.1,0l0,0l0,0l0,0
							c0.1,0,0.2,0.1,0.2,0.3v26c0,0.1-0.1,0.2-0.2,0.3l0,0l0,0l0,0c0,0,0,0-0.1,0H927z M988.8,235.6L988.8,235.6L988.8,235.6
							c-0.1-0.1-0.1-0.1-0.2-0.1l0,0h-64.8c0,0,0,0-0.1,0l0,0l0,0l0,0c-0.1,0-0.2,0.1-0.2,0.3l0,0v32.4l0,0c0,0.1,0,0.2,0.1,0.2l0,0
							l0,0c0,0,0.1,0,0.2,0h64.8l0,0c0.1,0,0.2,0,0.2-0.1c0,0,0.1-0.1,0.1-0.2l0,0v-32.4l0,0C988.9,235.7,988.9,235.7,988.8,235.6"
							/>
					</g>
				</g>
			</g>
		</g>
	</g>
	<g>
		<line class="st17" x1="943.2" y1="307.8" x2="1073" y2="307.8"/>
		<line class="st17" x1="943.2" y1="324" x2="1073" y2="324"/>
		<line class="st17" x1="943.2" y1="359.6" x2="1065.4" y2="359.6"/>
		<line class="st17" x1="943.2" y1="376.5" x2="1065.4" y2="376.5"/>
		<line class="st17" x1="943.2" y1="341.8" x2="1060.5" y2="341.8"/>
		<line class="st17" x1="943.2" y1="394" x2="1065.4" y2="394"/>
	</g>
	<rect x="925.2" y="289.2" class="st16" width="506.1" height="204.1"/>
	<g>
		<line class="st17" x1="944.8" y1="309.9" x2="1407.5" y2="309.9"/>
		<line class="st17" x1="944.8" y1="326.2" x2="1407.5" y2="326.2"/>
		<line class="st17" x1="944.8" y1="361.8" x2="1407.5" y2="361.8"/>
		<line class="st17" x1="944.8" y1="378.7" x2="1407.5" y2="378.7"/>
		<line class="st17" x1="944.8" y1="413.7" x2="1407.5" y2="413.7"/>
		<line class="st17" x1="944.8" y1="344" x2="1407.5" y2="344"/>
		<line class="st17" x1="944.8" y1="396.2" x2="1407.5" y2="396.2"/>
		<line class="st17" x1="944.8" y1="431.2" x2="1407.5" y2="431.2"/>
		<line class="st17" x1="944.8" y1="466.3" x2="1407.5" y2="466.3"/>
		<line class="st17" x1="944.8" y1="448.8" x2="1407.5" y2="448.8"/>
	</g>
	<rect x="1257.4" y="289.2" class="st47" width="173.8" height="204.1"/>
	<rect x="1080.1" y="289.2" class="st15" width="104.2" height="204.7"/>
	<circle class="st48" cx="1326.6" cy="390.8" r="80.9"/>
</g>
<g>
	<g>
		<rect x="127.1" y="208.8" class="st0" width="561.9" height="371.7"/>
		<rect x="127.1" y="208.8" class="st1" width="561.9" height="308.2"/>
	</g>
	<rect x="153.7" y="235.5" class="st16" width="495.2" height="255.6"/>
	<g>
		<g>
			<g>
				<defs>
					<rect id="SVGID_79_" x="178.3" y="251.1" width="156.6" height="32.9"/>
				</defs>
				<clipPath id="SVGID_80_">
					<use xlink:href="#SVGID_79_"  style="overflow:visible;"/>
				</clipPath>
				<g class="st49">
					<g>
						<defs>
							<rect id="SVGID_81_" x="178.3" y="251.1" width="156.6" height="32.9"/>
						</defs>
						<clipPath id="SVGID_82_">
							<use xlink:href="#SVGID_81_"  style="overflow:visible;"/>
						</clipPath>
						<path class="st50" d="M184.7,273.8c-0.3-0.9-0.4-1.9-0.4-3.4s0.1-2.5,0.4-3.4c0.8-2.4,2.9-3.8,5.6-3.8c2,0,3.6,0.8,4.7,2.1
							c0.1,0.1,0.1,0.3,0,0.4l-1.8,1.6c-0.1,0.1-0.3,0.1-0.4-0.1c-0.7-0.8-1.4-1.2-2.5-1.2c-1.2,0-2.1,0.6-2.5,1.8
							c-0.2,0.7-0.3,1.5-0.3,2.5c0,1.1,0.1,1.9,0.3,2.6c0.4,1.2,1.3,1.8,2.5,1.8c1.1,0,1.8-0.4,2.5-1.2c0.1-0.1,0.3-0.1,0.4,0
							l1.8,1.6c0.1,0.1,0.1,0.3,0,0.4c-1.1,1.3-2.7,2.1-4.7,2.1C187.5,277.6,185.5,276.2,184.7,273.8"/>
					</g>
					<g>
						<defs>
							<rect id="SVGID_83_" x="178.3" y="251.1" width="156.6" height="32.9"/>
						</defs>
						<clipPath id="SVGID_84_">
							<use xlink:href="#SVGID_83_"  style="overflow:visible;"/>
						</clipPath>
						<path class="st51" d="M246.3,273.8c-0.3-0.9-0.4-1.9-0.4-3.4s0.1-2.5,0.4-3.4c0.8-2.4,2.9-3.8,5.6-3.8c2,0,3.6,0.8,4.7,2.1
							c0.1,0.1,0.1,0.3,0,0.4l-1.8,1.6c-0.1,0.1-0.3,0.1-0.4-0.1c-0.7-0.8-1.4-1.2-2.5-1.2c-1.2,0-2.1,0.6-2.5,1.8
							c-0.2,0.7-0.3,1.5-0.3,2.5c0,1.1,0.1,1.9,0.3,2.6c0.4,1.2,1.3,1.8,2.5,1.8c1.1,0,1.8-0.4,2.5-1.2c0.1-0.1,0.3-0.1,0.4,0
							l1.8,1.6c0.1,0.1,0.1,0.3,0,0.4c-1.1,1.3-2.7,2.1-4.7,2.1C249.1,277.6,247.1,276.2,246.3,273.8"/>
					</g>
					<g>
						<defs>
							<rect id="SVGID_85_" x="178.3" y="251.1" width="156.6" height="32.9"/>
						</defs>
						<clipPath id="SVGID_86_">
							<use xlink:href="#SVGID_85_"  style="overflow:visible;"/>
						</clipPath>
						<path class="st52" d="M317.5,277.2c-0.2,0-0.3-0.1-0.3-0.3V269c0-1.8-0.9-3-2.6-3c-1.6,0-2.6,1.2-2.6,3v7.9
							c0,0.2-0.1,0.3-0.3,0.3h-2.6c-0.2,0-0.3-0.1-0.3-0.3V269c0-1.8-0.9-3-2.6-3c-1.6,0-2.6,1.2-2.6,3v7.9c0,0.2-0.1,0.3-0.3,0.3
							h-2.6c-0.2,0-0.3-0.1-0.3-0.3v-13.2c0-0.2,0.1-0.3,0.3-0.3h2.6c0.2,0,0.3,0.1,0.3,0.3v1l0,0c0.6-0.9,1.8-1.6,3.6-1.6
							c1.6,0,2.9,0.7,3.7,1.8l0,0c1-1.1,2.4-1.8,4.3-1.8c3.2,0,4.9,2.2,4.9,5.1v8.7c0,0.2-0.1,0.3-0.3,0.3L317.5,277.2L317.5,277.2z
							"/>
					</g>
					<g>
						<defs>
							<rect id="SVGID_87_" x="178.3" y="251.1" width="156.6" height="32.9"/>
						</defs>
						<clipPath id="SVGID_88_">
							<use xlink:href="#SVGID_87_"  style="overflow:visible;"/>
						</clipPath>
						<path class="st53" d="M324.2,282.4c-0.2,0-0.3-0.1-0.3-0.3v-2.3c0-0.2,0.1-0.3,0.3-0.3h0.5c1.1,0,1.6-0.5,2-1.6l0.4-1.2
							l-5-12.9c-0.1-0.2,0.1-0.3,0.2-0.3h2.8c0.2,0,0.3,0.1,0.3,0.3l3.1,9h0.1l2.9-9c0.1-0.2,0.2-0.3,0.3-0.3h2.7
							c0.2,0,0.3,0.1,0.2,0.3l-5.2,14.3c-1.2,3.2-2.3,4.3-4.6,4.3H324.2z"/>
					</g>
					<g>
						<defs>
							<rect id="SVGID_89_" x="178.3" y="251.1" width="156.6" height="32.9"/>
						</defs>
						<clipPath id="SVGID_90_">
							<use xlink:href="#SVGID_89_"  style="overflow:visible;"/>
						</clipPath>
						<path class="st54" d="M205.7,272.9c0.2-0.7,0.3-1.4,0.3-2.5c0-1.2-0.1-1.8-0.3-2.5c-0.4-1.1-1.3-1.8-2.5-1.8
							c-1.3,0-2.2,0.7-2.6,1.8c-0.2,0.7-0.3,1.4-0.3,2.5c0,1.2,0.1,1.8,0.3,2.5c0.4,1.1,1.3,1.8,2.6,1.8
							C204.5,274.7,205.3,274.1,205.7,272.9 M197.6,273.8c-0.3-1-0.5-1.9-0.5-3.4s0.1-2.4,0.5-3.4c0.8-2.4,2.8-3.8,5.6-3.8
							c2.7,0,4.8,1.4,5.6,3.8c0.3,1,0.5,1.9,0.5,3.4s-0.1,2.4-0.5,3.4c-0.8,2.4-2.8,3.8-5.6,3.8
							C200.4,277.6,198.3,276.2,197.6,273.8"/>
					</g>
					<g>
						<defs>
							<rect id="SVGID_91_" x="178.3" y="251.1" width="156.6" height="32.9"/>
						</defs>
						<clipPath id="SVGID_92_">
							<use xlink:href="#SVGID_91_"  style="overflow:visible;"/>
						</clipPath>
						<path class="st55" d="M264.1,263.2c-2.2,0-3.7,0.5-4.8,1.3c-0.1,0.1-0.1,0.2-0.1,0.4l1,1.9c0.1,0.1,0.3,0.2,0.4,0.1
							c0.6-0.5,1.6-0.9,3.1-0.9c2.2,0,3,0.7,3,2.2l0,0v0.1v4.4c0,1.6-1.1,2.3-3,2.3c-1.5,0-2.3-0.6-2.3-1.7c0-1.3,0.9-1.9,2.9-1.9
							h0.6c0.2,0,0.3-0.1,0.3-0.3v-1.8c0-0.2-0.1-0.3-0.3-0.3h-0.1h-1c-3.4,0-5.4,1.4-5.4,4.4c0,2.9,2.1,4.2,4.6,4.2
							c1.9,0,3.2-0.7,3.8-1.6l0,0v1c0,0.2,0.1,0.3,0.3,0.3h2.4c0.2,0,0.3-0.1,0.3-0.3v-9C269.8,264.6,268.3,263.2,264.1,263.2"/>
					</g>
					<g>
						<defs>
							<rect id="SVGID_93_" x="178.3" y="251.1" width="156.6" height="32.9"/>
						</defs>
						<clipPath id="SVGID_94_">
							<use xlink:href="#SVGID_93_"  style="overflow:visible;"/>
						</clipPath>
						<path class="st56" d="M230.5,269c-0.1,0-0.1,0-0.1,0.1v0.1v0.2v1.5v0.2v0.1c0,0.1,0,0.1,0.1,0.1h0.1h6.9
							c0.2,0,0.3-0.1,0.3-0.3c0-2.2-0.1-3.2-0.5-4.1c-0.8-2.3-2.8-3.8-5.6-3.8c-2.7,0-4.8,1.4-5.6,3.8c-0.3,0.9-0.5,2-0.5,3.4
							s0.2,2.5,0.5,3.4c0.8,2.4,2.8,3.8,5.7,3.8c2.5,0,4.4-1,5.6-2.3c0.1-0.1,0.1-0.3,0-0.4l-1.7-1.5c-0.1-0.1-0.3-0.1-0.4,0.1
							c-0.7,0.7-1.7,1.3-3.2,1.3s-2.6-0.7-3-2.1c-0.1-0.2-0.1-0.4-0.2-0.6c-0.1-0.6-0.2-1.1-0.2-2c0-0.8,0.1-1.3,0.2-1.9l0,0l0,0
							l0,0c0-0.1,0.1-0.3,0.1-0.4c0.4-1.1,1.4-1.8,2.7-1.8s2.3,0.7,2.6,1.8c0.1,0.3,0.2,0.7,0.2,1.2c0,0.1-0.1,0.2-0.2,0.2h-3.7l0,0
							h-0.1V269z"/>
					</g>
					<g>
						<defs>
							<rect id="SVGID_95_" x="178.3" y="251.1" width="156.6" height="32.9"/>
						</defs>
						<clipPath id="SVGID_96_">
							<use xlink:href="#SVGID_95_"  style="overflow:visible;"/>
						</clipPath>
						<path class="st57" d="M223.1,257.9h-2.6c-0.2,0-0.3,0.1-0.3,0.3v6.7v5.5l0,0l0,0v0.7l0,0c0,0.8-0.1,1.3-0.3,1.8
							c-0.4,1.1-1.2,1.8-2.5,1.8s-2.1-0.6-2.5-1.8c-0.2-0.6-0.3-1.3-0.3-2.6c0-1.2,0.1-1.9,0.3-2.6c0.4-1.1,1.2-1.7,2.4-1.8h1.1
							c0.1,0,0.1-0.1,0.1-0.1v-2.6c0-0.1,0-0.1-0.1-0.1h-0.9h-1l0,0c-2.3,0-3.9,1.1-4.6,3.3c-0.3,1.1-0.5,2-0.5,3.9
							c0,1.8,0.1,2.8,0.5,3.9c0.7,2.2,2.4,3.3,4.7,3.3c1.8,0,3-0.7,3.6-1.6l0,0v1c0,0.2,0.1,0.3,0.3,0.3h2.6c0.2,0,0.3-0.1,0.3-0.3
							v-18.8C223.4,258,223.3,257.9,223.1,257.9"/>
					</g>
					<g>
						<defs>
							<rect id="SVGID_97_" x="178.3" y="251.1" width="156.6" height="32.9"/>
						</defs>
						<clipPath id="SVGID_98_">
							<use xlink:href="#SVGID_97_"  style="overflow:visible;"/>
						</clipPath>
						<path class="st58" d="M291,269c-0.1,0-0.1,0-0.1,0.1v0.1v0.2v1.5v0.2v0.1c0,0.1,0,0.1,0.1,0.1h0.1h6.9c0.2,0,0.3-0.1,0.3-0.3
							c0-2.2-0.1-3.2-0.5-4.1c-0.8-2.3-2.8-3.8-5.6-3.8c-2.7,0-4.8,1.4-5.6,3.8c-0.3,0.9-0.5,2-0.5,3.4s0.2,2.5,0.5,3.4
							c0.8,2.4,2.8,3.8,5.7,3.8c2.5,0,4.4-1,5.6-2.3c0.1-0.1,0.1-0.3,0-0.4l-1.7-1.5c-0.1-0.1-0.3-0.1-0.4,0.1
							c-0.7,0.7-1.7,1.3-3.2,1.3s-2.6-0.7-3-2.1c-0.1-0.2-0.1-0.4-0.2-0.6c-0.1-0.6-0.2-1.1-0.2-2c0-0.8,0.1-1.3,0.2-1.9l0,0l0,0
							l0,0c0-0.1,0.1-0.3,0.1-0.4c0.4-1.1,1.4-1.8,2.7-1.8c1.3,0,2.3,0.7,2.6,1.8c0.1,0.3,0.2,0.7,0.2,1.2c0,0.1-0.1,0.2-0.2,0.2
							h-3.7l0,0H291V269z"/>
					</g>
					<g>
						<defs>
							<rect id="SVGID_99_" x="178.3" y="251.1" width="156.6" height="32.9"/>
						</defs>
						<clipPath id="SVGID_100_">
							<use xlink:href="#SVGID_99_"  style="overflow:visible;"/>
						</clipPath>
						<path class="st59" d="M283.7,257.9h-2.6c-0.2,0-0.3,0.1-0.3,0.3v6.7v5.5l0,0l0,0v0.7l0,0c0,0.8-0.1,1.3-0.3,1.8
							c-0.4,1.1-1.2,1.8-2.5,1.8s-2.1-0.6-2.5-1.8c-0.2-0.6-0.3-1.3-0.3-2.6s0.1-1.9,0.3-2.6c0.4-1.1,1.2-1.7,2.4-1.8h1.1
							c0.2,0,0.3-0.1,0.3-0.3v-2.3c0-0.2-0.1-0.3-0.3-0.3h-0.1h-1.7l0,0l0,0l0,0l0,0c-2.3,0-3.9,1.1-4.6,3.3c-0.3,1.1-0.5,2-0.5,3.9
							s0.1,2.8,0.5,3.9c0.7,2.2,2.4,3.3,4.7,3.3c1.8,0,3-0.7,3.6-1.6l0,0v1c0,0.2,0.1,0.3,0.3,0.3h2.6c0.2,0,0.3-0.1,0.3-0.3V258
							C284,258,283.9,257.9,283.7,257.9"/>
					</g>
					<g>
						<defs>
							<rect id="SVGID_101_" x="178.3" y="251.1" width="156.6" height="32.9"/>
						</defs>
						<clipPath id="SVGID_102_">
							<use xlink:href="#SVGID_101_"  style="overflow:visible;"/>
						</clipPath>
						<path class="st60" d="M246.1,281.1v2.6c0,0.2,0.1,0.3,0.3,0.3h9.6c0.2,0,0.3-0.1,0.3-0.3v-2.6c0-0.2-0.1-0.3-0.3-0.3h-9.6
							C246.2,280.8,246.1,281,246.1,281.1"/>
					</g>
					<g>
						<defs>
							<rect id="SVGID_103_" x="178.3" y="251.1" width="156.6" height="32.9"/>
						</defs>
						<clipPath id="SVGID_104_">
							<use xlink:href="#SVGID_103_"  style="overflow:visible;"/>
						</clipPath>
						<path class="st61" d="M181.8,280.8C181.7,280.8,181.7,280.8,181.8,280.8C181.7,280.8,181.7,280.8,181.8,280.8
							c-0.1,0-0.1,0-0.1,0l0,0c-0.1,0-0.2-0.1-0.2-0.3V257v-2.6c0-0.1,0.1-0.2,0.2-0.3l0,0c0,0,0,0,0.1,0c0,0,0,0,0.1,0h58.5
							c0,0,0,0,0.1,0l0,0l0,0l0,0c0.1,0,0.2,0.1,0.2,0.3v26c0,0.1-0.1,0.2-0.2,0.3l0,0l0,0l0,0c0,0,0,0-0.1,0h-58.6V280.8z
							 M243.6,251.2L243.6,251.2L243.6,251.2c-0.1-0.1-0.1-0.1-0.2-0.1l0,0h-64.8c0,0,0,0-0.1,0l0,0l0,0l0,0c-0.1,0-0.2,0.1-0.2,0.3
							l0,0v32.4l0,0c0,0.1,0,0.2,0.1,0.2l0,0l0,0c0,0,0.1,0,0.2,0h64.8l0,0c0.1,0,0.2,0,0.2-0.1c0,0,0.1-0.1,0.1-0.2l0,0v-32.4l0,0
							C243.7,251.3,243.7,251.2,243.6,251.2"/>
					</g>
				</g>
			</g>
		</g>
	</g>
	<rect x="178.3" y="307.8" class="st48" width="444.6" height="160.1"/>
	<rect x="197.9" y="326" class="st16" width="403.6" height="18.2"/>
	<rect x="197.9" y="360.6" class="st16" width="403.6" height="18.2"/>
	<rect x="197.9" y="396.6" class="st16" width="403.6" height="18.2"/>
	<rect x="197.9" y="432.8" class="st16" width="403.6" height="18.2"/>
</g>
<rect x="125.8" y="618.4" class="st62" width="562.6" height="30.9"/>
<g>
	<rect x="341.7" y="472.1" class="st63" width="132.9" height="166.8"/>
	<path class="st63" d="M300.6,423.6c0,59.3,48.1,107.4,107.4,107.4s107.4-48.1,107.4-107.4v-60.2c0-59.3-48.1-107.4-107.4-107.4
		s-107.4,48-107.4,107.4V423.6z"/>
	<path class="st64" d="M274,419.4c0,7.4,6,13.4,13.4,13.4s13.4-6,13.4-13.4v-50.9c0-7.4-6-13.4-13.4-13.4s-13.4,6-13.4,13.4V419.4z"
		/>
	<path class="st64" d="M514.7,423c0,7.4,6,13.4,13.4,13.4s13.4-6,13.4-13.4v-50.9c0-7.4-6-13.4-13.4-13.4s-13.4,6-13.4,13.4V423z"/>
</g>
<path class="st63" d="M190.5,649.2c31.8-61.9,45.9-102.5,102.5-102.5h227.4c56.6,0,72,30.1,102.5,102.5"/>
<g>
	<path class="st1" d="M293,423.6c0,59.3,52.2,117.6,115.1,117.6s112.8-58.3,112.8-117.6v-60.2c0-59.3-51-107.4-114-107.4
		S293,304,293,363.4V423.6z"/>
	<path class="st1" d="M422,577.3l9.8,40.5h26.9c0-25.8-22.2-80.3-49.6-80.3s-49.6,54.5-49.6,80.3h61.9L422,577.3z"/>
	<line class="st65" x1="393.9" y1="541.1" x2="422.8" y2="541.1"/>
</g>
<path class="st66" d="M289.7,546.8h35.1l0.4,82.6l158.7,0.6l-0.4-83.3h35.6c0,0.1,8.8,102.5,8.8,102.5H280.4
	C280.4,649.2,290.3,547.3,289.7,546.8z"/>
<rect x="895.3" y="1159.9" class="st62" width="562.6" height="30.9"/>
<rect x="125.8" y="1162.5" class="st62" width="562.6" height="30.9"/>
<rect x="899.2" y="622.7" class="st62" width="562.6" height="30.9"/>
<g>
	<rect x="1117.3" y="1012.4" class="st67" width="133.9" height="168.1"/>
	<path class="st67" d="M1075.9,963.5c0,59.8,48.5,108.3,108.3,108.3s108.3-48.5,108.3-108.3v-60.7c0-59.8-48.5-108.3-108.3-108.3
		s-108.3,48.5-108.3,108.3V963.5z"/>
	<path class="st68" d="M1049.1,959.2c0,7.5,6,13.5,13.5,13.5s13.5-6,13.5-13.5V908c0-7.5-6-13.5-13.5-13.5s-13.5,6-13.5,13.5V959.2z
		"/>
	<path class="st68" d="M1291.8,962.9c0,7.5,6,13.5,13.5,13.5s13.5-6,13.5-13.5v-51.3c0-7.5-6-13.5-13.5-13.5s-13.5,6-13.5,13.5
		V962.9z"/>
	<path class="st69" d="M965,1190.9c32.1-62.4,46.2-103.3,103.3-103.3h229.2c57,0,72.6,30.4,103.3,103.3"/>
	<path class="st48" d="M1400.8,1191.9c-30.7-72.9-46.2-103.3-103.3-103.3h-229.2c-57,0-71.2,40.9-103.3,103.3"/>
	<path class="st70" d="M1075.9,963.5c0,34.5,16.2,65.3,41.4,85.1c18.4,14.5,41.6,23.1,66.9,23.1c24.7,0,47.5-8.3,65.7-22.2
		c25.9-19.8,42.6-51,42.6-86.1v-60.7c0-59.8-48.5-108.3-108.3-108.3s-108.3,48.5-108.3,108.3L1075.9,963.5L1075.9,963.5z"/>
	<path class="st71" d="M1292.5,902.8c0-59.8-48.5-108.3-108.3-108.3s-108.3,48.5-108.3,108.3l106.9,53.6L1292.5,902.8z"/>
	<path class="st71" d="M1170,999.2l-9.8,40.5h-26.9c0-25.8,22.2-80.3,49.6-80.3s49.6,54.5,49.6,80.3h-61.9L1170,999.2z"/>
	<line class="st72" x1="1170.6" y1="956.3" x2="1193.2" y2="956.3"/>
</g>
<g>
	<g>
		<rect x="344.4" y="1016.2" class="st63" width="132.9" height="166.8"/>
		<path class="st63" d="M303.4,967.7c0,59.3,48.1,107.4,107.4,107.4s107.4-48.1,107.4-107.4v-60.2c0-59.3-48.1-107.4-107.4-107.4
			s-107.4,48.1-107.4,107.4L303.4,967.7L303.4,967.7z"/>
		<path class="st68" d="M276.8,980.5c0,7.4,6,13.4,13.4,13.4s13.4-6,13.4-13.4v-50.9c0-7.4-6-13.4-13.4-13.4s-13.4,6-13.4,13.4
			V980.5z"/>
		<path class="st68" d="M517.5,984.2c0,7.4,6,13.4,13.4,13.4s13.4-6,13.4-13.4v-50.9c0-7.4-6-13.4-13.4-13.4s-13.4,6-13.4,13.4
			V984.2z"/>
	</g>
	<path class="st73" d="M193.3,1193.3c31.8-61.9,45.9-102.5,102.5-102.5h227.4c56.6,0,72,30.1,102.5,102.5"/>
	<path class="st66" d="M295.8,967.7c0,59.3,52.2,117.6,115.1,117.6s112.8-58.3,112.8-117.6v-60.2c0-59.3-51-107.4-114-107.4
		s-114,48.1-114,107.4L295.8,967.7L295.8,967.7z"/>
	<g>
		<g>
			<defs>
				<path id="SVGID_105_" d="M193.3,1193.4c31.8-61.9,45.8-102.5,102.4-102.5l227.4-0.2c56.6,0,72,30.1,102.5,102.4"/>
			</defs>
			<clipPath id="SVGID_106_">
				<use xlink:href="#SVGID_105_"  style="overflow:visible;"/>
			</clipPath>
			<rect x="151.4" y="1171.8" class="st74" width="507.3" height="21.5"/>
		</g>
		<g>
			<defs>
				<path id="SVGID_107_" d="M193.3,1193.4c31.8-61.9,45.8-102.5,102.4-102.5l227.4-0.2c56.6,0,72,30.1,102.5,102.4"/>
			</defs>
			<clipPath id="SVGID_108_">
				<use xlink:href="#SVGID_107_"  style="overflow:visible;"/>
			</clipPath>
			<rect x="151.4" y="1131.3" class="st75" width="507.3" height="21.5"/>
		</g>
		<g>
			<defs>
				<path id="SVGID_109_" d="M193.3,1193.4c31.8-61.9,45.8-102.5,102.4-102.5l227.4-0.2c56.6,0,72,30.1,102.5,102.4"/>
			</defs>
			<clipPath id="SVGID_110_">
				<use xlink:href="#SVGID_109_"  style="overflow:visible;"/>
			</clipPath>
			<rect x="151.4" y="1090.8" class="st76" width="507.3" height="21.5"/>
		</g>
	</g>
	<polygon class="st66" points="295.8,942.8 295.8,1139.9 409.5,1162.5 523.7,1139.9 523.7,1050.5 523.7,994.3 523.7,916.3 	"/>
</g>
<path class="st77" d="M1117.4,1087.4v-39c-25.2-19.8-41.4-50.6-41.4-85.1v-60.7c0-59.8,48.5-108.3,108.3-108.3
	s108.3,48.5,108.3,108.3v60.7c0,35.1-16.7,66.3-42.6,86.1v38.1"/>
<line class="st78" x1="474.5" y1="517.3" x2="474.5" y2="546.8"/>
<line class="st78" x1="341.7" y1="517.3" x2="341.7" y2="546.8"/>
<path class="st78" d="M474.5,546.8h45.9c56.6,0,72,30.1,102.5,102.5"/>
<path class="st78" d="M190.5,649.2c31.8-61.9,45.9-102.5,102.5-102.5h48.7"/>
<path class="st79" d="M1243.2,1099c-5.8,2.9-24.5,1.8-24.5,1.8h-36.6H1146c0,0-20.9,0.3-27.1-2.8c-3.5-1.8-10.5-10.6-10.5-10.6H1255
	C1254.9,1087.4,1246.9,1097.2,1243.2,1099z"/>
<path class="st78" d="M1400.8,1190.6c-30.7-72.9-46.2-103.3-103.3-103.3h-47.6"/>
<path class="st78" d="M1117.4,1087.4h-49c-57,0-71.2,40.9-103.3,103.3"/>
<path class="st78" d="M523.7,1090.7v-123v-60.2c0-59.3-51-107.4-114-107.4s-114,48.1-114,107.4v60.2v123.1"/>
<path class="st78" d="M523.4,1090.9c56.5,0.1,71.9,30.2,102.3,102.5"/>
<path class="st78" d="M193.3,1193.3c31.8-61.9,45.9-102.5,102.5-102.5"/>
<g>
	<rect x="1112.2" y="479.4" class="st69" width="133.9" height="168.1"/>
	<path class="st69" d="M1071.7,430.5c0,59.8,48.5,108.3,108.3,108.3s108.3-48.5,108.3-108.3v-60.7c0-59.8-48.5-108.3-108.3-108.3
		s-108.3,48.5-108.3,108.3V430.5z"/>
	<path class="st80" d="M1280.6,447.7c0,7.5,6,13.5,13.5,13.5s13.5-6,13.5-13.5v-51.3c0-7.5-6-13.5-13.5-13.5s-13.5,6-13.5,13.5
		V447.7z"/>
	<path class="st80" d="M1051.9,447.7c0,7.5,6,13.5,13.5,13.5s13.5-6,13.5-13.5v-51.3c0-7.5-6-13.5-13.5-13.5s-13.5,6-13.5,13.5
		V447.7z"/>
	<path class="st73" d="M1312.7,387.4c-7.5,7.5-5.8,16.1,0.4,23.7c3.4,3.9,1.7,9.8,0.3,12.1c-7.5,12.2-27.2,13.8-23,31.9
		c0.7,2.4,1.9,4.8,3,7.1c3.3,7.1,6,14.2,5,22.2c-3.4,21.4-21,10.8-36.6,16.2c-2,0.8-7.6,2.8-7.8,5.3c-0.6,2.4-7.9,8.9-8.2,11.3
		c-0.2,2.5,2.5,16.9-12.8,16.9c-13.3,0-8.8-12.8-24.9-12.3c-14.2,0.5-13.9,12.3-26.6,12.3c-15.2,0-16.4-11.8-24.8-12.3
		c-15.9-1.1-12.2,10.6-25.3,11.2c-15.4,0.8-22.3-30.6-29.7-31.2c-2.3-0.2-4.5,0.6-6.7,0.7c-6.6,0.3-19,0-21.7-8.4
		c-3.2-10.2,4-22.4,2.5-32.6c-0.4-2.6-0.9-5.1-1.5-7.5c-4.5-14.7-18.8-18.5-28.3-28.5c-2.7-3.1-4.1-7.7-3.4-12.2
		c1.4-4.3,3.4-8.2,5.6-11.8c1.1-1.8,2.3-3.6,3.4-5.4c10.1-12.6-0.8-27.1-2.2-40.9c-1.4-12.8,7.3-18,15.4-24c2-1.5,4-3,5.7-4.9
		c2.1-2.5,2.1-4.8,2.8-7.9c1.4-13-8.2-31.4,4.1-39.8c5.4-3.8,11.7-2.9,18.2-1.9c2.1,0.3,4.3,0.6,6.4,0.8c4-0.4,7.4-2,10.1-5.8
		c6.1-10.7,6.8-31.4,21.1-29.9c4.3,0.5,8.2,2.5,12.1,4.8c1.9,1.1,3.8,2.3,5.7,3c12.8,4.5,17.6-13.2,26.5-20
		c3.4-2.3,8.2-1.5,10.9,1.5c1.5,2,2.9,4.1,4.2,6.3c1.4,2.1,2.7,4.2,4.1,6.3c7.3,11.2,20.3,5,30.5,2.7c7.5-2.3,12.3,4.6,15,11.5
		c0.6,1.5,1,3.1,1.4,4.7c3.4,22.1,25.8,8.3,38.8,15.2c1.4,0.8,2.7,3.1,3.4,4.6c1.4,12.2,0,26.8,11.6,32.9c1.7,1.2,3,2.7,4,4.5
		c0.9,1.8,1.4,3.9,1.4,6.2c-0.3,2-0.9,4-1.6,6c-0.7,1.9-1.5,3.8-2.4,5.7c-2.1,4.4-3.5,9.7-1.4,14.3c5.4,10.7,23.1,16.1,18.3,30.8
		C1314.6,384.3,1313.7,385.9,1312.7,387.4z"/>
	<path class="st47" d="M960.1,653.6c32.1-62.4,46.2-103.3,103.3-103.3h229.2c57,0,72.6,30.4,103.3,103.3"/>
	<path class="st77" d="M1113.1,550.3v-34.7l-11.5-13.8c-2.3,0.3-4.5,0.6-6.7,0.7c-6.6,0.3-19,0-21.7-8.4c-3.2-10.2,4-22.4,2.5-32.6
		c-0.4-2.6-0.9-5.1-1.5-7.5c-4.5-14.7-18.8-18.5-28.3-28.5c-2.7-3.1-4.1-7.7-3.4-12.2c1.4-4.3,3.4-8.2,5.6-11.8
		c1.1-1.8,2.3-3.6,3.4-5.4c10.1-12.6-0.8-27.1-2.2-40.9c-1.4-12.8,7.3-18,15.4-24c2-1.5,4-3,5.7-4.9c2.1-2.5,2.1-4.8,2.8-7.9
		c1.4-13-8.2-31.4,4.1-39.8c5.4-3.8,11.7-2.9,18.2-1.9c2.1,0.3,4.3,0.6,6.4,0.8c4-0.4,7.4-2,10.1-5.8c6.1-10.7,6.8-31.4,21.1-29.9
		c4.3,0.5,8.2,2.5,12.1,4.8c1.9,1.1,3.8,2.3,5.7,3c12.8,4.5,17.6-13.2,26.5-20c3.4-2.3,8.2-1.5,10.9,1.5c1.5,2,2.9,4.1,4.2,6.3
		c1.4,2.1,2.7,4.2,4.1,6.3c7.3,11.2,20.3,5,30.5,2.7c7.5-2.3,12.3,4.6,15,11.5c0.6,1.5,1,3.1,1.4,4.7c3.4,22.1,25.8,8.3,38.8,15.2
		c1.4,0.8,2.7,3.1,3.4,4.6c1.4,12.2,0,26.8,11.6,32.9c1.7,1.2,3,2.7,4,4.5c0.9,1.8,1.4,3.9,1.4,6.2c-0.3,2-0.9,4-1.6,6
		c-0.7,1.9-1.5,3.8-2.4,5.7c-2.1,4.4-3.5,9.7-1.4,14.3c5.4,10.7,23.1,16.1,18.3,30.8c-0.7,1.5-1.6,3-2.6,4.6
		c-7.5,7.5-5.8,16.1,0.4,23.7c3.4,3.9,1.7,9.8,0.3,12.1c-7.5,12.2-27.2,13.8-23,31.9c0.7,2.4,1.9,4.8,3,7.1c3.3,7.1,6,14.2,5,22.2
		c0,0,2.2,20.2-32.4,11.8l-20.2,20.9v33.1"/>
	<g>
		<g>
			<defs>
				<path id="SVGID_111_" d="M959,653.9c31.8-62.4,45.8-103.2,102.4-103.3l227.4-0.2c56.6,0,72,30.3,102.5,103.1"/>
			</defs>
			<clipPath id="SVGID_112_">
				<use xlink:href="#SVGID_111_"  style="overflow:visible;"/>
			</clipPath>
			<rect x="917.1" y="632.1" class="st81" width="507.3" height="21.8"/>
		</g>
		<g>
			<defs>
				<path id="SVGID_113_" d="M959,653.9c31.8-62.4,45.8-103.2,102.4-103.3l227.4-0.2c56.6,0,72,30.3,102.5,103.1"/>
			</defs>
			<clipPath id="SVGID_114_">
				<use xlink:href="#SVGID_113_"  style="overflow:visible;"/>
			</clipPath>
			<rect x="917.1" y="591.4" class="st82" width="507.3" height="21.6"/>
		</g>
		<g>
			<defs>
				<path id="SVGID_115_" d="M959,653.9c31.8-62.4,45.8-103.2,102.4-103.3l227.4-0.2c56.6,0,72,30.3,102.5,103.1"/>
			</defs>
			<clipPath id="SVGID_116_">
				<use xlink:href="#SVGID_115_"  style="overflow:visible;"/>
			</clipPath>
			<rect x="917.1" y="550.5" class="st83" width="507.3" height="21.6"/>
		</g>
	</g>
	<path class="st78" d="M960.1,653.6c32.1-62.4,46.2-103.3,103.3-103.3h49.7"/>
	<path class="st78" d="M1245.8,550.3h46.8c57,0,72.6,30.4,103.3,103.3"/>
</g>
<g>
	<circle class="st66" cx="612.2" cy="263.1" r="10.7"/>
	<rect x="573.3" y="252.2" class="st48" width="21.8" height="21.8"/>
	<circle class="st66" cx="650.1" cy="794.5" r="10.7"/>
	<rect x="611.2" y="783.6" class="st48" width="21.8" height="21.8"/>
	<circle class="st66" cx="1422.9" cy="794.5" r="10.7"/>
	<rect x="1384" y="783.6" class="st48" width="21.8" height="21.8"/>
	<circle class="st66" cx="1422.9" cy="252.6" r="10.7"/>
	<rect x="1384" y="241.7" class="st48" width="21.8" height="21.8"/>
</g>
<g>
	<path class="st84" d="M159.5,113.2c7.9,0,13.9-4.3,16.2-11.3h13c-3.5,14-15.7,22.2-29.2,22.2c-17.5,0-31-12.8-31-30.8
		c0-17.9,13.5-30.8,31-30.8c13.4,0,25.7,8.2,29.2,22.2h-13c-2.2-7.1-8.2-11.3-16.2-11.3c-11.2,0-18.7,8.5-18.7,19.9
		S148.3,113.2,159.5,113.2z"/>
	<path class="st84" d="M194.9,108.8V84.2H206v22.6c0,5.4,3.6,7.5,7.5,7.5c4,0,7.5-2.1,7.5-7.5V84.2h11v24.7
		c0,8.2-6.5,15.3-18.4,15.3C201.5,124.1,194.9,117,194.9,108.8z"/>
	<path class="st84" d="M263.7,96.1c-3.1-3.1-7.1-4-9.6-4c-2.9,0-3.9,1.4-3.9,2.6c0,1.4,0.8,2.3,2.9,3l6.5,2c8,2.6,10.7,7,10.7,12.1
		c0,5.7-4.8,12.3-15.5,12.3c-8.6,0-13.9-3.3-17.2-6.1l5.9-7.7c2.8,2.6,7.8,4.8,11.5,4.8c2.6,0,4.3-1.4,4.3-2.9c0-2-1.3-2.8-4.4-3.7
		l-6.6-2c-6.3-2-9-6.3-9-11.4c0-6.4,5.8-12.1,15.1-12.1c5.1,0,11.1,1.5,15.7,5.8L263.7,96.1z"/>
	<path class="st84" d="M291.3,69.4v14.8h8.4v9.4h-8.4v17.6c0,2.5,2,2.8,3.7,2.8c2.8,0,5.1-0.3,5.1-0.3v9.4c0,0-5.4,0.5-8.6,0.5
		c-5.5,0-11.2-0.9-11.2-8.8V93.5h-6.1v-9.4h6.1V69.4H291.3z"/>
	<path class="st84" d="M304.8,103.6c0-11.9,9.3-20.5,20.8-20.5c11.6,0,20.8,8.6,20.8,20.5s-9.3,20.5-20.8,20.5
		C314.1,124.1,304.8,115.5,304.8,103.6z M315.9,103.6c0,6,4,10.6,9.8,10.6c5.7,0,9.7-4.6,9.7-10.6c0-6.1-4-10.6-9.7-10.6
		C319.9,93,315.9,97.5,315.9,103.6z"/>
	<path class="st84" d="M404.7,100.2c0-4.8-3.1-6.8-6.5-6.8c-3.1,0-6,1.8-8.1,4.4V123H379v-22.9c0-4.7-3-6.8-6.5-6.8
		c-3.1,0-6,1.8-8.1,4.4v25.2h-11.1V84.2h10.8v1.5c0,1.4-0.2,3.1-0.2,3.1c2.9-3.6,7.2-5.6,11.6-5.6c5.8,0,10.3,2.5,12.5,7.1
		c3.2-4.5,7.7-7.1,13.1-7.1c8.4,0,14.4,5.4,14.4,14.5v25.5h-11.1v-23H404.7z"/>
	<path class="st84" d="M487.6,73.8h-32.5v13.9h19v10.1h-19V113h32.5v10.1h-44.3V63.6h44.3V73.8z"/>
	<path class="st84" d="M503.8,103.7l-12.3-19.6h12.8l6.9,11.6l7.1-11.6h12.4l-12.3,19.3l12.5,19.6H518l-7.1-11.6l-6.8,11.6h-12.8
		L503.8,103.7z"/>
	<path class="st84" d="M547.4,138h-11.1V84.2h11.1V86c0,1.9-0.2,2.7-0.2,3.1c1.9-3.3,6.5-6,12.3-6c10.7,0,18.9,8.6,18.9,20.5
		s-8.2,20.5-19,20.5c-5.5,0-10.1-2.6-12.1-6L547.4,138L547.4,138z M547.2,103.6c0,6,4.1,10.7,9.9,10.7s9.9-4.8,9.9-10.7
		c0-6-4.1-10.6-9.9-10.6S547.2,97.6,547.2,103.6z"/>
	<path class="st84" d="M623.8,106.9h-29c0.6,4.3,4,7.8,8.9,7.8c3.2,0,6.3-1.4,7.8-4l11.5,1.2c-3.5,8.3-10.8,12.2-19.5,12.2
		c-11.6,0-20.4-8.6-20.4-20.5s8.6-20.5,20.2-20.5c10.7,0,20.4,7,20.4,23.3L623.8,106.9L623.8,106.9z M594.5,99.5H612
		c-0.6-3.9-3.9-7.1-8.6-7.1C598.7,92.3,595.4,95.3,594.5,99.5z"/>
	<path class="st84" d="M654.2,95.1h-4.7c-5.6,0-8.2,2.6-8.2,9.4v18.6h-11.1V84.2H641v6.2c1.5-4.2,5.3-6.7,10.1-6.7
		c1,0,2,0.1,3.1,0.3L654.2,95.1L654.2,95.1z"/>
	<path class="st84" d="M673.7,123.1h-11.1V93.5h-5.4v-9.4h16.5V123.1z M667.7,63.6c4,0,7.1,3.2,7.1,7.1c0,4-3.1,7.1-7.1,7.1
		c-3.9,0-7.1-3.1-7.1-7.1C660.7,66.8,663.8,63.6,667.7,63.6z"/>
	<path class="st84" d="M721.4,106.9h-29c0.6,4.3,4,7.8,8.9,7.8c3.2,0,6.3-1.4,7.8-4l11.5,1.2c-3.5,8.3-10.8,12.2-19.5,12.2
		c-11.6,0-20.4-8.6-20.4-20.5s8.6-20.5,20.2-20.5c10.7,0,20.4,7,20.4,23.3L721.4,106.9L721.4,106.9z M692.2,99.5h17.4
		c-0.6-3.9-3.9-7.1-8.6-7.1C696.4,92.3,693,95.3,692.2,99.5z"/>
	<path class="st84" d="M750.5,83.2c8.4,0,14.5,5.4,14.5,14.5v25.5h-11.1v-22.7c0-4.9-3.1-7-6.6-7c-3.2,0-6.1,1.8-8.2,4.4v25.2H728
		V84.2h10.8v1.5c0,1.4-0.2,3.1-0.2,3.1C741.6,85.1,746,83.2,750.5,83.2z"/>
	<path class="st84" d="M782.6,103.6c0,6.1,4,10.6,9.8,10.6c4.1,0,7.1-2.3,8.6-6l10.4,3.2c-2.5,7.7-10.2,12.6-19,12.6
		c-11.6,0-20.7-8.6-20.7-20.5S780.9,83,792.4,83c8.8,0,16.5,4.9,19,12.7L801,99c-1.4-3.6-4.5-6-8.6-6
		C786.6,93,782.6,97.5,782.6,103.6z"/>
	<path class="st84" d="M856.1,106.9h-29c0.6,4.3,4,7.8,8.9,7.8c3.2,0,6.3-1.4,7.8-4l11.5,1.2c-3.5,8.3-10.8,12.2-19.5,12.2
		c-11.6,0-20.4-8.6-20.4-20.5s8.6-20.5,20.2-20.5c10.7,0,20.4,7,20.4,23.3L856.1,106.9L856.1,106.9z M826.8,99.5h17.4
		c-0.6-3.9-3.9-7.1-8.6-7.1C831,92.3,827.7,95.3,826.8,99.5z"/>
	<path class="st84" d="M885.6,96.1c-3.1-3.1-7.1-4-9.6-4c-2.9,0-3.9,1.4-3.9,2.6c0,1.4,0.8,2.3,2.9,3l6.5,2c8,2.6,10.7,7,10.7,12.1
		c0,5.7-4.8,12.3-15.5,12.3c-8.6,0-13.9-3.3-17.2-6.1l5.9-7.7c2.8,2.6,7.8,4.8,11.5,4.8c2.6,0,4.3-1.4,4.3-2.9c0-2-1.3-2.8-4.4-3.7
		l-6.6-2c-6.3-2-9-6.3-9-11.4c0-6.4,5.8-12.1,15.1-12.1c5.1,0,11.1,1.5,15.7,5.8L885.6,96.1z"/>
	<path class="st84" d="M905.9,109.4c4.3,0,7.7,3.2,7.7,7.4c0,1.2-0.5,3.1-1.1,4.2l-6.7,12.5h-8.9l4.8-10.7c-2-1.3-3.1-3.5-3.1-6
		C898.5,112.7,901.7,109.4,905.9,109.4z"/>
	<path class="st84" d="M971.4,79.4c-3.7-3.6-8.4-6.1-12.6-6.1c-3.9,0-7.5,2-7.5,5.6c0,2.7,1.7,4.8,6.5,7.1l4.9,2.3
		c9.4,4.4,15.1,9.4,15.1,18.3s-7.6,17.6-20.7,17.6c-9,0-15.7-3.5-21.3-8.9l6.5-8.8c4.4,4.5,10,7.1,14.5,7.1c5.1,0,8.2-2.8,8.2-6.5
		c0-4.1-3.7-6.4-9.4-9l-4.2-2c-8-3.7-13-9.2-13-16.7c0-10.5,9.4-16.7,19.9-16.7c6.9,0,13.9,3.4,19.6,8.3L971.4,79.4z"/>
	<path class="st84" d="M1006.8,97.2c0-2.8-2.2-4.6-6.5-4.6c-3.9,0-8.8,2-11.7,3.7l-4.3-8.3c0,0,7.2-4.8,16.7-4.8
		c8.8,0,16.9,4.1,16.9,14.4v25.6h-11.1v-3.7c-2,3.1-6.5,4.7-10.9,4.7c-8.2,0-13.6-5.9-13.6-12.2c0-7.4,5.4-12,14.1-12h7.7
		c1.9,0,2.7-0.8,2.7-2.3L1006.8,97.2L1006.8,97.2z M1006.8,109.2v-2.8c-0.7,0.7-1.9,0.8-3.4,0.8h-4.2c-3.5,0-5.5,1.5-5.5,4.3
		c0,2.6,2.1,4.6,5.5,4.6C1003.2,116.1,1006.8,114,1006.8,109.2z"/>
	<path class="st84" d="M1078.1,100.2c0-4.8-3.1-6.8-6.5-6.8c-3.1,0-6,1.8-8.1,4.4V123h-11.1v-22.9c0-4.7-3-6.8-6.5-6.8
		c-3.1,0-6,1.8-8.1,4.4v25.2h-11.1V84.2h10.8v1.5c0,1.4-0.2,3.1-0.2,3.1c2.9-3.6,7.2-5.6,11.6-5.6c5.8,0,10.3,2.5,12.5,7.1
		c3.2-4.5,7.7-7.1,13.1-7.1c8.4,0,14.4,5.4,14.4,14.5v25.5h-11.1v-23H1078.1z"/>
	<path class="st84" d="M1136.4,106.9h-29c0.6,4.3,4,7.8,8.9,7.8c3.2,0,6.3-1.4,7.8-4l11.5,1.2c-3.5,8.3-10.8,12.2-19.5,12.2
		c-11.6,0-20.4-8.6-20.4-20.5s8.6-20.5,20.2-20.5c10.7,0,20.4,7,20.4,23.3L1136.4,106.9L1136.4,106.9z M1107.2,99.5h17.4
		c-0.6-3.9-3.9-7.1-8.6-7.1C1111.3,92.3,1108,95.3,1107.2,99.5z"/>
	<path class="st84" d="M1200.2,63.6l11.4,42.6h0.1l9.5-42.6h12.1l-14.5,59.5h-13.7l-11.2-42.8l-11,42.8h-13.7l-14.7-59.5h12.8
		l9.2,42.6h0.1l11.4-42.6C1188,63.6,1200.2,63.6,1200.2,63.6z"/>
	<path class="st84" d="M1274.4,106.9h-29c0.6,4.3,4,7.8,8.9,7.8c3.2,0,6.3-1.4,7.8-4l11.5,1.2c-3.5,8.3-10.8,12.2-19.5,12.2
		c-11.6,0-20.4-8.6-20.4-20.5s8.6-20.5,20.2-20.5c10.7,0,20.4,7,20.4,23.3L1274.4,106.9L1274.4,106.9z M1245.1,99.5h17.4
		c-0.6-3.9-3.9-7.1-8.6-7.1C1249.3,92.3,1246,95.3,1245.1,99.5z"/>
	<path class="st84" d="M1291.9,123.1h-11.1V63.6h11.1v19.2c0,2.5-0.2,5.3-0.2,6.4c1.9-3.3,6.5-6,12.3-6c10.7,0,18.9,8.6,18.9,20.5
		s-8.2,20.5-19,20.5c-5.5,0-10.1-2.6-12.1-6L1291.9,123.1L1291.9,123.1z M1291.7,103.6c0,6,4.1,10.7,9.9,10.7s9.9-4.8,9.9-10.7
		c0-6-4.1-10.6-9.9-10.6S1291.7,97.6,1291.7,103.6z"/>
	<path class="st84" d="M1353.1,96.1c-3.1-3.1-7.1-4-9.6-4c-2.9,0-3.9,1.4-3.9,2.6c0,1.4,0.8,2.3,2.9,3l6.5,2c8,2.6,10.7,7,10.7,12.1
		c0,5.7-4.8,12.3-15.5,12.3c-8.6,0-13.9-3.3-17.2-6.1l5.9-7.7c2.8,2.6,7.8,4.8,11.5,4.8c2.6,0,4.3-1.4,4.3-2.9c0-2-1.3-2.8-4.4-3.7
		l-6.6-2c-6.3-2-9-6.3-9-11.4c0-6.4,5.8-12.1,15.1-12.1c5.1,0,11.1,1.5,15.7,5.8L1353.1,96.1z"/>
	<path class="st84" d="M1380,123.1h-11V93.5h-5.4v-9.4h16.5L1380,123.1L1380,123.1z M1374,63.6c4,0,7.1,3.2,7.1,7.1
		c0,4-3.1,7.1-7.1,7.1c-3.9,0-7.1-3.1-7.1-7.1C1366.9,66.8,1370.1,63.6,1374,63.6z"/>
	<path class="st84" d="M1403.5,69.4v14.8h8.4v9.4h-8.4v17.6c0,2.5,2,2.8,3.7,2.8c2.8,0,5.1-0.3,5.1-0.3v9.4c0,0-5.4,0.5-8.6,0.5
		c-5.5,0-11.2-0.9-11.2-8.8V93.5h-6.1v-9.4h6.1V69.4H1403.5z"/>
	<path class="st84" d="M1457.7,106.9h-29c0.6,4.3,4,7.8,8.9,7.8c3.2,0,6.3-1.4,7.8-4l11.5,1.2c-3.5,8.3-10.8,12.2-19.5,12.2
		c-11.6,0-20.4-8.6-20.4-20.5s8.6-20.5,20.2-20.5c10.7,0,20.4,7,20.4,23.3L1457.7,106.9L1457.7,106.9z M1428.5,99.5h17.4
		c-0.6-3.9-3.9-7.1-8.6-7.1C1432.6,92.3,1429.3,95.3,1428.5,99.5z"/>
</g>
</svg>
