<svg xmlns="http://www.w3.org/2000/svg" viewBox="0 0 675 675"><defs><style>.cls-1{fill:#fff;}.cls-2{fill:#333;}.cls-3{fill:#ff8b00;}</style></defs><g id="Layer_2" data-name="Layer 2"><g id="Layer_1-2" data-name="Layer 1"><rect class="cls-1" width="675" height="675" rx="99"/><path class="cls-2" d="M625.3,146V336.6a7.1,7.1,0,0,1-3.9,6.4,8.1,8.1,0,0,1-3.6.8,7.4,7.4,0,0,1-6.7-4A657.7,657.7,0,0,0,492.6,180.2,663.3,663.3,0,0,0,331.9,62.6c-3.2-1.6-3.8-6-3-7.6s2.7-5.6,6.3-5.6H527C581.1,49.4,625.3,92.2,625.3,146Z"/><path class="cls-2" d="M358.5,617.1a25.8,25.8,0,0,1-19.4,8.8H147.5c-54.1,0-98.2-43.7-98.2-97.4V338.3A25.7,25.7,0,0,1,78.5,313a335.2,335.2,0,0,1,104.4,32.3,330.1,330.1,0,0,1,86.6,62.1,332.4,332.4,0,0,1,62.6,85.9A328.9,328.9,0,0,1,364.6,597,25,25,0,0,1,358.5,617.1Z"/><path class="cls-3" d="M610.2,579.4c-19.9,30.1-50.2,46.2-84.3,46.2l-52-.2c-24.1,0-45.1-17.7-48.7-41.2C399.3,414.9,262,278.6,91.4,252.9c-23.7-3.6-42-24.4-42-48.4V144.8c0-24.8,12.7-50,29-66.3S111.7,53.4,130.4,56a601.2,601.2,0,0,1,177.5,58.9A599.2,599.2,0,0,1,455.7,222.5,598.8,598.8,0,0,1,564.2,369.2c29,55.4,45.8,97.9,56.5,160.4C623.6,546.4,615.6,571.3,610.2,579.4Z"/></g></g></svg>