<svg xmlns="http://www.w3.org/2000/svg" viewBox="0 0 576 576.5"><defs><style>.cls-1{fill:#fff;}.cls-2{fill:#ff8b00;}</style></defs><g id="Layer_2" data-name="Layer 2"><g id="Layer_1-2" data-name="Layer 1"><path class="cls-1" d="M576,96.5V287.2a7.1,7.1,0,0,1-4,6.4,7.8,7.8,0,0,1-3.6.8,7.6,7.6,0,0,1-6.6-4A657.7,657.7,0,0,0,443.3,130.8,661.9,661.9,0,0,0,282.5,13.2c-3.1-1.6-3.8-6-3-7.6S282.3,0,285.8,0H477.6C531.8,0,576,42.8,576,96.5Z"/><path class="cls-1" d="M309.2,567.7a25.8,25.8,0,0,1-19.4,8.8H98.2C44,576.5,0,532.8,0,479.1V288.9a25.5,25.5,0,0,1,29.1-25.3,337.5,337.5,0,0,1,104.5,32.2A336.1,336.1,0,0,1,220.2,358a332.4,332.4,0,0,1,62.6,85.9,328.8,328.8,0,0,1,32.4,103.7A25,25,0,0,1,309.2,567.7Z"/><path class="cls-2" d="M560.9,530c-20,30.1-50.3,46.2-84.3,46.2l-52-.2c-24.2,0-45.1-17.7-48.7-41.2C349.9,365.4,212.6,229.2,42,203.5,18.4,199.9.1,179.1.1,155.1V95.4c0-24.8,12.8-50,29.1-66.3S62.3,3.9,81.1,6.6A601.2,601.2,0,0,1,258.6,65.5,599.2,599.2,0,0,1,406.4,173.1,594,594,0,0,1,514.8,319.8c29.1,55.3,45.9,97.9,56.5,160.4C574.2,497,566.2,521.9,560.9,530Z"/></g></g></svg>