<svg xmlns="http://www.w3.org/2000/svg" viewBox="0 0 1762.2 576.5"><defs><style>.cls-1{fill:#fff;}.cls-2{fill:#ff8b00;}</style></defs><g id="Layer_2" data-name="Layer 2"><g id="Layer_1-2" data-name="Layer 1"><path class="cls-1" d="M1130.9,233.1h23.4c9.6,0,11.1,9.1,11.1,14.9V412.5c0,5.8-5,10.5-11.1,10.5h-22.8a10.9,10.9,0,0,1-11.1-9.6l-1.4-22.1c-10.7,21.1-40.2,31.4-61.3,31.7-56,.4-97.4-32.5-97.4-95.7s43.3-94.5,98.5-94.2c25.3,0,49.5,11.3,60.2,29.2v-8.9C1120.5,243.3,1120.2,233.1,1130.9,233.1Zm-123.8,94.2c0,36.4,28,57.2,61.6,54.6,68-5.4,67.9-103.6-.1-108.8C1035,270.6,1007.1,291,1007.1,327.3Z"/><path class="cls-1" d="M942.3,286.1C943.5,354.2,901.9,423,807.7,423H713.1A11.1,11.1,0,0,1,702,411.9V165a11.1,11.1,0,0,1,11.1-11.1h94.6C900,153.9,941.2,219.6,942.3,286.1Zm-189.9,77a11.1,11.1,0,0,0,11.1,11.1h44.2c61.2,0,85.4-44.6,84.3-88.4-1.2-42-25.8-83.9-84.3-83.9H763.5A11.1,11.1,0,0,0,752.4,213Z"/><path class="cls-1" d="M1349.5,423a11.1,11.1,0,0,1-11.1-11.1V323.8c0-28.3-15.2-49.9-44.1-50.7s-50.1,22.9-50.1,50.6v88.2a11.1,11.1,0,0,1-11.1,11.1h-24.3a11,11,0,0,1-11.1-11.1V244.2a11,11,0,0,1,11.1-11.1h20.9a11,11,0,0,1,11,9.8l2,15.9c19.2-18.8,38.4-25.7,62.2-25.7,44.7,0,80.4,30.7,80.4,90.3v88.5a11,11,0,0,1-11.1,11.1Z"/><path class="cls-1" d="M1470.7,180.4c0,36.6-55.4,36.6-55.4,0S1470.7,143.9,1470.7,180.4Zm-51.1,63.8V412.4a11.1,11.1,0,0,0,11,11.1h24.8a11.1,11.1,0,0,0,11.1-11.1V244.2a11.1,11.1,0,0,0-11.1-11.1h-24.8A11.1,11.1,0,0,0,1419.6,244.2Z"/><path class="cls-1" d="M1541.3,350.4c6.4,21.6,30,35.4,65.8,30.6,10.1-1.4,19.4-6,28.3-10.9a10.3,10.3,0,0,1,12.4,1.7l13.7,13.5a10.5,10.5,0,0,1-1.1,15.9c-18.8,14.2-44.6,21.1-67.9,21.1-61.7,0-98.4-38.2-98.4-95.5,0-54.5,37.1-93.7,95.2-93.7s93.7,33.6,91.1,100.6a10.5,10.5,0,0,1-10.5,10.1H1546.3A5.2,5.2,0,0,0,1541.3,350.4Zm89.5-43.3a5.3,5.3,0,0,0,5.1-6.6c-5.3-18.8-22.3-28.2-45.2-28.2-21.3,0-39.1,9.2-47.4,27.5a5.2,5.2,0,0,0,4.8,7.3Z"/><path class="cls-1" d="M1762.2,165.3V411.9a11.1,11.1,0,0,1-11.1,11.1h-24.4a11.1,11.1,0,0,1-11.1-11.1V165.3a11.1,11.1,0,0,1,11.1-11.1h24.4A11.1,11.1,0,0,1,1762.2,165.3Z"/><path class="cls-1" d="M576,96.5V287.2a7.1,7.1,0,0,1-4,6.4,7.8,7.8,0,0,1-3.6.8,7.6,7.6,0,0,1-6.6-4A657.7,657.7,0,0,0,443.3,130.8,661.9,661.9,0,0,0,282.5,13.2c-3.1-1.6-3.8-6-3-7.6S282.3,0,285.8,0H477.6C531.8,0,576,42.8,576,96.5Z"/><path class="cls-1" d="M309.2,567.7a25.8,25.8,0,0,1-19.4,8.8H98.2C44,576.5,0,532.8,0,479.1V288.9a25.5,25.5,0,0,1,29.1-25.3,337.5,337.5,0,0,1,104.5,32.2A336.1,336.1,0,0,1,220.2,358a332.4,332.4,0,0,1,62.6,85.9,328.8,328.8,0,0,1,32.4,103.7A25,25,0,0,1,309.2,567.7Z"/><path class="cls-2" d="M560.9,530c-20,30.1-50.3,46.2-84.3,46.2l-52-.2c-24.2,0-45.1-17.7-48.7-41.2C349.9,365.4,212.6,229.2,42,203.5,18.4,199.9.1,179.1.1,155.1V95.4c0-24.8,12.8-50,29.1-66.3S62.3,3.9,81.1,6.6A601.2,601.2,0,0,1,258.6,65.5,599.2,599.2,0,0,1,406.4,173.1,594,594,0,0,1,514.8,319.8c29.1,55.3,45.9,97.9,56.5,160.4C574.2,497,566.2,521.9,560.9,530Z"/></g></g></svg>