<svg width="114" height="27" viewBox="0 0 114 27" fill="none" xmlns="http://www.w3.org/2000/svg">
<path d="M2.31201 26C3.62401 22.843 4.93601 20.219 6.04301 18.087C6.69901 18.333 7.56001 18.415 8.79001 18.251C13.915 17.554 18.261 14.192 20.311 10.994C21.746 8.821 22.525 6.771 21.582 3.901C20.598 0.908001 18.589 0.334003 16.334 0.416003C14.776 0.498003 13.341 0.867002 11.865 1.4C10.348 1.933 8.79001 2.466 7.23201 2.589C6.33001 2.671 6.16601 3.04 6.45301 3.655C6.82201 4.475 7.51901 5.172 8.83101 5.459C5.30501 11.035 1.61501 18.415 0.590008 21.941C0.385008 22.679 0.303009 23.417 0.303009 23.991C0.303009 25.016 0.631008 25.672 1.08201 26.164C1.65601 26.738 1.98401 26.738 2.31201 26ZM7.64201 15.012C9.81208 11.2049 10.3206 10.2966 10.6776 9.69385L10.758 9.559C11.701 7.837 12.275 6.197 12.316 5.172C12.89 5.008 13.218 4.885 13.874 4.639C15.268 4.147 16.785 3.614 17.728 3.614C18.261 3.614 18.876 3.901 19.04 4.434C19.778 7.181 15.801 13.167 7.64201 15.012ZM25.764 26.656C28.962 26.615 32.242 24.688 33.964 22.187C34.702 21.08 34.661 19.891 34.538 19.522C34.21 18.702 33.677 18.784 33.226 19.44C31.545 21.982 28.798 25.016 25.682 25.016C24.452 25.016 23.714 23.745 23.714 21.941C23.714 21.203 23.837 20.342 24.083 19.522C25.026 20.137 26.01 20.424 26.994 20.424C30.602 20.424 33.349 16.119 33.349 13.659C33.349 13.126 33.185 12.511 32.939 12.142C32.365 11.322 31.545 10.666 30.397 10.01C29.987 9.764 29.536 9.682 28.962 9.682C26.584 9.682 23.263 11.855 21.131 16.201C20.27 17.841 19.86 19.44 19.86 20.916C19.86 24.196 21.951 26.697 25.764 26.656ZM25.559 18.251C25.272 18.251 24.985 18.169 24.657 17.964C26.625 14.028 29.659 11.527 30.274 12.019C30.725 12.388 29.864 14.315 28.675 15.914C27.855 17.021 26.543 18.251 25.559 18.251ZM38.925 26.615C42.369 26.615 45.116 23.089 45.69 21.859C46.141 20.916 46.305 20.301 46.1 19.44C45.813 18.333 44.87 18.415 44.419 19.399C42.984 22.474 40.852 25.057 39.253 25.057C38.556 25.057 38.146 24.196 38.146 22.966C38.146 22.064 38.392 20.998 38.884 19.891C40.319 16.775 42.656 12.716 44.214 10.051C45.116 9.928 46.182 9.846 46.92 9.928C47.904 10.051 48.191 9.559 47.781 8.821C47.494 8.329 46.797 7.673 45.526 7.509C46.018 6.361 46.182 5.418 46.182 4.68C46.182 4.188 46.018 3.491 45.731 2.999C45.28 2.22 44.788 2.179 44.173 3.081C43.23 4.434 42.369 5.787 41.098 8.001C40.196 8.083 39.089 8.124 38.146 8.083C37.203 8.042 36.793 8.452 37.367 9.313C37.695 9.805 38.433 10.256 39.704 10.42C38.064 13.372 36.506 16.611 35.686 18.62C35.112 19.973 34.866 21.121 34.866 22.023C34.866 24.852 36.752 26.615 38.925 26.615ZM49.913 26.533C53.357 26.533 56.391 23.171 57.006 21.941C57.539 20.834 57.58 19.891 57.416 19.276C57.129 18.21 56.227 18.21 55.694 19.235C54.136 22.187 51.758 24.934 49.872 24.934C49.339 24.934 49.093 24.237 49.093 23.253C49.093 21.818 49.626 19.973 50.446 17.882C54.054 15.463 58.523 10.625 59.794 5.746C59.999 5.049 60.04 4.598 60.04 4.024C60.04 2.958 59.589 1.81 58.687 1.031C57.908 0.293002 57.17 0.539003 56.391 1.318C52.373 5.541 47.74 13.126 46.141 19.932C45.936 20.752 45.854 21.572 45.854 22.269C45.854 25.098 47.412 26.533 49.913 26.533ZM51.963 14.561C52.1475 14.1129 52.9589 12.6821 53.7982 11.238L54.0782 10.7574C54.4506 10.1196 54.8154 9.50043 55.12 8.985C56.514 6.566 57.58 4.967 57.744 5.049C57.99 5.213 57.457 7.017 56.063 9.354C55.12 10.953 53.726 12.839 51.963 14.561ZM75.374 26.246C78.203 21.736 80.95 18.538 84.763 13.905C86.116 12.306 86.485 11.24 86.485 10.256C86.485 9.231 85.952 9.067 85.009 9.969C82.59 12.47 78.162 18.169 75.21 22.679C76.358 17.185 77.342 13.823 77.342 12.798C77.342 11.568 76.85 10.584 75.907 9.764C75.292 9.272 74.595 9.231 74.308 10.215C73.652 12.798 72.627 15.053 70.987 15.914C70.987 13.741 70.413 12.798 69.634 12.019C69.388 11.773 69.183 11.609 69.019 11.363C68.076 10.092 67.338 9.764 65.903 9.846C63.402 10.051 60.655 12.47 59.138 15.135C58.113 16.939 57.416 19.153 57.416 20.875C57.416 22.105 57.826 23.417 58.605 24.442C59.753 25.918 61.188 26.492 62.459 26.492C66.395 26.492 69.675 21.531 70.659 17.718C71.274 17.595 72.012 17.349 72.586 17.021C72.176 19.317 71.848 21.449 71.766 22.884C71.684 25.057 72.299 25.877 73.98 26.738C74.8 27.107 75.087 26.738 75.374 26.246ZM67.871 15.709C67.42 15.176 67.215 14.11 67.215 13.372C67.215 12.716 67.584 12.388 67.83 12.388C68.117 12.388 68.445 12.634 68.445 13.249C68.445 13.782 68.281 14.766 67.871 15.709ZM61.557 24.401C61.024 24.401 60.573 23.95 60.573 22.679C60.573 21.203 61.27 18.825 62.336 16.98C63.033 15.75 63.894 14.684 64.673 13.864C65.083 15.053 66.149 16.406 67.215 17.062C66.928 17.964 66.436 19.03 65.78 20.137C64.304 22.884 62.623 24.401 61.557 24.401ZM107.067 26.615C109.486 26.615 112.52 24.852 113.545 22.31C114.078 21.162 113.955 20.014 113.75 19.563C113.34 18.661 112.725 18.825 112.356 19.604C111.126 22.474 108.789 24.975 107.313 24.975C106.739 24.975 106.411 24.278 106.411 23.212C106.411 22.72 106.534 21.982 106.698 21.449C107.436 19.358 109.445 16.57 111.208 14.52C111.7 13.987 111.905 13.454 111.905 12.962C111.905 11.937 111.208 10.83 110.675 10.133C110.183 9.477 109.609 9.764 108.953 10.174C107.6 11.035 106.534 11.609 105.386 11.896C105.837 10.543 106.165 9.313 106.165 8.452C106.165 7.55 105.837 7.017 104.976 7.017C103.582 7.058 100.835 10.051 100.835 12.224C100.835 12.962 101.245 13.577 101.983 14.028C99.81 19.03 95.546 24.934 91.446 24.934C90.298 24.934 89.56 23.704 89.56 21.818C89.56 21.08 89.683 20.219 89.929 19.399C90.872 20.055 91.856 20.301 92.84 20.301C94.644 20.301 96.202 19.276 97.391 17.8C98.498 16.365 99.113 14.684 99.113 13.495C99.113 13.003 98.949 12.511 98.744 12.142C98.088 11.322 97.309 10.707 96.202 10.01C95.792 9.764 95.341 9.682 94.808 9.682C92.471 9.682 89.109 11.978 86.977 16.16C86.157 17.8 85.747 19.44 85.747 20.875C85.747 24.114 87.838 26.574 91.61 26.533C96.612 26.451 100.999 21.449 104.361 14.438C105.263 14.397 106.288 14.233 107.395 13.741C105.755 15.668 104.156 17.923 103.459 20.137C103.172 20.998 103.049 21.736 103.049 22.392C103.049 24.811 104.484 26.615 107.067 26.615ZM91.405 18.128C91.118 18.128 90.831 18.046 90.503 17.882C90.585 17.677 90.667 17.513 90.872 17.144C92.553 13.823 95.341 11.445 96.079 12.019C96.489 12.347 95.546 14.356 94.398 15.832C93.578 16.939 92.471 18.128 91.405 18.128Z" fill="#56009B"/>
</svg>
