<svg id="Layer_1" data-name="Layer 1" xmlns="http://www.w3.org/2000/svg" viewBox="0 0 500 500"><defs><style>.cls-1{fill:#050e45;}.cls-2{fill:#6b40ea;}</style></defs><path class="cls-1" d="M103.28,308.74c0-9.53.22-19.06,0-28.58-.46-15.69,6.92-26.3,20.9-32.37,4.74-2.06,6.65-4.8,7.43-9.86,4.22-27.62,15.29-52.22,34.13-73,47.11-52,122.12-50.85,167.93,2.49,17.16,20,27.54,43.19,31.68,69.11.89,5.54,2.78,8.7,8.37,10.83,14.82,5.65,22.71,16.39,22.4,32.89-.36,19.31,0,38.64-.12,58-.16,21-15.81,35.24-38.51,35.41-23,.18-39.3-14.22-39.5-35.31-.18-19.32.2-38.65-.12-58-.27-15.63,6.72-26.44,20.74-32.5,5.52-2.38,6.7-5.28,5.55-11-4.31-21.2-12.77-40.33-27.11-56.62-38.3-43.5-97.65-43.76-136.24-.55-14.64,16.39-23.34,35.73-27.7,57.19-1.09,5.35.23,8,5.63,10,15.19,5.74,23.1,16.67,22.75,33.47-.39,18.79,0,37.58-.1,56.37-.07,18.5-9.11,30.4-27,35.26-12.34,3.35-24.23,1.87-35.18-4.8C109,361,103.31,351.93,103.3,339.7v-31Zm271.69.07c0-9.77.11-19.55,0-29.31-.14-9.17-6.94-14.67-17.8-14.71s-17.89,5.4-17.95,14.46q-.21,29.31,0,58.63c.06,9.25,6.77,14.68,17.68,14.75,10.73.06,17.9-5.55,18.07-14.51C375.11,328.36,375,318.58,375,308.81Zm-214.66.28v-28.5c0-.27,0-.53,0-.8-.28-9.52-7.21-15.17-18.36-15-10.94.18-17.34,5.56-17.39,15q-.17,28.89,0,57.8c0,9.47,6.43,14.86,17.35,15,11.07.17,18.22-5.56,18.37-15S160.3,318.6,160.31,309.09Z"/><path class="cls-1" d="M246,367.79c-25.81.06-48.11-18.45-52.17-43.3-1.39-8.51.83-10.68,8.69-7.85,29.41,10.6,58.67,12.79,88-.36,6.05-2.71,8.32-.22,7.46,7.13C295.14,348.05,272.07,367.74,246,367.79Z"/><path class="cls-1" d="M45.15,308.83c0-12.15-.11-24.3,0-36.45.1-7.89,3.91-12.41,10.13-12.62,6.51-.22,10.85,4.49,10.91,12.7q.22,36,0,72.1c0,8.34-4.15,13.07-10.59,13s-10.39-4.75-10.48-13.11C45.05,332.6,45.14,320.71,45.15,308.83Z"/><path class="cls-1" d="M454.84,309.13c0,11.88.11,23.77,0,35.65-.1,8.26-4.21,13-10.75,12.8-6.23-.15-10.19-4.61-10.24-12.53q-.21-36.45,0-72.89c.05-7.89,4.07-12.31,10.36-12.39,6.57-.09,10.53,4.54,10.62,12.91C454.94,284.83,454.85,297,454.84,309.13Z"/><path class="cls-1" d="M76.9,308.37c0-6.06-.14-12.13,0-18.19.19-6.42,3.43-10.48,10.06-11,6-.46,10.63,3.95,10.81,11q.47,18.57,0,37.17c-.17,7-4.83,11.51-10.82,11-6.6-.54-9.86-4.61-10-11S76.9,314.7,76.9,308.37Z"/><path class="cls-1" d="M423.12,308.82c0,6.33.21,12.66-.06,19s-3.84,10.55-10.43,10.52-10.22-4.17-10.35-10.61q-.36-19,0-38c.14-6.45,3.83-10.54,10.44-10.5s10.11,4.09,10.34,10.59C423.3,296.16,423.12,302.49,423.12,308.82Z"/><path class="cls-1" d="M282.49,255.88c3.19.08,4.69.64,5.29,2.33a4.36,4.36,0,0,1-2,5.48q-5.38,3.36-10.92,6.47c-4.17,2.34-3.85,4.41.1,6.62,3.46,1.93,6.86,4,10.24,6.05,2.2,1.34,3.85,3.2,2.55,5.88-1.54,3.17-4.23,2.72-6.76,1.3-7.13-4-14.25-8.09-21.29-12.29-2.41-1.44-4.75-4.16-2.23-6.43C265.17,264.38,274.84,260.55,282.49,255.88Z"/><path class="cls-1" d="M234.92,273.29c-.1,2.41-1.66,3.8-3.53,4.89q-9.91,5.74-19.89,11.42c-2.44,1.38-5.25,2.27-7-.58-2.07-3.33.54-5.15,3-7,4.17-3,11.92-4,11.93-9,0-4.17-7.56-5.55-11.67-8.31-2.54-1.69-5.29-3.5-3.42-6.85s5-1.89,7.57-.43q9.63,5.46,19.2,11C233,269.6,234.61,271,234.92,273.29Z"/><path class="cls-2" d="M375,308.81c0,9.77.15,19.55,0,29.31-.17,9-7.34,14.57-18.07,14.51-10.91-.07-17.62-5.5-17.68-14.75q-.18-29.31,0-58.63c.06-9.06,7-14.5,17.95-14.46s17.66,5.54,17.8,14.71C375.08,289.26,375,299,375,308.81Z"/><path class="cls-2" d="M160.3,309.09c0,9.51.12,19,0,28.51s-7.3,15.19-18.37,15c-10.92-.17-17.3-5.56-17.35-15q-.15-28.9,0-57.8c0-9.43,6.45-14.81,17.39-15,11.15-.18,18.08,5.47,18.36,15,0,.27,0,.53,0,.8Q160.31,294.84,160.3,309.09Z"/><path class="cls-2" d="M0,0V500H500V0ZM66.24,344.56c0,8.34-4.15,13.07-10.59,13s-10.39-4.75-10.48-13.11c-.12-11.88,0-23.77,0-35.65,0-12.15-.1-24.3,0-36.45.1-7.89,3.91-12.41,10.13-12.62,6.51-.22,10.85,4.49,10.91,12.7Q66.45,308.51,66.24,344.56ZM97.8,327.37c-.17,7-4.83,11.51-10.82,11-6.6-.54-9.86-4.61-10-11s0-12.66,0-19c0-6.06-.14-12.13,0-18.19.19-6.42,3.43-10.48,10.06-11,6-.46,10.63,3.95,10.81,11Q98.28,308.77,97.8,327.37Zm200.22-4c-2.88,24.64-25.95,44.33-52,44.38-25.81.06-48.11-18.45-52.17-43.3-1.39-8.51.83-10.68,8.69-7.85,29.41,10.6,58.67,12.79,88-.36C296.61,313.57,298.88,316.06,298,323.41Zm-90.23-58.63c-2.54-1.69-5.29-3.5-3.42-6.85s5-1.89,7.57-.43q9.63,5.46,19.2,11c1.87,1.08,3.47,2.43,3.77,4.77-.09,2.41-1.65,3.8-3.52,4.89q-9.91,5.74-19.89,11.42c-2.44,1.38-5.25,2.27-7-.58-2.07-3.33.54-5.15,3-7,4.17-3,11.92-4,11.93-9C219.46,268.92,211.9,267.54,207.79,264.78Zm67.15,12c3.46,1.93,6.86,4,10.24,6.05,2.2,1.34,3.85,3.2,2.55,5.88-1.54,3.17-4.23,2.72-6.76,1.3-7.13-4-14.25-8.09-21.29-12.29-2.41-1.44-4.75-4.16-2.23-6.43,7.72-6.91,17.39-10.74,25-15.41,3.19.08,4.69.64,5.29,2.33a4.36,4.36,0,0,1-2,5.48q-5.38,3.36-10.92,6.47C270.67,272.5,271,274.57,274.94,276.78ZM396,338.2c-.16,21-15.81,35.24-38.51,35.41-23,.18-39.3-14.22-39.5-35.31-.18-19.32.2-38.65-.12-58-.27-15.63,6.72-26.44,20.74-32.5,5.52-2.38,6.7-5.28,5.55-11-4.31-21.2-12.77-40.33-27.11-56.62-38.3-43.5-97.65-43.76-136.24-.55-14.64,16.39-23.34,35.73-27.7,57.19-1.09,5.35.23,8,5.63,10,15.19,5.74,23.1,16.67,22.75,33.47-.39,18.79,0,37.58-.1,56.37-.07,18.5-9.11,30.4-27,35.26-12.34,3.35-24.23,1.87-35.18-4.8C109,361,103.31,351.93,103.3,339.7v-31h0c0-9.53.22-19.06,0-28.58-.46-15.69,6.92-26.3,20.9-32.37,4.74-2.06,6.65-4.8,7.43-9.86,4.22-27.62,15.29-52.22,34.13-73,47.11-52,122.12-50.85,167.93,2.49,17.16,20,27.54,43.19,31.68,69.11.89,5.54,2.78,8.7,8.37,10.83,14.82,5.65,22.71,16.39,22.4,32.89C395.71,299.55,396.1,318.88,396,338.2Zm27.11-10.4c-.28,6.46-3.84,10.55-10.43,10.52s-10.22-4.17-10.35-10.61q-.36-19,0-38c.14-6.45,3.83-10.54,10.44-10.5s10.11,4.09,10.34,10.59c.23,6.32.05,12.65.05,19S423.33,321.48,423.06,327.8Zm31.75,17c-.1,8.26-4.21,13-10.75,12.8-6.23-.15-10.19-4.61-10.24-12.53q-.21-36.45,0-72.89c.05-7.89,4.07-12.31,10.36-12.39,6.57-.09,10.53,4.54,10.62,12.91.13,12.15,0,24.3,0,36.45C454.84,321,455,332.9,454.81,344.78Z"/></svg>